G75*
%MOIN*%
%OFA0B0*%
%FSLAX25Y25*%
%IPPOS*%
%LPD*%
%AMOC8*
5,1,8,0,0,1.08239X$1,22.5*
%
%ADD10C,0.00000*%
%ADD11C,0.07677*%
%ADD12C,0.11811*%
%ADD13C,0.07400*%
%ADD14R,0.07400X0.07400*%
%ADD15C,0.05622*%
%ADD16C,0.07677*%
%ADD17C,0.01000*%
%ADD18C,0.02770*%
%ADD19C,0.02400*%
%ADD20C,0.00800*%
%ADD21C,0.03200*%
%ADD22C,0.01600*%
%ADD23C,0.01200*%
D10*
X0002050Y0016291D02*
X0002050Y0316291D01*
X0352050Y0316291D01*
X0352050Y0016291D01*
X0002050Y0016291D01*
X0010751Y0031291D02*
X0010753Y0031449D01*
X0010759Y0031607D01*
X0010769Y0031765D01*
X0010783Y0031923D01*
X0010801Y0032080D01*
X0010822Y0032237D01*
X0010848Y0032393D01*
X0010878Y0032549D01*
X0010911Y0032704D01*
X0010949Y0032857D01*
X0010990Y0033010D01*
X0011035Y0033162D01*
X0011084Y0033313D01*
X0011137Y0033462D01*
X0011193Y0033610D01*
X0011253Y0033756D01*
X0011317Y0033901D01*
X0011385Y0034044D01*
X0011456Y0034186D01*
X0011530Y0034326D01*
X0011608Y0034463D01*
X0011690Y0034599D01*
X0011774Y0034733D01*
X0011863Y0034864D01*
X0011954Y0034993D01*
X0012049Y0035120D01*
X0012146Y0035245D01*
X0012247Y0035367D01*
X0012351Y0035486D01*
X0012458Y0035603D01*
X0012568Y0035717D01*
X0012681Y0035828D01*
X0012796Y0035937D01*
X0012914Y0036042D01*
X0013035Y0036144D01*
X0013158Y0036244D01*
X0013284Y0036340D01*
X0013412Y0036433D01*
X0013542Y0036523D01*
X0013675Y0036609D01*
X0013810Y0036693D01*
X0013946Y0036772D01*
X0014085Y0036849D01*
X0014226Y0036921D01*
X0014368Y0036991D01*
X0014512Y0037056D01*
X0014658Y0037118D01*
X0014805Y0037176D01*
X0014954Y0037231D01*
X0015104Y0037282D01*
X0015255Y0037329D01*
X0015407Y0037372D01*
X0015560Y0037411D01*
X0015715Y0037447D01*
X0015870Y0037478D01*
X0016026Y0037506D01*
X0016182Y0037530D01*
X0016339Y0037550D01*
X0016497Y0037566D01*
X0016654Y0037578D01*
X0016813Y0037586D01*
X0016971Y0037590D01*
X0017129Y0037590D01*
X0017287Y0037586D01*
X0017446Y0037578D01*
X0017603Y0037566D01*
X0017761Y0037550D01*
X0017918Y0037530D01*
X0018074Y0037506D01*
X0018230Y0037478D01*
X0018385Y0037447D01*
X0018540Y0037411D01*
X0018693Y0037372D01*
X0018845Y0037329D01*
X0018996Y0037282D01*
X0019146Y0037231D01*
X0019295Y0037176D01*
X0019442Y0037118D01*
X0019588Y0037056D01*
X0019732Y0036991D01*
X0019874Y0036921D01*
X0020015Y0036849D01*
X0020154Y0036772D01*
X0020290Y0036693D01*
X0020425Y0036609D01*
X0020558Y0036523D01*
X0020688Y0036433D01*
X0020816Y0036340D01*
X0020942Y0036244D01*
X0021065Y0036144D01*
X0021186Y0036042D01*
X0021304Y0035937D01*
X0021419Y0035828D01*
X0021532Y0035717D01*
X0021642Y0035603D01*
X0021749Y0035486D01*
X0021853Y0035367D01*
X0021954Y0035245D01*
X0022051Y0035120D01*
X0022146Y0034993D01*
X0022237Y0034864D01*
X0022326Y0034733D01*
X0022410Y0034599D01*
X0022492Y0034463D01*
X0022570Y0034326D01*
X0022644Y0034186D01*
X0022715Y0034044D01*
X0022783Y0033901D01*
X0022847Y0033756D01*
X0022907Y0033610D01*
X0022963Y0033462D01*
X0023016Y0033313D01*
X0023065Y0033162D01*
X0023110Y0033010D01*
X0023151Y0032857D01*
X0023189Y0032704D01*
X0023222Y0032549D01*
X0023252Y0032393D01*
X0023278Y0032237D01*
X0023299Y0032080D01*
X0023317Y0031923D01*
X0023331Y0031765D01*
X0023341Y0031607D01*
X0023347Y0031449D01*
X0023349Y0031291D01*
X0023347Y0031133D01*
X0023341Y0030975D01*
X0023331Y0030817D01*
X0023317Y0030659D01*
X0023299Y0030502D01*
X0023278Y0030345D01*
X0023252Y0030189D01*
X0023222Y0030033D01*
X0023189Y0029878D01*
X0023151Y0029725D01*
X0023110Y0029572D01*
X0023065Y0029420D01*
X0023016Y0029269D01*
X0022963Y0029120D01*
X0022907Y0028972D01*
X0022847Y0028826D01*
X0022783Y0028681D01*
X0022715Y0028538D01*
X0022644Y0028396D01*
X0022570Y0028256D01*
X0022492Y0028119D01*
X0022410Y0027983D01*
X0022326Y0027849D01*
X0022237Y0027718D01*
X0022146Y0027589D01*
X0022051Y0027462D01*
X0021954Y0027337D01*
X0021853Y0027215D01*
X0021749Y0027096D01*
X0021642Y0026979D01*
X0021532Y0026865D01*
X0021419Y0026754D01*
X0021304Y0026645D01*
X0021186Y0026540D01*
X0021065Y0026438D01*
X0020942Y0026338D01*
X0020816Y0026242D01*
X0020688Y0026149D01*
X0020558Y0026059D01*
X0020425Y0025973D01*
X0020290Y0025889D01*
X0020154Y0025810D01*
X0020015Y0025733D01*
X0019874Y0025661D01*
X0019732Y0025591D01*
X0019588Y0025526D01*
X0019442Y0025464D01*
X0019295Y0025406D01*
X0019146Y0025351D01*
X0018996Y0025300D01*
X0018845Y0025253D01*
X0018693Y0025210D01*
X0018540Y0025171D01*
X0018385Y0025135D01*
X0018230Y0025104D01*
X0018074Y0025076D01*
X0017918Y0025052D01*
X0017761Y0025032D01*
X0017603Y0025016D01*
X0017446Y0025004D01*
X0017287Y0024996D01*
X0017129Y0024992D01*
X0016971Y0024992D01*
X0016813Y0024996D01*
X0016654Y0025004D01*
X0016497Y0025016D01*
X0016339Y0025032D01*
X0016182Y0025052D01*
X0016026Y0025076D01*
X0015870Y0025104D01*
X0015715Y0025135D01*
X0015560Y0025171D01*
X0015407Y0025210D01*
X0015255Y0025253D01*
X0015104Y0025300D01*
X0014954Y0025351D01*
X0014805Y0025406D01*
X0014658Y0025464D01*
X0014512Y0025526D01*
X0014368Y0025591D01*
X0014226Y0025661D01*
X0014085Y0025733D01*
X0013946Y0025810D01*
X0013810Y0025889D01*
X0013675Y0025973D01*
X0013542Y0026059D01*
X0013412Y0026149D01*
X0013284Y0026242D01*
X0013158Y0026338D01*
X0013035Y0026438D01*
X0012914Y0026540D01*
X0012796Y0026645D01*
X0012681Y0026754D01*
X0012568Y0026865D01*
X0012458Y0026979D01*
X0012351Y0027096D01*
X0012247Y0027215D01*
X0012146Y0027337D01*
X0012049Y0027462D01*
X0011954Y0027589D01*
X0011863Y0027718D01*
X0011774Y0027849D01*
X0011690Y0027983D01*
X0011608Y0028119D01*
X0011530Y0028256D01*
X0011456Y0028396D01*
X0011385Y0028538D01*
X0011317Y0028681D01*
X0011253Y0028826D01*
X0011193Y0028972D01*
X0011137Y0029120D01*
X0011084Y0029269D01*
X0011035Y0029420D01*
X0010990Y0029572D01*
X0010949Y0029725D01*
X0010911Y0029878D01*
X0010878Y0030033D01*
X0010848Y0030189D01*
X0010822Y0030345D01*
X0010801Y0030502D01*
X0010783Y0030659D01*
X0010769Y0030817D01*
X0010759Y0030975D01*
X0010753Y0031133D01*
X0010751Y0031291D01*
X0061300Y0150291D02*
X0061302Y0150463D01*
X0061308Y0150634D01*
X0061319Y0150806D01*
X0061334Y0150977D01*
X0061353Y0151148D01*
X0061376Y0151318D01*
X0061403Y0151488D01*
X0061435Y0151657D01*
X0061470Y0151825D01*
X0061510Y0151992D01*
X0061554Y0152158D01*
X0061601Y0152323D01*
X0061653Y0152487D01*
X0061709Y0152649D01*
X0061769Y0152810D01*
X0061833Y0152970D01*
X0061901Y0153128D01*
X0061972Y0153284D01*
X0062047Y0153438D01*
X0062127Y0153591D01*
X0062209Y0153741D01*
X0062296Y0153890D01*
X0062386Y0154036D01*
X0062480Y0154180D01*
X0062577Y0154322D01*
X0062678Y0154461D01*
X0062782Y0154598D01*
X0062889Y0154732D01*
X0063000Y0154863D01*
X0063113Y0154992D01*
X0063230Y0155118D01*
X0063350Y0155241D01*
X0063473Y0155361D01*
X0063599Y0155478D01*
X0063728Y0155591D01*
X0063859Y0155702D01*
X0063993Y0155809D01*
X0064130Y0155913D01*
X0064269Y0156014D01*
X0064411Y0156111D01*
X0064555Y0156205D01*
X0064701Y0156295D01*
X0064850Y0156382D01*
X0065000Y0156464D01*
X0065153Y0156544D01*
X0065307Y0156619D01*
X0065463Y0156690D01*
X0065621Y0156758D01*
X0065781Y0156822D01*
X0065942Y0156882D01*
X0066104Y0156938D01*
X0066268Y0156990D01*
X0066433Y0157037D01*
X0066599Y0157081D01*
X0066766Y0157121D01*
X0066934Y0157156D01*
X0067103Y0157188D01*
X0067273Y0157215D01*
X0067443Y0157238D01*
X0067614Y0157257D01*
X0067785Y0157272D01*
X0067957Y0157283D01*
X0068128Y0157289D01*
X0068300Y0157291D01*
X0068472Y0157289D01*
X0068643Y0157283D01*
X0068815Y0157272D01*
X0068986Y0157257D01*
X0069157Y0157238D01*
X0069327Y0157215D01*
X0069497Y0157188D01*
X0069666Y0157156D01*
X0069834Y0157121D01*
X0070001Y0157081D01*
X0070167Y0157037D01*
X0070332Y0156990D01*
X0070496Y0156938D01*
X0070658Y0156882D01*
X0070819Y0156822D01*
X0070979Y0156758D01*
X0071137Y0156690D01*
X0071293Y0156619D01*
X0071447Y0156544D01*
X0071600Y0156464D01*
X0071750Y0156382D01*
X0071899Y0156295D01*
X0072045Y0156205D01*
X0072189Y0156111D01*
X0072331Y0156014D01*
X0072470Y0155913D01*
X0072607Y0155809D01*
X0072741Y0155702D01*
X0072872Y0155591D01*
X0073001Y0155478D01*
X0073127Y0155361D01*
X0073250Y0155241D01*
X0073370Y0155118D01*
X0073487Y0154992D01*
X0073600Y0154863D01*
X0073711Y0154732D01*
X0073818Y0154598D01*
X0073922Y0154461D01*
X0074023Y0154322D01*
X0074120Y0154180D01*
X0074214Y0154036D01*
X0074304Y0153890D01*
X0074391Y0153741D01*
X0074473Y0153591D01*
X0074553Y0153438D01*
X0074628Y0153284D01*
X0074699Y0153128D01*
X0074767Y0152970D01*
X0074831Y0152810D01*
X0074891Y0152649D01*
X0074947Y0152487D01*
X0074999Y0152323D01*
X0075046Y0152158D01*
X0075090Y0151992D01*
X0075130Y0151825D01*
X0075165Y0151657D01*
X0075197Y0151488D01*
X0075224Y0151318D01*
X0075247Y0151148D01*
X0075266Y0150977D01*
X0075281Y0150806D01*
X0075292Y0150634D01*
X0075298Y0150463D01*
X0075300Y0150291D01*
X0075298Y0150119D01*
X0075292Y0149948D01*
X0075281Y0149776D01*
X0075266Y0149605D01*
X0075247Y0149434D01*
X0075224Y0149264D01*
X0075197Y0149094D01*
X0075165Y0148925D01*
X0075130Y0148757D01*
X0075090Y0148590D01*
X0075046Y0148424D01*
X0074999Y0148259D01*
X0074947Y0148095D01*
X0074891Y0147933D01*
X0074831Y0147772D01*
X0074767Y0147612D01*
X0074699Y0147454D01*
X0074628Y0147298D01*
X0074553Y0147144D01*
X0074473Y0146991D01*
X0074391Y0146841D01*
X0074304Y0146692D01*
X0074214Y0146546D01*
X0074120Y0146402D01*
X0074023Y0146260D01*
X0073922Y0146121D01*
X0073818Y0145984D01*
X0073711Y0145850D01*
X0073600Y0145719D01*
X0073487Y0145590D01*
X0073370Y0145464D01*
X0073250Y0145341D01*
X0073127Y0145221D01*
X0073001Y0145104D01*
X0072872Y0144991D01*
X0072741Y0144880D01*
X0072607Y0144773D01*
X0072470Y0144669D01*
X0072331Y0144568D01*
X0072189Y0144471D01*
X0072045Y0144377D01*
X0071899Y0144287D01*
X0071750Y0144200D01*
X0071600Y0144118D01*
X0071447Y0144038D01*
X0071293Y0143963D01*
X0071137Y0143892D01*
X0070979Y0143824D01*
X0070819Y0143760D01*
X0070658Y0143700D01*
X0070496Y0143644D01*
X0070332Y0143592D01*
X0070167Y0143545D01*
X0070001Y0143501D01*
X0069834Y0143461D01*
X0069666Y0143426D01*
X0069497Y0143394D01*
X0069327Y0143367D01*
X0069157Y0143344D01*
X0068986Y0143325D01*
X0068815Y0143310D01*
X0068643Y0143299D01*
X0068472Y0143293D01*
X0068300Y0143291D01*
X0068128Y0143293D01*
X0067957Y0143299D01*
X0067785Y0143310D01*
X0067614Y0143325D01*
X0067443Y0143344D01*
X0067273Y0143367D01*
X0067103Y0143394D01*
X0066934Y0143426D01*
X0066766Y0143461D01*
X0066599Y0143501D01*
X0066433Y0143545D01*
X0066268Y0143592D01*
X0066104Y0143644D01*
X0065942Y0143700D01*
X0065781Y0143760D01*
X0065621Y0143824D01*
X0065463Y0143892D01*
X0065307Y0143963D01*
X0065153Y0144038D01*
X0065000Y0144118D01*
X0064850Y0144200D01*
X0064701Y0144287D01*
X0064555Y0144377D01*
X0064411Y0144471D01*
X0064269Y0144568D01*
X0064130Y0144669D01*
X0063993Y0144773D01*
X0063859Y0144880D01*
X0063728Y0144991D01*
X0063599Y0145104D01*
X0063473Y0145221D01*
X0063350Y0145341D01*
X0063230Y0145464D01*
X0063113Y0145590D01*
X0063000Y0145719D01*
X0062889Y0145850D01*
X0062782Y0145984D01*
X0062678Y0146121D01*
X0062577Y0146260D01*
X0062480Y0146402D01*
X0062386Y0146546D01*
X0062296Y0146692D01*
X0062209Y0146841D01*
X0062127Y0146991D01*
X0062047Y0147144D01*
X0061972Y0147298D01*
X0061901Y0147454D01*
X0061833Y0147612D01*
X0061769Y0147772D01*
X0061709Y0147933D01*
X0061653Y0148095D01*
X0061601Y0148259D01*
X0061554Y0148424D01*
X0061510Y0148590D01*
X0061470Y0148757D01*
X0061435Y0148925D01*
X0061403Y0149094D01*
X0061376Y0149264D01*
X0061353Y0149434D01*
X0061334Y0149605D01*
X0061319Y0149776D01*
X0061308Y0149948D01*
X0061302Y0150119D01*
X0061300Y0150291D01*
X0029788Y0212291D02*
X0029790Y0212439D01*
X0029796Y0212587D01*
X0029806Y0212735D01*
X0029820Y0212882D01*
X0029838Y0213029D01*
X0029859Y0213175D01*
X0029885Y0213321D01*
X0029915Y0213466D01*
X0029948Y0213610D01*
X0029986Y0213753D01*
X0030027Y0213895D01*
X0030072Y0214036D01*
X0030120Y0214176D01*
X0030173Y0214315D01*
X0030229Y0214452D01*
X0030289Y0214587D01*
X0030352Y0214721D01*
X0030419Y0214853D01*
X0030490Y0214983D01*
X0030564Y0215111D01*
X0030641Y0215237D01*
X0030722Y0215361D01*
X0030806Y0215483D01*
X0030893Y0215602D01*
X0030984Y0215719D01*
X0031078Y0215834D01*
X0031174Y0215946D01*
X0031274Y0216056D01*
X0031376Y0216162D01*
X0031482Y0216266D01*
X0031590Y0216367D01*
X0031701Y0216465D01*
X0031814Y0216561D01*
X0031930Y0216653D01*
X0032048Y0216742D01*
X0032169Y0216827D01*
X0032292Y0216910D01*
X0032417Y0216989D01*
X0032544Y0217065D01*
X0032673Y0217137D01*
X0032804Y0217206D01*
X0032937Y0217271D01*
X0033072Y0217332D01*
X0033208Y0217390D01*
X0033345Y0217445D01*
X0033484Y0217495D01*
X0033625Y0217542D01*
X0033766Y0217585D01*
X0033909Y0217625D01*
X0034053Y0217660D01*
X0034197Y0217692D01*
X0034343Y0217719D01*
X0034489Y0217743D01*
X0034636Y0217763D01*
X0034783Y0217779D01*
X0034930Y0217791D01*
X0035078Y0217799D01*
X0035226Y0217803D01*
X0035374Y0217803D01*
X0035522Y0217799D01*
X0035670Y0217791D01*
X0035817Y0217779D01*
X0035964Y0217763D01*
X0036111Y0217743D01*
X0036257Y0217719D01*
X0036403Y0217692D01*
X0036547Y0217660D01*
X0036691Y0217625D01*
X0036834Y0217585D01*
X0036975Y0217542D01*
X0037116Y0217495D01*
X0037255Y0217445D01*
X0037392Y0217390D01*
X0037528Y0217332D01*
X0037663Y0217271D01*
X0037796Y0217206D01*
X0037927Y0217137D01*
X0038056Y0217065D01*
X0038183Y0216989D01*
X0038308Y0216910D01*
X0038431Y0216827D01*
X0038552Y0216742D01*
X0038670Y0216653D01*
X0038786Y0216561D01*
X0038899Y0216465D01*
X0039010Y0216367D01*
X0039118Y0216266D01*
X0039224Y0216162D01*
X0039326Y0216056D01*
X0039426Y0215946D01*
X0039522Y0215834D01*
X0039616Y0215719D01*
X0039707Y0215602D01*
X0039794Y0215483D01*
X0039878Y0215361D01*
X0039959Y0215237D01*
X0040036Y0215111D01*
X0040110Y0214983D01*
X0040181Y0214853D01*
X0040248Y0214721D01*
X0040311Y0214587D01*
X0040371Y0214452D01*
X0040427Y0214315D01*
X0040480Y0214176D01*
X0040528Y0214036D01*
X0040573Y0213895D01*
X0040614Y0213753D01*
X0040652Y0213610D01*
X0040685Y0213466D01*
X0040715Y0213321D01*
X0040741Y0213175D01*
X0040762Y0213029D01*
X0040780Y0212882D01*
X0040794Y0212735D01*
X0040804Y0212587D01*
X0040810Y0212439D01*
X0040812Y0212291D01*
X0040810Y0212143D01*
X0040804Y0211995D01*
X0040794Y0211847D01*
X0040780Y0211700D01*
X0040762Y0211553D01*
X0040741Y0211407D01*
X0040715Y0211261D01*
X0040685Y0211116D01*
X0040652Y0210972D01*
X0040614Y0210829D01*
X0040573Y0210687D01*
X0040528Y0210546D01*
X0040480Y0210406D01*
X0040427Y0210267D01*
X0040371Y0210130D01*
X0040311Y0209995D01*
X0040248Y0209861D01*
X0040181Y0209729D01*
X0040110Y0209599D01*
X0040036Y0209471D01*
X0039959Y0209345D01*
X0039878Y0209221D01*
X0039794Y0209099D01*
X0039707Y0208980D01*
X0039616Y0208863D01*
X0039522Y0208748D01*
X0039426Y0208636D01*
X0039326Y0208526D01*
X0039224Y0208420D01*
X0039118Y0208316D01*
X0039010Y0208215D01*
X0038899Y0208117D01*
X0038786Y0208021D01*
X0038670Y0207929D01*
X0038552Y0207840D01*
X0038431Y0207755D01*
X0038308Y0207672D01*
X0038183Y0207593D01*
X0038056Y0207517D01*
X0037927Y0207445D01*
X0037796Y0207376D01*
X0037663Y0207311D01*
X0037528Y0207250D01*
X0037392Y0207192D01*
X0037255Y0207137D01*
X0037116Y0207087D01*
X0036975Y0207040D01*
X0036834Y0206997D01*
X0036691Y0206957D01*
X0036547Y0206922D01*
X0036403Y0206890D01*
X0036257Y0206863D01*
X0036111Y0206839D01*
X0035964Y0206819D01*
X0035817Y0206803D01*
X0035670Y0206791D01*
X0035522Y0206783D01*
X0035374Y0206779D01*
X0035226Y0206779D01*
X0035078Y0206783D01*
X0034930Y0206791D01*
X0034783Y0206803D01*
X0034636Y0206819D01*
X0034489Y0206839D01*
X0034343Y0206863D01*
X0034197Y0206890D01*
X0034053Y0206922D01*
X0033909Y0206957D01*
X0033766Y0206997D01*
X0033625Y0207040D01*
X0033484Y0207087D01*
X0033345Y0207137D01*
X0033208Y0207192D01*
X0033072Y0207250D01*
X0032937Y0207311D01*
X0032804Y0207376D01*
X0032673Y0207445D01*
X0032544Y0207517D01*
X0032417Y0207593D01*
X0032292Y0207672D01*
X0032169Y0207755D01*
X0032048Y0207840D01*
X0031930Y0207929D01*
X0031814Y0208021D01*
X0031701Y0208117D01*
X0031590Y0208215D01*
X0031482Y0208316D01*
X0031376Y0208420D01*
X0031274Y0208526D01*
X0031174Y0208636D01*
X0031078Y0208748D01*
X0030984Y0208863D01*
X0030893Y0208980D01*
X0030806Y0209099D01*
X0030722Y0209221D01*
X0030641Y0209345D01*
X0030564Y0209471D01*
X0030490Y0209599D01*
X0030419Y0209729D01*
X0030352Y0209861D01*
X0030289Y0209995D01*
X0030229Y0210130D01*
X0030173Y0210267D01*
X0030120Y0210406D01*
X0030072Y0210546D01*
X0030027Y0210687D01*
X0029986Y0210829D01*
X0029948Y0210972D01*
X0029915Y0211116D01*
X0029885Y0211261D01*
X0029859Y0211407D01*
X0029838Y0211553D01*
X0029820Y0211700D01*
X0029806Y0211847D01*
X0029796Y0211995D01*
X0029790Y0212143D01*
X0029788Y0212291D01*
X0010751Y0301291D02*
X0010753Y0301449D01*
X0010759Y0301607D01*
X0010769Y0301765D01*
X0010783Y0301923D01*
X0010801Y0302080D01*
X0010822Y0302237D01*
X0010848Y0302393D01*
X0010878Y0302549D01*
X0010911Y0302704D01*
X0010949Y0302857D01*
X0010990Y0303010D01*
X0011035Y0303162D01*
X0011084Y0303313D01*
X0011137Y0303462D01*
X0011193Y0303610D01*
X0011253Y0303756D01*
X0011317Y0303901D01*
X0011385Y0304044D01*
X0011456Y0304186D01*
X0011530Y0304326D01*
X0011608Y0304463D01*
X0011690Y0304599D01*
X0011774Y0304733D01*
X0011863Y0304864D01*
X0011954Y0304993D01*
X0012049Y0305120D01*
X0012146Y0305245D01*
X0012247Y0305367D01*
X0012351Y0305486D01*
X0012458Y0305603D01*
X0012568Y0305717D01*
X0012681Y0305828D01*
X0012796Y0305937D01*
X0012914Y0306042D01*
X0013035Y0306144D01*
X0013158Y0306244D01*
X0013284Y0306340D01*
X0013412Y0306433D01*
X0013542Y0306523D01*
X0013675Y0306609D01*
X0013810Y0306693D01*
X0013946Y0306772D01*
X0014085Y0306849D01*
X0014226Y0306921D01*
X0014368Y0306991D01*
X0014512Y0307056D01*
X0014658Y0307118D01*
X0014805Y0307176D01*
X0014954Y0307231D01*
X0015104Y0307282D01*
X0015255Y0307329D01*
X0015407Y0307372D01*
X0015560Y0307411D01*
X0015715Y0307447D01*
X0015870Y0307478D01*
X0016026Y0307506D01*
X0016182Y0307530D01*
X0016339Y0307550D01*
X0016497Y0307566D01*
X0016654Y0307578D01*
X0016813Y0307586D01*
X0016971Y0307590D01*
X0017129Y0307590D01*
X0017287Y0307586D01*
X0017446Y0307578D01*
X0017603Y0307566D01*
X0017761Y0307550D01*
X0017918Y0307530D01*
X0018074Y0307506D01*
X0018230Y0307478D01*
X0018385Y0307447D01*
X0018540Y0307411D01*
X0018693Y0307372D01*
X0018845Y0307329D01*
X0018996Y0307282D01*
X0019146Y0307231D01*
X0019295Y0307176D01*
X0019442Y0307118D01*
X0019588Y0307056D01*
X0019732Y0306991D01*
X0019874Y0306921D01*
X0020015Y0306849D01*
X0020154Y0306772D01*
X0020290Y0306693D01*
X0020425Y0306609D01*
X0020558Y0306523D01*
X0020688Y0306433D01*
X0020816Y0306340D01*
X0020942Y0306244D01*
X0021065Y0306144D01*
X0021186Y0306042D01*
X0021304Y0305937D01*
X0021419Y0305828D01*
X0021532Y0305717D01*
X0021642Y0305603D01*
X0021749Y0305486D01*
X0021853Y0305367D01*
X0021954Y0305245D01*
X0022051Y0305120D01*
X0022146Y0304993D01*
X0022237Y0304864D01*
X0022326Y0304733D01*
X0022410Y0304599D01*
X0022492Y0304463D01*
X0022570Y0304326D01*
X0022644Y0304186D01*
X0022715Y0304044D01*
X0022783Y0303901D01*
X0022847Y0303756D01*
X0022907Y0303610D01*
X0022963Y0303462D01*
X0023016Y0303313D01*
X0023065Y0303162D01*
X0023110Y0303010D01*
X0023151Y0302857D01*
X0023189Y0302704D01*
X0023222Y0302549D01*
X0023252Y0302393D01*
X0023278Y0302237D01*
X0023299Y0302080D01*
X0023317Y0301923D01*
X0023331Y0301765D01*
X0023341Y0301607D01*
X0023347Y0301449D01*
X0023349Y0301291D01*
X0023347Y0301133D01*
X0023341Y0300975D01*
X0023331Y0300817D01*
X0023317Y0300659D01*
X0023299Y0300502D01*
X0023278Y0300345D01*
X0023252Y0300189D01*
X0023222Y0300033D01*
X0023189Y0299878D01*
X0023151Y0299725D01*
X0023110Y0299572D01*
X0023065Y0299420D01*
X0023016Y0299269D01*
X0022963Y0299120D01*
X0022907Y0298972D01*
X0022847Y0298826D01*
X0022783Y0298681D01*
X0022715Y0298538D01*
X0022644Y0298396D01*
X0022570Y0298256D01*
X0022492Y0298119D01*
X0022410Y0297983D01*
X0022326Y0297849D01*
X0022237Y0297718D01*
X0022146Y0297589D01*
X0022051Y0297462D01*
X0021954Y0297337D01*
X0021853Y0297215D01*
X0021749Y0297096D01*
X0021642Y0296979D01*
X0021532Y0296865D01*
X0021419Y0296754D01*
X0021304Y0296645D01*
X0021186Y0296540D01*
X0021065Y0296438D01*
X0020942Y0296338D01*
X0020816Y0296242D01*
X0020688Y0296149D01*
X0020558Y0296059D01*
X0020425Y0295973D01*
X0020290Y0295889D01*
X0020154Y0295810D01*
X0020015Y0295733D01*
X0019874Y0295661D01*
X0019732Y0295591D01*
X0019588Y0295526D01*
X0019442Y0295464D01*
X0019295Y0295406D01*
X0019146Y0295351D01*
X0018996Y0295300D01*
X0018845Y0295253D01*
X0018693Y0295210D01*
X0018540Y0295171D01*
X0018385Y0295135D01*
X0018230Y0295104D01*
X0018074Y0295076D01*
X0017918Y0295052D01*
X0017761Y0295032D01*
X0017603Y0295016D01*
X0017446Y0295004D01*
X0017287Y0294996D01*
X0017129Y0294992D01*
X0016971Y0294992D01*
X0016813Y0294996D01*
X0016654Y0295004D01*
X0016497Y0295016D01*
X0016339Y0295032D01*
X0016182Y0295052D01*
X0016026Y0295076D01*
X0015870Y0295104D01*
X0015715Y0295135D01*
X0015560Y0295171D01*
X0015407Y0295210D01*
X0015255Y0295253D01*
X0015104Y0295300D01*
X0014954Y0295351D01*
X0014805Y0295406D01*
X0014658Y0295464D01*
X0014512Y0295526D01*
X0014368Y0295591D01*
X0014226Y0295661D01*
X0014085Y0295733D01*
X0013946Y0295810D01*
X0013810Y0295889D01*
X0013675Y0295973D01*
X0013542Y0296059D01*
X0013412Y0296149D01*
X0013284Y0296242D01*
X0013158Y0296338D01*
X0013035Y0296438D01*
X0012914Y0296540D01*
X0012796Y0296645D01*
X0012681Y0296754D01*
X0012568Y0296865D01*
X0012458Y0296979D01*
X0012351Y0297096D01*
X0012247Y0297215D01*
X0012146Y0297337D01*
X0012049Y0297462D01*
X0011954Y0297589D01*
X0011863Y0297718D01*
X0011774Y0297849D01*
X0011690Y0297983D01*
X0011608Y0298119D01*
X0011530Y0298256D01*
X0011456Y0298396D01*
X0011385Y0298538D01*
X0011317Y0298681D01*
X0011253Y0298826D01*
X0011193Y0298972D01*
X0011137Y0299120D01*
X0011084Y0299269D01*
X0011035Y0299420D01*
X0010990Y0299572D01*
X0010949Y0299725D01*
X0010911Y0299878D01*
X0010878Y0300033D01*
X0010848Y0300189D01*
X0010822Y0300345D01*
X0010801Y0300502D01*
X0010783Y0300659D01*
X0010769Y0300817D01*
X0010759Y0300975D01*
X0010753Y0301133D01*
X0010751Y0301291D01*
X0278800Y0212291D02*
X0278802Y0212463D01*
X0278808Y0212634D01*
X0278819Y0212806D01*
X0278834Y0212977D01*
X0278853Y0213148D01*
X0278876Y0213318D01*
X0278903Y0213488D01*
X0278935Y0213657D01*
X0278970Y0213825D01*
X0279010Y0213992D01*
X0279054Y0214158D01*
X0279101Y0214323D01*
X0279153Y0214487D01*
X0279209Y0214649D01*
X0279269Y0214810D01*
X0279333Y0214970D01*
X0279401Y0215128D01*
X0279472Y0215284D01*
X0279547Y0215438D01*
X0279627Y0215591D01*
X0279709Y0215741D01*
X0279796Y0215890D01*
X0279886Y0216036D01*
X0279980Y0216180D01*
X0280077Y0216322D01*
X0280178Y0216461D01*
X0280282Y0216598D01*
X0280389Y0216732D01*
X0280500Y0216863D01*
X0280613Y0216992D01*
X0280730Y0217118D01*
X0280850Y0217241D01*
X0280973Y0217361D01*
X0281099Y0217478D01*
X0281228Y0217591D01*
X0281359Y0217702D01*
X0281493Y0217809D01*
X0281630Y0217913D01*
X0281769Y0218014D01*
X0281911Y0218111D01*
X0282055Y0218205D01*
X0282201Y0218295D01*
X0282350Y0218382D01*
X0282500Y0218464D01*
X0282653Y0218544D01*
X0282807Y0218619D01*
X0282963Y0218690D01*
X0283121Y0218758D01*
X0283281Y0218822D01*
X0283442Y0218882D01*
X0283604Y0218938D01*
X0283768Y0218990D01*
X0283933Y0219037D01*
X0284099Y0219081D01*
X0284266Y0219121D01*
X0284434Y0219156D01*
X0284603Y0219188D01*
X0284773Y0219215D01*
X0284943Y0219238D01*
X0285114Y0219257D01*
X0285285Y0219272D01*
X0285457Y0219283D01*
X0285628Y0219289D01*
X0285800Y0219291D01*
X0285972Y0219289D01*
X0286143Y0219283D01*
X0286315Y0219272D01*
X0286486Y0219257D01*
X0286657Y0219238D01*
X0286827Y0219215D01*
X0286997Y0219188D01*
X0287166Y0219156D01*
X0287334Y0219121D01*
X0287501Y0219081D01*
X0287667Y0219037D01*
X0287832Y0218990D01*
X0287996Y0218938D01*
X0288158Y0218882D01*
X0288319Y0218822D01*
X0288479Y0218758D01*
X0288637Y0218690D01*
X0288793Y0218619D01*
X0288947Y0218544D01*
X0289100Y0218464D01*
X0289250Y0218382D01*
X0289399Y0218295D01*
X0289545Y0218205D01*
X0289689Y0218111D01*
X0289831Y0218014D01*
X0289970Y0217913D01*
X0290107Y0217809D01*
X0290241Y0217702D01*
X0290372Y0217591D01*
X0290501Y0217478D01*
X0290627Y0217361D01*
X0290750Y0217241D01*
X0290870Y0217118D01*
X0290987Y0216992D01*
X0291100Y0216863D01*
X0291211Y0216732D01*
X0291318Y0216598D01*
X0291422Y0216461D01*
X0291523Y0216322D01*
X0291620Y0216180D01*
X0291714Y0216036D01*
X0291804Y0215890D01*
X0291891Y0215741D01*
X0291973Y0215591D01*
X0292053Y0215438D01*
X0292128Y0215284D01*
X0292199Y0215128D01*
X0292267Y0214970D01*
X0292331Y0214810D01*
X0292391Y0214649D01*
X0292447Y0214487D01*
X0292499Y0214323D01*
X0292546Y0214158D01*
X0292590Y0213992D01*
X0292630Y0213825D01*
X0292665Y0213657D01*
X0292697Y0213488D01*
X0292724Y0213318D01*
X0292747Y0213148D01*
X0292766Y0212977D01*
X0292781Y0212806D01*
X0292792Y0212634D01*
X0292798Y0212463D01*
X0292800Y0212291D01*
X0292798Y0212119D01*
X0292792Y0211948D01*
X0292781Y0211776D01*
X0292766Y0211605D01*
X0292747Y0211434D01*
X0292724Y0211264D01*
X0292697Y0211094D01*
X0292665Y0210925D01*
X0292630Y0210757D01*
X0292590Y0210590D01*
X0292546Y0210424D01*
X0292499Y0210259D01*
X0292447Y0210095D01*
X0292391Y0209933D01*
X0292331Y0209772D01*
X0292267Y0209612D01*
X0292199Y0209454D01*
X0292128Y0209298D01*
X0292053Y0209144D01*
X0291973Y0208991D01*
X0291891Y0208841D01*
X0291804Y0208692D01*
X0291714Y0208546D01*
X0291620Y0208402D01*
X0291523Y0208260D01*
X0291422Y0208121D01*
X0291318Y0207984D01*
X0291211Y0207850D01*
X0291100Y0207719D01*
X0290987Y0207590D01*
X0290870Y0207464D01*
X0290750Y0207341D01*
X0290627Y0207221D01*
X0290501Y0207104D01*
X0290372Y0206991D01*
X0290241Y0206880D01*
X0290107Y0206773D01*
X0289970Y0206669D01*
X0289831Y0206568D01*
X0289689Y0206471D01*
X0289545Y0206377D01*
X0289399Y0206287D01*
X0289250Y0206200D01*
X0289100Y0206118D01*
X0288947Y0206038D01*
X0288793Y0205963D01*
X0288637Y0205892D01*
X0288479Y0205824D01*
X0288319Y0205760D01*
X0288158Y0205700D01*
X0287996Y0205644D01*
X0287832Y0205592D01*
X0287667Y0205545D01*
X0287501Y0205501D01*
X0287334Y0205461D01*
X0287166Y0205426D01*
X0286997Y0205394D01*
X0286827Y0205367D01*
X0286657Y0205344D01*
X0286486Y0205325D01*
X0286315Y0205310D01*
X0286143Y0205299D01*
X0285972Y0205293D01*
X0285800Y0205291D01*
X0285628Y0205293D01*
X0285457Y0205299D01*
X0285285Y0205310D01*
X0285114Y0205325D01*
X0284943Y0205344D01*
X0284773Y0205367D01*
X0284603Y0205394D01*
X0284434Y0205426D01*
X0284266Y0205461D01*
X0284099Y0205501D01*
X0283933Y0205545D01*
X0283768Y0205592D01*
X0283604Y0205644D01*
X0283442Y0205700D01*
X0283281Y0205760D01*
X0283121Y0205824D01*
X0282963Y0205892D01*
X0282807Y0205963D01*
X0282653Y0206038D01*
X0282500Y0206118D01*
X0282350Y0206200D01*
X0282201Y0206287D01*
X0282055Y0206377D01*
X0281911Y0206471D01*
X0281769Y0206568D01*
X0281630Y0206669D01*
X0281493Y0206773D01*
X0281359Y0206880D01*
X0281228Y0206991D01*
X0281099Y0207104D01*
X0280973Y0207221D01*
X0280850Y0207341D01*
X0280730Y0207464D01*
X0280613Y0207590D01*
X0280500Y0207719D01*
X0280389Y0207850D01*
X0280282Y0207984D01*
X0280178Y0208121D01*
X0280077Y0208260D01*
X0279980Y0208402D01*
X0279886Y0208546D01*
X0279796Y0208692D01*
X0279709Y0208841D01*
X0279627Y0208991D01*
X0279547Y0209144D01*
X0279472Y0209298D01*
X0279401Y0209454D01*
X0279333Y0209612D01*
X0279269Y0209772D01*
X0279209Y0209933D01*
X0279153Y0210095D01*
X0279101Y0210259D01*
X0279054Y0210424D01*
X0279010Y0210590D01*
X0278970Y0210757D01*
X0278935Y0210925D01*
X0278903Y0211094D01*
X0278876Y0211264D01*
X0278853Y0211434D01*
X0278834Y0211605D01*
X0278819Y0211776D01*
X0278808Y0211948D01*
X0278802Y0212119D01*
X0278800Y0212291D01*
X0330751Y0301291D02*
X0330753Y0301449D01*
X0330759Y0301607D01*
X0330769Y0301765D01*
X0330783Y0301923D01*
X0330801Y0302080D01*
X0330822Y0302237D01*
X0330848Y0302393D01*
X0330878Y0302549D01*
X0330911Y0302704D01*
X0330949Y0302857D01*
X0330990Y0303010D01*
X0331035Y0303162D01*
X0331084Y0303313D01*
X0331137Y0303462D01*
X0331193Y0303610D01*
X0331253Y0303756D01*
X0331317Y0303901D01*
X0331385Y0304044D01*
X0331456Y0304186D01*
X0331530Y0304326D01*
X0331608Y0304463D01*
X0331690Y0304599D01*
X0331774Y0304733D01*
X0331863Y0304864D01*
X0331954Y0304993D01*
X0332049Y0305120D01*
X0332146Y0305245D01*
X0332247Y0305367D01*
X0332351Y0305486D01*
X0332458Y0305603D01*
X0332568Y0305717D01*
X0332681Y0305828D01*
X0332796Y0305937D01*
X0332914Y0306042D01*
X0333035Y0306144D01*
X0333158Y0306244D01*
X0333284Y0306340D01*
X0333412Y0306433D01*
X0333542Y0306523D01*
X0333675Y0306609D01*
X0333810Y0306693D01*
X0333946Y0306772D01*
X0334085Y0306849D01*
X0334226Y0306921D01*
X0334368Y0306991D01*
X0334512Y0307056D01*
X0334658Y0307118D01*
X0334805Y0307176D01*
X0334954Y0307231D01*
X0335104Y0307282D01*
X0335255Y0307329D01*
X0335407Y0307372D01*
X0335560Y0307411D01*
X0335715Y0307447D01*
X0335870Y0307478D01*
X0336026Y0307506D01*
X0336182Y0307530D01*
X0336339Y0307550D01*
X0336497Y0307566D01*
X0336654Y0307578D01*
X0336813Y0307586D01*
X0336971Y0307590D01*
X0337129Y0307590D01*
X0337287Y0307586D01*
X0337446Y0307578D01*
X0337603Y0307566D01*
X0337761Y0307550D01*
X0337918Y0307530D01*
X0338074Y0307506D01*
X0338230Y0307478D01*
X0338385Y0307447D01*
X0338540Y0307411D01*
X0338693Y0307372D01*
X0338845Y0307329D01*
X0338996Y0307282D01*
X0339146Y0307231D01*
X0339295Y0307176D01*
X0339442Y0307118D01*
X0339588Y0307056D01*
X0339732Y0306991D01*
X0339874Y0306921D01*
X0340015Y0306849D01*
X0340154Y0306772D01*
X0340290Y0306693D01*
X0340425Y0306609D01*
X0340558Y0306523D01*
X0340688Y0306433D01*
X0340816Y0306340D01*
X0340942Y0306244D01*
X0341065Y0306144D01*
X0341186Y0306042D01*
X0341304Y0305937D01*
X0341419Y0305828D01*
X0341532Y0305717D01*
X0341642Y0305603D01*
X0341749Y0305486D01*
X0341853Y0305367D01*
X0341954Y0305245D01*
X0342051Y0305120D01*
X0342146Y0304993D01*
X0342237Y0304864D01*
X0342326Y0304733D01*
X0342410Y0304599D01*
X0342492Y0304463D01*
X0342570Y0304326D01*
X0342644Y0304186D01*
X0342715Y0304044D01*
X0342783Y0303901D01*
X0342847Y0303756D01*
X0342907Y0303610D01*
X0342963Y0303462D01*
X0343016Y0303313D01*
X0343065Y0303162D01*
X0343110Y0303010D01*
X0343151Y0302857D01*
X0343189Y0302704D01*
X0343222Y0302549D01*
X0343252Y0302393D01*
X0343278Y0302237D01*
X0343299Y0302080D01*
X0343317Y0301923D01*
X0343331Y0301765D01*
X0343341Y0301607D01*
X0343347Y0301449D01*
X0343349Y0301291D01*
X0343347Y0301133D01*
X0343341Y0300975D01*
X0343331Y0300817D01*
X0343317Y0300659D01*
X0343299Y0300502D01*
X0343278Y0300345D01*
X0343252Y0300189D01*
X0343222Y0300033D01*
X0343189Y0299878D01*
X0343151Y0299725D01*
X0343110Y0299572D01*
X0343065Y0299420D01*
X0343016Y0299269D01*
X0342963Y0299120D01*
X0342907Y0298972D01*
X0342847Y0298826D01*
X0342783Y0298681D01*
X0342715Y0298538D01*
X0342644Y0298396D01*
X0342570Y0298256D01*
X0342492Y0298119D01*
X0342410Y0297983D01*
X0342326Y0297849D01*
X0342237Y0297718D01*
X0342146Y0297589D01*
X0342051Y0297462D01*
X0341954Y0297337D01*
X0341853Y0297215D01*
X0341749Y0297096D01*
X0341642Y0296979D01*
X0341532Y0296865D01*
X0341419Y0296754D01*
X0341304Y0296645D01*
X0341186Y0296540D01*
X0341065Y0296438D01*
X0340942Y0296338D01*
X0340816Y0296242D01*
X0340688Y0296149D01*
X0340558Y0296059D01*
X0340425Y0295973D01*
X0340290Y0295889D01*
X0340154Y0295810D01*
X0340015Y0295733D01*
X0339874Y0295661D01*
X0339732Y0295591D01*
X0339588Y0295526D01*
X0339442Y0295464D01*
X0339295Y0295406D01*
X0339146Y0295351D01*
X0338996Y0295300D01*
X0338845Y0295253D01*
X0338693Y0295210D01*
X0338540Y0295171D01*
X0338385Y0295135D01*
X0338230Y0295104D01*
X0338074Y0295076D01*
X0337918Y0295052D01*
X0337761Y0295032D01*
X0337603Y0295016D01*
X0337446Y0295004D01*
X0337287Y0294996D01*
X0337129Y0294992D01*
X0336971Y0294992D01*
X0336813Y0294996D01*
X0336654Y0295004D01*
X0336497Y0295016D01*
X0336339Y0295032D01*
X0336182Y0295052D01*
X0336026Y0295076D01*
X0335870Y0295104D01*
X0335715Y0295135D01*
X0335560Y0295171D01*
X0335407Y0295210D01*
X0335255Y0295253D01*
X0335104Y0295300D01*
X0334954Y0295351D01*
X0334805Y0295406D01*
X0334658Y0295464D01*
X0334512Y0295526D01*
X0334368Y0295591D01*
X0334226Y0295661D01*
X0334085Y0295733D01*
X0333946Y0295810D01*
X0333810Y0295889D01*
X0333675Y0295973D01*
X0333542Y0296059D01*
X0333412Y0296149D01*
X0333284Y0296242D01*
X0333158Y0296338D01*
X0333035Y0296438D01*
X0332914Y0296540D01*
X0332796Y0296645D01*
X0332681Y0296754D01*
X0332568Y0296865D01*
X0332458Y0296979D01*
X0332351Y0297096D01*
X0332247Y0297215D01*
X0332146Y0297337D01*
X0332049Y0297462D01*
X0331954Y0297589D01*
X0331863Y0297718D01*
X0331774Y0297849D01*
X0331690Y0297983D01*
X0331608Y0298119D01*
X0331530Y0298256D01*
X0331456Y0298396D01*
X0331385Y0298538D01*
X0331317Y0298681D01*
X0331253Y0298826D01*
X0331193Y0298972D01*
X0331137Y0299120D01*
X0331084Y0299269D01*
X0331035Y0299420D01*
X0330990Y0299572D01*
X0330949Y0299725D01*
X0330911Y0299878D01*
X0330878Y0300033D01*
X0330848Y0300189D01*
X0330822Y0300345D01*
X0330801Y0300502D01*
X0330783Y0300659D01*
X0330769Y0300817D01*
X0330759Y0300975D01*
X0330753Y0301133D01*
X0330751Y0301291D01*
X0330751Y0031291D02*
X0330753Y0031449D01*
X0330759Y0031607D01*
X0330769Y0031765D01*
X0330783Y0031923D01*
X0330801Y0032080D01*
X0330822Y0032237D01*
X0330848Y0032393D01*
X0330878Y0032549D01*
X0330911Y0032704D01*
X0330949Y0032857D01*
X0330990Y0033010D01*
X0331035Y0033162D01*
X0331084Y0033313D01*
X0331137Y0033462D01*
X0331193Y0033610D01*
X0331253Y0033756D01*
X0331317Y0033901D01*
X0331385Y0034044D01*
X0331456Y0034186D01*
X0331530Y0034326D01*
X0331608Y0034463D01*
X0331690Y0034599D01*
X0331774Y0034733D01*
X0331863Y0034864D01*
X0331954Y0034993D01*
X0332049Y0035120D01*
X0332146Y0035245D01*
X0332247Y0035367D01*
X0332351Y0035486D01*
X0332458Y0035603D01*
X0332568Y0035717D01*
X0332681Y0035828D01*
X0332796Y0035937D01*
X0332914Y0036042D01*
X0333035Y0036144D01*
X0333158Y0036244D01*
X0333284Y0036340D01*
X0333412Y0036433D01*
X0333542Y0036523D01*
X0333675Y0036609D01*
X0333810Y0036693D01*
X0333946Y0036772D01*
X0334085Y0036849D01*
X0334226Y0036921D01*
X0334368Y0036991D01*
X0334512Y0037056D01*
X0334658Y0037118D01*
X0334805Y0037176D01*
X0334954Y0037231D01*
X0335104Y0037282D01*
X0335255Y0037329D01*
X0335407Y0037372D01*
X0335560Y0037411D01*
X0335715Y0037447D01*
X0335870Y0037478D01*
X0336026Y0037506D01*
X0336182Y0037530D01*
X0336339Y0037550D01*
X0336497Y0037566D01*
X0336654Y0037578D01*
X0336813Y0037586D01*
X0336971Y0037590D01*
X0337129Y0037590D01*
X0337287Y0037586D01*
X0337446Y0037578D01*
X0337603Y0037566D01*
X0337761Y0037550D01*
X0337918Y0037530D01*
X0338074Y0037506D01*
X0338230Y0037478D01*
X0338385Y0037447D01*
X0338540Y0037411D01*
X0338693Y0037372D01*
X0338845Y0037329D01*
X0338996Y0037282D01*
X0339146Y0037231D01*
X0339295Y0037176D01*
X0339442Y0037118D01*
X0339588Y0037056D01*
X0339732Y0036991D01*
X0339874Y0036921D01*
X0340015Y0036849D01*
X0340154Y0036772D01*
X0340290Y0036693D01*
X0340425Y0036609D01*
X0340558Y0036523D01*
X0340688Y0036433D01*
X0340816Y0036340D01*
X0340942Y0036244D01*
X0341065Y0036144D01*
X0341186Y0036042D01*
X0341304Y0035937D01*
X0341419Y0035828D01*
X0341532Y0035717D01*
X0341642Y0035603D01*
X0341749Y0035486D01*
X0341853Y0035367D01*
X0341954Y0035245D01*
X0342051Y0035120D01*
X0342146Y0034993D01*
X0342237Y0034864D01*
X0342326Y0034733D01*
X0342410Y0034599D01*
X0342492Y0034463D01*
X0342570Y0034326D01*
X0342644Y0034186D01*
X0342715Y0034044D01*
X0342783Y0033901D01*
X0342847Y0033756D01*
X0342907Y0033610D01*
X0342963Y0033462D01*
X0343016Y0033313D01*
X0343065Y0033162D01*
X0343110Y0033010D01*
X0343151Y0032857D01*
X0343189Y0032704D01*
X0343222Y0032549D01*
X0343252Y0032393D01*
X0343278Y0032237D01*
X0343299Y0032080D01*
X0343317Y0031923D01*
X0343331Y0031765D01*
X0343341Y0031607D01*
X0343347Y0031449D01*
X0343349Y0031291D01*
X0343347Y0031133D01*
X0343341Y0030975D01*
X0343331Y0030817D01*
X0343317Y0030659D01*
X0343299Y0030502D01*
X0343278Y0030345D01*
X0343252Y0030189D01*
X0343222Y0030033D01*
X0343189Y0029878D01*
X0343151Y0029725D01*
X0343110Y0029572D01*
X0343065Y0029420D01*
X0343016Y0029269D01*
X0342963Y0029120D01*
X0342907Y0028972D01*
X0342847Y0028826D01*
X0342783Y0028681D01*
X0342715Y0028538D01*
X0342644Y0028396D01*
X0342570Y0028256D01*
X0342492Y0028119D01*
X0342410Y0027983D01*
X0342326Y0027849D01*
X0342237Y0027718D01*
X0342146Y0027589D01*
X0342051Y0027462D01*
X0341954Y0027337D01*
X0341853Y0027215D01*
X0341749Y0027096D01*
X0341642Y0026979D01*
X0341532Y0026865D01*
X0341419Y0026754D01*
X0341304Y0026645D01*
X0341186Y0026540D01*
X0341065Y0026438D01*
X0340942Y0026338D01*
X0340816Y0026242D01*
X0340688Y0026149D01*
X0340558Y0026059D01*
X0340425Y0025973D01*
X0340290Y0025889D01*
X0340154Y0025810D01*
X0340015Y0025733D01*
X0339874Y0025661D01*
X0339732Y0025591D01*
X0339588Y0025526D01*
X0339442Y0025464D01*
X0339295Y0025406D01*
X0339146Y0025351D01*
X0338996Y0025300D01*
X0338845Y0025253D01*
X0338693Y0025210D01*
X0338540Y0025171D01*
X0338385Y0025135D01*
X0338230Y0025104D01*
X0338074Y0025076D01*
X0337918Y0025052D01*
X0337761Y0025032D01*
X0337603Y0025016D01*
X0337446Y0025004D01*
X0337287Y0024996D01*
X0337129Y0024992D01*
X0336971Y0024992D01*
X0336813Y0024996D01*
X0336654Y0025004D01*
X0336497Y0025016D01*
X0336339Y0025032D01*
X0336182Y0025052D01*
X0336026Y0025076D01*
X0335870Y0025104D01*
X0335715Y0025135D01*
X0335560Y0025171D01*
X0335407Y0025210D01*
X0335255Y0025253D01*
X0335104Y0025300D01*
X0334954Y0025351D01*
X0334805Y0025406D01*
X0334658Y0025464D01*
X0334512Y0025526D01*
X0334368Y0025591D01*
X0334226Y0025661D01*
X0334085Y0025733D01*
X0333946Y0025810D01*
X0333810Y0025889D01*
X0333675Y0025973D01*
X0333542Y0026059D01*
X0333412Y0026149D01*
X0333284Y0026242D01*
X0333158Y0026338D01*
X0333035Y0026438D01*
X0332914Y0026540D01*
X0332796Y0026645D01*
X0332681Y0026754D01*
X0332568Y0026865D01*
X0332458Y0026979D01*
X0332351Y0027096D01*
X0332247Y0027215D01*
X0332146Y0027337D01*
X0332049Y0027462D01*
X0331954Y0027589D01*
X0331863Y0027718D01*
X0331774Y0027849D01*
X0331690Y0027983D01*
X0331608Y0028119D01*
X0331530Y0028256D01*
X0331456Y0028396D01*
X0331385Y0028538D01*
X0331317Y0028681D01*
X0331253Y0028826D01*
X0331193Y0028972D01*
X0331137Y0029120D01*
X0331084Y0029269D01*
X0331035Y0029420D01*
X0330990Y0029572D01*
X0330949Y0029725D01*
X0330911Y0029878D01*
X0330878Y0030033D01*
X0330848Y0030189D01*
X0330822Y0030345D01*
X0330801Y0030502D01*
X0330783Y0030659D01*
X0330769Y0030817D01*
X0330759Y0030975D01*
X0330753Y0031133D01*
X0330751Y0031291D01*
D11*
X0323139Y0181291D02*
X0315461Y0181291D01*
X0038639Y0181291D02*
X0030961Y0181291D01*
D12*
X0337050Y0230291D03*
X0337050Y0282291D03*
D13*
X0319550Y0291291D03*
X0309550Y0291291D03*
X0299550Y0291291D03*
X0289550Y0291291D03*
X0279550Y0291291D03*
X0269550Y0291291D03*
X0259550Y0291291D03*
X0249550Y0291291D03*
X0239550Y0291291D03*
X0229550Y0291291D03*
X0214550Y0301291D03*
X0204550Y0301291D03*
X0194550Y0301291D03*
X0192050Y0271291D03*
X0202050Y0271291D03*
X0212050Y0271291D03*
X0209550Y0233791D03*
X0199550Y0233791D03*
X0189550Y0233791D03*
X0179550Y0233791D03*
X0169550Y0233791D03*
X0159550Y0233791D03*
X0157050Y0271291D03*
X0147050Y0271291D03*
X0167050Y0271291D03*
X0219550Y0233791D03*
X0229550Y0233791D03*
X0239550Y0233791D03*
X0249550Y0233791D03*
X0259550Y0233791D03*
X0112050Y0235041D03*
X0102050Y0235041D03*
X0092050Y0235041D03*
X0082050Y0235041D03*
X0072050Y0235041D03*
X0062050Y0235041D03*
X0052050Y0235041D03*
D14*
X0042050Y0235041D03*
X0177050Y0271291D03*
X0222050Y0271291D03*
D15*
X0160908Y0028791D03*
X0143192Y0028791D03*
D16*
X0138270Y0038831D03*
X0165830Y0038831D03*
D17*
X0161055Y0041254D02*
X0143027Y0041254D01*
X0143218Y0040880D02*
X0142836Y0041629D01*
X0142343Y0042309D01*
X0141748Y0042903D01*
X0141068Y0043397D01*
X0140320Y0043778D01*
X0139521Y0044038D01*
X0138770Y0044157D01*
X0138770Y0039331D01*
X0137770Y0039331D01*
X0137770Y0038331D01*
X0132945Y0038331D01*
X0133063Y0037581D01*
X0133323Y0036781D01*
X0133705Y0036033D01*
X0134198Y0035353D01*
X0134793Y0034759D01*
X0135472Y0034265D01*
X0136221Y0033883D01*
X0137020Y0033624D01*
X0137770Y0033505D01*
X0137770Y0038331D01*
X0138770Y0038331D01*
X0138770Y0033505D01*
X0139521Y0033624D01*
X0140320Y0033883D01*
X0141068Y0034265D01*
X0162903Y0034265D01*
X0162805Y0034305D02*
X0164768Y0033492D01*
X0166891Y0033492D01*
X0168854Y0034305D01*
X0170355Y0035807D01*
X0171168Y0037769D01*
X0171168Y0039893D01*
X0170355Y0041855D01*
X0168854Y0043357D01*
X0166891Y0044169D01*
X0164768Y0044169D01*
X0162805Y0043357D01*
X0161304Y0041855D01*
X0160491Y0039893D01*
X0160491Y0037769D01*
X0161304Y0035807D01*
X0162805Y0034305D01*
X0161847Y0035263D02*
X0142253Y0035263D01*
X0142343Y0035353D02*
X0142836Y0036033D01*
X0143218Y0036781D01*
X0143478Y0037581D01*
X0143596Y0038331D01*
X0138771Y0038331D01*
X0138771Y0039331D01*
X0143596Y0039331D01*
X0143478Y0040081D01*
X0143218Y0040880D01*
X0143421Y0040256D02*
X0160641Y0040256D01*
X0160491Y0039257D02*
X0138771Y0039257D01*
X0138770Y0038259D02*
X0137770Y0038259D01*
X0137770Y0039257D02*
X0047750Y0039257D01*
X0047750Y0038259D02*
X0132956Y0038259D01*
X0133167Y0037260D02*
X0047935Y0037260D01*
X0047935Y0037365D02*
X0047750Y0037812D01*
X0047750Y0040673D01*
X0049238Y0042161D01*
X0049684Y0042346D01*
X0050496Y0043157D01*
X0050935Y0044217D01*
X0050935Y0045365D01*
X0050496Y0046426D01*
X0049684Y0047237D01*
X0048624Y0047676D01*
X0047476Y0047676D01*
X0046416Y0047237D01*
X0045604Y0046426D01*
X0045419Y0045979D01*
X0042761Y0043321D01*
X0042350Y0042328D01*
X0042350Y0037812D01*
X0042165Y0037365D01*
X0042165Y0036217D01*
X0042604Y0035157D01*
X0043416Y0034346D01*
X0044476Y0033906D01*
X0045624Y0033906D01*
X0046684Y0034346D01*
X0047496Y0035157D01*
X0047935Y0036217D01*
X0047935Y0037365D01*
X0047935Y0036262D02*
X0133588Y0036262D01*
X0134288Y0035263D02*
X0047540Y0035263D01*
X0046489Y0034265D02*
X0135473Y0034265D01*
X0137770Y0034265D02*
X0138770Y0034265D01*
X0138770Y0035263D02*
X0137770Y0035263D01*
X0137770Y0036262D02*
X0138770Y0036262D01*
X0138770Y0037260D02*
X0137770Y0037260D01*
X0137770Y0039331D02*
X0132945Y0039331D01*
X0133063Y0040081D01*
X0133323Y0040880D01*
X0133705Y0041629D01*
X0134198Y0042309D01*
X0134793Y0042903D01*
X0135472Y0043397D01*
X0136221Y0043778D01*
X0137020Y0044038D01*
X0137770Y0044157D01*
X0137770Y0039331D01*
X0137770Y0040256D02*
X0138770Y0040256D01*
X0138770Y0041254D02*
X0137770Y0041254D01*
X0137770Y0042253D02*
X0138770Y0042253D01*
X0138770Y0043251D02*
X0137770Y0043251D01*
X0135272Y0043251D02*
X0132435Y0043251D01*
X0132435Y0043217D02*
X0132435Y0044365D01*
X0131996Y0045426D01*
X0131550Y0045871D01*
X0131550Y0051211D01*
X0131996Y0051657D01*
X0132435Y0052717D01*
X0132435Y0053865D01*
X0131996Y0054926D01*
X0131184Y0055737D01*
X0130124Y0056176D01*
X0128976Y0056176D01*
X0127916Y0055737D01*
X0127104Y0054926D01*
X0126665Y0053865D01*
X0126665Y0052717D01*
X0127104Y0051657D01*
X0127550Y0051211D01*
X0127550Y0045871D01*
X0127104Y0045426D01*
X0126665Y0044365D01*
X0126665Y0043217D01*
X0127104Y0042157D01*
X0127916Y0041346D01*
X0128976Y0040906D01*
X0130124Y0040906D01*
X0131184Y0041346D01*
X0131996Y0042157D01*
X0132435Y0043217D01*
X0132435Y0044250D02*
X0209324Y0044250D01*
X0209165Y0043865D02*
X0209165Y0042717D01*
X0209604Y0041657D01*
X0210416Y0040846D01*
X0210862Y0040661D01*
X0213919Y0037604D01*
X0214104Y0037157D01*
X0214570Y0036691D01*
X0208230Y0036691D01*
X0207684Y0037237D01*
X0206624Y0037676D01*
X0205476Y0037676D01*
X0204416Y0037237D01*
X0203604Y0036426D01*
X0203165Y0035365D01*
X0203165Y0034217D01*
X0203590Y0033191D01*
X0201730Y0033191D01*
X0201184Y0033737D01*
X0200124Y0034176D01*
X0198976Y0034176D01*
X0197916Y0033737D01*
X0197104Y0032926D01*
X0196665Y0031865D01*
X0196665Y0030717D01*
X0197104Y0029657D01*
X0197916Y0028846D01*
X0198976Y0028406D01*
X0200124Y0028406D01*
X0201184Y0028846D01*
X0201730Y0029391D01*
X0254263Y0029391D01*
X0257165Y0026489D01*
X0257165Y0025717D01*
X0257604Y0024657D01*
X0258416Y0023846D01*
X0259476Y0023406D01*
X0260624Y0023406D01*
X0261684Y0023846D01*
X0262496Y0024657D01*
X0262935Y0025717D01*
X0262935Y0026865D01*
X0262496Y0027926D01*
X0261684Y0028737D01*
X0260624Y0029176D01*
X0259852Y0029176D01*
X0256137Y0032891D01*
X0256370Y0032891D01*
X0256916Y0032346D01*
X0257976Y0031906D01*
X0259124Y0031906D01*
X0260184Y0032346D01*
X0260996Y0033157D01*
X0261435Y0034217D01*
X0261435Y0035365D01*
X0260996Y0036426D01*
X0260184Y0037237D01*
X0259124Y0037676D01*
X0257976Y0037676D01*
X0256916Y0037237D01*
X0256450Y0036771D01*
X0256450Y0043578D01*
X0255450Y0044578D01*
X0254337Y0045691D01*
X0251763Y0045691D01*
X0250763Y0044691D01*
X0250050Y0043978D01*
X0249450Y0044578D01*
X0248337Y0045691D01*
X0245763Y0045691D01*
X0244763Y0044691D01*
X0244050Y0043978D01*
X0243450Y0044578D01*
X0242337Y0045691D01*
X0239763Y0045691D01*
X0238763Y0044691D01*
X0237650Y0043578D01*
X0237650Y0036691D01*
X0235030Y0036691D01*
X0235496Y0037157D01*
X0235935Y0038217D01*
X0235935Y0039365D01*
X0235496Y0040426D01*
X0234684Y0041237D01*
X0233950Y0041541D01*
X0234684Y0041846D01*
X0235496Y0042657D01*
X0235935Y0043717D01*
X0235935Y0044865D01*
X0235496Y0045926D01*
X0234684Y0046737D01*
X0233624Y0047176D01*
X0232476Y0047176D01*
X0231416Y0046737D01*
X0230870Y0046191D01*
X0227263Y0046191D01*
X0226263Y0045191D01*
X0224230Y0045191D01*
X0223684Y0045737D01*
X0222624Y0046176D01*
X0221476Y0046176D01*
X0220416Y0045737D01*
X0219604Y0044926D01*
X0219165Y0043865D01*
X0219165Y0042717D01*
X0219604Y0041657D01*
X0220370Y0040891D01*
X0218530Y0040891D01*
X0218184Y0041237D01*
X0217738Y0041422D01*
X0214681Y0044479D01*
X0214496Y0044926D01*
X0213684Y0045737D01*
X0212624Y0046176D01*
X0211476Y0046176D01*
X0210416Y0045737D01*
X0209604Y0044926D01*
X0209165Y0043865D01*
X0209165Y0043251D02*
X0168959Y0043251D01*
X0169957Y0042253D02*
X0209358Y0042253D01*
X0210007Y0041254D02*
X0170604Y0041254D01*
X0171018Y0040256D02*
X0211267Y0040256D01*
X0212266Y0039257D02*
X0171168Y0039257D01*
X0171168Y0038259D02*
X0213264Y0038259D01*
X0214062Y0037260D02*
X0207629Y0037260D01*
X0204471Y0037260D02*
X0170957Y0037260D01*
X0170544Y0036262D02*
X0203536Y0036262D01*
X0203165Y0035263D02*
X0169812Y0035263D01*
X0168756Y0034265D02*
X0203165Y0034265D01*
X0203559Y0033266D02*
X0201655Y0033266D01*
X0201611Y0029272D02*
X0254382Y0029272D01*
X0253684Y0028737D02*
X0252624Y0029176D01*
X0251476Y0029176D01*
X0250416Y0028737D01*
X0249604Y0027926D01*
X0249165Y0026865D01*
X0249165Y0026093D01*
X0246763Y0023691D01*
X0051337Y0023691D01*
X0019935Y0055093D01*
X0019935Y0055865D01*
X0019496Y0056926D01*
X0018684Y0057737D01*
X0017624Y0058176D01*
X0016476Y0058176D01*
X0015416Y0057737D01*
X0014604Y0056926D01*
X0014165Y0055865D01*
X0014165Y0054717D01*
X0014194Y0054647D01*
X0014124Y0054676D01*
X0012976Y0054676D01*
X0011916Y0054237D01*
X0011104Y0053426D01*
X0010665Y0052365D01*
X0010665Y0051217D01*
X0011104Y0050157D01*
X0011916Y0049346D01*
X0012976Y0048906D01*
X0013748Y0048906D01*
X0019781Y0042873D01*
X0019134Y0043109D01*
X0014966Y0043109D01*
X0011050Y0041684D01*
X0011050Y0041684D01*
X0007857Y0039005D01*
X0005774Y0035396D01*
X0005774Y0035396D01*
X0005050Y0031291D01*
X0005774Y0027187D01*
X0007857Y0023578D01*
X0007857Y0023578D01*
X0007857Y0023578D01*
X0011050Y0020899D01*
X0014966Y0019474D01*
X0019134Y0019474D01*
X0023050Y0020899D01*
X0026243Y0023578D01*
X0028326Y0027187D01*
X0029050Y0031291D01*
X0028555Y0034100D01*
X0044263Y0018391D01*
X0249870Y0018391D01*
X0250416Y0017846D01*
X0250547Y0017791D01*
X0003550Y0017791D01*
X0003550Y0314791D01*
X0350550Y0314791D01*
X0350550Y0120728D01*
X0349781Y0119959D01*
X0349781Y0047737D01*
X0350550Y0046968D01*
X0350550Y0017791D01*
X0253553Y0017791D01*
X0253684Y0017846D01*
X0254496Y0018657D01*
X0254935Y0019717D01*
X0254935Y0020865D01*
X0254496Y0021926D01*
X0253684Y0022737D01*
X0252624Y0023176D01*
X0251622Y0023176D01*
X0251852Y0023406D01*
X0252624Y0023406D01*
X0253684Y0023846D01*
X0254496Y0024657D01*
X0254935Y0025717D01*
X0254935Y0026865D01*
X0254496Y0027926D01*
X0253684Y0028737D01*
X0254148Y0028273D02*
X0255381Y0028273D01*
X0254765Y0027275D02*
X0256379Y0027275D01*
X0257165Y0026276D02*
X0254935Y0026276D01*
X0254753Y0025278D02*
X0257347Y0025278D01*
X0257982Y0024279D02*
X0254118Y0024279D01*
X0254139Y0022282D02*
X0329401Y0022282D01*
X0328211Y0023281D02*
X0251727Y0023281D01*
X0254762Y0021284D02*
X0330591Y0021284D01*
X0331050Y0020899D02*
X0331050Y0020899D01*
X0334966Y0019474D01*
X0339134Y0019474D01*
X0343050Y0020899D01*
X0346243Y0023578D01*
X0348326Y0027187D01*
X0349050Y0031291D01*
X0348326Y0035396D01*
X0346243Y0039005D01*
X0346243Y0039005D01*
X0346243Y0039005D01*
X0343050Y0041684D01*
X0339134Y0043109D01*
X0334966Y0043109D01*
X0331050Y0041684D01*
X0327857Y0039005D01*
X0327857Y0039005D01*
X0325774Y0035396D01*
X0325774Y0035396D01*
X0325050Y0031291D01*
X0325774Y0027187D01*
X0327857Y0023578D01*
X0327857Y0023578D01*
X0327857Y0023578D01*
X0331050Y0020899D01*
X0332736Y0020285D02*
X0254935Y0020285D01*
X0254757Y0019287D02*
X0350550Y0019287D01*
X0350550Y0020285D02*
X0341364Y0020285D01*
X0343050Y0020899D02*
X0343050Y0020899D01*
X0343509Y0021284D02*
X0350550Y0021284D01*
X0350550Y0022282D02*
X0344699Y0022282D01*
X0345889Y0023281D02*
X0350550Y0023281D01*
X0350550Y0024279D02*
X0346648Y0024279D01*
X0346243Y0023578D02*
X0346243Y0023578D01*
X0347224Y0025278D02*
X0350550Y0025278D01*
X0350550Y0026276D02*
X0347801Y0026276D01*
X0348326Y0027187D02*
X0348326Y0027187D01*
X0348342Y0027275D02*
X0350550Y0027275D01*
X0350550Y0028273D02*
X0348518Y0028273D01*
X0348694Y0029272D02*
X0350550Y0029272D01*
X0350550Y0030270D02*
X0348870Y0030270D01*
X0349046Y0031269D02*
X0350550Y0031269D01*
X0350550Y0032268D02*
X0348878Y0032268D01*
X0348702Y0033266D02*
X0350550Y0033266D01*
X0350550Y0034265D02*
X0348526Y0034265D01*
X0348350Y0035263D02*
X0350550Y0035263D01*
X0350550Y0036262D02*
X0347826Y0036262D01*
X0348326Y0035396D02*
X0348326Y0035396D01*
X0347250Y0037260D02*
X0350550Y0037260D01*
X0350550Y0038259D02*
X0346673Y0038259D01*
X0345942Y0039257D02*
X0350550Y0039257D01*
X0350550Y0040256D02*
X0344752Y0040256D01*
X0343562Y0041254D02*
X0350550Y0041254D01*
X0350550Y0042253D02*
X0341487Y0042253D01*
X0343050Y0041684D02*
X0343050Y0041684D01*
X0350550Y0043251D02*
X0324170Y0043251D01*
X0324050Y0043371D02*
X0324050Y0065463D01*
X0324493Y0065906D01*
X0325124Y0065906D01*
X0326184Y0066346D01*
X0326996Y0067157D01*
X0327435Y0068217D01*
X0327435Y0069365D01*
X0326996Y0070426D01*
X0326184Y0071237D01*
X0325124Y0071676D01*
X0323976Y0071676D01*
X0322916Y0071237D01*
X0322104Y0070426D01*
X0321665Y0069365D01*
X0321665Y0068735D01*
X0320050Y0067120D01*
X0320050Y0043371D01*
X0319604Y0042926D01*
X0319165Y0041865D01*
X0319165Y0040717D01*
X0319604Y0039657D01*
X0320416Y0038846D01*
X0321476Y0038406D01*
X0322624Y0038406D01*
X0323684Y0038846D01*
X0324496Y0039657D01*
X0324935Y0040717D01*
X0324935Y0041865D01*
X0324496Y0042926D01*
X0324050Y0043371D01*
X0324050Y0044250D02*
X0350550Y0044250D01*
X0350550Y0045248D02*
X0324050Y0045248D01*
X0324050Y0046247D02*
X0350550Y0046247D01*
X0350273Y0047245D02*
X0324050Y0047245D01*
X0324050Y0048244D02*
X0349781Y0048244D01*
X0349781Y0049242D02*
X0324050Y0049242D01*
X0324050Y0050241D02*
X0349781Y0050241D01*
X0349781Y0051239D02*
X0324050Y0051239D01*
X0324050Y0052238D02*
X0349781Y0052238D01*
X0349781Y0053236D02*
X0324050Y0053236D01*
X0324050Y0054235D02*
X0349781Y0054235D01*
X0349781Y0055233D02*
X0324050Y0055233D01*
X0324050Y0056232D02*
X0349781Y0056232D01*
X0349781Y0057230D02*
X0324050Y0057230D01*
X0324050Y0058229D02*
X0349781Y0058229D01*
X0349781Y0059227D02*
X0324050Y0059227D01*
X0324050Y0060226D02*
X0349781Y0060226D01*
X0349781Y0061224D02*
X0324050Y0061224D01*
X0324050Y0062223D02*
X0349781Y0062223D01*
X0349781Y0063221D02*
X0324050Y0063221D01*
X0324050Y0064220D02*
X0349781Y0064220D01*
X0349781Y0065218D02*
X0324050Y0065218D01*
X0325874Y0066217D02*
X0349781Y0066217D01*
X0349781Y0067215D02*
X0327020Y0067215D01*
X0327434Y0068214D02*
X0349781Y0068214D01*
X0349781Y0069212D02*
X0327435Y0069212D01*
X0327085Y0070211D02*
X0349781Y0070211D01*
X0349781Y0071209D02*
X0326212Y0071209D01*
X0324550Y0068791D02*
X0322050Y0066291D01*
X0322050Y0041291D01*
X0324096Y0039257D02*
X0328158Y0039257D01*
X0327427Y0038259D02*
X0256450Y0038259D01*
X0256450Y0039257D02*
X0320004Y0039257D01*
X0319356Y0040256D02*
X0256450Y0040256D01*
X0256450Y0041254D02*
X0319165Y0041254D01*
X0319325Y0042253D02*
X0256450Y0042253D01*
X0256450Y0043251D02*
X0319930Y0043251D01*
X0320050Y0044250D02*
X0255779Y0044250D01*
X0254780Y0045248D02*
X0320050Y0045248D01*
X0320050Y0046247D02*
X0235175Y0046247D01*
X0235776Y0045248D02*
X0239320Y0045248D01*
X0238321Y0044250D02*
X0235935Y0044250D01*
X0235742Y0043251D02*
X0237650Y0043251D01*
X0237650Y0042253D02*
X0235091Y0042253D01*
X0234643Y0041254D02*
X0237650Y0041254D01*
X0237650Y0040256D02*
X0235566Y0040256D01*
X0235935Y0039257D02*
X0237650Y0039257D01*
X0237650Y0038259D02*
X0235935Y0038259D01*
X0235538Y0037260D02*
X0237650Y0037260D01*
X0243779Y0044250D02*
X0244321Y0044250D01*
X0245320Y0045248D02*
X0242780Y0045248D01*
X0248780Y0045248D02*
X0251320Y0045248D01*
X0250321Y0044250D02*
X0249779Y0044250D01*
X0246928Y0051239D02*
X0320050Y0051239D01*
X0320050Y0050241D02*
X0131550Y0050241D01*
X0131578Y0051239D02*
X0226172Y0051239D01*
X0225916Y0051346D02*
X0226976Y0050906D01*
X0228124Y0050906D01*
X0229184Y0051346D01*
X0229730Y0051891D01*
X0243370Y0051891D01*
X0243916Y0051346D01*
X0244976Y0050906D01*
X0246124Y0050906D01*
X0247184Y0051346D01*
X0247996Y0052157D01*
X0248435Y0053217D01*
X0248435Y0054365D01*
X0247996Y0055426D01*
X0247184Y0056237D01*
X0246124Y0056676D01*
X0244976Y0056676D01*
X0243916Y0056237D01*
X0243370Y0055691D01*
X0229730Y0055691D01*
X0229184Y0056237D01*
X0228124Y0056676D01*
X0226976Y0056676D01*
X0225916Y0056237D01*
X0225104Y0055426D01*
X0224665Y0054365D01*
X0224665Y0053217D01*
X0225104Y0052157D01*
X0225916Y0051346D01*
X0225071Y0052238D02*
X0132236Y0052238D01*
X0132435Y0053236D02*
X0224665Y0053236D01*
X0224665Y0054235D02*
X0132282Y0054235D01*
X0131688Y0055233D02*
X0225025Y0055233D01*
X0225910Y0056232D02*
X0019783Y0056232D01*
X0019935Y0055233D02*
X0113912Y0055233D01*
X0113604Y0054926D02*
X0113165Y0053865D01*
X0113165Y0052717D01*
X0113604Y0051657D01*
X0114150Y0051111D01*
X0114150Y0045971D01*
X0113604Y0045426D01*
X0113165Y0044365D01*
X0113165Y0043217D01*
X0113604Y0042157D01*
X0114416Y0041346D01*
X0115476Y0040906D01*
X0116624Y0040906D01*
X0117684Y0041346D01*
X0118496Y0042157D01*
X0118935Y0043217D01*
X0118935Y0044365D01*
X0118496Y0045426D01*
X0117950Y0045971D01*
X0117950Y0051111D01*
X0118496Y0051657D01*
X0118935Y0052717D01*
X0118935Y0053865D01*
X0118496Y0054926D01*
X0117684Y0055737D01*
X0116624Y0056176D01*
X0115476Y0056176D01*
X0114416Y0055737D01*
X0113604Y0054926D01*
X0113318Y0054235D02*
X0020794Y0054235D01*
X0021792Y0053236D02*
X0113165Y0053236D01*
X0113364Y0052238D02*
X0022791Y0052238D01*
X0023789Y0051239D02*
X0114022Y0051239D01*
X0114150Y0050241D02*
X0024788Y0050241D01*
X0025786Y0049242D02*
X0114150Y0049242D01*
X0114150Y0048244D02*
X0026785Y0048244D01*
X0027783Y0047245D02*
X0046435Y0047245D01*
X0045530Y0046247D02*
X0028782Y0046247D01*
X0029780Y0045248D02*
X0044688Y0045248D01*
X0043690Y0044250D02*
X0030779Y0044250D01*
X0031777Y0043251D02*
X0042732Y0043251D01*
X0042350Y0042253D02*
X0032776Y0042253D01*
X0033774Y0041254D02*
X0042350Y0041254D01*
X0042350Y0040256D02*
X0034773Y0040256D01*
X0035771Y0039257D02*
X0042350Y0039257D01*
X0042350Y0038259D02*
X0036770Y0038259D01*
X0037768Y0037260D02*
X0042165Y0037260D01*
X0042165Y0036262D02*
X0038767Y0036262D01*
X0039765Y0035263D02*
X0042560Y0035263D01*
X0043611Y0034265D02*
X0040764Y0034265D01*
X0041762Y0033266D02*
X0197445Y0033266D01*
X0196832Y0032268D02*
X0163529Y0032268D01*
X0163350Y0032446D02*
X0161766Y0033102D01*
X0160051Y0033102D01*
X0158466Y0032446D01*
X0157254Y0031233D01*
X0156597Y0029649D01*
X0156597Y0027934D01*
X0157254Y0026349D01*
X0158466Y0025137D01*
X0160051Y0024480D01*
X0161766Y0024480D01*
X0163350Y0025137D01*
X0164563Y0026349D01*
X0165219Y0027934D01*
X0165219Y0029649D01*
X0164563Y0031233D01*
X0163350Y0032446D01*
X0164527Y0031269D02*
X0196665Y0031269D01*
X0196850Y0030270D02*
X0164962Y0030270D01*
X0165219Y0029272D02*
X0197489Y0029272D01*
X0214910Y0044250D02*
X0219324Y0044250D01*
X0219165Y0043251D02*
X0215909Y0043251D01*
X0216907Y0042253D02*
X0219358Y0042253D01*
X0220007Y0041254D02*
X0218143Y0041254D01*
X0219927Y0045248D02*
X0214173Y0045248D01*
X0209927Y0045248D02*
X0132069Y0045248D01*
X0131550Y0046247D02*
X0230925Y0046247D01*
X0228928Y0051239D02*
X0244172Y0051239D01*
X0248029Y0052238D02*
X0320050Y0052238D01*
X0320050Y0053236D02*
X0248435Y0053236D01*
X0248435Y0054235D02*
X0320050Y0054235D01*
X0320050Y0055233D02*
X0248075Y0055233D01*
X0247190Y0056232D02*
X0320050Y0056232D01*
X0320050Y0057230D02*
X0019191Y0057230D01*
X0014909Y0057230D02*
X0003550Y0057230D01*
X0003550Y0056232D02*
X0014317Y0056232D01*
X0014165Y0055233D02*
X0003550Y0055233D01*
X0003550Y0054235D02*
X0011913Y0054235D01*
X0011026Y0053236D02*
X0003550Y0053236D01*
X0003550Y0052238D02*
X0010665Y0052238D01*
X0010665Y0051239D02*
X0003550Y0051239D01*
X0003550Y0050241D02*
X0011070Y0050241D01*
X0012165Y0049242D02*
X0003550Y0049242D01*
X0003550Y0048244D02*
X0014411Y0048244D01*
X0015409Y0047245D02*
X0003550Y0047245D01*
X0003550Y0046247D02*
X0016408Y0046247D01*
X0017406Y0045248D02*
X0003550Y0045248D01*
X0003550Y0044250D02*
X0018405Y0044250D01*
X0019403Y0043251D02*
X0003550Y0043251D01*
X0003550Y0042253D02*
X0012613Y0042253D01*
X0010538Y0041254D02*
X0003550Y0041254D01*
X0003550Y0040256D02*
X0009348Y0040256D01*
X0008158Y0039257D02*
X0003550Y0039257D01*
X0003550Y0038259D02*
X0007427Y0038259D01*
X0007857Y0039005D02*
X0007857Y0039005D01*
X0006850Y0037260D02*
X0003550Y0037260D01*
X0003550Y0036262D02*
X0006274Y0036262D01*
X0005750Y0035263D02*
X0003550Y0035263D01*
X0003550Y0034265D02*
X0005574Y0034265D01*
X0005398Y0033266D02*
X0003550Y0033266D01*
X0003550Y0032268D02*
X0005222Y0032268D01*
X0005050Y0031291D02*
X0005050Y0031291D01*
X0005054Y0031269D02*
X0003550Y0031269D01*
X0003550Y0030270D02*
X0005230Y0030270D01*
X0005406Y0029272D02*
X0003550Y0029272D01*
X0003550Y0028273D02*
X0005582Y0028273D01*
X0005758Y0027275D02*
X0003550Y0027275D01*
X0003550Y0026276D02*
X0006299Y0026276D01*
X0005774Y0027187D02*
X0005774Y0027187D01*
X0006876Y0025278D02*
X0003550Y0025278D01*
X0003550Y0024279D02*
X0007452Y0024279D01*
X0008211Y0023281D02*
X0003550Y0023281D01*
X0003550Y0022282D02*
X0009401Y0022282D01*
X0010591Y0021284D02*
X0003550Y0021284D01*
X0003550Y0020285D02*
X0012736Y0020285D01*
X0011050Y0020899D02*
X0011050Y0020899D01*
X0003550Y0019287D02*
X0043367Y0019287D01*
X0042369Y0020285D02*
X0021364Y0020285D01*
X0023050Y0020899D02*
X0023050Y0020899D01*
X0023509Y0021284D02*
X0041370Y0021284D01*
X0040372Y0022282D02*
X0024699Y0022282D01*
X0025889Y0023281D02*
X0039373Y0023281D01*
X0038375Y0024279D02*
X0026648Y0024279D01*
X0026243Y0023578D02*
X0026243Y0023578D01*
X0027224Y0025278D02*
X0037376Y0025278D01*
X0036378Y0026276D02*
X0027801Y0026276D01*
X0028326Y0027187D02*
X0028326Y0027187D01*
X0028342Y0027275D02*
X0035379Y0027275D01*
X0034381Y0028273D02*
X0028518Y0028273D01*
X0028694Y0029272D02*
X0033382Y0029272D01*
X0032384Y0030270D02*
X0028870Y0030270D01*
X0029046Y0031269D02*
X0031385Y0031269D01*
X0030387Y0032268D02*
X0028878Y0032268D01*
X0028702Y0033266D02*
X0029388Y0033266D01*
X0042761Y0032268D02*
X0140571Y0032268D01*
X0140750Y0032446D02*
X0139537Y0031233D01*
X0138881Y0029649D01*
X0138881Y0027934D01*
X0139537Y0026349D01*
X0140750Y0025137D01*
X0142334Y0024480D01*
X0144049Y0024480D01*
X0145634Y0025137D01*
X0146846Y0026349D01*
X0147503Y0027934D01*
X0147503Y0029649D01*
X0146846Y0031233D01*
X0145634Y0032446D01*
X0144049Y0033102D01*
X0142334Y0033102D01*
X0140750Y0032446D01*
X0139573Y0031269D02*
X0043759Y0031269D01*
X0044758Y0030270D02*
X0139138Y0030270D01*
X0138881Y0029272D02*
X0045756Y0029272D01*
X0046755Y0028273D02*
X0138881Y0028273D01*
X0139154Y0027275D02*
X0047753Y0027275D01*
X0048752Y0026276D02*
X0139610Y0026276D01*
X0140608Y0025278D02*
X0049750Y0025278D01*
X0050749Y0024279D02*
X0247351Y0024279D01*
X0248350Y0025278D02*
X0163492Y0025278D01*
X0164490Y0026276D02*
X0249165Y0026276D01*
X0249335Y0027275D02*
X0164946Y0027275D01*
X0165219Y0028273D02*
X0249952Y0028273D01*
X0256761Y0032268D02*
X0257104Y0032268D01*
X0257759Y0031269D02*
X0325054Y0031269D01*
X0325050Y0031291D02*
X0325050Y0031291D01*
X0325222Y0032268D02*
X0259996Y0032268D01*
X0261041Y0033266D02*
X0325398Y0033266D01*
X0325574Y0034265D02*
X0261435Y0034265D01*
X0261435Y0035263D02*
X0325750Y0035263D01*
X0326274Y0036262D02*
X0261064Y0036262D01*
X0260129Y0037260D02*
X0326850Y0037260D01*
X0324744Y0040256D02*
X0329348Y0040256D01*
X0330538Y0041254D02*
X0324935Y0041254D01*
X0324775Y0042253D02*
X0332613Y0042253D01*
X0331050Y0041684D02*
X0331050Y0041684D01*
X0320050Y0047245D02*
X0131550Y0047245D01*
X0131550Y0048244D02*
X0320050Y0048244D01*
X0320050Y0049242D02*
X0131550Y0049242D01*
X0127550Y0049242D02*
X0117950Y0049242D01*
X0117950Y0048244D02*
X0127550Y0048244D01*
X0127550Y0047245D02*
X0117950Y0047245D01*
X0117950Y0046247D02*
X0127550Y0046247D01*
X0127031Y0045248D02*
X0118569Y0045248D01*
X0118935Y0044250D02*
X0126665Y0044250D01*
X0126665Y0043251D02*
X0118935Y0043251D01*
X0118535Y0042253D02*
X0127065Y0042253D01*
X0128136Y0041254D02*
X0117463Y0041254D01*
X0114636Y0041254D02*
X0048331Y0041254D01*
X0047750Y0040256D02*
X0133120Y0040256D01*
X0133514Y0041254D02*
X0130963Y0041254D01*
X0132035Y0042253D02*
X0134158Y0042253D01*
X0129550Y0043791D02*
X0129550Y0053291D01*
X0127522Y0051239D02*
X0118078Y0051239D01*
X0117950Y0050241D02*
X0127550Y0050241D01*
X0126864Y0052238D02*
X0118736Y0052238D01*
X0118935Y0053236D02*
X0126665Y0053236D01*
X0126818Y0054235D02*
X0118782Y0054235D01*
X0118188Y0055233D02*
X0127412Y0055233D01*
X0138104Y0062157D02*
X0138916Y0061346D01*
X0139976Y0060906D01*
X0141124Y0060906D01*
X0142184Y0061346D01*
X0142630Y0061791D01*
X0149970Y0061791D01*
X0150416Y0061346D01*
X0151476Y0060906D01*
X0152624Y0060906D01*
X0153684Y0061346D01*
X0154496Y0062157D01*
X0154935Y0063217D01*
X0154935Y0064365D01*
X0154496Y0065426D01*
X0153684Y0066237D01*
X0152624Y0066676D01*
X0151476Y0066676D01*
X0150416Y0066237D01*
X0149970Y0065791D01*
X0142630Y0065791D01*
X0142184Y0066237D01*
X0141124Y0066676D01*
X0139976Y0066676D01*
X0138916Y0066237D01*
X0138104Y0065426D01*
X0137665Y0064365D01*
X0137665Y0063217D01*
X0138104Y0062157D01*
X0138077Y0062223D02*
X0100787Y0062223D01*
X0100935Y0061865D02*
X0100496Y0062926D01*
X0099684Y0063737D01*
X0098624Y0064176D01*
X0097476Y0064176D01*
X0096416Y0063737D01*
X0095970Y0063291D01*
X0089630Y0063291D01*
X0089184Y0063737D01*
X0088124Y0064176D01*
X0086976Y0064176D01*
X0085916Y0063737D01*
X0085104Y0062926D01*
X0084665Y0061865D01*
X0084665Y0060717D01*
X0085104Y0059657D01*
X0085916Y0058846D01*
X0086976Y0058406D01*
X0088124Y0058406D01*
X0089184Y0058846D01*
X0089630Y0059291D01*
X0095970Y0059291D01*
X0096416Y0058846D01*
X0097476Y0058406D01*
X0098624Y0058406D01*
X0099684Y0058846D01*
X0100496Y0059657D01*
X0100935Y0060717D01*
X0100935Y0061865D01*
X0100935Y0061224D02*
X0139208Y0061224D01*
X0137665Y0063221D02*
X0100200Y0063221D01*
X0098050Y0061291D02*
X0087550Y0061291D01*
X0085534Y0059227D02*
X0003550Y0059227D01*
X0003550Y0058229D02*
X0320050Y0058229D01*
X0320050Y0059227D02*
X0100066Y0059227D01*
X0100731Y0060226D02*
X0320050Y0060226D01*
X0320050Y0061224D02*
X0263892Y0061224D01*
X0264184Y0061346D02*
X0264996Y0062157D01*
X0265435Y0063217D01*
X0265435Y0064365D01*
X0264996Y0065426D01*
X0264184Y0066237D01*
X0263124Y0066676D01*
X0262493Y0066676D01*
X0255435Y0073735D01*
X0255435Y0074365D01*
X0254996Y0075426D01*
X0254184Y0076237D01*
X0253124Y0076676D01*
X0251976Y0076676D01*
X0250916Y0076237D01*
X0250104Y0075426D01*
X0249665Y0074365D01*
X0249665Y0073217D01*
X0250104Y0072157D01*
X0250916Y0071346D01*
X0251976Y0070906D01*
X0252607Y0070906D01*
X0259665Y0063848D01*
X0259665Y0063217D01*
X0260104Y0062157D01*
X0260916Y0061346D01*
X0261976Y0060906D01*
X0263124Y0060906D01*
X0264184Y0061346D01*
X0265023Y0062223D02*
X0320050Y0062223D01*
X0320050Y0063221D02*
X0265435Y0063221D01*
X0265435Y0064220D02*
X0320050Y0064220D01*
X0320050Y0065218D02*
X0265082Y0065218D01*
X0264204Y0066217D02*
X0320050Y0066217D01*
X0320146Y0067215D02*
X0261954Y0067215D01*
X0260956Y0068214D02*
X0321144Y0068214D01*
X0321665Y0069212D02*
X0259957Y0069212D01*
X0258959Y0070211D02*
X0322015Y0070211D01*
X0322888Y0071209D02*
X0273856Y0071209D01*
X0274184Y0071346D02*
X0274996Y0072157D01*
X0275435Y0073217D01*
X0275435Y0074365D01*
X0274996Y0075426D01*
X0274184Y0076237D01*
X0273124Y0076676D01*
X0272493Y0076676D01*
X0265435Y0083735D01*
X0265435Y0084365D01*
X0264996Y0085426D01*
X0264184Y0086237D01*
X0263124Y0086676D01*
X0261976Y0086676D01*
X0260916Y0086237D01*
X0260104Y0085426D01*
X0259665Y0084365D01*
X0259665Y0083217D01*
X0260104Y0082157D01*
X0260916Y0081346D01*
X0261976Y0080906D01*
X0262607Y0080906D01*
X0269665Y0073848D01*
X0269665Y0073217D01*
X0270104Y0072157D01*
X0270916Y0071346D01*
X0271976Y0070906D01*
X0273124Y0070906D01*
X0274184Y0071346D01*
X0275017Y0072208D02*
X0349781Y0072208D01*
X0349781Y0073206D02*
X0275430Y0073206D01*
X0275435Y0074205D02*
X0349781Y0074205D01*
X0349781Y0075204D02*
X0275088Y0075204D01*
X0274219Y0076202D02*
X0349781Y0076202D01*
X0349781Y0077201D02*
X0271969Y0077201D01*
X0270971Y0078199D02*
X0349781Y0078199D01*
X0349781Y0079198D02*
X0269972Y0079198D01*
X0268974Y0080196D02*
X0349781Y0080196D01*
X0349781Y0081195D02*
X0267975Y0081195D01*
X0266977Y0082193D02*
X0349781Y0082193D01*
X0349781Y0083192D02*
X0265978Y0083192D01*
X0265435Y0084190D02*
X0349781Y0084190D01*
X0349781Y0085189D02*
X0265094Y0085189D01*
X0264234Y0086187D02*
X0349781Y0086187D01*
X0349781Y0087186D02*
X0147328Y0087186D01*
X0147178Y0087547D02*
X0146306Y0088419D01*
X0146150Y0088575D01*
X0146150Y0112408D01*
X0145678Y0113547D01*
X0144806Y0114419D01*
X0143667Y0114891D01*
X0142433Y0114891D01*
X0141294Y0114419D01*
X0140422Y0113547D01*
X0139950Y0112408D01*
X0139950Y0086675D01*
X0140422Y0085535D01*
X0141450Y0084507D01*
X0141450Y0075675D01*
X0141922Y0074535D01*
X0142794Y0073663D01*
X0143933Y0073191D01*
X0145167Y0073191D01*
X0146306Y0073663D01*
X0147178Y0074535D01*
X0147650Y0075675D01*
X0147650Y0086408D01*
X0147178Y0087547D01*
X0146541Y0088184D02*
X0349781Y0088184D01*
X0349781Y0089183D02*
X0146150Y0089183D01*
X0146150Y0090181D02*
X0349781Y0090181D01*
X0349781Y0091180D02*
X0146150Y0091180D01*
X0146150Y0092178D02*
X0349781Y0092178D01*
X0349781Y0093177D02*
X0146150Y0093177D01*
X0146150Y0094175D02*
X0349781Y0094175D01*
X0349781Y0095174D02*
X0146150Y0095174D01*
X0146150Y0096172D02*
X0349781Y0096172D01*
X0349781Y0097171D02*
X0146150Y0097171D01*
X0146150Y0098169D02*
X0349781Y0098169D01*
X0349781Y0099168D02*
X0146150Y0099168D01*
X0146150Y0100166D02*
X0349781Y0100166D01*
X0349781Y0101165D02*
X0146150Y0101165D01*
X0146150Y0102163D02*
X0349781Y0102163D01*
X0349781Y0103162D02*
X0146150Y0103162D01*
X0146150Y0104160D02*
X0320101Y0104160D01*
X0320416Y0103846D02*
X0321476Y0103406D01*
X0322624Y0103406D01*
X0323684Y0103846D01*
X0324496Y0104657D01*
X0324935Y0105717D01*
X0324935Y0106865D01*
X0324496Y0107926D01*
X0324050Y0108371D01*
X0324050Y0112963D01*
X0326050Y0114963D01*
X0326050Y0113371D01*
X0325604Y0112926D01*
X0325165Y0111865D01*
X0325165Y0110717D01*
X0325604Y0109657D01*
X0326416Y0108846D01*
X0327476Y0108406D01*
X0328624Y0108406D01*
X0329684Y0108846D01*
X0330496Y0109657D01*
X0330935Y0110717D01*
X0330935Y0111865D01*
X0330496Y0112926D01*
X0330050Y0113371D01*
X0330050Y0133211D01*
X0330496Y0133657D01*
X0330935Y0134717D01*
X0330935Y0135865D01*
X0330496Y0136926D01*
X0329684Y0137737D01*
X0328624Y0138176D01*
X0327476Y0138176D01*
X0326416Y0137737D01*
X0325604Y0136926D01*
X0325165Y0135865D01*
X0325165Y0134717D01*
X0325604Y0133657D01*
X0326050Y0133211D01*
X0326050Y0132293D01*
X0325124Y0132676D01*
X0323976Y0132676D01*
X0322916Y0132237D01*
X0322104Y0131426D01*
X0321665Y0130365D01*
X0321665Y0129217D01*
X0321694Y0129147D01*
X0321624Y0129176D01*
X0320476Y0129176D01*
X0319416Y0128737D01*
X0318604Y0127926D01*
X0318165Y0126865D01*
X0318165Y0126235D01*
X0315050Y0123120D01*
X0315050Y0113371D01*
X0314604Y0112926D01*
X0314165Y0111865D01*
X0314165Y0110717D01*
X0314604Y0109657D01*
X0315416Y0108846D01*
X0316476Y0108406D01*
X0317624Y0108406D01*
X0318684Y0108846D01*
X0319496Y0109657D01*
X0319935Y0110717D01*
X0319935Y0111865D01*
X0319496Y0112926D01*
X0319050Y0113371D01*
X0319050Y0121463D01*
X0320993Y0123406D01*
X0321624Y0123406D01*
X0322550Y0123790D01*
X0322550Y0117120D01*
X0321222Y0115791D01*
X0320050Y0114620D01*
X0320050Y0108371D01*
X0319604Y0107926D01*
X0319165Y0106865D01*
X0319165Y0105717D01*
X0319604Y0104657D01*
X0320416Y0103846D01*
X0319396Y0105159D02*
X0146150Y0105159D01*
X0146150Y0106157D02*
X0319165Y0106157D01*
X0319285Y0107156D02*
X0146150Y0107156D01*
X0146150Y0108154D02*
X0319833Y0108154D01*
X0320050Y0109153D02*
X0318992Y0109153D01*
X0319701Y0110151D02*
X0320050Y0110151D01*
X0320050Y0111150D02*
X0319935Y0111150D01*
X0319818Y0112148D02*
X0320050Y0112148D01*
X0320050Y0113147D02*
X0319274Y0113147D01*
X0319050Y0114145D02*
X0320050Y0114145D01*
X0320574Y0115144D02*
X0319050Y0115144D01*
X0319050Y0116142D02*
X0321573Y0116142D01*
X0322550Y0117141D02*
X0319050Y0117141D01*
X0319050Y0118139D02*
X0322550Y0118139D01*
X0322550Y0119138D02*
X0319050Y0119138D01*
X0319050Y0120137D02*
X0322550Y0120137D01*
X0322550Y0121135D02*
X0319050Y0121135D01*
X0319721Y0122134D02*
X0322550Y0122134D01*
X0322550Y0123132D02*
X0320719Y0123132D01*
X0321050Y0126291D02*
X0317050Y0122291D01*
X0317050Y0111291D01*
X0314399Y0110151D02*
X0296990Y0110151D01*
X0296996Y0110157D02*
X0297435Y0111217D01*
X0297435Y0112365D01*
X0296996Y0113426D01*
X0296550Y0113871D01*
X0296550Y0129211D01*
X0296996Y0129657D01*
X0297435Y0130717D01*
X0297435Y0131865D01*
X0296996Y0132926D01*
X0296184Y0133737D01*
X0295124Y0134176D01*
X0293976Y0134176D01*
X0292916Y0133737D01*
X0292104Y0132926D01*
X0291665Y0131865D01*
X0291665Y0130717D01*
X0292104Y0129657D01*
X0292550Y0129211D01*
X0292550Y0113871D01*
X0292104Y0113426D01*
X0291665Y0112365D01*
X0291665Y0111217D01*
X0292104Y0110157D01*
X0292916Y0109346D01*
X0293976Y0108906D01*
X0295124Y0108906D01*
X0296184Y0109346D01*
X0296996Y0110157D01*
X0297407Y0111150D02*
X0314165Y0111150D01*
X0314282Y0112148D02*
X0297435Y0112148D01*
X0297111Y0113147D02*
X0314826Y0113147D01*
X0315050Y0114145D02*
X0296550Y0114145D01*
X0296550Y0115144D02*
X0315050Y0115144D01*
X0315050Y0116142D02*
X0296550Y0116142D01*
X0296550Y0117141D02*
X0315050Y0117141D01*
X0315050Y0118139D02*
X0296550Y0118139D01*
X0296550Y0119138D02*
X0315050Y0119138D01*
X0315050Y0120137D02*
X0296550Y0120137D01*
X0296550Y0121135D02*
X0315050Y0121135D01*
X0315050Y0122134D02*
X0296550Y0122134D01*
X0296550Y0123132D02*
X0315062Y0123132D01*
X0316061Y0124131D02*
X0296550Y0124131D01*
X0296550Y0125129D02*
X0317059Y0125129D01*
X0318058Y0126128D02*
X0296550Y0126128D01*
X0296550Y0127126D02*
X0318273Y0127126D01*
X0318803Y0128125D02*
X0296550Y0128125D01*
X0296550Y0129123D02*
X0320348Y0129123D01*
X0321665Y0130122D02*
X0297188Y0130122D01*
X0297435Y0131120D02*
X0321978Y0131120D01*
X0322797Y0132119D02*
X0297330Y0132119D01*
X0296804Y0133117D02*
X0326050Y0133117D01*
X0325414Y0134116D02*
X0295270Y0134116D01*
X0293830Y0134116D02*
X0249550Y0134116D01*
X0249550Y0135114D02*
X0325165Y0135114D01*
X0325268Y0136113D02*
X0249550Y0136113D01*
X0249550Y0137111D02*
X0325790Y0137111D01*
X0327315Y0138110D02*
X0249550Y0138110D01*
X0249550Y0139108D02*
X0282653Y0139108D01*
X0282916Y0138846D02*
X0283976Y0138406D01*
X0285124Y0138406D01*
X0285570Y0138591D01*
X0334030Y0138591D01*
X0334476Y0138406D01*
X0335624Y0138406D01*
X0336684Y0138846D01*
X0337496Y0139657D01*
X0337935Y0140717D01*
X0337935Y0141865D01*
X0337496Y0142926D01*
X0336684Y0143737D01*
X0335624Y0144176D01*
X0334476Y0144176D01*
X0334030Y0143991D01*
X0285570Y0143991D01*
X0285124Y0144176D01*
X0283976Y0144176D01*
X0282916Y0143737D01*
X0282104Y0142926D01*
X0281665Y0141865D01*
X0281665Y0140717D01*
X0282104Y0139657D01*
X0282916Y0138846D01*
X0281918Y0140107D02*
X0249550Y0140107D01*
X0249550Y0141105D02*
X0281665Y0141105D01*
X0281764Y0142104D02*
X0249550Y0142104D01*
X0249550Y0143102D02*
X0282281Y0143102D01*
X0283794Y0144101D02*
X0249550Y0144101D01*
X0249550Y0145099D02*
X0338050Y0145099D01*
X0338050Y0144101D02*
X0335806Y0144101D01*
X0334294Y0144101D02*
X0285306Y0144101D01*
X0292296Y0133117D02*
X0249550Y0133117D01*
X0249550Y0132119D02*
X0291770Y0132119D01*
X0291665Y0131120D02*
X0249550Y0131120D01*
X0249550Y0130122D02*
X0291912Y0130122D01*
X0292550Y0129123D02*
X0249550Y0129123D01*
X0249550Y0128125D02*
X0292550Y0128125D01*
X0292550Y0127126D02*
X0249550Y0127126D01*
X0249550Y0126871D02*
X0249550Y0148711D01*
X0249996Y0149157D01*
X0250435Y0150217D01*
X0250435Y0151365D01*
X0249996Y0152426D01*
X0249184Y0153237D01*
X0248124Y0153676D01*
X0246976Y0153676D01*
X0245916Y0153237D01*
X0245104Y0152426D01*
X0244665Y0151365D01*
X0244665Y0150217D01*
X0245104Y0149157D01*
X0245550Y0148711D01*
X0245550Y0126871D01*
X0245104Y0126426D01*
X0244665Y0125365D01*
X0244665Y0124217D01*
X0245104Y0123157D01*
X0245916Y0122346D01*
X0246976Y0121906D01*
X0248124Y0121906D01*
X0249184Y0122346D01*
X0249996Y0123157D01*
X0250435Y0124217D01*
X0250435Y0125365D01*
X0249996Y0126426D01*
X0249550Y0126871D01*
X0250119Y0126128D02*
X0292550Y0126128D01*
X0292550Y0125129D02*
X0250435Y0125129D01*
X0250399Y0124131D02*
X0292550Y0124131D01*
X0292550Y0123132D02*
X0249971Y0123132D01*
X0248672Y0122134D02*
X0292550Y0122134D01*
X0292550Y0121135D02*
X0080035Y0121135D01*
X0080493Y0120676D02*
X0074935Y0126235D01*
X0074935Y0126865D01*
X0074496Y0127926D01*
X0073684Y0128737D01*
X0072624Y0129176D01*
X0071476Y0129176D01*
X0070416Y0128737D01*
X0069604Y0127926D01*
X0069165Y0126865D01*
X0069165Y0125717D01*
X0069604Y0124657D01*
X0070416Y0123846D01*
X0071476Y0123406D01*
X0072107Y0123406D01*
X0077665Y0117848D01*
X0077665Y0117217D01*
X0078104Y0116157D01*
X0078916Y0115346D01*
X0079976Y0114906D01*
X0081124Y0114906D01*
X0082184Y0115346D01*
X0082996Y0116157D01*
X0083435Y0117217D01*
X0083435Y0118365D01*
X0082996Y0119426D01*
X0082184Y0120237D01*
X0081124Y0120676D01*
X0080493Y0120676D01*
X0082285Y0120137D02*
X0292550Y0120137D01*
X0292550Y0119138D02*
X0083115Y0119138D01*
X0083435Y0118139D02*
X0292550Y0118139D01*
X0292550Y0117141D02*
X0083403Y0117141D01*
X0082981Y0116142D02*
X0292550Y0116142D01*
X0292550Y0115144D02*
X0081698Y0115144D01*
X0079402Y0115144D02*
X0003550Y0115144D01*
X0003550Y0116142D02*
X0078119Y0116142D01*
X0077697Y0117141D02*
X0003550Y0117141D01*
X0003550Y0118139D02*
X0077373Y0118139D01*
X0076375Y0119138D02*
X0003550Y0119138D01*
X0003550Y0120137D02*
X0075376Y0120137D01*
X0074378Y0121135D02*
X0003550Y0121135D01*
X0003550Y0122134D02*
X0073379Y0122134D01*
X0072381Y0123132D02*
X0003550Y0123132D01*
X0003550Y0124131D02*
X0070131Y0124131D01*
X0069409Y0125129D02*
X0003550Y0125129D01*
X0003550Y0126128D02*
X0069165Y0126128D01*
X0069273Y0127126D02*
X0003550Y0127126D01*
X0003550Y0128125D02*
X0069803Y0128125D01*
X0071348Y0129123D02*
X0003550Y0129123D01*
X0003550Y0130122D02*
X0245550Y0130122D01*
X0245550Y0131120D02*
X0230640Y0131120D01*
X0230124Y0130906D02*
X0231184Y0131346D01*
X0231996Y0132157D01*
X0232435Y0133217D01*
X0232435Y0134365D01*
X0231996Y0135426D01*
X0231450Y0135971D01*
X0231450Y0144611D01*
X0231996Y0145157D01*
X0232435Y0146217D01*
X0232435Y0147365D01*
X0231996Y0148426D01*
X0231184Y0149237D01*
X0230124Y0149676D01*
X0228976Y0149676D01*
X0227916Y0149237D01*
X0227104Y0148426D01*
X0226665Y0147365D01*
X0226665Y0146217D01*
X0227104Y0145157D01*
X0227650Y0144611D01*
X0227650Y0135971D01*
X0227104Y0135426D01*
X0226665Y0134365D01*
X0226665Y0133217D01*
X0227104Y0132157D01*
X0227916Y0131346D01*
X0228976Y0130906D01*
X0230124Y0130906D01*
X0228460Y0131120D02*
X0220640Y0131120D01*
X0220124Y0130906D02*
X0221184Y0131346D01*
X0221996Y0132157D01*
X0222435Y0133217D01*
X0222435Y0134365D01*
X0221996Y0135426D01*
X0221450Y0135971D01*
X0221450Y0148111D01*
X0221996Y0148657D01*
X0222435Y0149717D01*
X0222435Y0150865D01*
X0221996Y0151926D01*
X0221184Y0152737D01*
X0220124Y0153176D01*
X0218976Y0153176D01*
X0217916Y0152737D01*
X0217104Y0151926D01*
X0216665Y0150865D01*
X0216665Y0149717D01*
X0217104Y0148657D01*
X0217650Y0148111D01*
X0217650Y0135971D01*
X0217104Y0135426D01*
X0216665Y0134365D01*
X0216665Y0133217D01*
X0217104Y0132157D01*
X0217916Y0131346D01*
X0218976Y0130906D01*
X0220124Y0130906D01*
X0218460Y0131120D02*
X0003550Y0131120D01*
X0003550Y0132119D02*
X0217143Y0132119D01*
X0216707Y0133117D02*
X0003550Y0133117D01*
X0003550Y0134116D02*
X0216665Y0134116D01*
X0216975Y0135114D02*
X0003550Y0135114D01*
X0003550Y0136113D02*
X0217650Y0136113D01*
X0217650Y0137111D02*
X0003550Y0137111D01*
X0003550Y0138110D02*
X0217650Y0138110D01*
X0217650Y0139108D02*
X0201751Y0139108D01*
X0202178Y0139535D02*
X0202650Y0140675D01*
X0202650Y0162908D01*
X0202178Y0164047D01*
X0201306Y0164919D01*
X0200167Y0165391D01*
X0198933Y0165391D01*
X0197794Y0164919D01*
X0196922Y0164047D01*
X0196450Y0162908D01*
X0196450Y0140675D01*
X0196922Y0139535D01*
X0197794Y0138663D01*
X0198933Y0138191D01*
X0200167Y0138191D01*
X0201306Y0138663D01*
X0202178Y0139535D01*
X0202415Y0140107D02*
X0217650Y0140107D01*
X0217650Y0141105D02*
X0202650Y0141105D01*
X0202650Y0142104D02*
X0217650Y0142104D01*
X0217650Y0143102D02*
X0202650Y0143102D01*
X0202650Y0144101D02*
X0217650Y0144101D01*
X0217650Y0145099D02*
X0202650Y0145099D01*
X0202650Y0146098D02*
X0217650Y0146098D01*
X0217650Y0147096D02*
X0202650Y0147096D01*
X0202650Y0148095D02*
X0217650Y0148095D01*
X0216924Y0149093D02*
X0202650Y0149093D01*
X0202650Y0150092D02*
X0216665Y0150092D01*
X0216758Y0151090D02*
X0202650Y0151090D01*
X0202650Y0152089D02*
X0217268Y0152089D01*
X0218761Y0153087D02*
X0202650Y0153087D01*
X0202650Y0154086D02*
X0265675Y0154086D01*
X0265916Y0153846D02*
X0266976Y0153406D01*
X0268124Y0153406D01*
X0269184Y0153846D01*
X0269630Y0154291D01*
X0317470Y0154291D01*
X0317916Y0153846D01*
X0318976Y0153406D01*
X0320124Y0153406D01*
X0321184Y0153846D01*
X0321630Y0154291D01*
X0331470Y0154291D01*
X0331916Y0153846D01*
X0332976Y0153406D01*
X0334124Y0153406D01*
X0335184Y0153846D01*
X0335996Y0154657D01*
X0336435Y0155717D01*
X0336435Y0156865D01*
X0335996Y0157926D01*
X0335184Y0158737D01*
X0334124Y0159176D01*
X0332976Y0159176D01*
X0331916Y0158737D01*
X0331470Y0158291D01*
X0321630Y0158291D01*
X0321184Y0158737D01*
X0320124Y0159176D01*
X0318976Y0159176D01*
X0317916Y0158737D01*
X0317470Y0158291D01*
X0269630Y0158291D01*
X0269184Y0158737D01*
X0268124Y0159176D01*
X0266976Y0159176D01*
X0265916Y0158737D01*
X0265104Y0157926D01*
X0264665Y0156865D01*
X0264665Y0155717D01*
X0265104Y0154657D01*
X0265916Y0153846D01*
X0264927Y0155084D02*
X0202650Y0155084D01*
X0202650Y0156083D02*
X0264665Y0156083D01*
X0264755Y0157081D02*
X0202650Y0157081D01*
X0202650Y0158080D02*
X0265259Y0158080D01*
X0266740Y0159078D02*
X0202650Y0159078D01*
X0202650Y0160077D02*
X0350550Y0160077D01*
X0350550Y0161075D02*
X0202650Y0161075D01*
X0202650Y0162074D02*
X0350550Y0162074D01*
X0350550Y0163073D02*
X0202582Y0163073D01*
X0202154Y0164071D02*
X0350550Y0164071D01*
X0350550Y0165070D02*
X0200944Y0165070D01*
X0198156Y0165070D02*
X0142650Y0165070D01*
X0142650Y0166068D02*
X0350550Y0166068D01*
X0350550Y0167067D02*
X0142650Y0167067D01*
X0142650Y0168065D02*
X0350550Y0168065D01*
X0350550Y0169064D02*
X0142650Y0169064D01*
X0142650Y0169908D02*
X0142178Y0171047D01*
X0141306Y0171919D01*
X0140167Y0172391D01*
X0138933Y0172391D01*
X0137794Y0171919D01*
X0136922Y0171047D01*
X0136450Y0169908D01*
X0136450Y0140675D01*
X0136922Y0139535D01*
X0137794Y0138663D01*
X0138933Y0138191D01*
X0140167Y0138191D01*
X0141306Y0138663D01*
X0142178Y0139535D01*
X0142650Y0140675D01*
X0142650Y0169908D01*
X0142586Y0170062D02*
X0350550Y0170062D01*
X0350550Y0171061D02*
X0142165Y0171061D01*
X0140969Y0172059D02*
X0350550Y0172059D01*
X0350550Y0173058D02*
X0003550Y0173058D01*
X0003550Y0174056D02*
X0350550Y0174056D01*
X0350550Y0175055D02*
X0003550Y0175055D01*
X0003550Y0176053D02*
X0029657Y0176053D01*
X0029899Y0175953D02*
X0027937Y0176766D01*
X0026436Y0178267D01*
X0025623Y0180229D01*
X0025623Y0182353D01*
X0026436Y0184315D01*
X0027937Y0185817D01*
X0029899Y0186630D01*
X0039700Y0186630D01*
X0041663Y0185817D01*
X0043164Y0184315D01*
X0043977Y0182353D01*
X0043977Y0180229D01*
X0043164Y0178267D01*
X0041663Y0176766D01*
X0039700Y0175953D01*
X0029899Y0175953D01*
X0027651Y0177052D02*
X0003550Y0177052D01*
X0003550Y0178050D02*
X0026653Y0178050D01*
X0026112Y0179049D02*
X0003550Y0179049D01*
X0003550Y0180047D02*
X0025698Y0180047D01*
X0025623Y0181046D02*
X0003550Y0181046D01*
X0003550Y0182044D02*
X0025623Y0182044D01*
X0025908Y0183043D02*
X0003550Y0183043D01*
X0003550Y0184041D02*
X0026322Y0184041D01*
X0027160Y0185040D02*
X0003550Y0185040D01*
X0003550Y0186038D02*
X0028471Y0186038D01*
X0041129Y0186038D02*
X0203658Y0186038D01*
X0203976Y0185906D02*
X0205124Y0185906D01*
X0206184Y0186346D01*
X0206996Y0187157D01*
X0207435Y0188217D01*
X0207435Y0189365D01*
X0206996Y0190426D01*
X0206550Y0190871D01*
X0206550Y0204711D01*
X0206996Y0205157D01*
X0207435Y0206217D01*
X0207435Y0207365D01*
X0206996Y0208426D01*
X0206184Y0209237D01*
X0205124Y0209676D01*
X0203976Y0209676D01*
X0202916Y0209237D01*
X0202104Y0208426D01*
X0201665Y0207365D01*
X0201665Y0206217D01*
X0202104Y0205157D01*
X0202550Y0204711D01*
X0202550Y0190871D01*
X0202104Y0190426D01*
X0201665Y0189365D01*
X0201665Y0188217D01*
X0202104Y0187157D01*
X0202916Y0186346D01*
X0203976Y0185906D01*
X0205442Y0186038D02*
X0313019Y0186038D01*
X0312663Y0185857D02*
X0311984Y0185363D01*
X0311389Y0184769D01*
X0310895Y0184089D01*
X0310514Y0183341D01*
X0310254Y0182541D01*
X0310135Y0181791D01*
X0318800Y0181791D01*
X0318800Y0180791D01*
X0319800Y0180791D01*
X0319800Y0175953D01*
X0323559Y0175953D01*
X0324389Y0176084D01*
X0325188Y0176344D01*
X0325937Y0176725D01*
X0326616Y0177219D01*
X0327211Y0177813D01*
X0327705Y0178493D01*
X0328086Y0179242D01*
X0328346Y0180041D01*
X0328465Y0180791D01*
X0319800Y0180791D01*
X0319800Y0181791D01*
X0328465Y0181791D01*
X0328346Y0182541D01*
X0328086Y0183341D01*
X0327705Y0184089D01*
X0327211Y0184769D01*
X0326616Y0185363D01*
X0325937Y0185857D01*
X0325188Y0186239D01*
X0324389Y0186498D01*
X0323559Y0186630D01*
X0319800Y0186630D01*
X0319800Y0181791D01*
X0318800Y0181791D01*
X0318800Y0186630D01*
X0315041Y0186630D01*
X0314211Y0186498D01*
X0313412Y0186239D01*
X0312663Y0185857D01*
X0311660Y0185040D02*
X0042440Y0185040D01*
X0043278Y0184041D02*
X0310871Y0184041D01*
X0310417Y0183043D02*
X0043692Y0183043D01*
X0043977Y0182044D02*
X0310176Y0182044D01*
X0310135Y0180791D02*
X0310254Y0180041D01*
X0310514Y0179242D01*
X0310895Y0178493D01*
X0311389Y0177813D01*
X0311984Y0177219D01*
X0312663Y0176725D01*
X0313412Y0176344D01*
X0314211Y0176084D01*
X0315041Y0175953D01*
X0318800Y0175953D01*
X0318800Y0180791D01*
X0310135Y0180791D01*
X0310253Y0180047D02*
X0043902Y0180047D01*
X0043977Y0181046D02*
X0318800Y0181046D01*
X0318800Y0182044D02*
X0319800Y0182044D01*
X0319800Y0181046D02*
X0350550Y0181046D01*
X0350550Y0182044D02*
X0328424Y0182044D01*
X0328183Y0183043D02*
X0350550Y0183043D01*
X0350550Y0184041D02*
X0327729Y0184041D01*
X0326940Y0185040D02*
X0350550Y0185040D01*
X0350550Y0186038D02*
X0325581Y0186038D01*
X0329604Y0188157D02*
X0329165Y0189217D01*
X0329165Y0190365D01*
X0329604Y0191426D01*
X0330416Y0192237D01*
X0331476Y0192676D01*
X0332107Y0192676D01*
X0341165Y0201735D01*
X0341165Y0202365D01*
X0341604Y0203426D01*
X0342416Y0204237D01*
X0343476Y0204676D01*
X0344624Y0204676D01*
X0345684Y0204237D01*
X0346496Y0203426D01*
X0346935Y0202365D01*
X0346935Y0201217D01*
X0346496Y0200157D01*
X0345684Y0199346D01*
X0344624Y0198906D01*
X0343993Y0198906D01*
X0334935Y0189848D01*
X0334935Y0189217D01*
X0334496Y0188157D01*
X0333684Y0187346D01*
X0332624Y0186906D01*
X0331476Y0186906D01*
X0330416Y0187346D01*
X0329604Y0188157D01*
X0329726Y0188035D02*
X0207360Y0188035D01*
X0207435Y0189034D02*
X0329241Y0189034D01*
X0329165Y0190032D02*
X0207159Y0190032D01*
X0206550Y0191031D02*
X0329441Y0191031D01*
X0330208Y0192029D02*
X0206550Y0192029D01*
X0206550Y0193028D02*
X0332458Y0193028D01*
X0333457Y0194026D02*
X0206550Y0194026D01*
X0206550Y0195025D02*
X0334455Y0195025D01*
X0335454Y0196023D02*
X0206550Y0196023D01*
X0206550Y0197022D02*
X0336452Y0197022D01*
X0337451Y0198020D02*
X0206550Y0198020D01*
X0206550Y0199019D02*
X0338449Y0199019D01*
X0339448Y0200017D02*
X0206550Y0200017D01*
X0206550Y0201016D02*
X0340446Y0201016D01*
X0341165Y0202014D02*
X0206550Y0202014D01*
X0206550Y0203013D02*
X0341433Y0203013D01*
X0342190Y0204011D02*
X0313850Y0204011D01*
X0313684Y0203846D02*
X0314496Y0204657D01*
X0314935Y0205717D01*
X0314935Y0206348D01*
X0322993Y0214406D01*
X0323624Y0214406D01*
X0324684Y0214846D01*
X0325496Y0215657D01*
X0325935Y0216717D01*
X0325935Y0217865D01*
X0325496Y0218926D01*
X0324684Y0219737D01*
X0323624Y0220176D01*
X0322476Y0220176D01*
X0321416Y0219737D01*
X0320604Y0218926D01*
X0320165Y0217865D01*
X0320165Y0217235D01*
X0312107Y0209176D01*
X0311476Y0209176D01*
X0310416Y0208737D01*
X0309604Y0207926D01*
X0309165Y0206865D01*
X0309165Y0205717D01*
X0309604Y0204657D01*
X0310416Y0203846D01*
X0311476Y0203406D01*
X0312624Y0203406D01*
X0313684Y0203846D01*
X0314642Y0205010D02*
X0350550Y0205010D01*
X0350550Y0206008D02*
X0314935Y0206008D01*
X0315594Y0207007D02*
X0350550Y0207007D01*
X0350550Y0208006D02*
X0316593Y0208006D01*
X0317591Y0209004D02*
X0350550Y0209004D01*
X0350550Y0210003D02*
X0318590Y0210003D01*
X0319588Y0211001D02*
X0350550Y0211001D01*
X0350550Y0212000D02*
X0320587Y0212000D01*
X0321585Y0212998D02*
X0350550Y0212998D01*
X0350550Y0213997D02*
X0322584Y0213997D01*
X0324834Y0214995D02*
X0350550Y0214995D01*
X0350550Y0215994D02*
X0325635Y0215994D01*
X0325935Y0216992D02*
X0350550Y0216992D01*
X0350550Y0217991D02*
X0325883Y0217991D01*
X0325432Y0218989D02*
X0350550Y0218989D01*
X0350550Y0219988D02*
X0324079Y0219988D01*
X0322021Y0219988D02*
X0317133Y0219988D01*
X0316996Y0219657D02*
X0317435Y0220717D01*
X0317435Y0221865D01*
X0316996Y0222926D01*
X0316184Y0223737D01*
X0315124Y0224176D01*
X0313976Y0224176D01*
X0312916Y0223737D01*
X0312104Y0222926D01*
X0311665Y0221865D01*
X0311665Y0221235D01*
X0307107Y0216676D01*
X0306476Y0216676D01*
X0305416Y0216237D01*
X0304604Y0215426D01*
X0304165Y0214365D01*
X0304165Y0213217D01*
X0304604Y0212157D01*
X0305416Y0211346D01*
X0306476Y0210906D01*
X0307624Y0210906D01*
X0308684Y0211346D01*
X0309496Y0212157D01*
X0309935Y0213217D01*
X0309935Y0213848D01*
X0314493Y0218406D01*
X0315124Y0218406D01*
X0316184Y0218846D01*
X0316996Y0219657D01*
X0316328Y0218989D02*
X0320668Y0218989D01*
X0320217Y0217991D02*
X0314078Y0217991D01*
X0313079Y0216992D02*
X0319922Y0216992D01*
X0318924Y0215994D02*
X0312081Y0215994D01*
X0311082Y0214995D02*
X0317925Y0214995D01*
X0316927Y0213997D02*
X0310084Y0213997D01*
X0309844Y0212998D02*
X0315928Y0212998D01*
X0314930Y0212000D02*
X0309338Y0212000D01*
X0307852Y0211001D02*
X0313931Y0211001D01*
X0312933Y0210003D02*
X0294052Y0210003D01*
X0294300Y0210601D02*
X0293006Y0207476D01*
X0290615Y0205085D01*
X0287491Y0203791D01*
X0284109Y0203791D01*
X0280985Y0205085D01*
X0278594Y0207476D01*
X0277300Y0210601D01*
X0277300Y0213982D01*
X0278594Y0217106D01*
X0280985Y0219497D01*
X0284109Y0220791D01*
X0287491Y0220791D01*
X0290615Y0219497D01*
X0293006Y0217106D01*
X0294300Y0213982D01*
X0294300Y0210601D01*
X0294300Y0211001D02*
X0306247Y0211001D01*
X0304762Y0212000D02*
X0294300Y0212000D01*
X0294300Y0212998D02*
X0304256Y0212998D01*
X0304165Y0213997D02*
X0294294Y0213997D01*
X0293880Y0214995D02*
X0304426Y0214995D01*
X0305172Y0215994D02*
X0301835Y0215994D01*
X0301624Y0215906D02*
X0302684Y0216346D01*
X0303496Y0217157D01*
X0303935Y0218217D01*
X0303935Y0219365D01*
X0303496Y0220426D01*
X0303050Y0220871D01*
X0303050Y0227711D01*
X0303496Y0228157D01*
X0303935Y0229217D01*
X0303935Y0230365D01*
X0303496Y0231426D01*
X0302684Y0232237D01*
X0301624Y0232676D01*
X0300476Y0232676D01*
X0299416Y0232237D01*
X0298604Y0231426D01*
X0298165Y0230365D01*
X0298165Y0229217D01*
X0298604Y0228157D01*
X0299050Y0227711D01*
X0299050Y0220871D01*
X0298604Y0220426D01*
X0298165Y0219365D01*
X0298165Y0218217D01*
X0298604Y0217157D01*
X0299416Y0216346D01*
X0300476Y0215906D01*
X0301624Y0215906D01*
X0300265Y0215994D02*
X0293467Y0215994D01*
X0293053Y0216992D02*
X0298769Y0216992D01*
X0298259Y0217991D02*
X0292122Y0217991D01*
X0291123Y0218989D02*
X0298165Y0218989D01*
X0298423Y0219988D02*
X0289431Y0219988D01*
X0282169Y0219988D02*
X0201550Y0219988D01*
X0201550Y0220986D02*
X0299050Y0220986D01*
X0299050Y0221985D02*
X0201550Y0221985D01*
X0201550Y0222983D02*
X0299050Y0222983D01*
X0299050Y0223982D02*
X0201550Y0223982D01*
X0201550Y0224980D02*
X0299050Y0224980D01*
X0299050Y0225979D02*
X0201550Y0225979D01*
X0201550Y0226977D02*
X0299050Y0226977D01*
X0298786Y0227976D02*
X0201550Y0227976D01*
X0201550Y0228974D02*
X0207591Y0228974D01*
X0208516Y0228591D02*
X0206604Y0229383D01*
X0205142Y0230846D01*
X0204550Y0232274D01*
X0203958Y0230846D01*
X0202496Y0229383D01*
X0201550Y0228991D01*
X0201550Y0218871D01*
X0201996Y0218426D01*
X0202435Y0217365D01*
X0202435Y0216217D01*
X0201996Y0215157D01*
X0201184Y0214346D01*
X0200124Y0213906D01*
X0198976Y0213906D01*
X0197916Y0214346D01*
X0197104Y0215157D01*
X0196665Y0216217D01*
X0196665Y0217365D01*
X0197104Y0218426D01*
X0197550Y0218871D01*
X0197550Y0228991D01*
X0196604Y0229383D01*
X0195142Y0230846D01*
X0194550Y0232274D01*
X0193958Y0230846D01*
X0192496Y0229383D01*
X0191550Y0228991D01*
X0191550Y0218871D01*
X0191996Y0218426D01*
X0192435Y0217365D01*
X0192435Y0216217D01*
X0191996Y0215157D01*
X0191184Y0214346D01*
X0190124Y0213906D01*
X0188976Y0213906D01*
X0187916Y0214346D01*
X0187104Y0215157D01*
X0186665Y0216217D01*
X0186665Y0217365D01*
X0187104Y0218426D01*
X0187550Y0218871D01*
X0187550Y0228991D01*
X0186604Y0229383D01*
X0185142Y0230846D01*
X0184550Y0232274D01*
X0183958Y0230846D01*
X0182496Y0229383D01*
X0180584Y0228591D01*
X0178516Y0228591D01*
X0176604Y0229383D01*
X0175142Y0230846D01*
X0174550Y0232274D01*
X0173958Y0230846D01*
X0172496Y0229383D01*
X0171550Y0228991D01*
X0171550Y0218371D01*
X0171996Y0217926D01*
X0172435Y0216865D01*
X0172435Y0215717D01*
X0171996Y0214657D01*
X0171184Y0213846D01*
X0170124Y0213406D01*
X0168976Y0213406D01*
X0167916Y0213846D01*
X0167104Y0214657D01*
X0166665Y0215717D01*
X0166665Y0216865D01*
X0167104Y0217926D01*
X0167550Y0218371D01*
X0167550Y0228991D01*
X0166604Y0229383D01*
X0165142Y0230846D01*
X0164550Y0232274D01*
X0163958Y0230846D01*
X0162496Y0229383D01*
X0160584Y0228591D01*
X0158516Y0228591D01*
X0156604Y0229383D01*
X0155142Y0230846D01*
X0154350Y0232757D01*
X0154350Y0234826D01*
X0155142Y0236737D01*
X0156604Y0238200D01*
X0157550Y0238591D01*
X0157550Y0242711D01*
X0157104Y0243157D01*
X0156665Y0244217D01*
X0156665Y0245365D01*
X0157104Y0246426D01*
X0157916Y0247237D01*
X0158976Y0247676D01*
X0160124Y0247676D01*
X0161184Y0247237D01*
X0161996Y0246426D01*
X0162435Y0245365D01*
X0162435Y0244217D01*
X0161996Y0243157D01*
X0161550Y0242711D01*
X0161550Y0238591D01*
X0162496Y0238200D01*
X0163958Y0236737D01*
X0164550Y0235309D01*
X0165142Y0236737D01*
X0166604Y0238200D01*
X0168516Y0238991D01*
X0170584Y0238991D01*
X0172496Y0238200D01*
X0173958Y0236737D01*
X0174550Y0235309D01*
X0175142Y0236737D01*
X0176604Y0238200D01*
X0178516Y0238991D01*
X0180584Y0238991D01*
X0182496Y0238200D01*
X0183958Y0236737D01*
X0184550Y0235308D01*
X0185142Y0236737D01*
X0186604Y0238200D01*
X0187550Y0238591D01*
X0187550Y0246711D01*
X0187104Y0247157D01*
X0186665Y0248217D01*
X0186665Y0249365D01*
X0187104Y0250426D01*
X0187916Y0251237D01*
X0188976Y0251676D01*
X0190124Y0251676D01*
X0191184Y0251237D01*
X0191996Y0250426D01*
X0192435Y0249365D01*
X0192435Y0248217D01*
X0191996Y0247157D01*
X0191550Y0246711D01*
X0191550Y0238591D01*
X0192496Y0238200D01*
X0193958Y0236737D01*
X0194550Y0235308D01*
X0195142Y0236737D01*
X0196604Y0238200D01*
X0198516Y0238991D01*
X0200584Y0238991D01*
X0202496Y0238200D01*
X0203958Y0236737D01*
X0204550Y0235308D01*
X0205142Y0236737D01*
X0206604Y0238200D01*
X0208516Y0238991D01*
X0210584Y0238991D01*
X0212496Y0238200D01*
X0213958Y0236737D01*
X0214550Y0235308D01*
X0215142Y0236737D01*
X0216604Y0238200D01*
X0218516Y0238991D01*
X0220584Y0238991D01*
X0222496Y0238200D01*
X0223958Y0236737D01*
X0224550Y0235308D01*
X0225142Y0236737D01*
X0226604Y0238200D01*
X0228516Y0238991D01*
X0230584Y0238991D01*
X0231530Y0238600D01*
X0237222Y0244291D01*
X0237470Y0244291D01*
X0237916Y0244737D01*
X0238976Y0245176D01*
X0240124Y0245176D01*
X0241184Y0244737D01*
X0241996Y0243926D01*
X0242435Y0242865D01*
X0242435Y0241717D01*
X0241996Y0240657D01*
X0241184Y0239846D01*
X0240124Y0239406D01*
X0238976Y0239406D01*
X0238281Y0239694D01*
X0236916Y0238329D01*
X0238516Y0238991D01*
X0240584Y0238991D01*
X0242496Y0238200D01*
X0243958Y0236737D01*
X0244564Y0235274D01*
X0244731Y0235787D01*
X0245103Y0236517D01*
X0245584Y0237179D01*
X0246162Y0237758D01*
X0246825Y0238239D01*
X0247554Y0238610D01*
X0248332Y0238863D01*
X0249050Y0238977D01*
X0249050Y0234291D01*
X0250050Y0234291D01*
X0250050Y0238977D01*
X0250768Y0238863D01*
X0251546Y0238610D01*
X0252275Y0238239D01*
X0252938Y0237758D01*
X0253516Y0237179D01*
X0253997Y0236517D01*
X0254369Y0235787D01*
X0254536Y0235274D01*
X0255142Y0236737D01*
X0256604Y0238200D01*
X0258516Y0238991D01*
X0260584Y0238991D01*
X0262496Y0238200D01*
X0263958Y0236737D01*
X0264750Y0234826D01*
X0264750Y0232757D01*
X0263958Y0230846D01*
X0262496Y0229383D01*
X0260584Y0228591D01*
X0258516Y0228591D01*
X0256604Y0229383D01*
X0255142Y0230846D01*
X0254536Y0232308D01*
X0254369Y0231795D01*
X0253997Y0231066D01*
X0253516Y0230404D01*
X0252938Y0229825D01*
X0252275Y0229344D01*
X0251546Y0228972D01*
X0250768Y0228719D01*
X0250050Y0228606D01*
X0250050Y0233291D01*
X0249050Y0233291D01*
X0249050Y0228606D01*
X0248332Y0228719D01*
X0247554Y0228972D01*
X0246825Y0229344D01*
X0246162Y0229825D01*
X0245584Y0230404D01*
X0245103Y0231066D01*
X0244731Y0231795D01*
X0244564Y0232308D01*
X0243958Y0230846D01*
X0242496Y0229383D01*
X0240584Y0228591D01*
X0238516Y0228591D01*
X0236604Y0229383D01*
X0235142Y0230846D01*
X0234550Y0232274D01*
X0233958Y0230846D01*
X0232496Y0229383D01*
X0230584Y0228591D01*
X0228516Y0228591D01*
X0226604Y0229383D01*
X0225142Y0230846D01*
X0224550Y0232274D01*
X0223958Y0230846D01*
X0222496Y0229383D01*
X0220584Y0228591D01*
X0218516Y0228591D01*
X0216604Y0229383D01*
X0215142Y0230846D01*
X0214550Y0232274D01*
X0213958Y0230846D01*
X0212496Y0229383D01*
X0210584Y0228591D01*
X0208516Y0228591D01*
X0206015Y0229973D02*
X0203085Y0229973D01*
X0204010Y0230971D02*
X0205090Y0230971D01*
X0204676Y0231970D02*
X0204424Y0231970D01*
X0204279Y0235964D02*
X0204821Y0235964D01*
X0205367Y0236962D02*
X0203733Y0236962D01*
X0202734Y0237961D02*
X0206366Y0237961D01*
X0208438Y0238959D02*
X0200662Y0238959D01*
X0198438Y0238959D02*
X0191550Y0238959D01*
X0191550Y0239958D02*
X0221665Y0239958D01*
X0221665Y0239717D02*
X0222104Y0238657D01*
X0222916Y0237846D01*
X0223976Y0237406D01*
X0225124Y0237406D01*
X0226184Y0237846D01*
X0226996Y0238657D01*
X0227435Y0239717D01*
X0227435Y0240865D01*
X0226996Y0241926D01*
X0226184Y0242737D01*
X0225124Y0243176D01*
X0224493Y0243176D01*
X0222935Y0244735D01*
X0222935Y0245365D01*
X0222496Y0246426D01*
X0221684Y0247237D01*
X0220624Y0247676D01*
X0219476Y0247676D01*
X0218416Y0247237D01*
X0217604Y0246426D01*
X0217165Y0245365D01*
X0217165Y0244217D01*
X0217604Y0243157D01*
X0218416Y0242346D01*
X0219476Y0241906D01*
X0220107Y0241906D01*
X0221665Y0240348D01*
X0221665Y0239717D01*
X0221979Y0238959D02*
X0220662Y0238959D01*
X0221057Y0240956D02*
X0191550Y0240956D01*
X0191550Y0241955D02*
X0219359Y0241955D01*
X0217808Y0242953D02*
X0191550Y0242953D01*
X0191550Y0243952D02*
X0217275Y0243952D01*
X0217165Y0244950D02*
X0191550Y0244950D01*
X0191550Y0245949D02*
X0217407Y0245949D01*
X0218126Y0246947D02*
X0191786Y0246947D01*
X0192323Y0247946D02*
X0350550Y0247946D01*
X0350550Y0248944D02*
X0192435Y0248944D01*
X0192196Y0249943D02*
X0350550Y0249943D01*
X0350550Y0250941D02*
X0280209Y0250941D01*
X0280124Y0250906D02*
X0281184Y0251346D01*
X0281996Y0252157D01*
X0282435Y0253217D01*
X0282435Y0254365D01*
X0281996Y0255426D01*
X0281515Y0255906D01*
X0282624Y0255906D01*
X0283684Y0256346D01*
X0284496Y0257157D01*
X0284935Y0258217D01*
X0284935Y0259365D01*
X0284496Y0260426D01*
X0283684Y0261237D01*
X0282624Y0261676D01*
X0281476Y0261676D01*
X0280416Y0261237D01*
X0279970Y0260791D01*
X0270378Y0260791D01*
X0247435Y0283735D01*
X0247435Y0284365D01*
X0246996Y0285426D01*
X0246184Y0286237D01*
X0245124Y0286676D01*
X0243976Y0286676D01*
X0242916Y0286237D01*
X0242104Y0285426D01*
X0241706Y0284464D01*
X0241550Y0284620D01*
X0241550Y0286491D01*
X0242496Y0286883D01*
X0243958Y0288346D01*
X0244550Y0289774D01*
X0245142Y0288346D01*
X0246604Y0286883D01*
X0248516Y0286091D01*
X0250584Y0286091D01*
X0252496Y0286883D01*
X0253958Y0288346D01*
X0254564Y0289808D01*
X0254731Y0289295D01*
X0255103Y0288566D01*
X0255584Y0287904D01*
X0256162Y0287325D01*
X0256825Y0286844D01*
X0257554Y0286472D01*
X0258332Y0286219D01*
X0259050Y0286106D01*
X0259050Y0290791D01*
X0260050Y0290791D01*
X0260050Y0286106D01*
X0260768Y0286219D01*
X0261546Y0286472D01*
X0262275Y0286844D01*
X0262938Y0287325D01*
X0263516Y0287904D01*
X0263997Y0288566D01*
X0264369Y0289295D01*
X0264536Y0289808D01*
X0265142Y0288346D01*
X0266604Y0286883D01*
X0268516Y0286091D01*
X0270584Y0286091D01*
X0272496Y0286883D01*
X0273958Y0288346D01*
X0274550Y0289774D01*
X0275142Y0288346D01*
X0276604Y0286883D01*
X0278516Y0286091D01*
X0280584Y0286091D01*
X0282496Y0286883D01*
X0283958Y0288346D01*
X0284564Y0289808D01*
X0284731Y0289295D01*
X0285103Y0288566D01*
X0285584Y0287904D01*
X0286162Y0287325D01*
X0286825Y0286844D01*
X0287554Y0286472D01*
X0288332Y0286219D01*
X0289050Y0286106D01*
X0289050Y0290791D01*
X0290050Y0290791D01*
X0290050Y0286106D01*
X0290768Y0286219D01*
X0291546Y0286472D01*
X0292275Y0286844D01*
X0292938Y0287325D01*
X0293516Y0287904D01*
X0293997Y0288566D01*
X0294369Y0289295D01*
X0294536Y0289808D01*
X0295142Y0288346D01*
X0296604Y0286883D01*
X0298516Y0286091D01*
X0300584Y0286091D01*
X0302496Y0286883D01*
X0303958Y0288346D01*
X0304550Y0289774D01*
X0305142Y0288346D01*
X0306604Y0286883D01*
X0308516Y0286091D01*
X0310584Y0286091D01*
X0312496Y0286883D01*
X0313958Y0288346D01*
X0314550Y0289774D01*
X0315142Y0288346D01*
X0316604Y0286883D01*
X0318516Y0286091D01*
X0320584Y0286091D01*
X0322496Y0286883D01*
X0323958Y0288346D01*
X0324750Y0290257D01*
X0324750Y0292326D01*
X0323958Y0294237D01*
X0322496Y0295700D01*
X0320584Y0296491D01*
X0318516Y0296491D01*
X0316604Y0295700D01*
X0315142Y0294237D01*
X0314550Y0292808D01*
X0313958Y0294237D01*
X0312496Y0295700D01*
X0310584Y0296491D01*
X0308516Y0296491D01*
X0306604Y0295700D01*
X0305142Y0294237D01*
X0304550Y0292809D01*
X0303958Y0294237D01*
X0302496Y0295700D01*
X0300584Y0296491D01*
X0298516Y0296491D01*
X0296604Y0295700D01*
X0295142Y0294237D01*
X0294536Y0292774D01*
X0294369Y0293287D01*
X0293997Y0294017D01*
X0293516Y0294679D01*
X0292938Y0295258D01*
X0292275Y0295739D01*
X0291546Y0296110D01*
X0290768Y0296363D01*
X0290050Y0296477D01*
X0290050Y0291791D01*
X0289050Y0291791D01*
X0289050Y0296477D01*
X0288332Y0296363D01*
X0287554Y0296110D01*
X0286825Y0295739D01*
X0286162Y0295258D01*
X0285584Y0294679D01*
X0285103Y0294017D01*
X0284731Y0293287D01*
X0284564Y0292774D01*
X0283958Y0294237D01*
X0282496Y0295700D01*
X0280584Y0296491D01*
X0278516Y0296491D01*
X0276604Y0295700D01*
X0275142Y0294237D01*
X0274550Y0292809D01*
X0273958Y0294237D01*
X0272496Y0295700D01*
X0270584Y0296491D01*
X0268516Y0296491D01*
X0266604Y0295700D01*
X0265142Y0294237D01*
X0264536Y0292774D01*
X0264369Y0293287D01*
X0263997Y0294017D01*
X0263516Y0294679D01*
X0262938Y0295258D01*
X0262275Y0295739D01*
X0261546Y0296110D01*
X0260768Y0296363D01*
X0260050Y0296477D01*
X0260050Y0291791D01*
X0259050Y0291791D01*
X0259050Y0296477D01*
X0258332Y0296363D01*
X0257554Y0296110D01*
X0256825Y0295739D01*
X0256162Y0295258D01*
X0255584Y0294679D01*
X0255103Y0294017D01*
X0254731Y0293287D01*
X0254564Y0292774D01*
X0253958Y0294237D01*
X0252496Y0295700D01*
X0250584Y0296491D01*
X0248516Y0296491D01*
X0246604Y0295700D01*
X0245142Y0294237D01*
X0244550Y0292809D01*
X0243958Y0294237D01*
X0242496Y0295700D01*
X0240584Y0296491D01*
X0238516Y0296491D01*
X0236604Y0295700D01*
X0235142Y0294237D01*
X0234550Y0292808D01*
X0233958Y0294237D01*
X0232496Y0295700D01*
X0230584Y0296491D01*
X0228516Y0296491D01*
X0226604Y0295700D01*
X0225142Y0294237D01*
X0224350Y0292326D01*
X0224350Y0290257D01*
X0225142Y0288346D01*
X0226604Y0286883D01*
X0228516Y0286091D01*
X0230584Y0286091D01*
X0232496Y0286883D01*
X0233958Y0288346D01*
X0234550Y0289774D01*
X0235142Y0288346D01*
X0236604Y0286883D01*
X0237550Y0286491D01*
X0237550Y0282963D01*
X0268722Y0251791D01*
X0277470Y0251791D01*
X0277916Y0251346D01*
X0278976Y0250906D01*
X0280124Y0250906D01*
X0278891Y0250941D02*
X0191480Y0250941D01*
X0189550Y0248791D02*
X0189550Y0233791D01*
X0189550Y0216791D01*
X0192176Y0217991D02*
X0196924Y0217991D01*
X0196665Y0216992D02*
X0192435Y0216992D01*
X0192342Y0215994D02*
X0196758Y0215994D01*
X0197266Y0214995D02*
X0191834Y0214995D01*
X0190342Y0213997D02*
X0198758Y0213997D01*
X0200342Y0213997D02*
X0277306Y0213997D01*
X0277300Y0212998D02*
X0142650Y0212998D01*
X0142650Y0212000D02*
X0277300Y0212000D01*
X0277300Y0211001D02*
X0142650Y0211001D01*
X0142650Y0210675D02*
X0142650Y0254408D01*
X0142178Y0255547D01*
X0141306Y0256419D01*
X0140167Y0256891D01*
X0138933Y0256891D01*
X0137794Y0256419D01*
X0136922Y0255547D01*
X0136450Y0254408D01*
X0136450Y0210675D01*
X0136922Y0209535D01*
X0137794Y0208663D01*
X0138933Y0208191D01*
X0140167Y0208191D01*
X0141306Y0208663D01*
X0142178Y0209535D01*
X0142650Y0210675D01*
X0142372Y0210003D02*
X0277548Y0210003D01*
X0277961Y0209004D02*
X0206417Y0209004D01*
X0207170Y0208006D02*
X0278375Y0208006D01*
X0279064Y0207007D02*
X0207435Y0207007D01*
X0207348Y0206008D02*
X0280062Y0206008D01*
X0281167Y0205010D02*
X0206849Y0205010D01*
X0206550Y0204011D02*
X0283578Y0204011D01*
X0288022Y0204011D02*
X0310250Y0204011D01*
X0309458Y0205010D02*
X0290433Y0205010D01*
X0291538Y0206008D02*
X0309165Y0206008D01*
X0309224Y0207007D02*
X0292536Y0207007D01*
X0293225Y0208006D02*
X0309684Y0208006D01*
X0311060Y0209004D02*
X0293639Y0209004D01*
X0301050Y0218791D02*
X0301050Y0229791D01*
X0298416Y0230971D02*
X0264010Y0230971D01*
X0264424Y0231970D02*
X0299148Y0231970D01*
X0298165Y0229973D02*
X0263085Y0229973D01*
X0261509Y0228974D02*
X0298266Y0228974D01*
X0303314Y0227976D02*
X0329993Y0227976D01*
X0329644Y0228818D02*
X0330772Y0226096D01*
X0332855Y0224013D01*
X0335577Y0222886D01*
X0338523Y0222886D01*
X0341245Y0224013D01*
X0343328Y0226096D01*
X0344455Y0228818D01*
X0344455Y0231764D01*
X0343328Y0234486D01*
X0341245Y0236569D01*
X0338523Y0237697D01*
X0335577Y0237697D01*
X0332855Y0236569D01*
X0330772Y0234486D01*
X0329644Y0231764D01*
X0329644Y0228818D01*
X0329644Y0228974D02*
X0303834Y0228974D01*
X0303935Y0229973D02*
X0329644Y0229973D01*
X0329644Y0230971D02*
X0303684Y0230971D01*
X0302952Y0231970D02*
X0329730Y0231970D01*
X0330143Y0232968D02*
X0264750Y0232968D01*
X0264750Y0233967D02*
X0275295Y0233967D01*
X0275416Y0233846D02*
X0276476Y0233406D01*
X0277624Y0233406D01*
X0278684Y0233846D01*
X0279130Y0234291D01*
X0312470Y0234291D01*
X0312916Y0233846D01*
X0313976Y0233406D01*
X0315124Y0233406D01*
X0316184Y0233846D01*
X0316996Y0234657D01*
X0317435Y0235717D01*
X0317435Y0236865D01*
X0316996Y0237926D01*
X0316184Y0238737D01*
X0315124Y0239176D01*
X0313976Y0239176D01*
X0312916Y0238737D01*
X0312470Y0238291D01*
X0279130Y0238291D01*
X0278684Y0238737D01*
X0277624Y0239176D01*
X0276476Y0239176D01*
X0275416Y0238737D01*
X0274604Y0237926D01*
X0274165Y0236865D01*
X0274165Y0235717D01*
X0274604Y0234657D01*
X0275416Y0233846D01*
X0274477Y0234965D02*
X0264692Y0234965D01*
X0264279Y0235964D02*
X0274165Y0235964D01*
X0274205Y0236962D02*
X0263733Y0236962D01*
X0262734Y0237961D02*
X0274640Y0237961D01*
X0275952Y0238959D02*
X0260662Y0238959D01*
X0258438Y0238959D02*
X0250161Y0238959D01*
X0250050Y0238959D02*
X0249050Y0238959D01*
X0248939Y0238959D02*
X0240662Y0238959D01*
X0241297Y0239958D02*
X0350550Y0239958D01*
X0350550Y0240956D02*
X0242120Y0240956D01*
X0242435Y0241955D02*
X0350550Y0241955D01*
X0350550Y0242953D02*
X0242398Y0242953D01*
X0241969Y0243952D02*
X0350550Y0243952D01*
X0350550Y0244950D02*
X0240669Y0244950D01*
X0238431Y0244950D02*
X0222935Y0244950D01*
X0222693Y0245949D02*
X0350550Y0245949D01*
X0350550Y0246947D02*
X0221974Y0246947D01*
X0220050Y0244791D02*
X0224550Y0240291D01*
X0225662Y0242953D02*
X0235884Y0242953D01*
X0234885Y0241955D02*
X0226966Y0241955D01*
X0227397Y0240956D02*
X0233887Y0240956D01*
X0232888Y0239958D02*
X0227435Y0239958D01*
X0227121Y0238959D02*
X0228438Y0238959D01*
X0230662Y0238959D02*
X0231890Y0238959D01*
X0237546Y0238959D02*
X0238438Y0238959D01*
X0238050Y0242291D02*
X0229550Y0233791D01*
X0231509Y0228974D02*
X0237591Y0228974D01*
X0236015Y0229973D02*
X0233085Y0229973D01*
X0234010Y0230971D02*
X0235090Y0230971D01*
X0234676Y0231970D02*
X0234424Y0231970D01*
X0227591Y0228974D02*
X0221509Y0228974D01*
X0223085Y0229973D02*
X0226015Y0229973D01*
X0225090Y0230971D02*
X0224010Y0230971D01*
X0224424Y0231970D02*
X0224676Y0231970D01*
X0224821Y0235964D02*
X0224279Y0235964D01*
X0223733Y0236962D02*
X0225367Y0236962D01*
X0226300Y0237961D02*
X0226366Y0237961D01*
X0222800Y0237961D02*
X0222734Y0237961D01*
X0218438Y0238959D02*
X0210662Y0238959D01*
X0212734Y0237961D02*
X0216366Y0237961D01*
X0215367Y0236962D02*
X0213733Y0236962D01*
X0214279Y0235964D02*
X0214821Y0235964D01*
X0214676Y0231970D02*
X0214424Y0231970D01*
X0214010Y0230971D02*
X0215090Y0230971D01*
X0216015Y0229973D02*
X0213085Y0229973D01*
X0211509Y0228974D02*
X0217591Y0228974D01*
X0223718Y0243952D02*
X0236882Y0243952D01*
X0238050Y0242291D02*
X0239550Y0242291D01*
X0242734Y0237961D02*
X0246442Y0237961D01*
X0245426Y0236962D02*
X0243733Y0236962D01*
X0244279Y0235964D02*
X0244821Y0235964D01*
X0244674Y0231970D02*
X0244424Y0231970D01*
X0244010Y0230971D02*
X0245171Y0230971D01*
X0246015Y0229973D02*
X0243085Y0229973D01*
X0241509Y0228974D02*
X0247550Y0228974D01*
X0249050Y0228974D02*
X0250050Y0228974D01*
X0250050Y0229973D02*
X0249050Y0229973D01*
X0249050Y0230971D02*
X0250050Y0230971D01*
X0250050Y0231970D02*
X0249050Y0231970D01*
X0249050Y0232968D02*
X0250050Y0232968D01*
X0250050Y0234965D02*
X0249050Y0234965D01*
X0249050Y0235964D02*
X0250050Y0235964D01*
X0250050Y0236962D02*
X0249050Y0236962D01*
X0249050Y0237961D02*
X0250050Y0237961D01*
X0252658Y0237961D02*
X0256366Y0237961D01*
X0255367Y0236962D02*
X0253674Y0236962D01*
X0254279Y0235964D02*
X0254821Y0235964D01*
X0254676Y0231970D02*
X0254426Y0231970D01*
X0253929Y0230971D02*
X0255090Y0230971D01*
X0256015Y0229973D02*
X0253085Y0229973D01*
X0251550Y0228974D02*
X0257591Y0228974D01*
X0277050Y0236291D02*
X0314550Y0236291D01*
X0313452Y0238959D02*
X0278148Y0238959D01*
X0278805Y0233967D02*
X0312795Y0233967D01*
X0316305Y0233967D02*
X0330557Y0233967D01*
X0331251Y0234965D02*
X0317123Y0234965D01*
X0317435Y0235964D02*
X0332250Y0235964D01*
X0333804Y0236962D02*
X0317395Y0236962D01*
X0316960Y0237961D02*
X0350550Y0237961D01*
X0350550Y0238959D02*
X0315648Y0238959D01*
X0303050Y0226977D02*
X0330407Y0226977D01*
X0330890Y0225979D02*
X0303050Y0225979D01*
X0303050Y0224980D02*
X0331888Y0224980D01*
X0332931Y0223982D02*
X0315594Y0223982D01*
X0316938Y0222983D02*
X0335342Y0222983D01*
X0338758Y0222983D02*
X0350550Y0222983D01*
X0350550Y0221985D02*
X0317386Y0221985D01*
X0317435Y0220986D02*
X0350550Y0220986D01*
X0350550Y0223982D02*
X0341169Y0223982D01*
X0342212Y0224980D02*
X0350550Y0224980D01*
X0350550Y0225979D02*
X0343210Y0225979D01*
X0343693Y0226977D02*
X0350550Y0226977D01*
X0350550Y0227976D02*
X0344106Y0227976D01*
X0344455Y0228974D02*
X0350550Y0228974D01*
X0350550Y0229973D02*
X0344455Y0229973D01*
X0344455Y0230971D02*
X0350550Y0230971D01*
X0350550Y0231970D02*
X0344370Y0231970D01*
X0343957Y0232968D02*
X0350550Y0232968D01*
X0350550Y0233967D02*
X0343543Y0233967D01*
X0342849Y0234965D02*
X0350550Y0234965D01*
X0350550Y0235964D02*
X0341850Y0235964D01*
X0340296Y0236962D02*
X0350550Y0236962D01*
X0350550Y0251940D02*
X0281779Y0251940D01*
X0282319Y0252939D02*
X0350550Y0252939D01*
X0350550Y0253937D02*
X0282435Y0253937D01*
X0282199Y0254936D02*
X0350550Y0254936D01*
X0350550Y0255934D02*
X0282691Y0255934D01*
X0284271Y0256933D02*
X0350550Y0256933D01*
X0350550Y0257931D02*
X0284816Y0257931D01*
X0284935Y0258930D02*
X0350550Y0258930D01*
X0350550Y0259928D02*
X0284702Y0259928D01*
X0283995Y0260927D02*
X0350550Y0260927D01*
X0350550Y0261925D02*
X0269245Y0261925D01*
X0270243Y0260927D02*
X0280105Y0260927D01*
X0282050Y0258791D02*
X0269550Y0258791D01*
X0244550Y0283791D01*
X0241883Y0284891D02*
X0241550Y0284891D01*
X0241550Y0285889D02*
X0242568Y0285889D01*
X0242500Y0286888D02*
X0246600Y0286888D01*
X0246532Y0285889D02*
X0330525Y0285889D01*
X0330772Y0286486D02*
X0329644Y0283764D01*
X0329644Y0280818D01*
X0330772Y0278096D01*
X0332855Y0276013D01*
X0335577Y0274886D01*
X0338523Y0274886D01*
X0341245Y0276013D01*
X0343328Y0278096D01*
X0344455Y0280818D01*
X0344455Y0283764D01*
X0343328Y0286486D01*
X0341245Y0288569D01*
X0339062Y0289474D01*
X0339134Y0289474D01*
X0343050Y0290899D01*
X0346243Y0293578D01*
X0348326Y0297187D01*
X0349050Y0301291D01*
X0348326Y0305396D01*
X0346243Y0309005D01*
X0346243Y0309005D01*
X0346243Y0309005D01*
X0343050Y0311684D01*
X0339134Y0313109D01*
X0334966Y0313109D01*
X0331050Y0311684D01*
X0331050Y0311684D01*
X0327857Y0309005D01*
X0325774Y0305396D01*
X0325774Y0305396D01*
X0325050Y0301291D01*
X0325774Y0297187D01*
X0327857Y0293578D01*
X0327857Y0293578D01*
X0327857Y0293578D01*
X0331050Y0290899D01*
X0334966Y0289474D01*
X0335038Y0289474D01*
X0332855Y0288569D01*
X0330772Y0286486D01*
X0331174Y0286888D02*
X0322500Y0286888D01*
X0323499Y0287886D02*
X0332172Y0287886D01*
X0333617Y0288885D02*
X0324182Y0288885D01*
X0324595Y0289883D02*
X0333840Y0289883D01*
X0331097Y0290882D02*
X0324750Y0290882D01*
X0324750Y0291880D02*
X0329880Y0291880D01*
X0331050Y0290899D02*
X0331050Y0290899D01*
X0328690Y0292879D02*
X0324521Y0292879D01*
X0324107Y0293877D02*
X0327684Y0293877D01*
X0327108Y0294876D02*
X0323319Y0294876D01*
X0322073Y0295875D02*
X0326532Y0295875D01*
X0325955Y0296873D02*
X0217471Y0296873D01*
X0217496Y0296883D02*
X0218958Y0298346D01*
X0219750Y0300257D01*
X0219750Y0302326D01*
X0218958Y0304237D01*
X0217496Y0305700D01*
X0215584Y0306491D01*
X0213516Y0306491D01*
X0211604Y0305700D01*
X0210142Y0304237D01*
X0209550Y0302808D01*
X0208958Y0304237D01*
X0207496Y0305700D01*
X0205584Y0306491D01*
X0203516Y0306491D01*
X0201604Y0305700D01*
X0200142Y0304237D01*
X0199536Y0302774D01*
X0199369Y0303287D01*
X0198997Y0304017D01*
X0198516Y0304679D01*
X0197938Y0305258D01*
X0197275Y0305739D01*
X0196546Y0306110D01*
X0195768Y0306363D01*
X0195050Y0306477D01*
X0195050Y0301791D01*
X0194050Y0301791D01*
X0194050Y0300791D01*
X0195050Y0300791D01*
X0195050Y0296106D01*
X0195768Y0296219D01*
X0196546Y0296472D01*
X0197275Y0296844D01*
X0197938Y0297325D01*
X0198516Y0297904D01*
X0198997Y0298566D01*
X0199369Y0299295D01*
X0199536Y0299808D01*
X0200142Y0298346D01*
X0201604Y0296883D01*
X0203516Y0296091D01*
X0205584Y0296091D01*
X0207496Y0296883D01*
X0208958Y0298346D01*
X0209550Y0299774D01*
X0210142Y0298346D01*
X0211604Y0296883D01*
X0213516Y0296091D01*
X0215584Y0296091D01*
X0217496Y0296883D01*
X0218484Y0297872D02*
X0325653Y0297872D01*
X0325774Y0297187D02*
X0325774Y0297187D01*
X0325477Y0298870D02*
X0219175Y0298870D01*
X0219589Y0299869D02*
X0325301Y0299869D01*
X0325125Y0300867D02*
X0219750Y0300867D01*
X0219750Y0301866D02*
X0325151Y0301866D01*
X0325050Y0301291D02*
X0325050Y0301291D01*
X0325327Y0302864D02*
X0219527Y0302864D01*
X0219113Y0303863D02*
X0325503Y0303863D01*
X0325679Y0304861D02*
X0218334Y0304861D01*
X0217109Y0305860D02*
X0326042Y0305860D01*
X0326618Y0306858D02*
X0027482Y0306858D01*
X0028058Y0305860D02*
X0192062Y0305860D01*
X0191825Y0305739D02*
X0191162Y0305258D01*
X0190584Y0304679D01*
X0190103Y0304017D01*
X0189731Y0303287D01*
X0189478Y0302509D01*
X0189364Y0301791D01*
X0194050Y0301791D01*
X0194050Y0306477D01*
X0193332Y0306363D01*
X0192554Y0306110D01*
X0191825Y0305739D01*
X0190766Y0304861D02*
X0028421Y0304861D01*
X0028326Y0305396D02*
X0029050Y0301291D01*
X0028326Y0297187D01*
X0028326Y0297187D01*
X0026243Y0293578D01*
X0026243Y0293578D01*
X0023050Y0290899D01*
X0023050Y0290899D01*
X0019134Y0289474D01*
X0014966Y0289474D01*
X0011050Y0290899D01*
X0011050Y0290899D01*
X0007857Y0293578D01*
X0007857Y0293578D01*
X0007857Y0293578D01*
X0005774Y0297187D01*
X0005774Y0297187D01*
X0005050Y0301291D01*
X0005050Y0301291D01*
X0005774Y0305396D01*
X0005774Y0305396D01*
X0007857Y0309005D01*
X0007857Y0309005D01*
X0011050Y0311684D01*
X0011050Y0311684D01*
X0014966Y0313109D01*
X0019134Y0313109D01*
X0023050Y0311684D01*
X0023050Y0311684D01*
X0026243Y0309005D01*
X0026243Y0309005D01*
X0026243Y0309005D01*
X0028326Y0305396D01*
X0028326Y0305396D01*
X0028597Y0303863D02*
X0190024Y0303863D01*
X0189593Y0302864D02*
X0028773Y0302864D01*
X0028949Y0301866D02*
X0189376Y0301866D01*
X0189364Y0300791D02*
X0189478Y0300074D01*
X0189731Y0299295D01*
X0190103Y0298566D01*
X0190584Y0297904D01*
X0191162Y0297325D01*
X0191825Y0296844D01*
X0192554Y0296472D01*
X0193332Y0296219D01*
X0194050Y0296106D01*
X0194050Y0300791D01*
X0189364Y0300791D01*
X0189545Y0299869D02*
X0028799Y0299869D01*
X0028975Y0300867D02*
X0194050Y0300867D01*
X0194050Y0299869D02*
X0195050Y0299869D01*
X0195050Y0298870D02*
X0194050Y0298870D01*
X0194050Y0297872D02*
X0195050Y0297872D01*
X0195050Y0296873D02*
X0194050Y0296873D01*
X0191785Y0296873D02*
X0028145Y0296873D01*
X0028447Y0297872D02*
X0190616Y0297872D01*
X0189948Y0298870D02*
X0028623Y0298870D01*
X0027568Y0295875D02*
X0227027Y0295875D01*
X0225781Y0294876D02*
X0026992Y0294876D01*
X0026415Y0293877D02*
X0173255Y0293877D01*
X0172916Y0293737D02*
X0172470Y0293291D01*
X0131222Y0293291D01*
X0129607Y0291676D01*
X0128976Y0291676D01*
X0127916Y0291237D01*
X0127104Y0290426D01*
X0126665Y0289365D01*
X0126665Y0288217D01*
X0127104Y0287157D01*
X0127916Y0286346D01*
X0128047Y0286291D01*
X0127916Y0286237D01*
X0127104Y0285426D01*
X0126665Y0284365D01*
X0126665Y0283217D01*
X0127104Y0282157D01*
X0127916Y0281346D01*
X0128976Y0280906D01*
X0130124Y0280906D01*
X0131184Y0281346D01*
X0131630Y0281791D01*
X0164970Y0281791D01*
X0165416Y0281346D01*
X0166476Y0280906D01*
X0167624Y0280906D01*
X0168684Y0281346D01*
X0169496Y0282157D01*
X0169935Y0283217D01*
X0169935Y0284365D01*
X0169496Y0285426D01*
X0168684Y0286237D01*
X0167624Y0286676D01*
X0166476Y0286676D01*
X0165416Y0286237D01*
X0164970Y0285791D01*
X0131630Y0285791D01*
X0131184Y0286237D01*
X0131053Y0286291D01*
X0131184Y0286346D01*
X0131996Y0287157D01*
X0132435Y0288217D01*
X0132435Y0288848D01*
X0132878Y0289291D01*
X0172470Y0289291D01*
X0172916Y0288846D01*
X0173976Y0288406D01*
X0175124Y0288406D01*
X0176184Y0288846D01*
X0176996Y0289657D01*
X0177435Y0290717D01*
X0177435Y0291865D01*
X0176996Y0292926D01*
X0176184Y0293737D01*
X0175124Y0294176D01*
X0173976Y0294176D01*
X0172916Y0293737D01*
X0175845Y0293877D02*
X0224993Y0293877D01*
X0224579Y0292879D02*
X0177015Y0292879D01*
X0177429Y0291880D02*
X0224350Y0291880D01*
X0224350Y0290882D02*
X0177435Y0290882D01*
X0177090Y0289883D02*
X0224505Y0289883D01*
X0224918Y0288885D02*
X0176224Y0288885D01*
X0174550Y0291291D02*
X0132050Y0291291D01*
X0129550Y0288791D01*
X0126880Y0289883D02*
X0020260Y0289883D01*
X0023003Y0290882D02*
X0127561Y0290882D01*
X0126665Y0288885D02*
X0051536Y0288885D01*
X0051184Y0289237D02*
X0050124Y0289676D01*
X0048976Y0289676D01*
X0047916Y0289237D01*
X0047104Y0288426D01*
X0046665Y0287365D01*
X0046665Y0286217D01*
X0047104Y0285157D01*
X0047550Y0284711D01*
X0047550Y0274871D01*
X0047104Y0274426D01*
X0046665Y0273365D01*
X0046665Y0272217D01*
X0047104Y0271157D01*
X0047916Y0270346D01*
X0048976Y0269906D01*
X0050124Y0269906D01*
X0051184Y0270346D01*
X0051996Y0271157D01*
X0052435Y0272217D01*
X0052435Y0273365D01*
X0051996Y0274426D01*
X0051550Y0274871D01*
X0051550Y0284711D01*
X0051996Y0285157D01*
X0052435Y0286217D01*
X0052435Y0287365D01*
X0051996Y0288426D01*
X0051184Y0289237D01*
X0052219Y0287886D02*
X0126802Y0287886D01*
X0127373Y0286888D02*
X0052435Y0286888D01*
X0052299Y0285889D02*
X0127568Y0285889D01*
X0126883Y0284891D02*
X0051730Y0284891D01*
X0051550Y0283892D02*
X0126665Y0283892D01*
X0126799Y0282894D02*
X0051550Y0282894D01*
X0051550Y0281895D02*
X0127366Y0281895D01*
X0129550Y0283791D02*
X0167050Y0283791D01*
X0169717Y0284891D02*
X0202511Y0284891D01*
X0202511Y0284871D02*
X0202951Y0283811D01*
X0203762Y0282999D01*
X0204823Y0282560D01*
X0205029Y0282560D01*
X0209165Y0278424D01*
X0209165Y0278217D01*
X0209604Y0277157D01*
X0210416Y0276346D01*
X0210540Y0276294D01*
X0209104Y0275700D01*
X0207642Y0274237D01*
X0207050Y0272809D01*
X0206458Y0274237D01*
X0204996Y0275700D01*
X0203084Y0276491D01*
X0201016Y0276491D01*
X0199104Y0275700D01*
X0197642Y0274237D01*
X0197050Y0272809D01*
X0196458Y0274237D01*
X0194996Y0275700D01*
X0193084Y0276491D01*
X0191016Y0276491D01*
X0189104Y0275700D01*
X0187642Y0274237D01*
X0186850Y0272326D01*
X0186850Y0270257D01*
X0187642Y0268346D01*
X0189104Y0266883D01*
X0191016Y0266091D01*
X0193084Y0266091D01*
X0194996Y0266883D01*
X0196458Y0268346D01*
X0197050Y0269774D01*
X0197642Y0268346D01*
X0199104Y0266883D01*
X0201016Y0266091D01*
X0203084Y0266091D01*
X0204996Y0266883D01*
X0206458Y0268346D01*
X0207050Y0269774D01*
X0207642Y0268346D01*
X0209104Y0266883D01*
X0211016Y0266091D01*
X0213084Y0266091D01*
X0214996Y0266883D01*
X0216458Y0268346D01*
X0216850Y0269291D01*
X0216850Y0267394D01*
X0216952Y0267012D01*
X0217150Y0266670D01*
X0217429Y0266391D01*
X0217771Y0266194D01*
X0218153Y0266091D01*
X0221550Y0266091D01*
X0221550Y0270791D01*
X0222550Y0270791D01*
X0222550Y0266091D01*
X0225947Y0266091D01*
X0226329Y0266194D01*
X0226671Y0266391D01*
X0226950Y0266670D01*
X0227148Y0267012D01*
X0227250Y0267394D01*
X0227250Y0270791D01*
X0222550Y0270791D01*
X0222550Y0271791D01*
X0227250Y0271791D01*
X0227250Y0275189D01*
X0227148Y0275570D01*
X0226950Y0275912D01*
X0226671Y0276192D01*
X0226329Y0276389D01*
X0225947Y0276491D01*
X0222550Y0276491D01*
X0222550Y0271791D01*
X0221550Y0271791D01*
X0221550Y0276491D01*
X0218153Y0276491D01*
X0217771Y0276389D01*
X0217429Y0276192D01*
X0217150Y0275912D01*
X0216952Y0275570D01*
X0216850Y0275189D01*
X0216850Y0273291D01*
X0216458Y0274237D01*
X0214996Y0275700D01*
X0213560Y0276294D01*
X0213684Y0276346D01*
X0214496Y0277157D01*
X0214935Y0278217D01*
X0214935Y0279365D01*
X0214496Y0280426D01*
X0213684Y0281237D01*
X0212624Y0281676D01*
X0212418Y0281676D01*
X0208281Y0285813D01*
X0208281Y0286019D01*
X0207842Y0287079D01*
X0207031Y0287891D01*
X0205970Y0288330D01*
X0204823Y0288330D01*
X0203762Y0287891D01*
X0202951Y0287079D01*
X0202511Y0286019D01*
X0202511Y0284871D01*
X0202511Y0285889D02*
X0169032Y0285889D01*
X0169935Y0283892D02*
X0202917Y0283892D01*
X0204016Y0282894D02*
X0169801Y0282894D01*
X0169234Y0281895D02*
X0205693Y0281895D01*
X0206692Y0280897D02*
X0051550Y0280897D01*
X0051550Y0279898D02*
X0207690Y0279898D01*
X0208689Y0278900D02*
X0051550Y0278900D01*
X0051550Y0277901D02*
X0209296Y0277901D01*
X0209859Y0276903D02*
X0051550Y0276903D01*
X0051550Y0275904D02*
X0144598Y0275904D01*
X0144104Y0275700D02*
X0142642Y0274237D01*
X0141850Y0272326D01*
X0141850Y0270257D01*
X0142642Y0268346D01*
X0144104Y0266883D01*
X0146016Y0266091D01*
X0148084Y0266091D01*
X0149996Y0266883D01*
X0151458Y0268346D01*
X0152050Y0269774D01*
X0152642Y0268346D01*
X0154104Y0266883D01*
X0156016Y0266091D01*
X0158084Y0266091D01*
X0159996Y0266883D01*
X0161458Y0268346D01*
X0162050Y0269774D01*
X0162642Y0268346D01*
X0164104Y0266883D01*
X0166016Y0266091D01*
X0168084Y0266091D01*
X0169996Y0266883D01*
X0171458Y0268346D01*
X0171850Y0269291D01*
X0171850Y0267394D01*
X0171952Y0267012D01*
X0172150Y0266670D01*
X0172429Y0266391D01*
X0172771Y0266194D01*
X0173153Y0266091D01*
X0176550Y0266091D01*
X0176550Y0270791D01*
X0177550Y0270791D01*
X0177550Y0266091D01*
X0180947Y0266091D01*
X0181329Y0266194D01*
X0181671Y0266391D01*
X0181950Y0266670D01*
X0182148Y0267012D01*
X0182250Y0267394D01*
X0182250Y0270791D01*
X0177550Y0270791D01*
X0177550Y0271791D01*
X0182250Y0271791D01*
X0182250Y0275189D01*
X0182148Y0275570D01*
X0181950Y0275912D01*
X0181671Y0276192D01*
X0181329Y0276389D01*
X0180947Y0276491D01*
X0177550Y0276491D01*
X0177550Y0271791D01*
X0176550Y0271791D01*
X0176550Y0276491D01*
X0173153Y0276491D01*
X0172771Y0276389D01*
X0172429Y0276192D01*
X0172150Y0275912D01*
X0171952Y0275570D01*
X0171850Y0275189D01*
X0171850Y0273291D01*
X0171458Y0274237D01*
X0169996Y0275700D01*
X0168084Y0276491D01*
X0166016Y0276491D01*
X0164104Y0275700D01*
X0162642Y0274237D01*
X0162050Y0272809D01*
X0161458Y0274237D01*
X0159996Y0275700D01*
X0158084Y0276491D01*
X0156016Y0276491D01*
X0154104Y0275700D01*
X0152642Y0274237D01*
X0152050Y0272809D01*
X0151458Y0274237D01*
X0149996Y0275700D01*
X0148084Y0276491D01*
X0146016Y0276491D01*
X0144104Y0275700D01*
X0143311Y0274906D02*
X0051550Y0274906D01*
X0052210Y0273907D02*
X0142505Y0273907D01*
X0142092Y0272909D02*
X0052435Y0272909D01*
X0052308Y0271910D02*
X0141850Y0271910D01*
X0141850Y0270912D02*
X0051750Y0270912D01*
X0050140Y0269913D02*
X0141992Y0269913D01*
X0142406Y0268915D02*
X0003550Y0268915D01*
X0003550Y0269913D02*
X0048960Y0269913D01*
X0047350Y0270912D02*
X0003550Y0270912D01*
X0003550Y0271910D02*
X0046792Y0271910D01*
X0046665Y0272909D02*
X0003550Y0272909D01*
X0003550Y0273907D02*
X0046890Y0273907D01*
X0047550Y0274906D02*
X0003550Y0274906D01*
X0003550Y0275904D02*
X0047550Y0275904D01*
X0047550Y0276903D02*
X0003550Y0276903D01*
X0003550Y0277901D02*
X0047550Y0277901D01*
X0047550Y0278900D02*
X0003550Y0278900D01*
X0003550Y0279898D02*
X0047550Y0279898D01*
X0047550Y0280897D02*
X0003550Y0280897D01*
X0003550Y0281895D02*
X0047550Y0281895D01*
X0047550Y0282894D02*
X0003550Y0282894D01*
X0003550Y0283892D02*
X0047550Y0283892D01*
X0047370Y0284891D02*
X0003550Y0284891D01*
X0003550Y0285889D02*
X0046801Y0285889D01*
X0046665Y0286888D02*
X0003550Y0286888D01*
X0003550Y0287886D02*
X0046881Y0287886D01*
X0047564Y0288885D02*
X0003550Y0288885D01*
X0003550Y0289883D02*
X0013840Y0289883D01*
X0011097Y0290882D02*
X0003550Y0290882D01*
X0003550Y0291880D02*
X0009880Y0291880D01*
X0008690Y0292879D02*
X0003550Y0292879D01*
X0003550Y0293877D02*
X0007684Y0293877D01*
X0007108Y0294876D02*
X0003550Y0294876D01*
X0003550Y0295875D02*
X0006532Y0295875D01*
X0005955Y0296873D02*
X0003550Y0296873D01*
X0003550Y0297872D02*
X0005653Y0297872D01*
X0005477Y0298870D02*
X0003550Y0298870D01*
X0003550Y0299869D02*
X0005301Y0299869D01*
X0005125Y0300867D02*
X0003550Y0300867D01*
X0003550Y0301866D02*
X0005151Y0301866D01*
X0005327Y0302864D02*
X0003550Y0302864D01*
X0003550Y0303863D02*
X0005503Y0303863D01*
X0005679Y0304861D02*
X0003550Y0304861D01*
X0003550Y0305860D02*
X0006042Y0305860D01*
X0006618Y0306858D02*
X0003550Y0306858D01*
X0003550Y0307857D02*
X0007195Y0307857D01*
X0007771Y0308855D02*
X0003550Y0308855D01*
X0003550Y0309854D02*
X0008869Y0309854D01*
X0010059Y0310852D02*
X0003550Y0310852D01*
X0003550Y0311851D02*
X0011509Y0311851D01*
X0014252Y0312849D02*
X0003550Y0312849D01*
X0003550Y0313848D02*
X0350550Y0313848D01*
X0350550Y0312849D02*
X0339848Y0312849D01*
X0342591Y0311851D02*
X0350550Y0311851D01*
X0350550Y0310852D02*
X0344041Y0310852D01*
X0343050Y0311684D02*
X0343050Y0311684D01*
X0345231Y0309854D02*
X0350550Y0309854D01*
X0350550Y0308855D02*
X0346329Y0308855D01*
X0346905Y0307857D02*
X0350550Y0307857D01*
X0350550Y0306858D02*
X0347482Y0306858D01*
X0348058Y0305860D02*
X0350550Y0305860D01*
X0350550Y0304861D02*
X0348421Y0304861D01*
X0348326Y0305396D02*
X0348326Y0305396D01*
X0348597Y0303863D02*
X0350550Y0303863D01*
X0350550Y0302864D02*
X0348773Y0302864D01*
X0348949Y0301866D02*
X0350550Y0301866D01*
X0350550Y0300867D02*
X0348975Y0300867D01*
X0348799Y0299869D02*
X0350550Y0299869D01*
X0350550Y0298870D02*
X0348623Y0298870D01*
X0348447Y0297872D02*
X0350550Y0297872D01*
X0350550Y0296873D02*
X0348145Y0296873D01*
X0348326Y0297187D02*
X0348326Y0297187D01*
X0347568Y0295875D02*
X0350550Y0295875D01*
X0350550Y0294876D02*
X0346992Y0294876D01*
X0346415Y0293877D02*
X0350550Y0293877D01*
X0350550Y0292879D02*
X0345410Y0292879D01*
X0346243Y0293578D02*
X0346243Y0293578D01*
X0344220Y0291880D02*
X0350550Y0291880D01*
X0350550Y0290882D02*
X0343003Y0290882D01*
X0343050Y0290899D02*
X0343050Y0290899D01*
X0340260Y0289883D02*
X0350550Y0289883D01*
X0350550Y0288885D02*
X0340483Y0288885D01*
X0341928Y0287886D02*
X0350550Y0287886D01*
X0350550Y0286888D02*
X0342926Y0286888D01*
X0343575Y0285889D02*
X0350550Y0285889D01*
X0350550Y0284891D02*
X0343989Y0284891D01*
X0344402Y0283892D02*
X0350550Y0283892D01*
X0350550Y0282894D02*
X0344455Y0282894D01*
X0344455Y0281895D02*
X0350550Y0281895D01*
X0350550Y0280897D02*
X0344455Y0280897D01*
X0344074Y0279898D02*
X0350550Y0279898D01*
X0350550Y0278900D02*
X0343661Y0278900D01*
X0343133Y0277901D02*
X0350550Y0277901D01*
X0350550Y0276903D02*
X0342134Y0276903D01*
X0340982Y0275904D02*
X0350550Y0275904D01*
X0350550Y0274906D02*
X0338571Y0274906D01*
X0335529Y0274906D02*
X0256264Y0274906D01*
X0255265Y0275904D02*
X0333118Y0275904D01*
X0331966Y0276903D02*
X0254267Y0276903D01*
X0253268Y0277901D02*
X0330967Y0277901D01*
X0330439Y0278900D02*
X0252270Y0278900D01*
X0251271Y0279898D02*
X0330026Y0279898D01*
X0329644Y0280897D02*
X0250273Y0280897D01*
X0249274Y0281895D02*
X0329644Y0281895D01*
X0329644Y0282894D02*
X0248276Y0282894D01*
X0247435Y0283892D02*
X0329698Y0283892D01*
X0330111Y0284891D02*
X0247217Y0284891D01*
X0245601Y0287886D02*
X0243499Y0287886D01*
X0244182Y0288885D02*
X0244918Y0288885D01*
X0239550Y0291291D02*
X0239550Y0283791D01*
X0269550Y0253791D01*
X0279550Y0253791D01*
X0268573Y0251940D02*
X0142650Y0251940D01*
X0142650Y0250941D02*
X0187620Y0250941D01*
X0186904Y0249943D02*
X0142650Y0249943D01*
X0142650Y0248944D02*
X0186665Y0248944D01*
X0186777Y0247946D02*
X0142650Y0247946D01*
X0142650Y0246947D02*
X0157626Y0246947D01*
X0156907Y0245949D02*
X0142650Y0245949D01*
X0142650Y0244950D02*
X0156665Y0244950D01*
X0156775Y0243952D02*
X0142650Y0243952D01*
X0142650Y0242953D02*
X0157308Y0242953D01*
X0157550Y0241955D02*
X0142650Y0241955D01*
X0142650Y0240956D02*
X0157550Y0240956D01*
X0157550Y0239958D02*
X0142650Y0239958D01*
X0142650Y0238959D02*
X0157550Y0238959D01*
X0156366Y0237961D02*
X0142650Y0237961D01*
X0142650Y0236962D02*
X0155367Y0236962D01*
X0154821Y0235964D02*
X0142650Y0235964D01*
X0142650Y0234965D02*
X0154408Y0234965D01*
X0154350Y0233967D02*
X0142650Y0233967D01*
X0142650Y0232968D02*
X0154350Y0232968D01*
X0154676Y0231970D02*
X0142650Y0231970D01*
X0142650Y0230971D02*
X0155090Y0230971D01*
X0156015Y0229973D02*
X0142650Y0229973D01*
X0142650Y0228974D02*
X0157591Y0228974D01*
X0161509Y0228974D02*
X0167550Y0228974D01*
X0167550Y0227976D02*
X0142650Y0227976D01*
X0142650Y0226977D02*
X0167550Y0226977D01*
X0167550Y0225979D02*
X0142650Y0225979D01*
X0142650Y0224980D02*
X0167550Y0224980D01*
X0167550Y0223982D02*
X0142650Y0223982D01*
X0142650Y0222983D02*
X0167550Y0222983D01*
X0167550Y0221985D02*
X0142650Y0221985D01*
X0142650Y0220986D02*
X0167550Y0220986D01*
X0167550Y0219988D02*
X0142650Y0219988D01*
X0142650Y0218989D02*
X0167550Y0218989D01*
X0167169Y0217991D02*
X0142650Y0217991D01*
X0142650Y0216992D02*
X0166718Y0216992D01*
X0166665Y0215994D02*
X0142650Y0215994D01*
X0142650Y0214995D02*
X0166964Y0214995D01*
X0167765Y0213997D02*
X0142650Y0213997D01*
X0141647Y0209004D02*
X0202683Y0209004D01*
X0201930Y0208006D02*
X0065150Y0208006D01*
X0065150Y0207675D02*
X0065150Y0230787D01*
X0066458Y0232096D01*
X0067064Y0233558D01*
X0067231Y0233045D01*
X0067603Y0232316D01*
X0068084Y0231654D01*
X0068662Y0231075D01*
X0069325Y0230594D01*
X0070054Y0230222D01*
X0070832Y0229969D01*
X0071550Y0229856D01*
X0071550Y0234541D01*
X0072550Y0234541D01*
X0072550Y0229856D01*
X0073268Y0229969D01*
X0074046Y0230222D01*
X0074775Y0230594D01*
X0075438Y0231075D01*
X0076016Y0231654D01*
X0076497Y0232316D01*
X0076869Y0233045D01*
X0077036Y0233558D01*
X0077642Y0232096D01*
X0079104Y0230633D01*
X0081016Y0229841D01*
X0083084Y0229841D01*
X0084996Y0230633D01*
X0086458Y0232096D01*
X0087050Y0233524D01*
X0087642Y0232096D01*
X0089104Y0230633D01*
X0091016Y0229841D01*
X0093084Y0229841D01*
X0094996Y0230633D01*
X0096458Y0232096D01*
X0097050Y0233524D01*
X0097642Y0232096D01*
X0099104Y0230633D01*
X0100050Y0230241D01*
X0100050Y0225371D01*
X0099604Y0224926D01*
X0099165Y0223865D01*
X0099165Y0222717D01*
X0099604Y0221657D01*
X0100416Y0220846D01*
X0101476Y0220406D01*
X0102624Y0220406D01*
X0103684Y0220846D01*
X0104496Y0221657D01*
X0104935Y0222717D01*
X0104935Y0223865D01*
X0104496Y0224926D01*
X0104050Y0225371D01*
X0104050Y0230241D01*
X0104996Y0230633D01*
X0106458Y0232096D01*
X0107050Y0233524D01*
X0107642Y0232096D01*
X0109104Y0230633D01*
X0110050Y0230241D01*
X0110050Y0220871D01*
X0109604Y0220426D01*
X0109165Y0219365D01*
X0109165Y0218217D01*
X0109604Y0217157D01*
X0110416Y0216346D01*
X0111476Y0215906D01*
X0112624Y0215906D01*
X0113684Y0216346D01*
X0114496Y0217157D01*
X0114935Y0218217D01*
X0114935Y0219365D01*
X0114496Y0220426D01*
X0114050Y0220871D01*
X0114050Y0230241D01*
X0114996Y0230633D01*
X0116458Y0232096D01*
X0117250Y0234007D01*
X0117250Y0236076D01*
X0116458Y0237987D01*
X0114996Y0239450D01*
X0113084Y0240241D01*
X0111016Y0240241D01*
X0109104Y0239450D01*
X0107642Y0237987D01*
X0107050Y0236558D01*
X0106458Y0237987D01*
X0104996Y0239450D01*
X0103084Y0240241D01*
X0101016Y0240241D01*
X0099104Y0239450D01*
X0097642Y0237987D01*
X0097050Y0236558D01*
X0096458Y0237987D01*
X0094996Y0239450D01*
X0093084Y0240241D01*
X0091016Y0240241D01*
X0089104Y0239450D01*
X0087642Y0237987D01*
X0087050Y0236558D01*
X0086458Y0237987D01*
X0084996Y0239450D01*
X0083084Y0240241D01*
X0081016Y0240241D01*
X0079104Y0239450D01*
X0077642Y0237987D01*
X0077036Y0236524D01*
X0076869Y0237037D01*
X0076497Y0237767D01*
X0076016Y0238429D01*
X0075438Y0239008D01*
X0074775Y0239489D01*
X0074046Y0239860D01*
X0073268Y0240113D01*
X0072550Y0240227D01*
X0072550Y0235541D01*
X0071550Y0235541D01*
X0071550Y0240227D01*
X0070832Y0240113D01*
X0070054Y0239860D01*
X0069325Y0239489D01*
X0068662Y0239008D01*
X0068084Y0238429D01*
X0067603Y0237767D01*
X0067231Y0237037D01*
X0067064Y0236524D01*
X0066458Y0237987D01*
X0064996Y0239450D01*
X0063084Y0240241D01*
X0061016Y0240241D01*
X0059104Y0239450D01*
X0057642Y0237987D01*
X0057050Y0236558D01*
X0056458Y0237987D01*
X0054996Y0239450D01*
X0053084Y0240241D01*
X0051016Y0240241D01*
X0049104Y0239450D01*
X0047642Y0237987D01*
X0047250Y0237041D01*
X0047250Y0239363D01*
X0046371Y0240241D01*
X0037729Y0240241D01*
X0036850Y0239363D01*
X0036850Y0230720D01*
X0037729Y0229841D01*
X0046371Y0229841D01*
X0047250Y0230720D01*
X0047250Y0233041D01*
X0047642Y0232096D01*
X0049104Y0230633D01*
X0051016Y0229841D01*
X0053084Y0229841D01*
X0054996Y0230633D01*
X0056458Y0232096D01*
X0057050Y0233524D01*
X0057642Y0232096D01*
X0058950Y0230787D01*
X0058950Y0207675D01*
X0059422Y0206535D01*
X0060294Y0205663D01*
X0061433Y0205191D01*
X0062667Y0205191D01*
X0063806Y0205663D01*
X0064678Y0206535D01*
X0065150Y0207675D01*
X0064873Y0207007D02*
X0201665Y0207007D01*
X0201752Y0206008D02*
X0064151Y0206008D01*
X0065150Y0209004D02*
X0137453Y0209004D01*
X0136728Y0210003D02*
X0065150Y0210003D01*
X0065150Y0211001D02*
X0136450Y0211001D01*
X0136450Y0212000D02*
X0065150Y0212000D01*
X0065150Y0212998D02*
X0136450Y0212998D01*
X0136450Y0213997D02*
X0065150Y0213997D01*
X0065150Y0214995D02*
X0136450Y0214995D01*
X0136450Y0215994D02*
X0112835Y0215994D01*
X0111265Y0215994D02*
X0065150Y0215994D01*
X0065150Y0216992D02*
X0109769Y0216992D01*
X0109259Y0217991D02*
X0065150Y0217991D01*
X0065150Y0218989D02*
X0109165Y0218989D01*
X0109423Y0219988D02*
X0065150Y0219988D01*
X0065150Y0220986D02*
X0100275Y0220986D01*
X0099469Y0221985D02*
X0065150Y0221985D01*
X0065150Y0222983D02*
X0099165Y0222983D01*
X0099213Y0223982D02*
X0065150Y0223982D01*
X0065150Y0224980D02*
X0099659Y0224980D01*
X0100050Y0225979D02*
X0065150Y0225979D01*
X0065150Y0226977D02*
X0100050Y0226977D01*
X0100050Y0227976D02*
X0065150Y0227976D01*
X0065150Y0228974D02*
X0100050Y0228974D01*
X0100050Y0229973D02*
X0093402Y0229973D01*
X0095334Y0230971D02*
X0098766Y0230971D01*
X0097768Y0231970D02*
X0096332Y0231970D01*
X0096820Y0232968D02*
X0097280Y0232968D01*
X0097217Y0236962D02*
X0096883Y0236962D01*
X0096469Y0237961D02*
X0097631Y0237961D01*
X0098614Y0238959D02*
X0095486Y0238959D01*
X0093769Y0239958D02*
X0100331Y0239958D01*
X0103769Y0239958D02*
X0110331Y0239958D01*
X0108614Y0238959D02*
X0105486Y0238959D01*
X0106469Y0237961D02*
X0107631Y0237961D01*
X0107217Y0236962D02*
X0106883Y0236962D01*
X0106820Y0232968D02*
X0107280Y0232968D01*
X0107768Y0231970D02*
X0106332Y0231970D01*
X0105334Y0230971D02*
X0108766Y0230971D01*
X0110050Y0229973D02*
X0104050Y0229973D01*
X0104050Y0228974D02*
X0110050Y0228974D01*
X0110050Y0227976D02*
X0104050Y0227976D01*
X0104050Y0226977D02*
X0110050Y0226977D01*
X0110050Y0225979D02*
X0104050Y0225979D01*
X0104441Y0224980D02*
X0110050Y0224980D01*
X0110050Y0223982D02*
X0104887Y0223982D01*
X0104935Y0222983D02*
X0110050Y0222983D01*
X0110050Y0221985D02*
X0104631Y0221985D01*
X0103825Y0220986D02*
X0110050Y0220986D01*
X0112050Y0218791D02*
X0112050Y0235041D01*
X0117250Y0234965D02*
X0136450Y0234965D01*
X0136450Y0233967D02*
X0117233Y0233967D01*
X0116820Y0232968D02*
X0136450Y0232968D01*
X0136450Y0231970D02*
X0116332Y0231970D01*
X0115334Y0230971D02*
X0136450Y0230971D01*
X0136450Y0229973D02*
X0114050Y0229973D01*
X0114050Y0228974D02*
X0136450Y0228974D01*
X0136450Y0227976D02*
X0114050Y0227976D01*
X0114050Y0226977D02*
X0136450Y0226977D01*
X0136450Y0225979D02*
X0114050Y0225979D01*
X0114050Y0224980D02*
X0136450Y0224980D01*
X0136450Y0223982D02*
X0114050Y0223982D01*
X0114050Y0222983D02*
X0136450Y0222983D01*
X0136450Y0221985D02*
X0114050Y0221985D01*
X0114050Y0220986D02*
X0136450Y0220986D01*
X0136450Y0219988D02*
X0114677Y0219988D01*
X0114935Y0218989D02*
X0136450Y0218989D01*
X0136450Y0217991D02*
X0114841Y0217991D01*
X0114331Y0216992D02*
X0136450Y0216992D01*
X0136450Y0235964D02*
X0117250Y0235964D01*
X0116883Y0236962D02*
X0136450Y0236962D01*
X0136450Y0237961D02*
X0116469Y0237961D01*
X0115486Y0238959D02*
X0136450Y0238959D01*
X0136450Y0239958D02*
X0113769Y0239958D01*
X0102050Y0235041D02*
X0102050Y0223291D01*
X0090698Y0229973D02*
X0083402Y0229973D01*
X0085334Y0230971D02*
X0088766Y0230971D01*
X0087768Y0231970D02*
X0086332Y0231970D01*
X0086820Y0232968D02*
X0087280Y0232968D01*
X0087217Y0236962D02*
X0086883Y0236962D01*
X0086469Y0237961D02*
X0087631Y0237961D01*
X0088614Y0238959D02*
X0085486Y0238959D01*
X0083769Y0239958D02*
X0090331Y0239958D01*
X0080331Y0239958D02*
X0073746Y0239958D01*
X0072550Y0239958D02*
X0071550Y0239958D01*
X0071550Y0238959D02*
X0072550Y0238959D01*
X0072550Y0237961D02*
X0071550Y0237961D01*
X0071550Y0236962D02*
X0072550Y0236962D01*
X0072550Y0235964D02*
X0071550Y0235964D01*
X0071550Y0233967D02*
X0072550Y0233967D01*
X0072550Y0232968D02*
X0071550Y0232968D01*
X0071550Y0231970D02*
X0072550Y0231970D01*
X0072550Y0230971D02*
X0071550Y0230971D01*
X0071550Y0229973D02*
X0072550Y0229973D01*
X0073278Y0229973D02*
X0080698Y0229973D01*
X0078766Y0230971D02*
X0075295Y0230971D01*
X0076246Y0231970D02*
X0077768Y0231970D01*
X0077280Y0232968D02*
X0076830Y0232968D01*
X0076893Y0236962D02*
X0077217Y0236962D01*
X0077631Y0237961D02*
X0076356Y0237961D01*
X0075486Y0238959D02*
X0078614Y0238959D01*
X0070354Y0239958D02*
X0063769Y0239958D01*
X0065486Y0238959D02*
X0068614Y0238959D01*
X0067744Y0237961D02*
X0066469Y0237961D01*
X0066883Y0236962D02*
X0067207Y0236962D01*
X0067270Y0232968D02*
X0066820Y0232968D01*
X0066332Y0231970D02*
X0067854Y0231970D01*
X0068805Y0230971D02*
X0065334Y0230971D01*
X0065150Y0229973D02*
X0070822Y0229973D01*
X0058950Y0229973D02*
X0053402Y0229973D01*
X0055334Y0230971D02*
X0058766Y0230971D01*
X0057768Y0231970D02*
X0056332Y0231970D01*
X0056820Y0232968D02*
X0057280Y0232968D01*
X0057217Y0236962D02*
X0056883Y0236962D01*
X0056469Y0237961D02*
X0057631Y0237961D01*
X0058614Y0238959D02*
X0055486Y0238959D01*
X0053769Y0239958D02*
X0060331Y0239958D01*
X0050331Y0239958D02*
X0046655Y0239958D01*
X0047250Y0238959D02*
X0048614Y0238959D01*
X0047631Y0237961D02*
X0047250Y0237961D01*
X0047250Y0232968D02*
X0047280Y0232968D01*
X0047250Y0231970D02*
X0047768Y0231970D01*
X0047250Y0230971D02*
X0048766Y0230971D01*
X0050698Y0229973D02*
X0046503Y0229973D01*
X0037597Y0229973D02*
X0003550Y0229973D01*
X0003550Y0230971D02*
X0036850Y0230971D01*
X0036850Y0231970D02*
X0003550Y0231970D01*
X0003550Y0232968D02*
X0036850Y0232968D01*
X0036850Y0233967D02*
X0003550Y0233967D01*
X0003550Y0234965D02*
X0036850Y0234965D01*
X0036850Y0235964D02*
X0003550Y0235964D01*
X0003550Y0236962D02*
X0036850Y0236962D01*
X0036850Y0237961D02*
X0003550Y0237961D01*
X0003550Y0238959D02*
X0036850Y0238959D01*
X0037445Y0239958D02*
X0003550Y0239958D01*
X0003550Y0240956D02*
X0136450Y0240956D01*
X0136450Y0241955D02*
X0003550Y0241955D01*
X0003550Y0242953D02*
X0136450Y0242953D01*
X0136450Y0243952D02*
X0003550Y0243952D01*
X0003550Y0244950D02*
X0136450Y0244950D01*
X0136450Y0245949D02*
X0003550Y0245949D01*
X0003550Y0246947D02*
X0136450Y0246947D01*
X0136450Y0247946D02*
X0003550Y0247946D01*
X0003550Y0248944D02*
X0136450Y0248944D01*
X0136450Y0249943D02*
X0003550Y0249943D01*
X0003550Y0250941D02*
X0136450Y0250941D01*
X0136450Y0251940D02*
X0003550Y0251940D01*
X0003550Y0252939D02*
X0136450Y0252939D01*
X0136450Y0253937D02*
X0003550Y0253937D01*
X0003550Y0254936D02*
X0136669Y0254936D01*
X0137309Y0255934D02*
X0003550Y0255934D01*
X0003550Y0256933D02*
X0263580Y0256933D01*
X0262582Y0257931D02*
X0003550Y0257931D01*
X0003550Y0258930D02*
X0261583Y0258930D01*
X0260585Y0259928D02*
X0003550Y0259928D01*
X0003550Y0260927D02*
X0259586Y0260927D01*
X0258588Y0261925D02*
X0003550Y0261925D01*
X0003550Y0262924D02*
X0257589Y0262924D01*
X0256591Y0263922D02*
X0003550Y0263922D01*
X0003550Y0264921D02*
X0255592Y0264921D01*
X0254594Y0265919D02*
X0003550Y0265919D01*
X0003550Y0266918D02*
X0144070Y0266918D01*
X0143071Y0267916D02*
X0003550Y0267916D01*
X0024220Y0291880D02*
X0129811Y0291880D01*
X0130809Y0292879D02*
X0025410Y0292879D01*
X0026905Y0307857D02*
X0327195Y0307857D01*
X0327771Y0308855D02*
X0026329Y0308855D01*
X0025231Y0309854D02*
X0328869Y0309854D01*
X0327857Y0309005D02*
X0327857Y0309005D01*
X0330059Y0310852D02*
X0024041Y0310852D01*
X0022591Y0311851D02*
X0331509Y0311851D01*
X0334252Y0312849D02*
X0019848Y0312849D01*
X0049550Y0286791D02*
X0049550Y0272791D01*
X0058950Y0228974D02*
X0003550Y0228974D01*
X0003550Y0227976D02*
X0058950Y0227976D01*
X0058950Y0226977D02*
X0003550Y0226977D01*
X0003550Y0225979D02*
X0058950Y0225979D01*
X0058950Y0224980D02*
X0003550Y0224980D01*
X0003550Y0223982D02*
X0058950Y0223982D01*
X0058950Y0222983D02*
X0003550Y0222983D01*
X0003550Y0221985D02*
X0058950Y0221985D01*
X0058950Y0220986D02*
X0003550Y0220986D01*
X0003550Y0219988D02*
X0058950Y0219988D01*
X0058950Y0218989D02*
X0037453Y0218989D01*
X0036695Y0219303D02*
X0033905Y0219303D01*
X0031328Y0218236D01*
X0029356Y0216263D01*
X0028288Y0213686D01*
X0028288Y0210897D01*
X0029356Y0208319D01*
X0031328Y0206347D01*
X0033905Y0205280D01*
X0036695Y0205280D01*
X0039272Y0206347D01*
X0041244Y0208319D01*
X0042312Y0210897D01*
X0042312Y0213686D01*
X0041244Y0216263D01*
X0039272Y0218236D01*
X0036695Y0219303D01*
X0039517Y0217991D02*
X0058950Y0217991D01*
X0058950Y0216992D02*
X0040515Y0216992D01*
X0041356Y0215994D02*
X0058950Y0215994D01*
X0058950Y0214995D02*
X0041770Y0214995D01*
X0042183Y0213997D02*
X0058950Y0213997D01*
X0058950Y0212998D02*
X0042312Y0212998D01*
X0042312Y0212000D02*
X0058950Y0212000D01*
X0058950Y0211001D02*
X0042312Y0211001D01*
X0041941Y0210003D02*
X0058950Y0210003D01*
X0058950Y0209004D02*
X0041528Y0209004D01*
X0040930Y0208006D02*
X0058950Y0208006D01*
X0059227Y0207007D02*
X0039932Y0207007D01*
X0038455Y0206008D02*
X0059949Y0206008D01*
X0032145Y0206008D02*
X0003550Y0206008D01*
X0003550Y0205010D02*
X0202251Y0205010D01*
X0202550Y0204011D02*
X0003550Y0204011D01*
X0003550Y0203013D02*
X0202550Y0203013D01*
X0202550Y0202014D02*
X0003550Y0202014D01*
X0003550Y0201016D02*
X0202550Y0201016D01*
X0202550Y0200017D02*
X0003550Y0200017D01*
X0003550Y0199019D02*
X0202550Y0199019D01*
X0202550Y0198020D02*
X0003550Y0198020D01*
X0003550Y0197022D02*
X0202550Y0197022D01*
X0202550Y0196023D02*
X0003550Y0196023D01*
X0003550Y0195025D02*
X0202550Y0195025D01*
X0202550Y0194026D02*
X0003550Y0194026D01*
X0003550Y0193028D02*
X0202550Y0193028D01*
X0202550Y0192029D02*
X0003550Y0192029D01*
X0003550Y0191031D02*
X0202550Y0191031D01*
X0201941Y0190032D02*
X0003550Y0190032D01*
X0003550Y0189034D02*
X0201665Y0189034D01*
X0201740Y0188035D02*
X0003550Y0188035D01*
X0003550Y0187037D02*
X0202225Y0187037D01*
X0204550Y0188791D02*
X0204550Y0206791D01*
X0201834Y0214995D02*
X0277720Y0214995D01*
X0278133Y0215994D02*
X0202342Y0215994D01*
X0202435Y0216992D02*
X0278547Y0216992D01*
X0279478Y0217991D02*
X0202176Y0217991D01*
X0201550Y0218989D02*
X0280477Y0218989D01*
X0303050Y0220986D02*
X0311416Y0220986D01*
X0311714Y0221985D02*
X0303050Y0221985D01*
X0303050Y0222983D02*
X0312162Y0222983D01*
X0313506Y0223982D02*
X0303050Y0223982D01*
X0303677Y0219988D02*
X0310418Y0219988D01*
X0309419Y0218989D02*
X0303935Y0218989D01*
X0303841Y0217991D02*
X0308421Y0217991D01*
X0307422Y0216992D02*
X0303331Y0216992D01*
X0307050Y0213791D02*
X0314550Y0221291D01*
X0323050Y0217291D02*
X0312050Y0206291D01*
X0332050Y0189791D02*
X0344050Y0201791D01*
X0346667Y0203013D02*
X0350550Y0203013D01*
X0350550Y0204011D02*
X0345910Y0204011D01*
X0346935Y0202014D02*
X0350550Y0202014D01*
X0350550Y0201016D02*
X0346852Y0201016D01*
X0346356Y0200017D02*
X0350550Y0200017D01*
X0350550Y0199019D02*
X0344896Y0199019D01*
X0343107Y0198020D02*
X0350550Y0198020D01*
X0350550Y0197022D02*
X0342109Y0197022D01*
X0341110Y0196023D02*
X0350550Y0196023D01*
X0350550Y0195025D02*
X0340112Y0195025D01*
X0339113Y0194026D02*
X0350550Y0194026D01*
X0350550Y0193028D02*
X0338115Y0193028D01*
X0337116Y0192029D02*
X0350550Y0192029D01*
X0350550Y0191031D02*
X0336118Y0191031D01*
X0335119Y0190032D02*
X0350550Y0190032D01*
X0350550Y0189034D02*
X0334859Y0189034D01*
X0334374Y0188035D02*
X0350550Y0188035D01*
X0350550Y0187037D02*
X0332939Y0187037D01*
X0331161Y0187037D02*
X0206875Y0187037D01*
X0196946Y0164071D02*
X0142650Y0164071D01*
X0142650Y0163073D02*
X0196518Y0163073D01*
X0196450Y0162074D02*
X0142650Y0162074D01*
X0142650Y0161075D02*
X0196450Y0161075D01*
X0196450Y0160077D02*
X0166344Y0160077D01*
X0166184Y0160237D02*
X0165124Y0160676D01*
X0163976Y0160676D01*
X0162916Y0160237D01*
X0162104Y0159426D01*
X0161665Y0158365D01*
X0161665Y0157217D01*
X0162104Y0156157D01*
X0162550Y0155711D01*
X0162550Y0143371D01*
X0162104Y0142926D01*
X0161665Y0141865D01*
X0161665Y0140717D01*
X0162104Y0139657D01*
X0162916Y0138846D01*
X0163976Y0138406D01*
X0165124Y0138406D01*
X0166184Y0138846D01*
X0166996Y0139657D01*
X0167435Y0140717D01*
X0167435Y0141865D01*
X0166996Y0142926D01*
X0166550Y0143371D01*
X0166550Y0155711D01*
X0166996Y0156157D01*
X0167435Y0157217D01*
X0167435Y0158365D01*
X0166996Y0159426D01*
X0166184Y0160237D01*
X0167140Y0159078D02*
X0196450Y0159078D01*
X0196450Y0158080D02*
X0167435Y0158080D01*
X0167379Y0157081D02*
X0196450Y0157081D01*
X0196450Y0156083D02*
X0166922Y0156083D01*
X0166550Y0155084D02*
X0196450Y0155084D01*
X0196450Y0154086D02*
X0166550Y0154086D01*
X0166550Y0153087D02*
X0196450Y0153087D01*
X0196450Y0152089D02*
X0166550Y0152089D01*
X0166550Y0151090D02*
X0196450Y0151090D01*
X0196450Y0150092D02*
X0166550Y0150092D01*
X0166550Y0149093D02*
X0196450Y0149093D01*
X0196450Y0148095D02*
X0166550Y0148095D01*
X0166550Y0147096D02*
X0196450Y0147096D01*
X0196450Y0146098D02*
X0166550Y0146098D01*
X0166550Y0145099D02*
X0196450Y0145099D01*
X0196450Y0144101D02*
X0166550Y0144101D01*
X0166819Y0143102D02*
X0196450Y0143102D01*
X0196450Y0142104D02*
X0167336Y0142104D01*
X0167435Y0141105D02*
X0196450Y0141105D01*
X0196685Y0140107D02*
X0167182Y0140107D01*
X0166447Y0139108D02*
X0197349Y0139108D01*
X0221450Y0139108D02*
X0227650Y0139108D01*
X0227650Y0138110D02*
X0221450Y0138110D01*
X0221450Y0137111D02*
X0227650Y0137111D01*
X0227650Y0136113D02*
X0221450Y0136113D01*
X0222125Y0135114D02*
X0226975Y0135114D01*
X0226665Y0134116D02*
X0222435Y0134116D01*
X0222393Y0133117D02*
X0226707Y0133117D01*
X0227143Y0132119D02*
X0221957Y0132119D01*
X0221450Y0140107D02*
X0227650Y0140107D01*
X0227650Y0141105D02*
X0221450Y0141105D01*
X0221450Y0142104D02*
X0227650Y0142104D01*
X0227650Y0143102D02*
X0221450Y0143102D01*
X0221450Y0144101D02*
X0227650Y0144101D01*
X0227162Y0145099D02*
X0221450Y0145099D01*
X0221450Y0146098D02*
X0226715Y0146098D01*
X0226665Y0147096D02*
X0221450Y0147096D01*
X0221450Y0148095D02*
X0226967Y0148095D01*
X0227772Y0149093D02*
X0222176Y0149093D01*
X0222435Y0150092D02*
X0244717Y0150092D01*
X0244665Y0151090D02*
X0222342Y0151090D01*
X0221832Y0152089D02*
X0244965Y0152089D01*
X0245766Y0153087D02*
X0220339Y0153087D01*
X0231328Y0149093D02*
X0245168Y0149093D01*
X0245550Y0148095D02*
X0232133Y0148095D01*
X0232435Y0147096D02*
X0245550Y0147096D01*
X0245550Y0146098D02*
X0232385Y0146098D01*
X0231938Y0145099D02*
X0245550Y0145099D01*
X0245550Y0144101D02*
X0231450Y0144101D01*
X0231450Y0143102D02*
X0245550Y0143102D01*
X0245550Y0142104D02*
X0231450Y0142104D01*
X0231450Y0141105D02*
X0245550Y0141105D01*
X0245550Y0140107D02*
X0231450Y0140107D01*
X0231450Y0139108D02*
X0245550Y0139108D01*
X0245550Y0138110D02*
X0231450Y0138110D01*
X0231450Y0137111D02*
X0245550Y0137111D01*
X0245550Y0136113D02*
X0231450Y0136113D01*
X0232125Y0135114D02*
X0245550Y0135114D01*
X0245550Y0134116D02*
X0232435Y0134116D01*
X0232393Y0133117D02*
X0245550Y0133117D01*
X0245550Y0132119D02*
X0231957Y0132119D01*
X0245550Y0129123D02*
X0072752Y0129123D01*
X0074297Y0128125D02*
X0245550Y0128125D01*
X0245550Y0127126D02*
X0074827Y0127126D01*
X0075042Y0126128D02*
X0244981Y0126128D01*
X0244665Y0125129D02*
X0076041Y0125129D01*
X0077039Y0124131D02*
X0244701Y0124131D01*
X0245129Y0123132D02*
X0078038Y0123132D01*
X0079036Y0122134D02*
X0246428Y0122134D01*
X0247550Y0124791D02*
X0247550Y0150791D01*
X0250135Y0152089D02*
X0337672Y0152089D01*
X0337604Y0152157D02*
X0338050Y0151711D01*
X0338050Y0117620D01*
X0335050Y0114620D01*
X0335050Y0108371D01*
X0334604Y0107926D01*
X0334165Y0106865D01*
X0334165Y0105717D01*
X0334604Y0104657D01*
X0335416Y0103846D01*
X0336476Y0103406D01*
X0337624Y0103406D01*
X0338684Y0103846D01*
X0339496Y0104657D01*
X0339935Y0105717D01*
X0339935Y0106865D01*
X0339496Y0107926D01*
X0339050Y0108371D01*
X0339050Y0112963D01*
X0340050Y0113963D01*
X0340050Y0113371D01*
X0339604Y0112926D01*
X0339165Y0111865D01*
X0339165Y0110717D01*
X0339604Y0109657D01*
X0340416Y0108846D01*
X0341476Y0108406D01*
X0342624Y0108406D01*
X0343684Y0108846D01*
X0344496Y0109657D01*
X0344935Y0110717D01*
X0344935Y0111865D01*
X0344496Y0112926D01*
X0344050Y0113371D01*
X0344050Y0145463D01*
X0344493Y0145906D01*
X0345124Y0145906D01*
X0346184Y0146346D01*
X0346996Y0147157D01*
X0347435Y0148217D01*
X0347435Y0149365D01*
X0346996Y0150426D01*
X0346184Y0151237D01*
X0345124Y0151676D01*
X0343976Y0151676D01*
X0342916Y0151237D01*
X0342104Y0150426D01*
X0342050Y0150295D01*
X0342050Y0151711D01*
X0342496Y0152157D01*
X0342935Y0153217D01*
X0342935Y0154365D01*
X0342496Y0155426D01*
X0341684Y0156237D01*
X0340624Y0156676D01*
X0339476Y0156676D01*
X0338416Y0156237D01*
X0337604Y0155426D01*
X0337165Y0154365D01*
X0337165Y0153217D01*
X0337604Y0152157D01*
X0337219Y0153087D02*
X0249334Y0153087D01*
X0250435Y0151090D02*
X0338050Y0151090D01*
X0338050Y0150092D02*
X0250383Y0150092D01*
X0249932Y0149093D02*
X0338050Y0149093D01*
X0338050Y0148095D02*
X0249550Y0148095D01*
X0249550Y0147096D02*
X0338050Y0147096D01*
X0338050Y0146098D02*
X0249550Y0146098D01*
X0267550Y0156291D02*
X0319550Y0156291D01*
X0333550Y0156291D01*
X0336173Y0155084D02*
X0337463Y0155084D01*
X0337165Y0154086D02*
X0335425Y0154086D01*
X0336435Y0156083D02*
X0338262Y0156083D01*
X0336345Y0157081D02*
X0350550Y0157081D01*
X0350550Y0156083D02*
X0341838Y0156083D01*
X0342637Y0155084D02*
X0350550Y0155084D01*
X0350550Y0154086D02*
X0342935Y0154086D01*
X0342881Y0153087D02*
X0350550Y0153087D01*
X0350550Y0152089D02*
X0342428Y0152089D01*
X0342769Y0151090D02*
X0342050Y0151090D01*
X0340050Y0153791D02*
X0340050Y0116791D01*
X0337050Y0113791D01*
X0337050Y0106291D01*
X0339704Y0105159D02*
X0349781Y0105159D01*
X0349781Y0106157D02*
X0339935Y0106157D01*
X0339815Y0107156D02*
X0349781Y0107156D01*
X0349781Y0108154D02*
X0339267Y0108154D01*
X0339050Y0109153D02*
X0340108Y0109153D01*
X0339399Y0110151D02*
X0339050Y0110151D01*
X0339050Y0111150D02*
X0339165Y0111150D01*
X0339050Y0112148D02*
X0339282Y0112148D01*
X0339234Y0113147D02*
X0339826Y0113147D01*
X0342050Y0111291D02*
X0342050Y0146291D01*
X0344550Y0148791D01*
X0345586Y0146098D02*
X0350550Y0146098D01*
X0350550Y0147096D02*
X0346935Y0147096D01*
X0347384Y0148095D02*
X0350550Y0148095D01*
X0350550Y0149093D02*
X0347435Y0149093D01*
X0347134Y0150092D02*
X0350550Y0150092D01*
X0350550Y0151090D02*
X0346331Y0151090D01*
X0344050Y0145099D02*
X0350550Y0145099D01*
X0350550Y0144101D02*
X0344050Y0144101D01*
X0344050Y0143102D02*
X0350550Y0143102D01*
X0350550Y0142104D02*
X0344050Y0142104D01*
X0344050Y0141105D02*
X0350550Y0141105D01*
X0350550Y0140107D02*
X0344050Y0140107D01*
X0344050Y0139108D02*
X0350550Y0139108D01*
X0350550Y0138110D02*
X0344050Y0138110D01*
X0344050Y0137111D02*
X0350550Y0137111D01*
X0350550Y0136113D02*
X0344050Y0136113D01*
X0344050Y0135114D02*
X0350550Y0135114D01*
X0350550Y0134116D02*
X0344050Y0134116D01*
X0344050Y0133117D02*
X0350550Y0133117D01*
X0350550Y0132119D02*
X0344050Y0132119D01*
X0344050Y0131120D02*
X0350550Y0131120D01*
X0350550Y0130122D02*
X0344050Y0130122D01*
X0344050Y0129123D02*
X0350550Y0129123D01*
X0350550Y0128125D02*
X0344050Y0128125D01*
X0344050Y0127126D02*
X0350550Y0127126D01*
X0350550Y0126128D02*
X0344050Y0126128D01*
X0344050Y0125129D02*
X0350550Y0125129D01*
X0350550Y0124131D02*
X0344050Y0124131D01*
X0344050Y0123132D02*
X0350550Y0123132D01*
X0350550Y0122134D02*
X0344050Y0122134D01*
X0344050Y0121135D02*
X0350550Y0121135D01*
X0349959Y0120137D02*
X0344050Y0120137D01*
X0344050Y0119138D02*
X0349781Y0119138D01*
X0349781Y0118139D02*
X0344050Y0118139D01*
X0344050Y0117141D02*
X0349781Y0117141D01*
X0349781Y0116142D02*
X0344050Y0116142D01*
X0344050Y0115144D02*
X0349781Y0115144D01*
X0349781Y0114145D02*
X0344050Y0114145D01*
X0344274Y0113147D02*
X0349781Y0113147D01*
X0349781Y0112148D02*
X0344818Y0112148D01*
X0344935Y0111150D02*
X0349781Y0111150D01*
X0349781Y0110151D02*
X0344701Y0110151D01*
X0343992Y0109153D02*
X0349781Y0109153D01*
X0349781Y0104160D02*
X0338999Y0104160D01*
X0335101Y0104160D02*
X0323999Y0104160D01*
X0324704Y0105159D02*
X0334396Y0105159D01*
X0334165Y0106157D02*
X0324935Y0106157D01*
X0324815Y0107156D02*
X0334285Y0107156D01*
X0334833Y0108154D02*
X0324267Y0108154D01*
X0324050Y0109153D02*
X0326108Y0109153D01*
X0325399Y0110151D02*
X0324050Y0110151D01*
X0324050Y0111150D02*
X0325165Y0111150D01*
X0325282Y0112148D02*
X0324050Y0112148D01*
X0324234Y0113147D02*
X0325826Y0113147D01*
X0326050Y0114145D02*
X0325233Y0114145D01*
X0324550Y0116291D02*
X0322050Y0113791D01*
X0322050Y0106291D01*
X0328050Y0111291D02*
X0328050Y0135291D01*
X0330686Y0134116D02*
X0338050Y0134116D01*
X0338050Y0135114D02*
X0330935Y0135114D01*
X0330832Y0136113D02*
X0338050Y0136113D01*
X0338050Y0137111D02*
X0330310Y0137111D01*
X0328785Y0138110D02*
X0338050Y0138110D01*
X0338050Y0139108D02*
X0336947Y0139108D01*
X0337682Y0140107D02*
X0338050Y0140107D01*
X0338050Y0141105D02*
X0337935Y0141105D01*
X0337836Y0142104D02*
X0338050Y0142104D01*
X0338050Y0143102D02*
X0337319Y0143102D01*
X0338050Y0133117D02*
X0330050Y0133117D01*
X0330050Y0132119D02*
X0338050Y0132119D01*
X0338050Y0131120D02*
X0330050Y0131120D01*
X0330050Y0130122D02*
X0338050Y0130122D01*
X0338050Y0129123D02*
X0330050Y0129123D01*
X0330050Y0128125D02*
X0338050Y0128125D01*
X0338050Y0127126D02*
X0330050Y0127126D01*
X0330050Y0126128D02*
X0338050Y0126128D01*
X0338050Y0125129D02*
X0330050Y0125129D01*
X0330050Y0124131D02*
X0338050Y0124131D01*
X0338050Y0123132D02*
X0330050Y0123132D01*
X0330050Y0122134D02*
X0338050Y0122134D01*
X0338050Y0121135D02*
X0330050Y0121135D01*
X0330050Y0120137D02*
X0338050Y0120137D01*
X0338050Y0119138D02*
X0330050Y0119138D01*
X0330050Y0118139D02*
X0338050Y0118139D01*
X0337571Y0117141D02*
X0330050Y0117141D01*
X0330050Y0116142D02*
X0336573Y0116142D01*
X0335574Y0115144D02*
X0330050Y0115144D01*
X0330050Y0114145D02*
X0335050Y0114145D01*
X0335050Y0113147D02*
X0330274Y0113147D01*
X0330818Y0112148D02*
X0335050Y0112148D01*
X0335050Y0111150D02*
X0330935Y0111150D01*
X0330701Y0110151D02*
X0335050Y0110151D01*
X0335050Y0109153D02*
X0329992Y0109153D01*
X0324550Y0116291D02*
X0324550Y0129791D01*
X0315108Y0109153D02*
X0295719Y0109153D01*
X0293381Y0109153D02*
X0146150Y0109153D01*
X0146150Y0110151D02*
X0292110Y0110151D01*
X0291693Y0111150D02*
X0146150Y0111150D01*
X0146150Y0112148D02*
X0291665Y0112148D01*
X0291989Y0113147D02*
X0145844Y0113147D01*
X0145080Y0114145D02*
X0292550Y0114145D01*
X0294550Y0111791D02*
X0294550Y0131291D01*
X0317675Y0154086D02*
X0269425Y0154086D01*
X0268360Y0159078D02*
X0318740Y0159078D01*
X0320360Y0159078D02*
X0332740Y0159078D01*
X0334360Y0159078D02*
X0350550Y0159078D01*
X0350550Y0158080D02*
X0335841Y0158080D01*
X0331675Y0154086D02*
X0321425Y0154086D01*
X0319800Y0176053D02*
X0318800Y0176053D01*
X0318800Y0177052D02*
X0319800Y0177052D01*
X0319800Y0178050D02*
X0318800Y0178050D01*
X0318800Y0179049D02*
X0319800Y0179049D01*
X0319800Y0180047D02*
X0318800Y0180047D01*
X0318800Y0183043D02*
X0319800Y0183043D01*
X0319800Y0184041D02*
X0318800Y0184041D01*
X0318800Y0185040D02*
X0319800Y0185040D01*
X0319800Y0186038D02*
X0318800Y0186038D01*
X0310612Y0179049D02*
X0043488Y0179049D01*
X0042947Y0178050D02*
X0311217Y0178050D01*
X0312214Y0177052D02*
X0041949Y0177052D01*
X0039943Y0176053D02*
X0314407Y0176053D01*
X0324193Y0176053D02*
X0350550Y0176053D01*
X0350550Y0177052D02*
X0326386Y0177052D01*
X0327383Y0178050D02*
X0350550Y0178050D01*
X0350550Y0179049D02*
X0327988Y0179049D01*
X0328347Y0180047D02*
X0350550Y0180047D01*
X0267574Y0252939D02*
X0142650Y0252939D01*
X0142650Y0253937D02*
X0266576Y0253937D01*
X0265577Y0254936D02*
X0142431Y0254936D01*
X0141791Y0255934D02*
X0264579Y0255934D01*
X0268246Y0262924D02*
X0350550Y0262924D01*
X0350550Y0263922D02*
X0267248Y0263922D01*
X0266249Y0264921D02*
X0350550Y0264921D01*
X0350550Y0265919D02*
X0265251Y0265919D01*
X0264252Y0266918D02*
X0350550Y0266918D01*
X0350550Y0267916D02*
X0263254Y0267916D01*
X0262255Y0268915D02*
X0350550Y0268915D01*
X0350550Y0269913D02*
X0261257Y0269913D01*
X0260258Y0270912D02*
X0350550Y0270912D01*
X0350550Y0271910D02*
X0259260Y0271910D01*
X0258261Y0272909D02*
X0350550Y0272909D01*
X0350550Y0273907D02*
X0257262Y0273907D01*
X0251598Y0268915D02*
X0227250Y0268915D01*
X0227250Y0269913D02*
X0250600Y0269913D01*
X0249601Y0270912D02*
X0222550Y0270912D01*
X0222550Y0271910D02*
X0221550Y0271910D01*
X0221550Y0272909D02*
X0222550Y0272909D01*
X0222550Y0273907D02*
X0221550Y0273907D01*
X0221550Y0274906D02*
X0222550Y0274906D01*
X0222550Y0275904D02*
X0221550Y0275904D01*
X0217145Y0275904D02*
X0214502Y0275904D01*
X0214241Y0276903D02*
X0243610Y0276903D01*
X0242612Y0277901D02*
X0214804Y0277901D01*
X0214935Y0278900D02*
X0241613Y0278900D01*
X0240615Y0279898D02*
X0214714Y0279898D01*
X0214024Y0280897D02*
X0239616Y0280897D01*
X0238618Y0281895D02*
X0212199Y0281895D01*
X0211200Y0282894D02*
X0237619Y0282894D01*
X0237550Y0283892D02*
X0210202Y0283892D01*
X0209203Y0284891D02*
X0237550Y0284891D01*
X0237550Y0285889D02*
X0208281Y0285889D01*
X0207921Y0286888D02*
X0226600Y0286888D01*
X0225601Y0287886D02*
X0207035Y0287886D01*
X0203758Y0287886D02*
X0132298Y0287886D01*
X0132472Y0288885D02*
X0172876Y0288885D01*
X0165068Y0285889D02*
X0131532Y0285889D01*
X0131727Y0286888D02*
X0202871Y0286888D01*
X0201628Y0296873D02*
X0197315Y0296873D01*
X0198484Y0297872D02*
X0200616Y0297872D01*
X0199924Y0298870D02*
X0199152Y0298870D01*
X0195050Y0301866D02*
X0194050Y0301866D01*
X0194050Y0302864D02*
X0195050Y0302864D01*
X0195050Y0303863D02*
X0194050Y0303863D01*
X0194050Y0304861D02*
X0195050Y0304861D01*
X0195050Y0305860D02*
X0194050Y0305860D01*
X0197038Y0305860D02*
X0201991Y0305860D01*
X0200766Y0304861D02*
X0198334Y0304861D01*
X0199076Y0303863D02*
X0199987Y0303863D01*
X0199573Y0302864D02*
X0199507Y0302864D01*
X0207109Y0305860D02*
X0211991Y0305860D01*
X0210766Y0304861D02*
X0208334Y0304861D01*
X0209113Y0303863D02*
X0209987Y0303863D01*
X0209573Y0302864D02*
X0209527Y0302864D01*
X0209175Y0298870D02*
X0209924Y0298870D01*
X0210616Y0297872D02*
X0208484Y0297872D01*
X0207471Y0296873D02*
X0211628Y0296873D01*
X0232073Y0295875D02*
X0237027Y0295875D01*
X0235781Y0294876D02*
X0233319Y0294876D01*
X0234107Y0293877D02*
X0234993Y0293877D01*
X0234579Y0292879D02*
X0234521Y0292879D01*
X0234182Y0288885D02*
X0234918Y0288885D01*
X0235601Y0287886D02*
X0233499Y0287886D01*
X0232500Y0286888D02*
X0236600Y0286888D01*
X0244521Y0292879D02*
X0244579Y0292879D01*
X0244993Y0293877D02*
X0244107Y0293877D01*
X0243319Y0294876D02*
X0245781Y0294876D01*
X0247027Y0295875D02*
X0242073Y0295875D01*
X0252073Y0295875D02*
X0257091Y0295875D01*
X0255781Y0294876D02*
X0253319Y0294876D01*
X0254107Y0293877D02*
X0255032Y0293877D01*
X0254598Y0292879D02*
X0254521Y0292879D01*
X0259050Y0292879D02*
X0260050Y0292879D01*
X0260050Y0293877D02*
X0259050Y0293877D01*
X0259050Y0294876D02*
X0260050Y0294876D01*
X0260050Y0295875D02*
X0259050Y0295875D01*
X0262009Y0295875D02*
X0267027Y0295875D01*
X0265781Y0294876D02*
X0263319Y0294876D01*
X0264068Y0293877D02*
X0264993Y0293877D01*
X0264579Y0292879D02*
X0264502Y0292879D01*
X0260050Y0291880D02*
X0259050Y0291880D01*
X0259050Y0289883D02*
X0260050Y0289883D01*
X0260050Y0288885D02*
X0259050Y0288885D01*
X0259050Y0287886D02*
X0260050Y0287886D01*
X0260050Y0286888D02*
X0259050Y0286888D01*
X0256764Y0286888D02*
X0252500Y0286888D01*
X0253499Y0287886D02*
X0255601Y0287886D01*
X0254940Y0288885D02*
X0254182Y0288885D01*
X0262336Y0286888D02*
X0266600Y0286888D01*
X0265601Y0287886D02*
X0263499Y0287886D01*
X0264160Y0288885D02*
X0264918Y0288885D01*
X0272500Y0286888D02*
X0276600Y0286888D01*
X0275601Y0287886D02*
X0273499Y0287886D01*
X0274182Y0288885D02*
X0274918Y0288885D01*
X0274579Y0292879D02*
X0274521Y0292879D01*
X0274107Y0293877D02*
X0274993Y0293877D01*
X0275781Y0294876D02*
X0273319Y0294876D01*
X0272073Y0295875D02*
X0277027Y0295875D01*
X0282073Y0295875D02*
X0287091Y0295875D01*
X0285781Y0294876D02*
X0283319Y0294876D01*
X0284107Y0293877D02*
X0285032Y0293877D01*
X0284598Y0292879D02*
X0284521Y0292879D01*
X0289050Y0292879D02*
X0290050Y0292879D01*
X0290050Y0293877D02*
X0289050Y0293877D01*
X0289050Y0294876D02*
X0290050Y0294876D01*
X0290050Y0295875D02*
X0289050Y0295875D01*
X0292009Y0295875D02*
X0297027Y0295875D01*
X0295781Y0294876D02*
X0293319Y0294876D01*
X0294068Y0293877D02*
X0294993Y0293877D01*
X0294579Y0292879D02*
X0294502Y0292879D01*
X0290050Y0291880D02*
X0289050Y0291880D01*
X0289050Y0289883D02*
X0290050Y0289883D01*
X0290050Y0288885D02*
X0289050Y0288885D01*
X0289050Y0287886D02*
X0290050Y0287886D01*
X0290050Y0286888D02*
X0289050Y0286888D01*
X0286764Y0286888D02*
X0282500Y0286888D01*
X0283499Y0287886D02*
X0285601Y0287886D01*
X0284940Y0288885D02*
X0284182Y0288885D01*
X0292336Y0286888D02*
X0296600Y0286888D01*
X0295601Y0287886D02*
X0293499Y0287886D01*
X0294160Y0288885D02*
X0294918Y0288885D01*
X0302500Y0286888D02*
X0306600Y0286888D01*
X0305601Y0287886D02*
X0303499Y0287886D01*
X0304182Y0288885D02*
X0304918Y0288885D01*
X0304579Y0292879D02*
X0304521Y0292879D01*
X0304107Y0293877D02*
X0304993Y0293877D01*
X0305781Y0294876D02*
X0303319Y0294876D01*
X0302073Y0295875D02*
X0307027Y0295875D01*
X0312073Y0295875D02*
X0317027Y0295875D01*
X0315781Y0294876D02*
X0313319Y0294876D01*
X0314107Y0293877D02*
X0314993Y0293877D01*
X0314579Y0292879D02*
X0314521Y0292879D01*
X0314182Y0288885D02*
X0314918Y0288885D01*
X0315601Y0287886D02*
X0313499Y0287886D01*
X0312500Y0286888D02*
X0316600Y0286888D01*
X0253595Y0266918D02*
X0227093Y0266918D01*
X0227250Y0267916D02*
X0252597Y0267916D01*
X0248603Y0271910D02*
X0227250Y0271910D01*
X0227250Y0272909D02*
X0247604Y0272909D01*
X0246606Y0273907D02*
X0227250Y0273907D01*
X0227250Y0274906D02*
X0245607Y0274906D01*
X0244609Y0275904D02*
X0226955Y0275904D01*
X0222550Y0269913D02*
X0221550Y0269913D01*
X0221550Y0268915D02*
X0222550Y0268915D01*
X0222550Y0267916D02*
X0221550Y0267916D01*
X0221550Y0266918D02*
X0222550Y0266918D01*
X0217007Y0266918D02*
X0215030Y0266918D01*
X0216029Y0267916D02*
X0216850Y0267916D01*
X0216850Y0268915D02*
X0216694Y0268915D01*
X0216595Y0273907D02*
X0216850Y0273907D01*
X0216850Y0274906D02*
X0215789Y0274906D01*
X0209598Y0275904D02*
X0204502Y0275904D01*
X0205789Y0274906D02*
X0208311Y0274906D01*
X0207505Y0273907D02*
X0206595Y0273907D01*
X0207008Y0272909D02*
X0207092Y0272909D01*
X0207406Y0268915D02*
X0206694Y0268915D01*
X0206029Y0267916D02*
X0208071Y0267916D01*
X0209070Y0266918D02*
X0205030Y0266918D01*
X0199070Y0266918D02*
X0195030Y0266918D01*
X0196029Y0267916D02*
X0198071Y0267916D01*
X0197406Y0268915D02*
X0196694Y0268915D01*
X0197008Y0272909D02*
X0197092Y0272909D01*
X0197505Y0273907D02*
X0196595Y0273907D01*
X0195789Y0274906D02*
X0198311Y0274906D01*
X0199598Y0275904D02*
X0194502Y0275904D01*
X0189598Y0275904D02*
X0181955Y0275904D01*
X0182250Y0274906D02*
X0188311Y0274906D01*
X0187505Y0273907D02*
X0182250Y0273907D01*
X0182250Y0272909D02*
X0187092Y0272909D01*
X0186850Y0271910D02*
X0182250Y0271910D01*
X0182250Y0269913D02*
X0186992Y0269913D01*
X0186850Y0270912D02*
X0177550Y0270912D01*
X0177550Y0271910D02*
X0176550Y0271910D01*
X0176550Y0272909D02*
X0177550Y0272909D01*
X0177550Y0273907D02*
X0176550Y0273907D01*
X0176550Y0274906D02*
X0177550Y0274906D01*
X0177550Y0275904D02*
X0176550Y0275904D01*
X0172145Y0275904D02*
X0169502Y0275904D01*
X0170789Y0274906D02*
X0171850Y0274906D01*
X0171850Y0273907D02*
X0171595Y0273907D01*
X0171694Y0268915D02*
X0171850Y0268915D01*
X0171850Y0267916D02*
X0171029Y0267916D01*
X0172007Y0266918D02*
X0170030Y0266918D01*
X0164070Y0266918D02*
X0160030Y0266918D01*
X0161029Y0267916D02*
X0163071Y0267916D01*
X0162406Y0268915D02*
X0161694Y0268915D01*
X0162008Y0272909D02*
X0162092Y0272909D01*
X0162505Y0273907D02*
X0161595Y0273907D01*
X0160789Y0274906D02*
X0163311Y0274906D01*
X0164598Y0275904D02*
X0159502Y0275904D01*
X0154598Y0275904D02*
X0149502Y0275904D01*
X0150789Y0274906D02*
X0153311Y0274906D01*
X0152505Y0273907D02*
X0151595Y0273907D01*
X0152008Y0272909D02*
X0152092Y0272909D01*
X0152406Y0268915D02*
X0151694Y0268915D01*
X0151029Y0267916D02*
X0153071Y0267916D01*
X0154070Y0266918D02*
X0150030Y0266918D01*
X0161474Y0246947D02*
X0187314Y0246947D01*
X0187550Y0245949D02*
X0162193Y0245949D01*
X0162435Y0244950D02*
X0187550Y0244950D01*
X0187550Y0243952D02*
X0162325Y0243952D01*
X0161792Y0242953D02*
X0187550Y0242953D01*
X0187550Y0241955D02*
X0161550Y0241955D01*
X0161550Y0240956D02*
X0187550Y0240956D01*
X0187550Y0239958D02*
X0161550Y0239958D01*
X0161550Y0238959D02*
X0168438Y0238959D01*
X0170662Y0238959D02*
X0178438Y0238959D01*
X0180662Y0238959D02*
X0187550Y0238959D01*
X0186366Y0237961D02*
X0182734Y0237961D01*
X0183733Y0236962D02*
X0185367Y0236962D01*
X0184821Y0235964D02*
X0184279Y0235964D01*
X0184424Y0231970D02*
X0184676Y0231970D01*
X0185090Y0230971D02*
X0184010Y0230971D01*
X0183085Y0229973D02*
X0186015Y0229973D01*
X0187550Y0228974D02*
X0181509Y0228974D01*
X0177591Y0228974D02*
X0171550Y0228974D01*
X0171550Y0227976D02*
X0187550Y0227976D01*
X0187550Y0226977D02*
X0171550Y0226977D01*
X0171550Y0225979D02*
X0187550Y0225979D01*
X0187550Y0224980D02*
X0171550Y0224980D01*
X0171550Y0223982D02*
X0187550Y0223982D01*
X0187550Y0222983D02*
X0171550Y0222983D01*
X0171550Y0221985D02*
X0187550Y0221985D01*
X0187550Y0220986D02*
X0171550Y0220986D01*
X0171550Y0219988D02*
X0187550Y0219988D01*
X0187550Y0218989D02*
X0171550Y0218989D01*
X0171931Y0217991D02*
X0186924Y0217991D01*
X0186665Y0216992D02*
X0172382Y0216992D01*
X0172435Y0215994D02*
X0186758Y0215994D01*
X0187266Y0214995D02*
X0172136Y0214995D01*
X0171335Y0213997D02*
X0188758Y0213997D01*
X0191550Y0218989D02*
X0197550Y0218989D01*
X0197550Y0219988D02*
X0191550Y0219988D01*
X0191550Y0220986D02*
X0197550Y0220986D01*
X0197550Y0221985D02*
X0191550Y0221985D01*
X0191550Y0222983D02*
X0197550Y0222983D01*
X0197550Y0223982D02*
X0191550Y0223982D01*
X0191550Y0224980D02*
X0197550Y0224980D01*
X0197550Y0225979D02*
X0191550Y0225979D01*
X0191550Y0226977D02*
X0197550Y0226977D01*
X0197550Y0227976D02*
X0191550Y0227976D01*
X0191550Y0228974D02*
X0197550Y0228974D01*
X0196015Y0229973D02*
X0193085Y0229973D01*
X0194010Y0230971D02*
X0195090Y0230971D01*
X0194676Y0231970D02*
X0194424Y0231970D01*
X0194279Y0235964D02*
X0194821Y0235964D01*
X0195367Y0236962D02*
X0193733Y0236962D01*
X0192734Y0237961D02*
X0196366Y0237961D01*
X0199550Y0233791D02*
X0199550Y0216791D01*
X0176015Y0229973D02*
X0173085Y0229973D01*
X0174010Y0230971D02*
X0175090Y0230971D01*
X0174676Y0231970D02*
X0174424Y0231970D01*
X0174279Y0235964D02*
X0174821Y0235964D01*
X0175367Y0236962D02*
X0173733Y0236962D01*
X0172734Y0237961D02*
X0176366Y0237961D01*
X0169550Y0233791D02*
X0169550Y0216291D01*
X0166015Y0229973D02*
X0163085Y0229973D01*
X0164010Y0230971D02*
X0165090Y0230971D01*
X0164676Y0231970D02*
X0164424Y0231970D01*
X0164279Y0235964D02*
X0164821Y0235964D01*
X0165367Y0236962D02*
X0163733Y0236962D01*
X0162734Y0237961D02*
X0166366Y0237961D01*
X0159550Y0233791D02*
X0159550Y0244791D01*
X0176550Y0266918D02*
X0177550Y0266918D01*
X0177550Y0267916D02*
X0176550Y0267916D01*
X0176550Y0268915D02*
X0177550Y0268915D01*
X0177550Y0269913D02*
X0176550Y0269913D01*
X0182250Y0268915D02*
X0187406Y0268915D01*
X0188071Y0267916D02*
X0182250Y0267916D01*
X0182093Y0266918D02*
X0189070Y0266918D01*
X0138131Y0172059D02*
X0003550Y0172059D01*
X0003550Y0171061D02*
X0136935Y0171061D01*
X0136514Y0170062D02*
X0003550Y0170062D01*
X0003550Y0169064D02*
X0126742Y0169064D01*
X0126916Y0169237D02*
X0126104Y0168426D01*
X0125665Y0167365D01*
X0125665Y0166217D01*
X0126104Y0165157D01*
X0126550Y0164711D01*
X0126550Y0143371D01*
X0126104Y0142926D01*
X0125665Y0141865D01*
X0125665Y0140717D01*
X0126104Y0139657D01*
X0126916Y0138846D01*
X0127976Y0138406D01*
X0129124Y0138406D01*
X0130184Y0138846D01*
X0130996Y0139657D01*
X0131435Y0140717D01*
X0131435Y0141865D01*
X0130996Y0142926D01*
X0130550Y0143371D01*
X0130550Y0164711D01*
X0130996Y0165157D01*
X0131435Y0166217D01*
X0131435Y0167365D01*
X0130996Y0168426D01*
X0130184Y0169237D01*
X0129124Y0169676D01*
X0127976Y0169676D01*
X0126916Y0169237D01*
X0125955Y0168065D02*
X0003550Y0168065D01*
X0003550Y0167067D02*
X0125665Y0167067D01*
X0125727Y0166068D02*
X0003550Y0166068D01*
X0003550Y0165070D02*
X0126192Y0165070D01*
X0126550Y0164071D02*
X0003550Y0164071D01*
X0003550Y0163073D02*
X0126550Y0163073D01*
X0126550Y0162074D02*
X0003550Y0162074D01*
X0003550Y0161075D02*
X0126550Y0161075D01*
X0126550Y0160077D02*
X0003550Y0160077D01*
X0003550Y0159078D02*
X0126550Y0159078D01*
X0126550Y0158080D02*
X0090918Y0158080D01*
X0091306Y0157919D02*
X0090167Y0158391D01*
X0088933Y0158391D01*
X0087794Y0157919D01*
X0086922Y0157047D01*
X0086450Y0155908D01*
X0086450Y0140675D01*
X0086922Y0139535D01*
X0087794Y0138663D01*
X0088933Y0138191D01*
X0090167Y0138191D01*
X0091306Y0138663D01*
X0092178Y0139535D01*
X0092650Y0140675D01*
X0092650Y0155908D01*
X0092178Y0157047D01*
X0091306Y0157919D01*
X0092144Y0157081D02*
X0126550Y0157081D01*
X0126550Y0156083D02*
X0121338Y0156083D01*
X0121184Y0156237D02*
X0120124Y0156676D01*
X0118976Y0156676D01*
X0117916Y0156237D01*
X0117104Y0155426D01*
X0116665Y0154365D01*
X0116665Y0153217D01*
X0117104Y0152157D01*
X0117550Y0151711D01*
X0117550Y0143371D01*
X0117104Y0142926D01*
X0116665Y0141865D01*
X0116665Y0140717D01*
X0117104Y0139657D01*
X0117916Y0138846D01*
X0118976Y0138406D01*
X0120124Y0138406D01*
X0121184Y0138846D01*
X0121996Y0139657D01*
X0122435Y0140717D01*
X0122435Y0141865D01*
X0121996Y0142926D01*
X0121550Y0143371D01*
X0121550Y0151711D01*
X0121996Y0152157D01*
X0122435Y0153217D01*
X0122435Y0154365D01*
X0121996Y0155426D01*
X0121184Y0156237D01*
X0122137Y0155084D02*
X0126550Y0155084D01*
X0126550Y0154086D02*
X0122435Y0154086D01*
X0122381Y0153087D02*
X0126550Y0153087D01*
X0126550Y0152089D02*
X0121928Y0152089D01*
X0121550Y0151090D02*
X0126550Y0151090D01*
X0126550Y0150092D02*
X0121550Y0150092D01*
X0121550Y0149093D02*
X0126550Y0149093D01*
X0126550Y0148095D02*
X0121550Y0148095D01*
X0121550Y0147096D02*
X0126550Y0147096D01*
X0126550Y0146098D02*
X0121550Y0146098D01*
X0121550Y0145099D02*
X0126550Y0145099D01*
X0126550Y0144101D02*
X0121550Y0144101D01*
X0121819Y0143102D02*
X0126281Y0143102D01*
X0125764Y0142104D02*
X0122336Y0142104D01*
X0122435Y0141105D02*
X0125665Y0141105D01*
X0125918Y0140107D02*
X0122182Y0140107D01*
X0121447Y0139108D02*
X0126653Y0139108D01*
X0128550Y0141291D02*
X0128550Y0166791D01*
X0131145Y0168065D02*
X0136450Y0168065D01*
X0136450Y0167067D02*
X0131435Y0167067D01*
X0131373Y0166068D02*
X0136450Y0166068D01*
X0136450Y0165070D02*
X0130908Y0165070D01*
X0130550Y0164071D02*
X0136450Y0164071D01*
X0136450Y0163073D02*
X0130550Y0163073D01*
X0130550Y0162074D02*
X0136450Y0162074D01*
X0136450Y0161075D02*
X0130550Y0161075D01*
X0130550Y0160077D02*
X0136450Y0160077D01*
X0136450Y0159078D02*
X0130550Y0159078D01*
X0130550Y0158080D02*
X0136450Y0158080D01*
X0136450Y0157081D02*
X0130550Y0157081D01*
X0130550Y0156083D02*
X0136450Y0156083D01*
X0136450Y0155084D02*
X0130550Y0155084D01*
X0130550Y0154086D02*
X0136450Y0154086D01*
X0136450Y0153087D02*
X0130550Y0153087D01*
X0130550Y0152089D02*
X0136450Y0152089D01*
X0136450Y0151090D02*
X0130550Y0151090D01*
X0130550Y0150092D02*
X0136450Y0150092D01*
X0136450Y0149093D02*
X0130550Y0149093D01*
X0130550Y0148095D02*
X0136450Y0148095D01*
X0136450Y0147096D02*
X0130550Y0147096D01*
X0130550Y0146098D02*
X0136450Y0146098D01*
X0136450Y0145099D02*
X0130550Y0145099D01*
X0130550Y0144101D02*
X0136450Y0144101D01*
X0136450Y0143102D02*
X0130819Y0143102D01*
X0131336Y0142104D02*
X0136450Y0142104D01*
X0136450Y0141105D02*
X0131435Y0141105D01*
X0131182Y0140107D02*
X0136685Y0140107D01*
X0137349Y0139108D02*
X0130447Y0139108D01*
X0119550Y0141291D02*
X0119550Y0153791D01*
X0116963Y0155084D02*
X0092650Y0155084D01*
X0092650Y0154086D02*
X0116665Y0154086D01*
X0116719Y0153087D02*
X0092650Y0153087D01*
X0092650Y0152089D02*
X0117172Y0152089D01*
X0117550Y0151090D02*
X0092650Y0151090D01*
X0092650Y0150092D02*
X0117550Y0150092D01*
X0117550Y0149093D02*
X0092650Y0149093D01*
X0092650Y0148095D02*
X0117550Y0148095D01*
X0117550Y0147096D02*
X0092650Y0147096D01*
X0092650Y0146098D02*
X0117550Y0146098D01*
X0117550Y0145099D02*
X0092650Y0145099D01*
X0092650Y0144101D02*
X0117550Y0144101D01*
X0117281Y0143102D02*
X0092650Y0143102D01*
X0092650Y0142104D02*
X0116764Y0142104D01*
X0116665Y0141105D02*
X0092650Y0141105D01*
X0092415Y0140107D02*
X0116918Y0140107D01*
X0117653Y0139108D02*
X0091751Y0139108D01*
X0087349Y0139108D02*
X0003550Y0139108D01*
X0003550Y0140107D02*
X0086685Y0140107D01*
X0086450Y0141105D02*
X0003550Y0141105D01*
X0003550Y0142104D02*
X0065855Y0142104D01*
X0066609Y0141791D02*
X0069991Y0141791D01*
X0073115Y0143085D01*
X0075506Y0145476D01*
X0076800Y0148601D01*
X0076800Y0151982D01*
X0075506Y0155106D01*
X0073115Y0157497D01*
X0069991Y0158791D01*
X0066609Y0158791D01*
X0063485Y0157497D01*
X0061094Y0155106D01*
X0059800Y0151982D01*
X0059800Y0148601D01*
X0061094Y0145476D01*
X0063485Y0143085D01*
X0066609Y0141791D01*
X0063468Y0143102D02*
X0003550Y0143102D01*
X0003550Y0144101D02*
X0062470Y0144101D01*
X0061471Y0145099D02*
X0003550Y0145099D01*
X0003550Y0146098D02*
X0060837Y0146098D01*
X0060423Y0147096D02*
X0003550Y0147096D01*
X0003550Y0148095D02*
X0060009Y0148095D01*
X0059800Y0149093D02*
X0003550Y0149093D01*
X0003550Y0150092D02*
X0059800Y0150092D01*
X0059800Y0151090D02*
X0003550Y0151090D01*
X0003550Y0152089D02*
X0059844Y0152089D01*
X0060258Y0153087D02*
X0003550Y0153087D01*
X0003550Y0154086D02*
X0060671Y0154086D01*
X0061085Y0155084D02*
X0003550Y0155084D01*
X0003550Y0156083D02*
X0062071Y0156083D01*
X0063069Y0157081D02*
X0003550Y0157081D01*
X0003550Y0158080D02*
X0064892Y0158080D01*
X0071708Y0158080D02*
X0088182Y0158080D01*
X0086956Y0157081D02*
X0073531Y0157081D01*
X0074529Y0156083D02*
X0086522Y0156083D01*
X0086450Y0155084D02*
X0075515Y0155084D01*
X0075929Y0154086D02*
X0086450Y0154086D01*
X0086450Y0153087D02*
X0076342Y0153087D01*
X0076756Y0152089D02*
X0086450Y0152089D01*
X0086450Y0151090D02*
X0076800Y0151090D01*
X0076800Y0150092D02*
X0086450Y0150092D01*
X0086450Y0149093D02*
X0076800Y0149093D01*
X0076590Y0148095D02*
X0086450Y0148095D01*
X0086450Y0147096D02*
X0076177Y0147096D01*
X0075763Y0146098D02*
X0086450Y0146098D01*
X0086450Y0145099D02*
X0075129Y0145099D01*
X0074130Y0144101D02*
X0086450Y0144101D01*
X0086450Y0143102D02*
X0073132Y0143102D01*
X0070745Y0142104D02*
X0086450Y0142104D01*
X0092578Y0156083D02*
X0117762Y0156083D01*
X0130358Y0169064D02*
X0136450Y0169064D01*
X0142650Y0160077D02*
X0155256Y0160077D01*
X0155416Y0160237D02*
X0154604Y0159426D01*
X0154165Y0158365D01*
X0154165Y0157217D01*
X0154604Y0156157D01*
X0155050Y0155711D01*
X0155050Y0143371D01*
X0154604Y0142926D01*
X0154165Y0141865D01*
X0154165Y0140717D01*
X0154604Y0139657D01*
X0155416Y0138846D01*
X0156476Y0138406D01*
X0157624Y0138406D01*
X0158684Y0138846D01*
X0159496Y0139657D01*
X0159935Y0140717D01*
X0159935Y0141865D01*
X0159496Y0142926D01*
X0159050Y0143371D01*
X0159050Y0155711D01*
X0159496Y0156157D01*
X0159935Y0157217D01*
X0159935Y0158365D01*
X0159496Y0159426D01*
X0158684Y0160237D01*
X0157624Y0160676D01*
X0156476Y0160676D01*
X0155416Y0160237D01*
X0154460Y0159078D02*
X0142650Y0159078D01*
X0142650Y0158080D02*
X0154165Y0158080D01*
X0154221Y0157081D02*
X0142650Y0157081D01*
X0142650Y0156083D02*
X0154678Y0156083D01*
X0155050Y0155084D02*
X0142650Y0155084D01*
X0142650Y0154086D02*
X0155050Y0154086D01*
X0155050Y0153087D02*
X0142650Y0153087D01*
X0142650Y0152089D02*
X0155050Y0152089D01*
X0155050Y0151090D02*
X0142650Y0151090D01*
X0142650Y0150092D02*
X0155050Y0150092D01*
X0155050Y0149093D02*
X0142650Y0149093D01*
X0142650Y0148095D02*
X0155050Y0148095D01*
X0155050Y0147096D02*
X0142650Y0147096D01*
X0142650Y0146098D02*
X0155050Y0146098D01*
X0155050Y0145099D02*
X0142650Y0145099D01*
X0142650Y0144101D02*
X0155050Y0144101D01*
X0154781Y0143102D02*
X0142650Y0143102D01*
X0142650Y0142104D02*
X0154264Y0142104D01*
X0154165Y0141105D02*
X0142650Y0141105D01*
X0142415Y0140107D02*
X0154418Y0140107D01*
X0155153Y0139108D02*
X0141751Y0139108D01*
X0157050Y0141291D02*
X0157050Y0157791D01*
X0159640Y0159078D02*
X0161960Y0159078D01*
X0161665Y0158080D02*
X0159935Y0158080D01*
X0159879Y0157081D02*
X0161721Y0157081D01*
X0162178Y0156083D02*
X0159422Y0156083D01*
X0159050Y0155084D02*
X0162550Y0155084D01*
X0162550Y0154086D02*
X0159050Y0154086D01*
X0159050Y0153087D02*
X0162550Y0153087D01*
X0162550Y0152089D02*
X0159050Y0152089D01*
X0159050Y0151090D02*
X0162550Y0151090D01*
X0162550Y0150092D02*
X0159050Y0150092D01*
X0159050Y0149093D02*
X0162550Y0149093D01*
X0162550Y0148095D02*
X0159050Y0148095D01*
X0159050Y0147096D02*
X0162550Y0147096D01*
X0162550Y0146098D02*
X0159050Y0146098D01*
X0159050Y0145099D02*
X0162550Y0145099D01*
X0162550Y0144101D02*
X0159050Y0144101D01*
X0159319Y0143102D02*
X0162281Y0143102D01*
X0161764Y0142104D02*
X0159836Y0142104D01*
X0159935Y0141105D02*
X0161665Y0141105D01*
X0161918Y0140107D02*
X0159682Y0140107D01*
X0158947Y0139108D02*
X0162653Y0139108D01*
X0164550Y0141291D02*
X0164550Y0157791D01*
X0162756Y0160077D02*
X0158844Y0160077D01*
X0141020Y0114145D02*
X0003550Y0114145D01*
X0003550Y0113147D02*
X0140256Y0113147D01*
X0139950Y0112148D02*
X0003550Y0112148D01*
X0003550Y0111150D02*
X0139950Y0111150D01*
X0139950Y0110151D02*
X0003550Y0110151D01*
X0003550Y0109153D02*
X0115920Y0109153D01*
X0115976Y0109176D02*
X0114916Y0108737D01*
X0114104Y0107926D01*
X0113665Y0106865D01*
X0113665Y0105717D01*
X0114104Y0104657D01*
X0114550Y0104211D01*
X0114550Y0094871D01*
X0114104Y0094426D01*
X0113665Y0093365D01*
X0113665Y0092217D01*
X0114104Y0091157D01*
X0114916Y0090346D01*
X0115976Y0089906D01*
X0117124Y0089906D01*
X0118184Y0090346D01*
X0118996Y0091157D01*
X0119435Y0092217D01*
X0119435Y0093365D01*
X0118996Y0094426D01*
X0118550Y0094871D01*
X0118550Y0104211D01*
X0118996Y0104657D01*
X0119435Y0105717D01*
X0119435Y0106865D01*
X0118996Y0107926D01*
X0118184Y0108737D01*
X0117124Y0109176D01*
X0115976Y0109176D01*
X0117180Y0109153D02*
X0139950Y0109153D01*
X0139950Y0108154D02*
X0118767Y0108154D01*
X0119315Y0107156D02*
X0139950Y0107156D01*
X0139950Y0106157D02*
X0119435Y0106157D01*
X0119204Y0105159D02*
X0139950Y0105159D01*
X0139950Y0104160D02*
X0118550Y0104160D01*
X0118550Y0103162D02*
X0139950Y0103162D01*
X0139950Y0102163D02*
X0118550Y0102163D01*
X0118550Y0101165D02*
X0139950Y0101165D01*
X0139950Y0100166D02*
X0118550Y0100166D01*
X0118550Y0099168D02*
X0139950Y0099168D01*
X0139950Y0098169D02*
X0118550Y0098169D01*
X0118550Y0097171D02*
X0139950Y0097171D01*
X0139950Y0096172D02*
X0118550Y0096172D01*
X0118550Y0095174D02*
X0139950Y0095174D01*
X0139950Y0094175D02*
X0119099Y0094175D01*
X0119435Y0093177D02*
X0139950Y0093177D01*
X0139950Y0092178D02*
X0119419Y0092178D01*
X0119005Y0091180D02*
X0139950Y0091180D01*
X0139950Y0090181D02*
X0117787Y0090181D01*
X0115313Y0090181D02*
X0053304Y0090181D01*
X0053435Y0089865D02*
X0052996Y0090926D01*
X0052184Y0091737D01*
X0051450Y0092041D01*
X0052184Y0092346D01*
X0052996Y0093157D01*
X0053435Y0094217D01*
X0053435Y0095365D01*
X0052996Y0096426D01*
X0052184Y0097237D01*
X0051124Y0097676D01*
X0049976Y0097676D01*
X0048916Y0097237D01*
X0048470Y0096791D01*
X0043130Y0096791D01*
X0042684Y0097237D01*
X0041624Y0097676D01*
X0040476Y0097676D01*
X0039416Y0097237D01*
X0038604Y0096426D01*
X0038165Y0095365D01*
X0038165Y0094217D01*
X0038604Y0093157D01*
X0039416Y0092346D01*
X0040150Y0092041D01*
X0039416Y0091737D01*
X0038604Y0090926D01*
X0038165Y0089865D01*
X0038165Y0088717D01*
X0038604Y0087657D01*
X0039416Y0086846D01*
X0040476Y0086406D01*
X0041624Y0086406D01*
X0042684Y0086846D01*
X0043130Y0087291D01*
X0048470Y0087291D01*
X0048916Y0086846D01*
X0049976Y0086406D01*
X0051124Y0086406D01*
X0052184Y0086846D01*
X0052996Y0087657D01*
X0053435Y0088717D01*
X0053435Y0089865D01*
X0053435Y0089183D02*
X0139950Y0089183D01*
X0139950Y0088184D02*
X0053214Y0088184D01*
X0052524Y0087186D02*
X0139950Y0087186D01*
X0140152Y0086187D02*
X0003550Y0086187D01*
X0003550Y0085189D02*
X0140769Y0085189D01*
X0141450Y0084190D02*
X0003550Y0084190D01*
X0003550Y0083192D02*
X0141450Y0083192D01*
X0141450Y0082193D02*
X0003550Y0082193D01*
X0003550Y0081195D02*
X0141450Y0081195D01*
X0141450Y0080196D02*
X0003550Y0080196D01*
X0003550Y0079198D02*
X0141450Y0079198D01*
X0141450Y0078199D02*
X0003550Y0078199D01*
X0003550Y0077201D02*
X0141450Y0077201D01*
X0141450Y0076202D02*
X0136219Y0076202D01*
X0136184Y0076237D02*
X0135124Y0076676D01*
X0133976Y0076676D01*
X0132916Y0076237D01*
X0132470Y0075791D01*
X0123130Y0075791D01*
X0122684Y0076237D01*
X0121624Y0076676D01*
X0120476Y0076676D01*
X0119416Y0076237D01*
X0118604Y0075426D01*
X0118165Y0074365D01*
X0118165Y0073217D01*
X0118604Y0072157D01*
X0119416Y0071346D01*
X0120476Y0070906D01*
X0121624Y0070906D01*
X0122684Y0071346D01*
X0123130Y0071791D01*
X0132470Y0071791D01*
X0132916Y0071346D01*
X0133976Y0070906D01*
X0135124Y0070906D01*
X0136184Y0071346D01*
X0136996Y0072157D01*
X0137435Y0073217D01*
X0137435Y0074365D01*
X0136996Y0075426D01*
X0136184Y0076237D01*
X0137088Y0075204D02*
X0141645Y0075204D01*
X0142252Y0074205D02*
X0137435Y0074205D01*
X0137430Y0073206D02*
X0143897Y0073206D01*
X0145203Y0073206D02*
X0249670Y0073206D01*
X0249665Y0074205D02*
X0146848Y0074205D01*
X0147455Y0075204D02*
X0250012Y0075204D01*
X0250881Y0076202D02*
X0147650Y0076202D01*
X0147650Y0077201D02*
X0266312Y0077201D01*
X0265314Y0078199D02*
X0147650Y0078199D01*
X0147650Y0079198D02*
X0264315Y0079198D01*
X0263317Y0080196D02*
X0147650Y0080196D01*
X0147650Y0081195D02*
X0261280Y0081195D01*
X0260089Y0082193D02*
X0147650Y0082193D01*
X0147650Y0083192D02*
X0259676Y0083192D01*
X0259665Y0084190D02*
X0147650Y0084190D01*
X0147650Y0085189D02*
X0260006Y0085189D01*
X0260866Y0086187D02*
X0147650Y0086187D01*
X0137017Y0072208D02*
X0250083Y0072208D01*
X0251244Y0071209D02*
X0135856Y0071209D01*
X0133244Y0071209D02*
X0122356Y0071209D01*
X0119744Y0071209D02*
X0003550Y0071209D01*
X0003550Y0070211D02*
X0253302Y0070211D01*
X0254300Y0069212D02*
X0003550Y0069212D01*
X0003550Y0068214D02*
X0255299Y0068214D01*
X0256298Y0067215D02*
X0003550Y0067215D01*
X0003550Y0066217D02*
X0138896Y0066217D01*
X0138018Y0065218D02*
X0003550Y0065218D01*
X0003550Y0064220D02*
X0137665Y0064220D01*
X0140550Y0063791D02*
X0152050Y0063791D01*
X0153392Y0061224D02*
X0261208Y0061224D01*
X0260077Y0062223D02*
X0154523Y0062223D01*
X0154935Y0063221D02*
X0259665Y0063221D01*
X0259293Y0064220D02*
X0154935Y0064220D01*
X0154582Y0065218D02*
X0258295Y0065218D01*
X0257296Y0066217D02*
X0153704Y0066217D01*
X0150396Y0066217D02*
X0142204Y0066217D01*
X0141892Y0061224D02*
X0150708Y0061224D01*
X0134550Y0073791D02*
X0121050Y0073791D01*
X0118512Y0075204D02*
X0003550Y0075204D01*
X0003550Y0076202D02*
X0119381Y0076202D01*
X0118165Y0074205D02*
X0003550Y0074205D01*
X0003550Y0073206D02*
X0118170Y0073206D01*
X0118583Y0072208D02*
X0003550Y0072208D01*
X0003550Y0063221D02*
X0085400Y0063221D01*
X0084813Y0062223D02*
X0003550Y0062223D01*
X0003550Y0061224D02*
X0084665Y0061224D01*
X0084869Y0060226D02*
X0003550Y0060226D01*
X0003550Y0087186D02*
X0039076Y0087186D01*
X0038386Y0088184D02*
X0003550Y0088184D01*
X0003550Y0089183D02*
X0038165Y0089183D01*
X0038296Y0090181D02*
X0003550Y0090181D01*
X0003550Y0091180D02*
X0038858Y0091180D01*
X0039820Y0092178D02*
X0003550Y0092178D01*
X0003550Y0093177D02*
X0038596Y0093177D01*
X0038182Y0094175D02*
X0003550Y0094175D01*
X0003550Y0095174D02*
X0038165Y0095174D01*
X0038499Y0096172D02*
X0003550Y0096172D01*
X0003550Y0097171D02*
X0039349Y0097171D01*
X0041050Y0094791D02*
X0050550Y0094791D01*
X0051780Y0092178D02*
X0113681Y0092178D01*
X0113665Y0093177D02*
X0053004Y0093177D01*
X0053417Y0094175D02*
X0114001Y0094175D01*
X0114550Y0095174D02*
X0053435Y0095174D01*
X0053101Y0096172D02*
X0114550Y0096172D01*
X0114550Y0097171D02*
X0052251Y0097171D01*
X0048849Y0097171D02*
X0042751Y0097171D01*
X0052742Y0091180D02*
X0114095Y0091180D01*
X0116550Y0092791D02*
X0116550Y0106291D01*
X0113896Y0105159D02*
X0003550Y0105159D01*
X0003550Y0106157D02*
X0113665Y0106157D01*
X0113785Y0107156D02*
X0003550Y0107156D01*
X0003550Y0108154D02*
X0114333Y0108154D01*
X0114550Y0104160D02*
X0071261Y0104160D01*
X0071184Y0104237D02*
X0070124Y0104676D01*
X0068976Y0104676D01*
X0067916Y0104237D01*
X0067370Y0103691D01*
X0064230Y0103691D01*
X0063684Y0104237D01*
X0062624Y0104676D01*
X0061476Y0104676D01*
X0060416Y0104237D01*
X0059604Y0103426D01*
X0059165Y0102365D01*
X0059165Y0101217D01*
X0059604Y0100157D01*
X0060416Y0099346D01*
X0061476Y0098906D01*
X0062624Y0098906D01*
X0063684Y0099346D01*
X0064230Y0099891D01*
X0067370Y0099891D01*
X0067916Y0099346D01*
X0068976Y0098906D01*
X0070124Y0098906D01*
X0071184Y0099346D01*
X0071996Y0100157D01*
X0072435Y0101217D01*
X0072435Y0102365D01*
X0071996Y0103426D01*
X0071184Y0104237D01*
X0072105Y0103162D02*
X0114550Y0103162D01*
X0114550Y0102163D02*
X0072435Y0102163D01*
X0072413Y0101165D02*
X0114550Y0101165D01*
X0114550Y0100166D02*
X0072000Y0100166D01*
X0070755Y0099168D02*
X0114550Y0099168D01*
X0114550Y0098169D02*
X0003550Y0098169D01*
X0003550Y0099168D02*
X0060845Y0099168D01*
X0059600Y0100166D02*
X0003550Y0100166D01*
X0003550Y0101165D02*
X0059187Y0101165D01*
X0059165Y0102163D02*
X0003550Y0102163D01*
X0003550Y0103162D02*
X0059495Y0103162D01*
X0060339Y0104160D02*
X0003550Y0104160D01*
X0041050Y0089291D02*
X0050550Y0089291D01*
X0048576Y0087186D02*
X0043024Y0087186D01*
X0063255Y0099168D02*
X0068345Y0099168D01*
X0067839Y0104160D02*
X0063761Y0104160D01*
X0080550Y0117791D02*
X0072050Y0126291D01*
X0122719Y0076202D02*
X0132881Y0076202D01*
X0114150Y0047245D02*
X0049665Y0047245D01*
X0050570Y0046247D02*
X0114150Y0046247D01*
X0113531Y0045248D02*
X0050935Y0045248D01*
X0050935Y0044250D02*
X0113165Y0044250D01*
X0113165Y0043251D02*
X0050535Y0043251D01*
X0049460Y0042253D02*
X0113565Y0042253D01*
X0096034Y0059227D02*
X0089566Y0059227D01*
X0141269Y0043251D02*
X0162700Y0043251D01*
X0161702Y0042253D02*
X0142383Y0042253D01*
X0143585Y0038259D02*
X0160491Y0038259D01*
X0160702Y0037260D02*
X0143373Y0037260D01*
X0142953Y0036262D02*
X0161115Y0036262D01*
X0158288Y0032268D02*
X0145812Y0032268D01*
X0146811Y0031269D02*
X0157289Y0031269D01*
X0156855Y0030270D02*
X0147245Y0030270D01*
X0147503Y0029272D02*
X0156597Y0029272D01*
X0156597Y0028273D02*
X0147503Y0028273D01*
X0147230Y0027275D02*
X0156870Y0027275D01*
X0157326Y0026276D02*
X0146774Y0026276D01*
X0145775Y0025278D02*
X0158325Y0025278D01*
X0142343Y0035353D02*
X0141748Y0034759D01*
X0141068Y0034265D01*
X0224173Y0045248D02*
X0226320Y0045248D01*
X0229190Y0056232D02*
X0243910Y0056232D01*
X0252550Y0073791D02*
X0262550Y0063791D01*
X0257960Y0071209D02*
X0271244Y0071209D01*
X0270083Y0072208D02*
X0256962Y0072208D01*
X0255963Y0073206D02*
X0269670Y0073206D01*
X0269308Y0074205D02*
X0255435Y0074205D01*
X0255088Y0075204D02*
X0268309Y0075204D01*
X0267311Y0076202D02*
X0254219Y0076202D01*
X0262550Y0083791D02*
X0272550Y0073791D01*
X0256971Y0037260D02*
X0256450Y0037260D01*
X0258758Y0030270D02*
X0325230Y0030270D01*
X0325406Y0029272D02*
X0259756Y0029272D01*
X0262148Y0028273D02*
X0325582Y0028273D01*
X0325758Y0027275D02*
X0262765Y0027275D01*
X0262935Y0026276D02*
X0326299Y0026276D01*
X0325774Y0027187D02*
X0325774Y0027187D01*
X0326876Y0025278D02*
X0262753Y0025278D01*
X0262118Y0024279D02*
X0327452Y0024279D01*
X0350550Y0018288D02*
X0254127Y0018288D01*
X0249973Y0018288D02*
X0003550Y0018288D01*
X0003550Y0207007D02*
X0030668Y0207007D01*
X0029670Y0208006D02*
X0003550Y0208006D01*
X0003550Y0209004D02*
X0029072Y0209004D01*
X0028659Y0210003D02*
X0003550Y0210003D01*
X0003550Y0211001D02*
X0028288Y0211001D01*
X0028288Y0212000D02*
X0003550Y0212000D01*
X0003550Y0212998D02*
X0028288Y0212998D01*
X0028417Y0213997D02*
X0003550Y0213997D01*
X0003550Y0214995D02*
X0028830Y0214995D01*
X0029244Y0215994D02*
X0003550Y0215994D01*
X0003550Y0216992D02*
X0030085Y0216992D01*
X0031083Y0217991D02*
X0003550Y0217991D01*
X0003550Y0218989D02*
X0033147Y0218989D01*
D18*
X0040550Y0221791D03*
X0026550Y0227291D03*
X0026050Y0212291D03*
X0041050Y0202791D03*
X0060550Y0202791D03*
X0062050Y0208291D03*
X0068050Y0211791D03*
X0068050Y0221791D03*
X0055550Y0221791D03*
X0079050Y0200291D03*
X0090050Y0189791D03*
X0101050Y0178291D03*
X0112050Y0167291D03*
X0128550Y0166791D03*
X0139550Y0169291D03*
X0149550Y0166791D03*
X0157050Y0157791D03*
X0164550Y0157791D03*
X0169050Y0166791D03*
X0187550Y0166791D03*
X0199550Y0162291D03*
X0205550Y0166791D03*
X0220050Y0159791D03*
X0219550Y0150291D03*
X0229550Y0146791D03*
X0229550Y0133791D03*
X0219550Y0133791D03*
X0224550Y0123791D03*
X0209050Y0127291D03*
X0199550Y0141291D03*
X0184550Y0141791D03*
X0177050Y0136791D03*
X0164550Y0141291D03*
X0157050Y0141291D03*
X0151050Y0141291D03*
X0139550Y0141291D03*
X0133550Y0137291D03*
X0128550Y0141291D03*
X0119550Y0141291D03*
X0106050Y0141291D03*
X0119550Y0153791D03*
X0089550Y0155291D03*
X0082050Y0157791D03*
X0066050Y0175791D03*
X0062050Y0188291D03*
X0049550Y0175791D03*
X0021550Y0175791D03*
X0005050Y0171791D03*
X0016550Y0154791D03*
X0005050Y0147291D03*
X0020050Y0135291D03*
X0005050Y0119791D03*
X0017550Y0097291D03*
X0005050Y0094791D03*
X0005050Y0070791D03*
X0017050Y0055291D03*
X0013550Y0051791D03*
X0005050Y0045291D03*
X0028550Y0051291D03*
X0032050Y0062791D03*
X0047550Y0061291D03*
X0065050Y0072791D03*
X0068550Y0088791D03*
X0058550Y0088791D03*
X0050550Y0089291D03*
X0050550Y0094791D03*
X0041050Y0094791D03*
X0041050Y0089291D03*
X0062050Y0101791D03*
X0069550Y0101791D03*
X0083550Y0100291D03*
X0092050Y0107791D03*
X0102550Y0098291D03*
X0102550Y0094291D03*
X0106550Y0094291D03*
X0106550Y0098291D03*
X0116550Y0092791D03*
X0116550Y0106291D03*
X0116050Y0125291D03*
X0104550Y0125291D03*
X0097050Y0125291D03*
X0084550Y0122791D03*
X0080550Y0117791D03*
X0072050Y0126291D03*
X0073550Y0135791D03*
X0089550Y0141291D03*
X0053550Y0118791D03*
X0041050Y0128791D03*
X0033550Y0111291D03*
X0089550Y0082791D03*
X0097050Y0067791D03*
X0098050Y0061291D03*
X0087550Y0061291D03*
X0074550Y0051291D03*
X0057050Y0038791D03*
X0048050Y0044791D03*
X0045050Y0036791D03*
X0027050Y0019291D03*
X0005050Y0019291D03*
X0084550Y0025791D03*
X0104550Y0037291D03*
X0116050Y0043791D03*
X0116050Y0053291D03*
X0110550Y0053291D03*
X0104550Y0053291D03*
X0121050Y0065291D03*
X0121050Y0073791D03*
X0134550Y0073791D03*
X0134550Y0063791D03*
X0140550Y0063791D03*
X0152050Y0063791D03*
X0157550Y0056291D03*
X0151050Y0073791D03*
X0144550Y0076291D03*
X0148050Y0090791D03*
X0162550Y0093291D03*
X0175550Y0091791D03*
X0194550Y0094291D03*
X0199050Y0079791D03*
X0179050Y0066291D03*
X0163550Y0074791D03*
X0132550Y0093791D03*
X0143050Y0111791D03*
X0159050Y0118791D03*
X0177050Y0118791D03*
X0212550Y0105291D03*
X0240050Y0127291D03*
X0247550Y0124791D03*
X0244550Y0108291D03*
X0264550Y0094791D03*
X0262550Y0083791D03*
X0252550Y0073791D03*
X0262550Y0063791D03*
X0259550Y0057291D03*
X0245550Y0053791D03*
X0233050Y0044291D03*
X0233050Y0038791D03*
X0222050Y0043291D03*
X0216550Y0038791D03*
X0212050Y0043291D03*
X0206050Y0034791D03*
X0207550Y0028291D03*
X0199550Y0031291D03*
X0194550Y0030791D03*
X0184550Y0025791D03*
X0176050Y0047791D03*
X0202550Y0059291D03*
X0226050Y0059791D03*
X0227550Y0053791D03*
X0238550Y0028791D03*
X0246550Y0026791D03*
X0252050Y0026291D03*
X0252050Y0020291D03*
X0260050Y0026291D03*
X0258550Y0034791D03*
X0274550Y0063291D03*
X0272550Y0073791D03*
X0277050Y0079791D03*
X0277050Y0094791D03*
X0294550Y0102291D03*
X0294550Y0111791D03*
X0277050Y0112791D03*
X0294550Y0131291D03*
X0284550Y0141291D03*
X0273050Y0147791D03*
X0267550Y0156291D03*
X0252050Y0155291D03*
X0247550Y0150791D03*
X0238050Y0159791D03*
X0253050Y0170291D03*
X0242050Y0181791D03*
X0231550Y0192791D03*
X0215050Y0192791D03*
X0204550Y0188791D03*
X0197550Y0192791D03*
X0193550Y0206291D03*
X0204550Y0206791D03*
X0199550Y0216791D03*
X0189550Y0216791D03*
X0180550Y0216791D03*
X0169550Y0216291D03*
X0169550Y0202791D03*
X0162550Y0192791D03*
X0151050Y0202791D03*
X0151050Y0215291D03*
X0139550Y0211291D03*
X0133050Y0215291D03*
X0133050Y0202291D03*
X0125550Y0194291D03*
X0115050Y0204791D03*
X0104550Y0215291D03*
X0112050Y0218791D03*
X0102050Y0223291D03*
X0093050Y0221791D03*
X0080550Y0221791D03*
X0057050Y0243791D03*
X0072550Y0248291D03*
X0087050Y0244791D03*
X0097050Y0256291D03*
X0087050Y0267791D03*
X0075550Y0291291D03*
X0063550Y0300791D03*
X0060550Y0313291D03*
X0043550Y0313291D03*
X0033050Y0310291D03*
X0043550Y0300791D03*
X0049550Y0286791D03*
X0055050Y0274291D03*
X0049550Y0272791D03*
X0042550Y0274291D03*
X0029550Y0270791D03*
X0026550Y0257791D03*
X0037050Y0252791D03*
X0058050Y0261291D03*
X0005050Y0266291D03*
X0005050Y0241791D03*
X0005050Y0217791D03*
X0005050Y0195791D03*
X0022050Y0190791D03*
X0120550Y0244791D03*
X0129550Y0256291D03*
X0139550Y0253791D03*
X0124550Y0267291D03*
X0115550Y0279291D03*
X0115550Y0291291D03*
X0129550Y0288791D03*
X0129550Y0283791D03*
X0142050Y0279791D03*
X0152050Y0276291D03*
X0167050Y0283791D03*
X0174550Y0291291D03*
X0167050Y0296291D03*
X0177050Y0311791D03*
X0164050Y0313291D03*
X0146550Y0313291D03*
X0129050Y0313291D03*
X0129550Y0298791D03*
X0111050Y0313291D03*
X0093550Y0313291D03*
X0076550Y0313291D03*
X0005050Y0313291D03*
X0005050Y0291791D03*
X0125550Y0234291D03*
X0148050Y0234791D03*
X0159550Y0244791D03*
X0189550Y0248791D03*
X0197050Y0248791D03*
X0220050Y0244791D03*
X0226550Y0248791D03*
X0224550Y0240291D03*
X0239550Y0242291D03*
X0255050Y0254291D03*
X0272050Y0238791D03*
X0277050Y0236291D03*
X0294050Y0232291D03*
X0301050Y0229791D03*
X0301050Y0218791D03*
X0307050Y0213791D03*
X0312050Y0206291D03*
X0323050Y0217291D03*
X0314550Y0221291D03*
X0314550Y0236291D03*
X0336050Y0218791D03*
X0348550Y0218791D03*
X0349050Y0201291D03*
X0344050Y0201791D03*
X0332050Y0189791D03*
X0349050Y0184291D03*
X0349050Y0167791D03*
X0333550Y0156291D03*
X0340050Y0153791D03*
X0344550Y0148791D03*
X0349050Y0152291D03*
X0345550Y0141791D03*
X0335050Y0141291D03*
X0328050Y0135291D03*
X0324550Y0129791D03*
X0321050Y0126291D03*
X0317050Y0111291D03*
X0322050Y0106291D03*
X0328050Y0111291D03*
X0337050Y0106291D03*
X0342050Y0111291D03*
X0347050Y0112791D03*
X0347050Y0098291D03*
X0347050Y0084291D03*
X0347050Y0069291D03*
X0347050Y0054791D03*
X0347550Y0042291D03*
X0332050Y0057291D03*
X0324550Y0068791D03*
X0314550Y0059791D03*
X0302550Y0042291D03*
X0296050Y0035291D03*
X0305050Y0027291D03*
X0315050Y0019791D03*
X0322050Y0041291D03*
X0347550Y0019791D03*
X0292050Y0059791D03*
X0316550Y0089291D03*
X0267050Y0137291D03*
X0319550Y0156291D03*
X0295550Y0188791D03*
X0269550Y0213791D03*
X0279550Y0253791D03*
X0282050Y0258791D03*
X0268550Y0275291D03*
X0264550Y0285791D03*
X0244550Y0283791D03*
X0235050Y0279291D03*
X0212050Y0278791D03*
X0205396Y0285445D03*
X0197050Y0284291D03*
X0185050Y0284291D03*
X0204550Y0311291D03*
X0225050Y0311291D03*
X0244050Y0311291D03*
X0262550Y0311291D03*
X0280550Y0311291D03*
X0302050Y0311291D03*
X0323550Y0311291D03*
X0348050Y0311291D03*
X0348550Y0291791D03*
X0312050Y0256291D03*
X0180050Y0192791D03*
X0145050Y0192791D03*
X0243550Y0088291D03*
X0129550Y0053291D03*
X0122550Y0053291D03*
X0129550Y0043791D03*
D19*
X0048050Y0044791D02*
X0045050Y0041791D01*
X0045050Y0036791D01*
X0212050Y0043291D02*
X0216550Y0038791D01*
X0284550Y0141291D02*
X0335050Y0141291D01*
D20*
X0245550Y0053791D02*
X0227550Y0053791D01*
X0228050Y0044291D02*
X0227050Y0043291D01*
X0222050Y0043291D01*
X0228050Y0044291D02*
X0233050Y0044291D01*
X0239550Y0042791D02*
X0239550Y0035791D01*
X0238550Y0034791D01*
X0206050Y0034791D01*
X0199550Y0031291D02*
X0255050Y0031291D01*
X0260050Y0026291D01*
X0252050Y0026291D02*
X0247550Y0021791D01*
X0050550Y0021791D01*
X0017050Y0055291D01*
X0013550Y0051791D02*
X0045050Y0020291D01*
X0252050Y0020291D01*
X0250550Y0034791D02*
X0249550Y0034791D01*
X0248550Y0035791D01*
X0248550Y0042791D01*
X0247550Y0043791D01*
X0246550Y0043791D01*
X0245550Y0042791D01*
X0245550Y0035791D01*
X0244550Y0034791D01*
X0243550Y0034791D01*
X0242550Y0035791D01*
X0242550Y0042791D01*
X0241550Y0043791D01*
X0240550Y0043791D01*
X0239550Y0042791D01*
X0251550Y0042791D02*
X0251550Y0035791D01*
X0250550Y0034791D01*
X0254550Y0035791D02*
X0254550Y0042791D01*
X0253550Y0043791D01*
X0252550Y0043791D01*
X0251550Y0042791D01*
X0254550Y0035791D02*
X0255550Y0034791D01*
X0258550Y0034791D01*
X0229550Y0133791D02*
X0229550Y0146791D01*
X0219550Y0150291D02*
X0219550Y0133791D01*
X0116050Y0053291D02*
X0116050Y0043791D01*
X0069550Y0101791D02*
X0062050Y0101791D01*
D21*
X0089550Y0141291D02*
X0089550Y0155291D01*
X0139550Y0141291D02*
X0139550Y0169291D01*
X0139550Y0211291D02*
X0139550Y0253791D01*
X0062050Y0235041D02*
X0062050Y0208291D01*
X0143050Y0111791D02*
X0143050Y0087291D01*
X0144550Y0085791D01*
X0144550Y0076291D01*
X0199550Y0141291D02*
X0199550Y0162291D01*
D22*
X0212050Y0278791D02*
X0205396Y0285445D01*
D23*
X0216550Y0038791D02*
X0233050Y0038791D01*
M02*
