G75*
%MOIN*%
%OFA0B0*%
%FSLAX25Y25*%
%IPPOS*%
%LPD*%
%AMOC8*
5,1,8,0,0,1.08239X$1,22.5*
%
%ADD10C,0.00000*%
%ADD11C,0.12998*%
%ADD12C,0.08077*%
%ADD13C,0.14400*%
%ADD14C,0.11424*%
%ADD15C,0.12211*%
%ADD16C,0.07800*%
%ADD17R,0.07800X0.07800*%
%ADD18C,0.06022*%
%ADD19C,0.08077*%
D10*
X0002050Y0016291D02*
X0002050Y0316291D01*
X0352050Y0316291D01*
X0352050Y0016291D01*
X0002050Y0016291D01*
X0010751Y0031291D02*
X0010753Y0031449D01*
X0010759Y0031607D01*
X0010769Y0031765D01*
X0010783Y0031923D01*
X0010801Y0032080D01*
X0010822Y0032237D01*
X0010848Y0032393D01*
X0010878Y0032549D01*
X0010911Y0032704D01*
X0010949Y0032857D01*
X0010990Y0033010D01*
X0011035Y0033162D01*
X0011084Y0033313D01*
X0011137Y0033462D01*
X0011193Y0033610D01*
X0011253Y0033756D01*
X0011317Y0033901D01*
X0011385Y0034044D01*
X0011456Y0034186D01*
X0011530Y0034326D01*
X0011608Y0034463D01*
X0011690Y0034599D01*
X0011774Y0034733D01*
X0011863Y0034864D01*
X0011954Y0034993D01*
X0012049Y0035120D01*
X0012146Y0035245D01*
X0012247Y0035367D01*
X0012351Y0035486D01*
X0012458Y0035603D01*
X0012568Y0035717D01*
X0012681Y0035828D01*
X0012796Y0035937D01*
X0012914Y0036042D01*
X0013035Y0036144D01*
X0013158Y0036244D01*
X0013284Y0036340D01*
X0013412Y0036433D01*
X0013542Y0036523D01*
X0013675Y0036609D01*
X0013810Y0036693D01*
X0013946Y0036772D01*
X0014085Y0036849D01*
X0014226Y0036921D01*
X0014368Y0036991D01*
X0014512Y0037056D01*
X0014658Y0037118D01*
X0014805Y0037176D01*
X0014954Y0037231D01*
X0015104Y0037282D01*
X0015255Y0037329D01*
X0015407Y0037372D01*
X0015560Y0037411D01*
X0015715Y0037447D01*
X0015870Y0037478D01*
X0016026Y0037506D01*
X0016182Y0037530D01*
X0016339Y0037550D01*
X0016497Y0037566D01*
X0016654Y0037578D01*
X0016813Y0037586D01*
X0016971Y0037590D01*
X0017129Y0037590D01*
X0017287Y0037586D01*
X0017446Y0037578D01*
X0017603Y0037566D01*
X0017761Y0037550D01*
X0017918Y0037530D01*
X0018074Y0037506D01*
X0018230Y0037478D01*
X0018385Y0037447D01*
X0018540Y0037411D01*
X0018693Y0037372D01*
X0018845Y0037329D01*
X0018996Y0037282D01*
X0019146Y0037231D01*
X0019295Y0037176D01*
X0019442Y0037118D01*
X0019588Y0037056D01*
X0019732Y0036991D01*
X0019874Y0036921D01*
X0020015Y0036849D01*
X0020154Y0036772D01*
X0020290Y0036693D01*
X0020425Y0036609D01*
X0020558Y0036523D01*
X0020688Y0036433D01*
X0020816Y0036340D01*
X0020942Y0036244D01*
X0021065Y0036144D01*
X0021186Y0036042D01*
X0021304Y0035937D01*
X0021419Y0035828D01*
X0021532Y0035717D01*
X0021642Y0035603D01*
X0021749Y0035486D01*
X0021853Y0035367D01*
X0021954Y0035245D01*
X0022051Y0035120D01*
X0022146Y0034993D01*
X0022237Y0034864D01*
X0022326Y0034733D01*
X0022410Y0034599D01*
X0022492Y0034463D01*
X0022570Y0034326D01*
X0022644Y0034186D01*
X0022715Y0034044D01*
X0022783Y0033901D01*
X0022847Y0033756D01*
X0022907Y0033610D01*
X0022963Y0033462D01*
X0023016Y0033313D01*
X0023065Y0033162D01*
X0023110Y0033010D01*
X0023151Y0032857D01*
X0023189Y0032704D01*
X0023222Y0032549D01*
X0023252Y0032393D01*
X0023278Y0032237D01*
X0023299Y0032080D01*
X0023317Y0031923D01*
X0023331Y0031765D01*
X0023341Y0031607D01*
X0023347Y0031449D01*
X0023349Y0031291D01*
X0023347Y0031133D01*
X0023341Y0030975D01*
X0023331Y0030817D01*
X0023317Y0030659D01*
X0023299Y0030502D01*
X0023278Y0030345D01*
X0023252Y0030189D01*
X0023222Y0030033D01*
X0023189Y0029878D01*
X0023151Y0029725D01*
X0023110Y0029572D01*
X0023065Y0029420D01*
X0023016Y0029269D01*
X0022963Y0029120D01*
X0022907Y0028972D01*
X0022847Y0028826D01*
X0022783Y0028681D01*
X0022715Y0028538D01*
X0022644Y0028396D01*
X0022570Y0028256D01*
X0022492Y0028119D01*
X0022410Y0027983D01*
X0022326Y0027849D01*
X0022237Y0027718D01*
X0022146Y0027589D01*
X0022051Y0027462D01*
X0021954Y0027337D01*
X0021853Y0027215D01*
X0021749Y0027096D01*
X0021642Y0026979D01*
X0021532Y0026865D01*
X0021419Y0026754D01*
X0021304Y0026645D01*
X0021186Y0026540D01*
X0021065Y0026438D01*
X0020942Y0026338D01*
X0020816Y0026242D01*
X0020688Y0026149D01*
X0020558Y0026059D01*
X0020425Y0025973D01*
X0020290Y0025889D01*
X0020154Y0025810D01*
X0020015Y0025733D01*
X0019874Y0025661D01*
X0019732Y0025591D01*
X0019588Y0025526D01*
X0019442Y0025464D01*
X0019295Y0025406D01*
X0019146Y0025351D01*
X0018996Y0025300D01*
X0018845Y0025253D01*
X0018693Y0025210D01*
X0018540Y0025171D01*
X0018385Y0025135D01*
X0018230Y0025104D01*
X0018074Y0025076D01*
X0017918Y0025052D01*
X0017761Y0025032D01*
X0017603Y0025016D01*
X0017446Y0025004D01*
X0017287Y0024996D01*
X0017129Y0024992D01*
X0016971Y0024992D01*
X0016813Y0024996D01*
X0016654Y0025004D01*
X0016497Y0025016D01*
X0016339Y0025032D01*
X0016182Y0025052D01*
X0016026Y0025076D01*
X0015870Y0025104D01*
X0015715Y0025135D01*
X0015560Y0025171D01*
X0015407Y0025210D01*
X0015255Y0025253D01*
X0015104Y0025300D01*
X0014954Y0025351D01*
X0014805Y0025406D01*
X0014658Y0025464D01*
X0014512Y0025526D01*
X0014368Y0025591D01*
X0014226Y0025661D01*
X0014085Y0025733D01*
X0013946Y0025810D01*
X0013810Y0025889D01*
X0013675Y0025973D01*
X0013542Y0026059D01*
X0013412Y0026149D01*
X0013284Y0026242D01*
X0013158Y0026338D01*
X0013035Y0026438D01*
X0012914Y0026540D01*
X0012796Y0026645D01*
X0012681Y0026754D01*
X0012568Y0026865D01*
X0012458Y0026979D01*
X0012351Y0027096D01*
X0012247Y0027215D01*
X0012146Y0027337D01*
X0012049Y0027462D01*
X0011954Y0027589D01*
X0011863Y0027718D01*
X0011774Y0027849D01*
X0011690Y0027983D01*
X0011608Y0028119D01*
X0011530Y0028256D01*
X0011456Y0028396D01*
X0011385Y0028538D01*
X0011317Y0028681D01*
X0011253Y0028826D01*
X0011193Y0028972D01*
X0011137Y0029120D01*
X0011084Y0029269D01*
X0011035Y0029420D01*
X0010990Y0029572D01*
X0010949Y0029725D01*
X0010911Y0029878D01*
X0010878Y0030033D01*
X0010848Y0030189D01*
X0010822Y0030345D01*
X0010801Y0030502D01*
X0010783Y0030659D01*
X0010769Y0030817D01*
X0010759Y0030975D01*
X0010753Y0031133D01*
X0010751Y0031291D01*
X0061300Y0150291D02*
X0061302Y0150463D01*
X0061308Y0150634D01*
X0061319Y0150806D01*
X0061334Y0150977D01*
X0061353Y0151148D01*
X0061376Y0151318D01*
X0061403Y0151488D01*
X0061435Y0151657D01*
X0061470Y0151825D01*
X0061510Y0151992D01*
X0061554Y0152158D01*
X0061601Y0152323D01*
X0061653Y0152487D01*
X0061709Y0152649D01*
X0061769Y0152810D01*
X0061833Y0152970D01*
X0061901Y0153128D01*
X0061972Y0153284D01*
X0062047Y0153438D01*
X0062127Y0153591D01*
X0062209Y0153741D01*
X0062296Y0153890D01*
X0062386Y0154036D01*
X0062480Y0154180D01*
X0062577Y0154322D01*
X0062678Y0154461D01*
X0062782Y0154598D01*
X0062889Y0154732D01*
X0063000Y0154863D01*
X0063113Y0154992D01*
X0063230Y0155118D01*
X0063350Y0155241D01*
X0063473Y0155361D01*
X0063599Y0155478D01*
X0063728Y0155591D01*
X0063859Y0155702D01*
X0063993Y0155809D01*
X0064130Y0155913D01*
X0064269Y0156014D01*
X0064411Y0156111D01*
X0064555Y0156205D01*
X0064701Y0156295D01*
X0064850Y0156382D01*
X0065000Y0156464D01*
X0065153Y0156544D01*
X0065307Y0156619D01*
X0065463Y0156690D01*
X0065621Y0156758D01*
X0065781Y0156822D01*
X0065942Y0156882D01*
X0066104Y0156938D01*
X0066268Y0156990D01*
X0066433Y0157037D01*
X0066599Y0157081D01*
X0066766Y0157121D01*
X0066934Y0157156D01*
X0067103Y0157188D01*
X0067273Y0157215D01*
X0067443Y0157238D01*
X0067614Y0157257D01*
X0067785Y0157272D01*
X0067957Y0157283D01*
X0068128Y0157289D01*
X0068300Y0157291D01*
X0068472Y0157289D01*
X0068643Y0157283D01*
X0068815Y0157272D01*
X0068986Y0157257D01*
X0069157Y0157238D01*
X0069327Y0157215D01*
X0069497Y0157188D01*
X0069666Y0157156D01*
X0069834Y0157121D01*
X0070001Y0157081D01*
X0070167Y0157037D01*
X0070332Y0156990D01*
X0070496Y0156938D01*
X0070658Y0156882D01*
X0070819Y0156822D01*
X0070979Y0156758D01*
X0071137Y0156690D01*
X0071293Y0156619D01*
X0071447Y0156544D01*
X0071600Y0156464D01*
X0071750Y0156382D01*
X0071899Y0156295D01*
X0072045Y0156205D01*
X0072189Y0156111D01*
X0072331Y0156014D01*
X0072470Y0155913D01*
X0072607Y0155809D01*
X0072741Y0155702D01*
X0072872Y0155591D01*
X0073001Y0155478D01*
X0073127Y0155361D01*
X0073250Y0155241D01*
X0073370Y0155118D01*
X0073487Y0154992D01*
X0073600Y0154863D01*
X0073711Y0154732D01*
X0073818Y0154598D01*
X0073922Y0154461D01*
X0074023Y0154322D01*
X0074120Y0154180D01*
X0074214Y0154036D01*
X0074304Y0153890D01*
X0074391Y0153741D01*
X0074473Y0153591D01*
X0074553Y0153438D01*
X0074628Y0153284D01*
X0074699Y0153128D01*
X0074767Y0152970D01*
X0074831Y0152810D01*
X0074891Y0152649D01*
X0074947Y0152487D01*
X0074999Y0152323D01*
X0075046Y0152158D01*
X0075090Y0151992D01*
X0075130Y0151825D01*
X0075165Y0151657D01*
X0075197Y0151488D01*
X0075224Y0151318D01*
X0075247Y0151148D01*
X0075266Y0150977D01*
X0075281Y0150806D01*
X0075292Y0150634D01*
X0075298Y0150463D01*
X0075300Y0150291D01*
X0075298Y0150119D01*
X0075292Y0149948D01*
X0075281Y0149776D01*
X0075266Y0149605D01*
X0075247Y0149434D01*
X0075224Y0149264D01*
X0075197Y0149094D01*
X0075165Y0148925D01*
X0075130Y0148757D01*
X0075090Y0148590D01*
X0075046Y0148424D01*
X0074999Y0148259D01*
X0074947Y0148095D01*
X0074891Y0147933D01*
X0074831Y0147772D01*
X0074767Y0147612D01*
X0074699Y0147454D01*
X0074628Y0147298D01*
X0074553Y0147144D01*
X0074473Y0146991D01*
X0074391Y0146841D01*
X0074304Y0146692D01*
X0074214Y0146546D01*
X0074120Y0146402D01*
X0074023Y0146260D01*
X0073922Y0146121D01*
X0073818Y0145984D01*
X0073711Y0145850D01*
X0073600Y0145719D01*
X0073487Y0145590D01*
X0073370Y0145464D01*
X0073250Y0145341D01*
X0073127Y0145221D01*
X0073001Y0145104D01*
X0072872Y0144991D01*
X0072741Y0144880D01*
X0072607Y0144773D01*
X0072470Y0144669D01*
X0072331Y0144568D01*
X0072189Y0144471D01*
X0072045Y0144377D01*
X0071899Y0144287D01*
X0071750Y0144200D01*
X0071600Y0144118D01*
X0071447Y0144038D01*
X0071293Y0143963D01*
X0071137Y0143892D01*
X0070979Y0143824D01*
X0070819Y0143760D01*
X0070658Y0143700D01*
X0070496Y0143644D01*
X0070332Y0143592D01*
X0070167Y0143545D01*
X0070001Y0143501D01*
X0069834Y0143461D01*
X0069666Y0143426D01*
X0069497Y0143394D01*
X0069327Y0143367D01*
X0069157Y0143344D01*
X0068986Y0143325D01*
X0068815Y0143310D01*
X0068643Y0143299D01*
X0068472Y0143293D01*
X0068300Y0143291D01*
X0068128Y0143293D01*
X0067957Y0143299D01*
X0067785Y0143310D01*
X0067614Y0143325D01*
X0067443Y0143344D01*
X0067273Y0143367D01*
X0067103Y0143394D01*
X0066934Y0143426D01*
X0066766Y0143461D01*
X0066599Y0143501D01*
X0066433Y0143545D01*
X0066268Y0143592D01*
X0066104Y0143644D01*
X0065942Y0143700D01*
X0065781Y0143760D01*
X0065621Y0143824D01*
X0065463Y0143892D01*
X0065307Y0143963D01*
X0065153Y0144038D01*
X0065000Y0144118D01*
X0064850Y0144200D01*
X0064701Y0144287D01*
X0064555Y0144377D01*
X0064411Y0144471D01*
X0064269Y0144568D01*
X0064130Y0144669D01*
X0063993Y0144773D01*
X0063859Y0144880D01*
X0063728Y0144991D01*
X0063599Y0145104D01*
X0063473Y0145221D01*
X0063350Y0145341D01*
X0063230Y0145464D01*
X0063113Y0145590D01*
X0063000Y0145719D01*
X0062889Y0145850D01*
X0062782Y0145984D01*
X0062678Y0146121D01*
X0062577Y0146260D01*
X0062480Y0146402D01*
X0062386Y0146546D01*
X0062296Y0146692D01*
X0062209Y0146841D01*
X0062127Y0146991D01*
X0062047Y0147144D01*
X0061972Y0147298D01*
X0061901Y0147454D01*
X0061833Y0147612D01*
X0061769Y0147772D01*
X0061709Y0147933D01*
X0061653Y0148095D01*
X0061601Y0148259D01*
X0061554Y0148424D01*
X0061510Y0148590D01*
X0061470Y0148757D01*
X0061435Y0148925D01*
X0061403Y0149094D01*
X0061376Y0149264D01*
X0061353Y0149434D01*
X0061334Y0149605D01*
X0061319Y0149776D01*
X0061308Y0149948D01*
X0061302Y0150119D01*
X0061300Y0150291D01*
X0029788Y0212291D02*
X0029790Y0212439D01*
X0029796Y0212587D01*
X0029806Y0212735D01*
X0029820Y0212882D01*
X0029838Y0213029D01*
X0029859Y0213175D01*
X0029885Y0213321D01*
X0029915Y0213466D01*
X0029948Y0213610D01*
X0029986Y0213753D01*
X0030027Y0213895D01*
X0030072Y0214036D01*
X0030120Y0214176D01*
X0030173Y0214315D01*
X0030229Y0214452D01*
X0030289Y0214587D01*
X0030352Y0214721D01*
X0030419Y0214853D01*
X0030490Y0214983D01*
X0030564Y0215111D01*
X0030641Y0215237D01*
X0030722Y0215361D01*
X0030806Y0215483D01*
X0030893Y0215602D01*
X0030984Y0215719D01*
X0031078Y0215834D01*
X0031174Y0215946D01*
X0031274Y0216056D01*
X0031376Y0216162D01*
X0031482Y0216266D01*
X0031590Y0216367D01*
X0031701Y0216465D01*
X0031814Y0216561D01*
X0031930Y0216653D01*
X0032048Y0216742D01*
X0032169Y0216827D01*
X0032292Y0216910D01*
X0032417Y0216989D01*
X0032544Y0217065D01*
X0032673Y0217137D01*
X0032804Y0217206D01*
X0032937Y0217271D01*
X0033072Y0217332D01*
X0033208Y0217390D01*
X0033345Y0217445D01*
X0033484Y0217495D01*
X0033625Y0217542D01*
X0033766Y0217585D01*
X0033909Y0217625D01*
X0034053Y0217660D01*
X0034197Y0217692D01*
X0034343Y0217719D01*
X0034489Y0217743D01*
X0034636Y0217763D01*
X0034783Y0217779D01*
X0034930Y0217791D01*
X0035078Y0217799D01*
X0035226Y0217803D01*
X0035374Y0217803D01*
X0035522Y0217799D01*
X0035670Y0217791D01*
X0035817Y0217779D01*
X0035964Y0217763D01*
X0036111Y0217743D01*
X0036257Y0217719D01*
X0036403Y0217692D01*
X0036547Y0217660D01*
X0036691Y0217625D01*
X0036834Y0217585D01*
X0036975Y0217542D01*
X0037116Y0217495D01*
X0037255Y0217445D01*
X0037392Y0217390D01*
X0037528Y0217332D01*
X0037663Y0217271D01*
X0037796Y0217206D01*
X0037927Y0217137D01*
X0038056Y0217065D01*
X0038183Y0216989D01*
X0038308Y0216910D01*
X0038431Y0216827D01*
X0038552Y0216742D01*
X0038670Y0216653D01*
X0038786Y0216561D01*
X0038899Y0216465D01*
X0039010Y0216367D01*
X0039118Y0216266D01*
X0039224Y0216162D01*
X0039326Y0216056D01*
X0039426Y0215946D01*
X0039522Y0215834D01*
X0039616Y0215719D01*
X0039707Y0215602D01*
X0039794Y0215483D01*
X0039878Y0215361D01*
X0039959Y0215237D01*
X0040036Y0215111D01*
X0040110Y0214983D01*
X0040181Y0214853D01*
X0040248Y0214721D01*
X0040311Y0214587D01*
X0040371Y0214452D01*
X0040427Y0214315D01*
X0040480Y0214176D01*
X0040528Y0214036D01*
X0040573Y0213895D01*
X0040614Y0213753D01*
X0040652Y0213610D01*
X0040685Y0213466D01*
X0040715Y0213321D01*
X0040741Y0213175D01*
X0040762Y0213029D01*
X0040780Y0212882D01*
X0040794Y0212735D01*
X0040804Y0212587D01*
X0040810Y0212439D01*
X0040812Y0212291D01*
X0040810Y0212143D01*
X0040804Y0211995D01*
X0040794Y0211847D01*
X0040780Y0211700D01*
X0040762Y0211553D01*
X0040741Y0211407D01*
X0040715Y0211261D01*
X0040685Y0211116D01*
X0040652Y0210972D01*
X0040614Y0210829D01*
X0040573Y0210687D01*
X0040528Y0210546D01*
X0040480Y0210406D01*
X0040427Y0210267D01*
X0040371Y0210130D01*
X0040311Y0209995D01*
X0040248Y0209861D01*
X0040181Y0209729D01*
X0040110Y0209599D01*
X0040036Y0209471D01*
X0039959Y0209345D01*
X0039878Y0209221D01*
X0039794Y0209099D01*
X0039707Y0208980D01*
X0039616Y0208863D01*
X0039522Y0208748D01*
X0039426Y0208636D01*
X0039326Y0208526D01*
X0039224Y0208420D01*
X0039118Y0208316D01*
X0039010Y0208215D01*
X0038899Y0208117D01*
X0038786Y0208021D01*
X0038670Y0207929D01*
X0038552Y0207840D01*
X0038431Y0207755D01*
X0038308Y0207672D01*
X0038183Y0207593D01*
X0038056Y0207517D01*
X0037927Y0207445D01*
X0037796Y0207376D01*
X0037663Y0207311D01*
X0037528Y0207250D01*
X0037392Y0207192D01*
X0037255Y0207137D01*
X0037116Y0207087D01*
X0036975Y0207040D01*
X0036834Y0206997D01*
X0036691Y0206957D01*
X0036547Y0206922D01*
X0036403Y0206890D01*
X0036257Y0206863D01*
X0036111Y0206839D01*
X0035964Y0206819D01*
X0035817Y0206803D01*
X0035670Y0206791D01*
X0035522Y0206783D01*
X0035374Y0206779D01*
X0035226Y0206779D01*
X0035078Y0206783D01*
X0034930Y0206791D01*
X0034783Y0206803D01*
X0034636Y0206819D01*
X0034489Y0206839D01*
X0034343Y0206863D01*
X0034197Y0206890D01*
X0034053Y0206922D01*
X0033909Y0206957D01*
X0033766Y0206997D01*
X0033625Y0207040D01*
X0033484Y0207087D01*
X0033345Y0207137D01*
X0033208Y0207192D01*
X0033072Y0207250D01*
X0032937Y0207311D01*
X0032804Y0207376D01*
X0032673Y0207445D01*
X0032544Y0207517D01*
X0032417Y0207593D01*
X0032292Y0207672D01*
X0032169Y0207755D01*
X0032048Y0207840D01*
X0031930Y0207929D01*
X0031814Y0208021D01*
X0031701Y0208117D01*
X0031590Y0208215D01*
X0031482Y0208316D01*
X0031376Y0208420D01*
X0031274Y0208526D01*
X0031174Y0208636D01*
X0031078Y0208748D01*
X0030984Y0208863D01*
X0030893Y0208980D01*
X0030806Y0209099D01*
X0030722Y0209221D01*
X0030641Y0209345D01*
X0030564Y0209471D01*
X0030490Y0209599D01*
X0030419Y0209729D01*
X0030352Y0209861D01*
X0030289Y0209995D01*
X0030229Y0210130D01*
X0030173Y0210267D01*
X0030120Y0210406D01*
X0030072Y0210546D01*
X0030027Y0210687D01*
X0029986Y0210829D01*
X0029948Y0210972D01*
X0029915Y0211116D01*
X0029885Y0211261D01*
X0029859Y0211407D01*
X0029838Y0211553D01*
X0029820Y0211700D01*
X0029806Y0211847D01*
X0029796Y0211995D01*
X0029790Y0212143D01*
X0029788Y0212291D01*
X0010751Y0301291D02*
X0010753Y0301449D01*
X0010759Y0301607D01*
X0010769Y0301765D01*
X0010783Y0301923D01*
X0010801Y0302080D01*
X0010822Y0302237D01*
X0010848Y0302393D01*
X0010878Y0302549D01*
X0010911Y0302704D01*
X0010949Y0302857D01*
X0010990Y0303010D01*
X0011035Y0303162D01*
X0011084Y0303313D01*
X0011137Y0303462D01*
X0011193Y0303610D01*
X0011253Y0303756D01*
X0011317Y0303901D01*
X0011385Y0304044D01*
X0011456Y0304186D01*
X0011530Y0304326D01*
X0011608Y0304463D01*
X0011690Y0304599D01*
X0011774Y0304733D01*
X0011863Y0304864D01*
X0011954Y0304993D01*
X0012049Y0305120D01*
X0012146Y0305245D01*
X0012247Y0305367D01*
X0012351Y0305486D01*
X0012458Y0305603D01*
X0012568Y0305717D01*
X0012681Y0305828D01*
X0012796Y0305937D01*
X0012914Y0306042D01*
X0013035Y0306144D01*
X0013158Y0306244D01*
X0013284Y0306340D01*
X0013412Y0306433D01*
X0013542Y0306523D01*
X0013675Y0306609D01*
X0013810Y0306693D01*
X0013946Y0306772D01*
X0014085Y0306849D01*
X0014226Y0306921D01*
X0014368Y0306991D01*
X0014512Y0307056D01*
X0014658Y0307118D01*
X0014805Y0307176D01*
X0014954Y0307231D01*
X0015104Y0307282D01*
X0015255Y0307329D01*
X0015407Y0307372D01*
X0015560Y0307411D01*
X0015715Y0307447D01*
X0015870Y0307478D01*
X0016026Y0307506D01*
X0016182Y0307530D01*
X0016339Y0307550D01*
X0016497Y0307566D01*
X0016654Y0307578D01*
X0016813Y0307586D01*
X0016971Y0307590D01*
X0017129Y0307590D01*
X0017287Y0307586D01*
X0017446Y0307578D01*
X0017603Y0307566D01*
X0017761Y0307550D01*
X0017918Y0307530D01*
X0018074Y0307506D01*
X0018230Y0307478D01*
X0018385Y0307447D01*
X0018540Y0307411D01*
X0018693Y0307372D01*
X0018845Y0307329D01*
X0018996Y0307282D01*
X0019146Y0307231D01*
X0019295Y0307176D01*
X0019442Y0307118D01*
X0019588Y0307056D01*
X0019732Y0306991D01*
X0019874Y0306921D01*
X0020015Y0306849D01*
X0020154Y0306772D01*
X0020290Y0306693D01*
X0020425Y0306609D01*
X0020558Y0306523D01*
X0020688Y0306433D01*
X0020816Y0306340D01*
X0020942Y0306244D01*
X0021065Y0306144D01*
X0021186Y0306042D01*
X0021304Y0305937D01*
X0021419Y0305828D01*
X0021532Y0305717D01*
X0021642Y0305603D01*
X0021749Y0305486D01*
X0021853Y0305367D01*
X0021954Y0305245D01*
X0022051Y0305120D01*
X0022146Y0304993D01*
X0022237Y0304864D01*
X0022326Y0304733D01*
X0022410Y0304599D01*
X0022492Y0304463D01*
X0022570Y0304326D01*
X0022644Y0304186D01*
X0022715Y0304044D01*
X0022783Y0303901D01*
X0022847Y0303756D01*
X0022907Y0303610D01*
X0022963Y0303462D01*
X0023016Y0303313D01*
X0023065Y0303162D01*
X0023110Y0303010D01*
X0023151Y0302857D01*
X0023189Y0302704D01*
X0023222Y0302549D01*
X0023252Y0302393D01*
X0023278Y0302237D01*
X0023299Y0302080D01*
X0023317Y0301923D01*
X0023331Y0301765D01*
X0023341Y0301607D01*
X0023347Y0301449D01*
X0023349Y0301291D01*
X0023347Y0301133D01*
X0023341Y0300975D01*
X0023331Y0300817D01*
X0023317Y0300659D01*
X0023299Y0300502D01*
X0023278Y0300345D01*
X0023252Y0300189D01*
X0023222Y0300033D01*
X0023189Y0299878D01*
X0023151Y0299725D01*
X0023110Y0299572D01*
X0023065Y0299420D01*
X0023016Y0299269D01*
X0022963Y0299120D01*
X0022907Y0298972D01*
X0022847Y0298826D01*
X0022783Y0298681D01*
X0022715Y0298538D01*
X0022644Y0298396D01*
X0022570Y0298256D01*
X0022492Y0298119D01*
X0022410Y0297983D01*
X0022326Y0297849D01*
X0022237Y0297718D01*
X0022146Y0297589D01*
X0022051Y0297462D01*
X0021954Y0297337D01*
X0021853Y0297215D01*
X0021749Y0297096D01*
X0021642Y0296979D01*
X0021532Y0296865D01*
X0021419Y0296754D01*
X0021304Y0296645D01*
X0021186Y0296540D01*
X0021065Y0296438D01*
X0020942Y0296338D01*
X0020816Y0296242D01*
X0020688Y0296149D01*
X0020558Y0296059D01*
X0020425Y0295973D01*
X0020290Y0295889D01*
X0020154Y0295810D01*
X0020015Y0295733D01*
X0019874Y0295661D01*
X0019732Y0295591D01*
X0019588Y0295526D01*
X0019442Y0295464D01*
X0019295Y0295406D01*
X0019146Y0295351D01*
X0018996Y0295300D01*
X0018845Y0295253D01*
X0018693Y0295210D01*
X0018540Y0295171D01*
X0018385Y0295135D01*
X0018230Y0295104D01*
X0018074Y0295076D01*
X0017918Y0295052D01*
X0017761Y0295032D01*
X0017603Y0295016D01*
X0017446Y0295004D01*
X0017287Y0294996D01*
X0017129Y0294992D01*
X0016971Y0294992D01*
X0016813Y0294996D01*
X0016654Y0295004D01*
X0016497Y0295016D01*
X0016339Y0295032D01*
X0016182Y0295052D01*
X0016026Y0295076D01*
X0015870Y0295104D01*
X0015715Y0295135D01*
X0015560Y0295171D01*
X0015407Y0295210D01*
X0015255Y0295253D01*
X0015104Y0295300D01*
X0014954Y0295351D01*
X0014805Y0295406D01*
X0014658Y0295464D01*
X0014512Y0295526D01*
X0014368Y0295591D01*
X0014226Y0295661D01*
X0014085Y0295733D01*
X0013946Y0295810D01*
X0013810Y0295889D01*
X0013675Y0295973D01*
X0013542Y0296059D01*
X0013412Y0296149D01*
X0013284Y0296242D01*
X0013158Y0296338D01*
X0013035Y0296438D01*
X0012914Y0296540D01*
X0012796Y0296645D01*
X0012681Y0296754D01*
X0012568Y0296865D01*
X0012458Y0296979D01*
X0012351Y0297096D01*
X0012247Y0297215D01*
X0012146Y0297337D01*
X0012049Y0297462D01*
X0011954Y0297589D01*
X0011863Y0297718D01*
X0011774Y0297849D01*
X0011690Y0297983D01*
X0011608Y0298119D01*
X0011530Y0298256D01*
X0011456Y0298396D01*
X0011385Y0298538D01*
X0011317Y0298681D01*
X0011253Y0298826D01*
X0011193Y0298972D01*
X0011137Y0299120D01*
X0011084Y0299269D01*
X0011035Y0299420D01*
X0010990Y0299572D01*
X0010949Y0299725D01*
X0010911Y0299878D01*
X0010878Y0300033D01*
X0010848Y0300189D01*
X0010822Y0300345D01*
X0010801Y0300502D01*
X0010783Y0300659D01*
X0010769Y0300817D01*
X0010759Y0300975D01*
X0010753Y0301133D01*
X0010751Y0301291D01*
X0278800Y0212291D02*
X0278802Y0212463D01*
X0278808Y0212634D01*
X0278819Y0212806D01*
X0278834Y0212977D01*
X0278853Y0213148D01*
X0278876Y0213318D01*
X0278903Y0213488D01*
X0278935Y0213657D01*
X0278970Y0213825D01*
X0279010Y0213992D01*
X0279054Y0214158D01*
X0279101Y0214323D01*
X0279153Y0214487D01*
X0279209Y0214649D01*
X0279269Y0214810D01*
X0279333Y0214970D01*
X0279401Y0215128D01*
X0279472Y0215284D01*
X0279547Y0215438D01*
X0279627Y0215591D01*
X0279709Y0215741D01*
X0279796Y0215890D01*
X0279886Y0216036D01*
X0279980Y0216180D01*
X0280077Y0216322D01*
X0280178Y0216461D01*
X0280282Y0216598D01*
X0280389Y0216732D01*
X0280500Y0216863D01*
X0280613Y0216992D01*
X0280730Y0217118D01*
X0280850Y0217241D01*
X0280973Y0217361D01*
X0281099Y0217478D01*
X0281228Y0217591D01*
X0281359Y0217702D01*
X0281493Y0217809D01*
X0281630Y0217913D01*
X0281769Y0218014D01*
X0281911Y0218111D01*
X0282055Y0218205D01*
X0282201Y0218295D01*
X0282350Y0218382D01*
X0282500Y0218464D01*
X0282653Y0218544D01*
X0282807Y0218619D01*
X0282963Y0218690D01*
X0283121Y0218758D01*
X0283281Y0218822D01*
X0283442Y0218882D01*
X0283604Y0218938D01*
X0283768Y0218990D01*
X0283933Y0219037D01*
X0284099Y0219081D01*
X0284266Y0219121D01*
X0284434Y0219156D01*
X0284603Y0219188D01*
X0284773Y0219215D01*
X0284943Y0219238D01*
X0285114Y0219257D01*
X0285285Y0219272D01*
X0285457Y0219283D01*
X0285628Y0219289D01*
X0285800Y0219291D01*
X0285972Y0219289D01*
X0286143Y0219283D01*
X0286315Y0219272D01*
X0286486Y0219257D01*
X0286657Y0219238D01*
X0286827Y0219215D01*
X0286997Y0219188D01*
X0287166Y0219156D01*
X0287334Y0219121D01*
X0287501Y0219081D01*
X0287667Y0219037D01*
X0287832Y0218990D01*
X0287996Y0218938D01*
X0288158Y0218882D01*
X0288319Y0218822D01*
X0288479Y0218758D01*
X0288637Y0218690D01*
X0288793Y0218619D01*
X0288947Y0218544D01*
X0289100Y0218464D01*
X0289250Y0218382D01*
X0289399Y0218295D01*
X0289545Y0218205D01*
X0289689Y0218111D01*
X0289831Y0218014D01*
X0289970Y0217913D01*
X0290107Y0217809D01*
X0290241Y0217702D01*
X0290372Y0217591D01*
X0290501Y0217478D01*
X0290627Y0217361D01*
X0290750Y0217241D01*
X0290870Y0217118D01*
X0290987Y0216992D01*
X0291100Y0216863D01*
X0291211Y0216732D01*
X0291318Y0216598D01*
X0291422Y0216461D01*
X0291523Y0216322D01*
X0291620Y0216180D01*
X0291714Y0216036D01*
X0291804Y0215890D01*
X0291891Y0215741D01*
X0291973Y0215591D01*
X0292053Y0215438D01*
X0292128Y0215284D01*
X0292199Y0215128D01*
X0292267Y0214970D01*
X0292331Y0214810D01*
X0292391Y0214649D01*
X0292447Y0214487D01*
X0292499Y0214323D01*
X0292546Y0214158D01*
X0292590Y0213992D01*
X0292630Y0213825D01*
X0292665Y0213657D01*
X0292697Y0213488D01*
X0292724Y0213318D01*
X0292747Y0213148D01*
X0292766Y0212977D01*
X0292781Y0212806D01*
X0292792Y0212634D01*
X0292798Y0212463D01*
X0292800Y0212291D01*
X0292798Y0212119D01*
X0292792Y0211948D01*
X0292781Y0211776D01*
X0292766Y0211605D01*
X0292747Y0211434D01*
X0292724Y0211264D01*
X0292697Y0211094D01*
X0292665Y0210925D01*
X0292630Y0210757D01*
X0292590Y0210590D01*
X0292546Y0210424D01*
X0292499Y0210259D01*
X0292447Y0210095D01*
X0292391Y0209933D01*
X0292331Y0209772D01*
X0292267Y0209612D01*
X0292199Y0209454D01*
X0292128Y0209298D01*
X0292053Y0209144D01*
X0291973Y0208991D01*
X0291891Y0208841D01*
X0291804Y0208692D01*
X0291714Y0208546D01*
X0291620Y0208402D01*
X0291523Y0208260D01*
X0291422Y0208121D01*
X0291318Y0207984D01*
X0291211Y0207850D01*
X0291100Y0207719D01*
X0290987Y0207590D01*
X0290870Y0207464D01*
X0290750Y0207341D01*
X0290627Y0207221D01*
X0290501Y0207104D01*
X0290372Y0206991D01*
X0290241Y0206880D01*
X0290107Y0206773D01*
X0289970Y0206669D01*
X0289831Y0206568D01*
X0289689Y0206471D01*
X0289545Y0206377D01*
X0289399Y0206287D01*
X0289250Y0206200D01*
X0289100Y0206118D01*
X0288947Y0206038D01*
X0288793Y0205963D01*
X0288637Y0205892D01*
X0288479Y0205824D01*
X0288319Y0205760D01*
X0288158Y0205700D01*
X0287996Y0205644D01*
X0287832Y0205592D01*
X0287667Y0205545D01*
X0287501Y0205501D01*
X0287334Y0205461D01*
X0287166Y0205426D01*
X0286997Y0205394D01*
X0286827Y0205367D01*
X0286657Y0205344D01*
X0286486Y0205325D01*
X0286315Y0205310D01*
X0286143Y0205299D01*
X0285972Y0205293D01*
X0285800Y0205291D01*
X0285628Y0205293D01*
X0285457Y0205299D01*
X0285285Y0205310D01*
X0285114Y0205325D01*
X0284943Y0205344D01*
X0284773Y0205367D01*
X0284603Y0205394D01*
X0284434Y0205426D01*
X0284266Y0205461D01*
X0284099Y0205501D01*
X0283933Y0205545D01*
X0283768Y0205592D01*
X0283604Y0205644D01*
X0283442Y0205700D01*
X0283281Y0205760D01*
X0283121Y0205824D01*
X0282963Y0205892D01*
X0282807Y0205963D01*
X0282653Y0206038D01*
X0282500Y0206118D01*
X0282350Y0206200D01*
X0282201Y0206287D01*
X0282055Y0206377D01*
X0281911Y0206471D01*
X0281769Y0206568D01*
X0281630Y0206669D01*
X0281493Y0206773D01*
X0281359Y0206880D01*
X0281228Y0206991D01*
X0281099Y0207104D01*
X0280973Y0207221D01*
X0280850Y0207341D01*
X0280730Y0207464D01*
X0280613Y0207590D01*
X0280500Y0207719D01*
X0280389Y0207850D01*
X0280282Y0207984D01*
X0280178Y0208121D01*
X0280077Y0208260D01*
X0279980Y0208402D01*
X0279886Y0208546D01*
X0279796Y0208692D01*
X0279709Y0208841D01*
X0279627Y0208991D01*
X0279547Y0209144D01*
X0279472Y0209298D01*
X0279401Y0209454D01*
X0279333Y0209612D01*
X0279269Y0209772D01*
X0279209Y0209933D01*
X0279153Y0210095D01*
X0279101Y0210259D01*
X0279054Y0210424D01*
X0279010Y0210590D01*
X0278970Y0210757D01*
X0278935Y0210925D01*
X0278903Y0211094D01*
X0278876Y0211264D01*
X0278853Y0211434D01*
X0278834Y0211605D01*
X0278819Y0211776D01*
X0278808Y0211948D01*
X0278802Y0212119D01*
X0278800Y0212291D01*
X0330751Y0301291D02*
X0330753Y0301449D01*
X0330759Y0301607D01*
X0330769Y0301765D01*
X0330783Y0301923D01*
X0330801Y0302080D01*
X0330822Y0302237D01*
X0330848Y0302393D01*
X0330878Y0302549D01*
X0330911Y0302704D01*
X0330949Y0302857D01*
X0330990Y0303010D01*
X0331035Y0303162D01*
X0331084Y0303313D01*
X0331137Y0303462D01*
X0331193Y0303610D01*
X0331253Y0303756D01*
X0331317Y0303901D01*
X0331385Y0304044D01*
X0331456Y0304186D01*
X0331530Y0304326D01*
X0331608Y0304463D01*
X0331690Y0304599D01*
X0331774Y0304733D01*
X0331863Y0304864D01*
X0331954Y0304993D01*
X0332049Y0305120D01*
X0332146Y0305245D01*
X0332247Y0305367D01*
X0332351Y0305486D01*
X0332458Y0305603D01*
X0332568Y0305717D01*
X0332681Y0305828D01*
X0332796Y0305937D01*
X0332914Y0306042D01*
X0333035Y0306144D01*
X0333158Y0306244D01*
X0333284Y0306340D01*
X0333412Y0306433D01*
X0333542Y0306523D01*
X0333675Y0306609D01*
X0333810Y0306693D01*
X0333946Y0306772D01*
X0334085Y0306849D01*
X0334226Y0306921D01*
X0334368Y0306991D01*
X0334512Y0307056D01*
X0334658Y0307118D01*
X0334805Y0307176D01*
X0334954Y0307231D01*
X0335104Y0307282D01*
X0335255Y0307329D01*
X0335407Y0307372D01*
X0335560Y0307411D01*
X0335715Y0307447D01*
X0335870Y0307478D01*
X0336026Y0307506D01*
X0336182Y0307530D01*
X0336339Y0307550D01*
X0336497Y0307566D01*
X0336654Y0307578D01*
X0336813Y0307586D01*
X0336971Y0307590D01*
X0337129Y0307590D01*
X0337287Y0307586D01*
X0337446Y0307578D01*
X0337603Y0307566D01*
X0337761Y0307550D01*
X0337918Y0307530D01*
X0338074Y0307506D01*
X0338230Y0307478D01*
X0338385Y0307447D01*
X0338540Y0307411D01*
X0338693Y0307372D01*
X0338845Y0307329D01*
X0338996Y0307282D01*
X0339146Y0307231D01*
X0339295Y0307176D01*
X0339442Y0307118D01*
X0339588Y0307056D01*
X0339732Y0306991D01*
X0339874Y0306921D01*
X0340015Y0306849D01*
X0340154Y0306772D01*
X0340290Y0306693D01*
X0340425Y0306609D01*
X0340558Y0306523D01*
X0340688Y0306433D01*
X0340816Y0306340D01*
X0340942Y0306244D01*
X0341065Y0306144D01*
X0341186Y0306042D01*
X0341304Y0305937D01*
X0341419Y0305828D01*
X0341532Y0305717D01*
X0341642Y0305603D01*
X0341749Y0305486D01*
X0341853Y0305367D01*
X0341954Y0305245D01*
X0342051Y0305120D01*
X0342146Y0304993D01*
X0342237Y0304864D01*
X0342326Y0304733D01*
X0342410Y0304599D01*
X0342492Y0304463D01*
X0342570Y0304326D01*
X0342644Y0304186D01*
X0342715Y0304044D01*
X0342783Y0303901D01*
X0342847Y0303756D01*
X0342907Y0303610D01*
X0342963Y0303462D01*
X0343016Y0303313D01*
X0343065Y0303162D01*
X0343110Y0303010D01*
X0343151Y0302857D01*
X0343189Y0302704D01*
X0343222Y0302549D01*
X0343252Y0302393D01*
X0343278Y0302237D01*
X0343299Y0302080D01*
X0343317Y0301923D01*
X0343331Y0301765D01*
X0343341Y0301607D01*
X0343347Y0301449D01*
X0343349Y0301291D01*
X0343347Y0301133D01*
X0343341Y0300975D01*
X0343331Y0300817D01*
X0343317Y0300659D01*
X0343299Y0300502D01*
X0343278Y0300345D01*
X0343252Y0300189D01*
X0343222Y0300033D01*
X0343189Y0299878D01*
X0343151Y0299725D01*
X0343110Y0299572D01*
X0343065Y0299420D01*
X0343016Y0299269D01*
X0342963Y0299120D01*
X0342907Y0298972D01*
X0342847Y0298826D01*
X0342783Y0298681D01*
X0342715Y0298538D01*
X0342644Y0298396D01*
X0342570Y0298256D01*
X0342492Y0298119D01*
X0342410Y0297983D01*
X0342326Y0297849D01*
X0342237Y0297718D01*
X0342146Y0297589D01*
X0342051Y0297462D01*
X0341954Y0297337D01*
X0341853Y0297215D01*
X0341749Y0297096D01*
X0341642Y0296979D01*
X0341532Y0296865D01*
X0341419Y0296754D01*
X0341304Y0296645D01*
X0341186Y0296540D01*
X0341065Y0296438D01*
X0340942Y0296338D01*
X0340816Y0296242D01*
X0340688Y0296149D01*
X0340558Y0296059D01*
X0340425Y0295973D01*
X0340290Y0295889D01*
X0340154Y0295810D01*
X0340015Y0295733D01*
X0339874Y0295661D01*
X0339732Y0295591D01*
X0339588Y0295526D01*
X0339442Y0295464D01*
X0339295Y0295406D01*
X0339146Y0295351D01*
X0338996Y0295300D01*
X0338845Y0295253D01*
X0338693Y0295210D01*
X0338540Y0295171D01*
X0338385Y0295135D01*
X0338230Y0295104D01*
X0338074Y0295076D01*
X0337918Y0295052D01*
X0337761Y0295032D01*
X0337603Y0295016D01*
X0337446Y0295004D01*
X0337287Y0294996D01*
X0337129Y0294992D01*
X0336971Y0294992D01*
X0336813Y0294996D01*
X0336654Y0295004D01*
X0336497Y0295016D01*
X0336339Y0295032D01*
X0336182Y0295052D01*
X0336026Y0295076D01*
X0335870Y0295104D01*
X0335715Y0295135D01*
X0335560Y0295171D01*
X0335407Y0295210D01*
X0335255Y0295253D01*
X0335104Y0295300D01*
X0334954Y0295351D01*
X0334805Y0295406D01*
X0334658Y0295464D01*
X0334512Y0295526D01*
X0334368Y0295591D01*
X0334226Y0295661D01*
X0334085Y0295733D01*
X0333946Y0295810D01*
X0333810Y0295889D01*
X0333675Y0295973D01*
X0333542Y0296059D01*
X0333412Y0296149D01*
X0333284Y0296242D01*
X0333158Y0296338D01*
X0333035Y0296438D01*
X0332914Y0296540D01*
X0332796Y0296645D01*
X0332681Y0296754D01*
X0332568Y0296865D01*
X0332458Y0296979D01*
X0332351Y0297096D01*
X0332247Y0297215D01*
X0332146Y0297337D01*
X0332049Y0297462D01*
X0331954Y0297589D01*
X0331863Y0297718D01*
X0331774Y0297849D01*
X0331690Y0297983D01*
X0331608Y0298119D01*
X0331530Y0298256D01*
X0331456Y0298396D01*
X0331385Y0298538D01*
X0331317Y0298681D01*
X0331253Y0298826D01*
X0331193Y0298972D01*
X0331137Y0299120D01*
X0331084Y0299269D01*
X0331035Y0299420D01*
X0330990Y0299572D01*
X0330949Y0299725D01*
X0330911Y0299878D01*
X0330878Y0300033D01*
X0330848Y0300189D01*
X0330822Y0300345D01*
X0330801Y0300502D01*
X0330783Y0300659D01*
X0330769Y0300817D01*
X0330759Y0300975D01*
X0330753Y0301133D01*
X0330751Y0301291D01*
X0330751Y0031291D02*
X0330753Y0031449D01*
X0330759Y0031607D01*
X0330769Y0031765D01*
X0330783Y0031923D01*
X0330801Y0032080D01*
X0330822Y0032237D01*
X0330848Y0032393D01*
X0330878Y0032549D01*
X0330911Y0032704D01*
X0330949Y0032857D01*
X0330990Y0033010D01*
X0331035Y0033162D01*
X0331084Y0033313D01*
X0331137Y0033462D01*
X0331193Y0033610D01*
X0331253Y0033756D01*
X0331317Y0033901D01*
X0331385Y0034044D01*
X0331456Y0034186D01*
X0331530Y0034326D01*
X0331608Y0034463D01*
X0331690Y0034599D01*
X0331774Y0034733D01*
X0331863Y0034864D01*
X0331954Y0034993D01*
X0332049Y0035120D01*
X0332146Y0035245D01*
X0332247Y0035367D01*
X0332351Y0035486D01*
X0332458Y0035603D01*
X0332568Y0035717D01*
X0332681Y0035828D01*
X0332796Y0035937D01*
X0332914Y0036042D01*
X0333035Y0036144D01*
X0333158Y0036244D01*
X0333284Y0036340D01*
X0333412Y0036433D01*
X0333542Y0036523D01*
X0333675Y0036609D01*
X0333810Y0036693D01*
X0333946Y0036772D01*
X0334085Y0036849D01*
X0334226Y0036921D01*
X0334368Y0036991D01*
X0334512Y0037056D01*
X0334658Y0037118D01*
X0334805Y0037176D01*
X0334954Y0037231D01*
X0335104Y0037282D01*
X0335255Y0037329D01*
X0335407Y0037372D01*
X0335560Y0037411D01*
X0335715Y0037447D01*
X0335870Y0037478D01*
X0336026Y0037506D01*
X0336182Y0037530D01*
X0336339Y0037550D01*
X0336497Y0037566D01*
X0336654Y0037578D01*
X0336813Y0037586D01*
X0336971Y0037590D01*
X0337129Y0037590D01*
X0337287Y0037586D01*
X0337446Y0037578D01*
X0337603Y0037566D01*
X0337761Y0037550D01*
X0337918Y0037530D01*
X0338074Y0037506D01*
X0338230Y0037478D01*
X0338385Y0037447D01*
X0338540Y0037411D01*
X0338693Y0037372D01*
X0338845Y0037329D01*
X0338996Y0037282D01*
X0339146Y0037231D01*
X0339295Y0037176D01*
X0339442Y0037118D01*
X0339588Y0037056D01*
X0339732Y0036991D01*
X0339874Y0036921D01*
X0340015Y0036849D01*
X0340154Y0036772D01*
X0340290Y0036693D01*
X0340425Y0036609D01*
X0340558Y0036523D01*
X0340688Y0036433D01*
X0340816Y0036340D01*
X0340942Y0036244D01*
X0341065Y0036144D01*
X0341186Y0036042D01*
X0341304Y0035937D01*
X0341419Y0035828D01*
X0341532Y0035717D01*
X0341642Y0035603D01*
X0341749Y0035486D01*
X0341853Y0035367D01*
X0341954Y0035245D01*
X0342051Y0035120D01*
X0342146Y0034993D01*
X0342237Y0034864D01*
X0342326Y0034733D01*
X0342410Y0034599D01*
X0342492Y0034463D01*
X0342570Y0034326D01*
X0342644Y0034186D01*
X0342715Y0034044D01*
X0342783Y0033901D01*
X0342847Y0033756D01*
X0342907Y0033610D01*
X0342963Y0033462D01*
X0343016Y0033313D01*
X0343065Y0033162D01*
X0343110Y0033010D01*
X0343151Y0032857D01*
X0343189Y0032704D01*
X0343222Y0032549D01*
X0343252Y0032393D01*
X0343278Y0032237D01*
X0343299Y0032080D01*
X0343317Y0031923D01*
X0343331Y0031765D01*
X0343341Y0031607D01*
X0343347Y0031449D01*
X0343349Y0031291D01*
X0343347Y0031133D01*
X0343341Y0030975D01*
X0343331Y0030817D01*
X0343317Y0030659D01*
X0343299Y0030502D01*
X0343278Y0030345D01*
X0343252Y0030189D01*
X0343222Y0030033D01*
X0343189Y0029878D01*
X0343151Y0029725D01*
X0343110Y0029572D01*
X0343065Y0029420D01*
X0343016Y0029269D01*
X0342963Y0029120D01*
X0342907Y0028972D01*
X0342847Y0028826D01*
X0342783Y0028681D01*
X0342715Y0028538D01*
X0342644Y0028396D01*
X0342570Y0028256D01*
X0342492Y0028119D01*
X0342410Y0027983D01*
X0342326Y0027849D01*
X0342237Y0027718D01*
X0342146Y0027589D01*
X0342051Y0027462D01*
X0341954Y0027337D01*
X0341853Y0027215D01*
X0341749Y0027096D01*
X0341642Y0026979D01*
X0341532Y0026865D01*
X0341419Y0026754D01*
X0341304Y0026645D01*
X0341186Y0026540D01*
X0341065Y0026438D01*
X0340942Y0026338D01*
X0340816Y0026242D01*
X0340688Y0026149D01*
X0340558Y0026059D01*
X0340425Y0025973D01*
X0340290Y0025889D01*
X0340154Y0025810D01*
X0340015Y0025733D01*
X0339874Y0025661D01*
X0339732Y0025591D01*
X0339588Y0025526D01*
X0339442Y0025464D01*
X0339295Y0025406D01*
X0339146Y0025351D01*
X0338996Y0025300D01*
X0338845Y0025253D01*
X0338693Y0025210D01*
X0338540Y0025171D01*
X0338385Y0025135D01*
X0338230Y0025104D01*
X0338074Y0025076D01*
X0337918Y0025052D01*
X0337761Y0025032D01*
X0337603Y0025016D01*
X0337446Y0025004D01*
X0337287Y0024996D01*
X0337129Y0024992D01*
X0336971Y0024992D01*
X0336813Y0024996D01*
X0336654Y0025004D01*
X0336497Y0025016D01*
X0336339Y0025032D01*
X0336182Y0025052D01*
X0336026Y0025076D01*
X0335870Y0025104D01*
X0335715Y0025135D01*
X0335560Y0025171D01*
X0335407Y0025210D01*
X0335255Y0025253D01*
X0335104Y0025300D01*
X0334954Y0025351D01*
X0334805Y0025406D01*
X0334658Y0025464D01*
X0334512Y0025526D01*
X0334368Y0025591D01*
X0334226Y0025661D01*
X0334085Y0025733D01*
X0333946Y0025810D01*
X0333810Y0025889D01*
X0333675Y0025973D01*
X0333542Y0026059D01*
X0333412Y0026149D01*
X0333284Y0026242D01*
X0333158Y0026338D01*
X0333035Y0026438D01*
X0332914Y0026540D01*
X0332796Y0026645D01*
X0332681Y0026754D01*
X0332568Y0026865D01*
X0332458Y0026979D01*
X0332351Y0027096D01*
X0332247Y0027215D01*
X0332146Y0027337D01*
X0332049Y0027462D01*
X0331954Y0027589D01*
X0331863Y0027718D01*
X0331774Y0027849D01*
X0331690Y0027983D01*
X0331608Y0028119D01*
X0331530Y0028256D01*
X0331456Y0028396D01*
X0331385Y0028538D01*
X0331317Y0028681D01*
X0331253Y0028826D01*
X0331193Y0028972D01*
X0331137Y0029120D01*
X0331084Y0029269D01*
X0331035Y0029420D01*
X0330990Y0029572D01*
X0330949Y0029725D01*
X0330911Y0029878D01*
X0330878Y0030033D01*
X0330848Y0030189D01*
X0330822Y0030345D01*
X0330801Y0030502D01*
X0330783Y0030659D01*
X0330769Y0030817D01*
X0330759Y0030975D01*
X0330753Y0031133D01*
X0330751Y0031291D01*
D11*
X0337050Y0031291D03*
X0337050Y0301291D03*
X0017050Y0301291D03*
X0017050Y0031291D03*
D12*
X0030961Y0181291D02*
X0038639Y0181291D01*
X0315461Y0181291D02*
X0323139Y0181291D01*
D13*
X0285800Y0212291D03*
X0068300Y0150291D03*
D14*
X0035300Y0212291D03*
D15*
X0337050Y0230291D03*
X0337050Y0282291D03*
D16*
X0319550Y0291291D03*
X0309550Y0291291D03*
X0299550Y0291291D03*
X0289550Y0291291D03*
X0279550Y0291291D03*
X0269550Y0291291D03*
X0259550Y0291291D03*
X0249550Y0291291D03*
X0239550Y0291291D03*
X0229550Y0291291D03*
X0214550Y0301291D03*
X0204550Y0301291D03*
X0194550Y0301291D03*
X0192050Y0271291D03*
X0202050Y0271291D03*
X0212050Y0271291D03*
X0209550Y0233791D03*
X0199550Y0233791D03*
X0189550Y0233791D03*
X0179550Y0233791D03*
X0169550Y0233791D03*
X0159550Y0233791D03*
X0157050Y0271291D03*
X0147050Y0271291D03*
X0167050Y0271291D03*
X0219550Y0233791D03*
X0229550Y0233791D03*
X0239550Y0233791D03*
X0249550Y0233791D03*
X0259550Y0233791D03*
X0112050Y0235041D03*
X0102050Y0235041D03*
X0092050Y0235041D03*
X0082050Y0235041D03*
X0072050Y0235041D03*
X0062050Y0235041D03*
X0052050Y0235041D03*
D17*
X0042050Y0235041D03*
X0177050Y0271291D03*
X0222050Y0271291D03*
D18*
X0160908Y0028791D03*
X0143192Y0028791D03*
D19*
X0138270Y0038831D03*
X0165830Y0038831D03*
M02*
