G75*
%MOIN*%
%OFA0B0*%
%FSLAX25Y25*%
%IPPOS*%
%LPD*%
%AMOC8*
5,1,8,0,0,1.08239X$1,22.5*
%
%ADD10C,0.00000*%
%ADD11C,0.01200*%
%ADD12C,0.00600*%
%ADD13C,0.02300*%
%ADD14C,0.01100*%
%ADD15C,0.00800*%
%ADD16C,0.00500*%
%ADD17C,0.00945*%
%ADD18C,0.01000*%
%ADD19C,0.02200*%
%ADD20R,0.07480X0.01181*%
%ADD21R,0.03000X0.01800*%
%ADD22R,0.01800X0.03000*%
%ADD23C,0.01682*%
%ADD24R,0.01575X0.02362*%
D10*
X0002050Y0016291D02*
X0002050Y0316291D01*
X0352050Y0316291D01*
X0352050Y0016291D01*
X0002050Y0016291D01*
X0010751Y0031291D02*
X0010753Y0031449D01*
X0010759Y0031607D01*
X0010769Y0031765D01*
X0010783Y0031923D01*
X0010801Y0032080D01*
X0010822Y0032237D01*
X0010848Y0032393D01*
X0010878Y0032549D01*
X0010911Y0032704D01*
X0010949Y0032857D01*
X0010990Y0033010D01*
X0011035Y0033162D01*
X0011084Y0033313D01*
X0011137Y0033462D01*
X0011193Y0033610D01*
X0011253Y0033756D01*
X0011317Y0033901D01*
X0011385Y0034044D01*
X0011456Y0034186D01*
X0011530Y0034326D01*
X0011608Y0034463D01*
X0011690Y0034599D01*
X0011774Y0034733D01*
X0011863Y0034864D01*
X0011954Y0034993D01*
X0012049Y0035120D01*
X0012146Y0035245D01*
X0012247Y0035367D01*
X0012351Y0035486D01*
X0012458Y0035603D01*
X0012568Y0035717D01*
X0012681Y0035828D01*
X0012796Y0035937D01*
X0012914Y0036042D01*
X0013035Y0036144D01*
X0013158Y0036244D01*
X0013284Y0036340D01*
X0013412Y0036433D01*
X0013542Y0036523D01*
X0013675Y0036609D01*
X0013810Y0036693D01*
X0013946Y0036772D01*
X0014085Y0036849D01*
X0014226Y0036921D01*
X0014368Y0036991D01*
X0014512Y0037056D01*
X0014658Y0037118D01*
X0014805Y0037176D01*
X0014954Y0037231D01*
X0015104Y0037282D01*
X0015255Y0037329D01*
X0015407Y0037372D01*
X0015560Y0037411D01*
X0015715Y0037447D01*
X0015870Y0037478D01*
X0016026Y0037506D01*
X0016182Y0037530D01*
X0016339Y0037550D01*
X0016497Y0037566D01*
X0016654Y0037578D01*
X0016813Y0037586D01*
X0016971Y0037590D01*
X0017129Y0037590D01*
X0017287Y0037586D01*
X0017446Y0037578D01*
X0017603Y0037566D01*
X0017761Y0037550D01*
X0017918Y0037530D01*
X0018074Y0037506D01*
X0018230Y0037478D01*
X0018385Y0037447D01*
X0018540Y0037411D01*
X0018693Y0037372D01*
X0018845Y0037329D01*
X0018996Y0037282D01*
X0019146Y0037231D01*
X0019295Y0037176D01*
X0019442Y0037118D01*
X0019588Y0037056D01*
X0019732Y0036991D01*
X0019874Y0036921D01*
X0020015Y0036849D01*
X0020154Y0036772D01*
X0020290Y0036693D01*
X0020425Y0036609D01*
X0020558Y0036523D01*
X0020688Y0036433D01*
X0020816Y0036340D01*
X0020942Y0036244D01*
X0021065Y0036144D01*
X0021186Y0036042D01*
X0021304Y0035937D01*
X0021419Y0035828D01*
X0021532Y0035717D01*
X0021642Y0035603D01*
X0021749Y0035486D01*
X0021853Y0035367D01*
X0021954Y0035245D01*
X0022051Y0035120D01*
X0022146Y0034993D01*
X0022237Y0034864D01*
X0022326Y0034733D01*
X0022410Y0034599D01*
X0022492Y0034463D01*
X0022570Y0034326D01*
X0022644Y0034186D01*
X0022715Y0034044D01*
X0022783Y0033901D01*
X0022847Y0033756D01*
X0022907Y0033610D01*
X0022963Y0033462D01*
X0023016Y0033313D01*
X0023065Y0033162D01*
X0023110Y0033010D01*
X0023151Y0032857D01*
X0023189Y0032704D01*
X0023222Y0032549D01*
X0023252Y0032393D01*
X0023278Y0032237D01*
X0023299Y0032080D01*
X0023317Y0031923D01*
X0023331Y0031765D01*
X0023341Y0031607D01*
X0023347Y0031449D01*
X0023349Y0031291D01*
X0023347Y0031133D01*
X0023341Y0030975D01*
X0023331Y0030817D01*
X0023317Y0030659D01*
X0023299Y0030502D01*
X0023278Y0030345D01*
X0023252Y0030189D01*
X0023222Y0030033D01*
X0023189Y0029878D01*
X0023151Y0029725D01*
X0023110Y0029572D01*
X0023065Y0029420D01*
X0023016Y0029269D01*
X0022963Y0029120D01*
X0022907Y0028972D01*
X0022847Y0028826D01*
X0022783Y0028681D01*
X0022715Y0028538D01*
X0022644Y0028396D01*
X0022570Y0028256D01*
X0022492Y0028119D01*
X0022410Y0027983D01*
X0022326Y0027849D01*
X0022237Y0027718D01*
X0022146Y0027589D01*
X0022051Y0027462D01*
X0021954Y0027337D01*
X0021853Y0027215D01*
X0021749Y0027096D01*
X0021642Y0026979D01*
X0021532Y0026865D01*
X0021419Y0026754D01*
X0021304Y0026645D01*
X0021186Y0026540D01*
X0021065Y0026438D01*
X0020942Y0026338D01*
X0020816Y0026242D01*
X0020688Y0026149D01*
X0020558Y0026059D01*
X0020425Y0025973D01*
X0020290Y0025889D01*
X0020154Y0025810D01*
X0020015Y0025733D01*
X0019874Y0025661D01*
X0019732Y0025591D01*
X0019588Y0025526D01*
X0019442Y0025464D01*
X0019295Y0025406D01*
X0019146Y0025351D01*
X0018996Y0025300D01*
X0018845Y0025253D01*
X0018693Y0025210D01*
X0018540Y0025171D01*
X0018385Y0025135D01*
X0018230Y0025104D01*
X0018074Y0025076D01*
X0017918Y0025052D01*
X0017761Y0025032D01*
X0017603Y0025016D01*
X0017446Y0025004D01*
X0017287Y0024996D01*
X0017129Y0024992D01*
X0016971Y0024992D01*
X0016813Y0024996D01*
X0016654Y0025004D01*
X0016497Y0025016D01*
X0016339Y0025032D01*
X0016182Y0025052D01*
X0016026Y0025076D01*
X0015870Y0025104D01*
X0015715Y0025135D01*
X0015560Y0025171D01*
X0015407Y0025210D01*
X0015255Y0025253D01*
X0015104Y0025300D01*
X0014954Y0025351D01*
X0014805Y0025406D01*
X0014658Y0025464D01*
X0014512Y0025526D01*
X0014368Y0025591D01*
X0014226Y0025661D01*
X0014085Y0025733D01*
X0013946Y0025810D01*
X0013810Y0025889D01*
X0013675Y0025973D01*
X0013542Y0026059D01*
X0013412Y0026149D01*
X0013284Y0026242D01*
X0013158Y0026338D01*
X0013035Y0026438D01*
X0012914Y0026540D01*
X0012796Y0026645D01*
X0012681Y0026754D01*
X0012568Y0026865D01*
X0012458Y0026979D01*
X0012351Y0027096D01*
X0012247Y0027215D01*
X0012146Y0027337D01*
X0012049Y0027462D01*
X0011954Y0027589D01*
X0011863Y0027718D01*
X0011774Y0027849D01*
X0011690Y0027983D01*
X0011608Y0028119D01*
X0011530Y0028256D01*
X0011456Y0028396D01*
X0011385Y0028538D01*
X0011317Y0028681D01*
X0011253Y0028826D01*
X0011193Y0028972D01*
X0011137Y0029120D01*
X0011084Y0029269D01*
X0011035Y0029420D01*
X0010990Y0029572D01*
X0010949Y0029725D01*
X0010911Y0029878D01*
X0010878Y0030033D01*
X0010848Y0030189D01*
X0010822Y0030345D01*
X0010801Y0030502D01*
X0010783Y0030659D01*
X0010769Y0030817D01*
X0010759Y0030975D01*
X0010753Y0031133D01*
X0010751Y0031291D01*
X0061300Y0150291D02*
X0061302Y0150463D01*
X0061308Y0150634D01*
X0061319Y0150806D01*
X0061334Y0150977D01*
X0061353Y0151148D01*
X0061376Y0151318D01*
X0061403Y0151488D01*
X0061435Y0151657D01*
X0061470Y0151825D01*
X0061510Y0151992D01*
X0061554Y0152158D01*
X0061601Y0152323D01*
X0061653Y0152487D01*
X0061709Y0152649D01*
X0061769Y0152810D01*
X0061833Y0152970D01*
X0061901Y0153128D01*
X0061972Y0153284D01*
X0062047Y0153438D01*
X0062127Y0153591D01*
X0062209Y0153741D01*
X0062296Y0153890D01*
X0062386Y0154036D01*
X0062480Y0154180D01*
X0062577Y0154322D01*
X0062678Y0154461D01*
X0062782Y0154598D01*
X0062889Y0154732D01*
X0063000Y0154863D01*
X0063113Y0154992D01*
X0063230Y0155118D01*
X0063350Y0155241D01*
X0063473Y0155361D01*
X0063599Y0155478D01*
X0063728Y0155591D01*
X0063859Y0155702D01*
X0063993Y0155809D01*
X0064130Y0155913D01*
X0064269Y0156014D01*
X0064411Y0156111D01*
X0064555Y0156205D01*
X0064701Y0156295D01*
X0064850Y0156382D01*
X0065000Y0156464D01*
X0065153Y0156544D01*
X0065307Y0156619D01*
X0065463Y0156690D01*
X0065621Y0156758D01*
X0065781Y0156822D01*
X0065942Y0156882D01*
X0066104Y0156938D01*
X0066268Y0156990D01*
X0066433Y0157037D01*
X0066599Y0157081D01*
X0066766Y0157121D01*
X0066934Y0157156D01*
X0067103Y0157188D01*
X0067273Y0157215D01*
X0067443Y0157238D01*
X0067614Y0157257D01*
X0067785Y0157272D01*
X0067957Y0157283D01*
X0068128Y0157289D01*
X0068300Y0157291D01*
X0068472Y0157289D01*
X0068643Y0157283D01*
X0068815Y0157272D01*
X0068986Y0157257D01*
X0069157Y0157238D01*
X0069327Y0157215D01*
X0069497Y0157188D01*
X0069666Y0157156D01*
X0069834Y0157121D01*
X0070001Y0157081D01*
X0070167Y0157037D01*
X0070332Y0156990D01*
X0070496Y0156938D01*
X0070658Y0156882D01*
X0070819Y0156822D01*
X0070979Y0156758D01*
X0071137Y0156690D01*
X0071293Y0156619D01*
X0071447Y0156544D01*
X0071600Y0156464D01*
X0071750Y0156382D01*
X0071899Y0156295D01*
X0072045Y0156205D01*
X0072189Y0156111D01*
X0072331Y0156014D01*
X0072470Y0155913D01*
X0072607Y0155809D01*
X0072741Y0155702D01*
X0072872Y0155591D01*
X0073001Y0155478D01*
X0073127Y0155361D01*
X0073250Y0155241D01*
X0073370Y0155118D01*
X0073487Y0154992D01*
X0073600Y0154863D01*
X0073711Y0154732D01*
X0073818Y0154598D01*
X0073922Y0154461D01*
X0074023Y0154322D01*
X0074120Y0154180D01*
X0074214Y0154036D01*
X0074304Y0153890D01*
X0074391Y0153741D01*
X0074473Y0153591D01*
X0074553Y0153438D01*
X0074628Y0153284D01*
X0074699Y0153128D01*
X0074767Y0152970D01*
X0074831Y0152810D01*
X0074891Y0152649D01*
X0074947Y0152487D01*
X0074999Y0152323D01*
X0075046Y0152158D01*
X0075090Y0151992D01*
X0075130Y0151825D01*
X0075165Y0151657D01*
X0075197Y0151488D01*
X0075224Y0151318D01*
X0075247Y0151148D01*
X0075266Y0150977D01*
X0075281Y0150806D01*
X0075292Y0150634D01*
X0075298Y0150463D01*
X0075300Y0150291D01*
X0075298Y0150119D01*
X0075292Y0149948D01*
X0075281Y0149776D01*
X0075266Y0149605D01*
X0075247Y0149434D01*
X0075224Y0149264D01*
X0075197Y0149094D01*
X0075165Y0148925D01*
X0075130Y0148757D01*
X0075090Y0148590D01*
X0075046Y0148424D01*
X0074999Y0148259D01*
X0074947Y0148095D01*
X0074891Y0147933D01*
X0074831Y0147772D01*
X0074767Y0147612D01*
X0074699Y0147454D01*
X0074628Y0147298D01*
X0074553Y0147144D01*
X0074473Y0146991D01*
X0074391Y0146841D01*
X0074304Y0146692D01*
X0074214Y0146546D01*
X0074120Y0146402D01*
X0074023Y0146260D01*
X0073922Y0146121D01*
X0073818Y0145984D01*
X0073711Y0145850D01*
X0073600Y0145719D01*
X0073487Y0145590D01*
X0073370Y0145464D01*
X0073250Y0145341D01*
X0073127Y0145221D01*
X0073001Y0145104D01*
X0072872Y0144991D01*
X0072741Y0144880D01*
X0072607Y0144773D01*
X0072470Y0144669D01*
X0072331Y0144568D01*
X0072189Y0144471D01*
X0072045Y0144377D01*
X0071899Y0144287D01*
X0071750Y0144200D01*
X0071600Y0144118D01*
X0071447Y0144038D01*
X0071293Y0143963D01*
X0071137Y0143892D01*
X0070979Y0143824D01*
X0070819Y0143760D01*
X0070658Y0143700D01*
X0070496Y0143644D01*
X0070332Y0143592D01*
X0070167Y0143545D01*
X0070001Y0143501D01*
X0069834Y0143461D01*
X0069666Y0143426D01*
X0069497Y0143394D01*
X0069327Y0143367D01*
X0069157Y0143344D01*
X0068986Y0143325D01*
X0068815Y0143310D01*
X0068643Y0143299D01*
X0068472Y0143293D01*
X0068300Y0143291D01*
X0068128Y0143293D01*
X0067957Y0143299D01*
X0067785Y0143310D01*
X0067614Y0143325D01*
X0067443Y0143344D01*
X0067273Y0143367D01*
X0067103Y0143394D01*
X0066934Y0143426D01*
X0066766Y0143461D01*
X0066599Y0143501D01*
X0066433Y0143545D01*
X0066268Y0143592D01*
X0066104Y0143644D01*
X0065942Y0143700D01*
X0065781Y0143760D01*
X0065621Y0143824D01*
X0065463Y0143892D01*
X0065307Y0143963D01*
X0065153Y0144038D01*
X0065000Y0144118D01*
X0064850Y0144200D01*
X0064701Y0144287D01*
X0064555Y0144377D01*
X0064411Y0144471D01*
X0064269Y0144568D01*
X0064130Y0144669D01*
X0063993Y0144773D01*
X0063859Y0144880D01*
X0063728Y0144991D01*
X0063599Y0145104D01*
X0063473Y0145221D01*
X0063350Y0145341D01*
X0063230Y0145464D01*
X0063113Y0145590D01*
X0063000Y0145719D01*
X0062889Y0145850D01*
X0062782Y0145984D01*
X0062678Y0146121D01*
X0062577Y0146260D01*
X0062480Y0146402D01*
X0062386Y0146546D01*
X0062296Y0146692D01*
X0062209Y0146841D01*
X0062127Y0146991D01*
X0062047Y0147144D01*
X0061972Y0147298D01*
X0061901Y0147454D01*
X0061833Y0147612D01*
X0061769Y0147772D01*
X0061709Y0147933D01*
X0061653Y0148095D01*
X0061601Y0148259D01*
X0061554Y0148424D01*
X0061510Y0148590D01*
X0061470Y0148757D01*
X0061435Y0148925D01*
X0061403Y0149094D01*
X0061376Y0149264D01*
X0061353Y0149434D01*
X0061334Y0149605D01*
X0061319Y0149776D01*
X0061308Y0149948D01*
X0061302Y0150119D01*
X0061300Y0150291D01*
X0029788Y0212291D02*
X0029790Y0212439D01*
X0029796Y0212587D01*
X0029806Y0212735D01*
X0029820Y0212882D01*
X0029838Y0213029D01*
X0029859Y0213175D01*
X0029885Y0213321D01*
X0029915Y0213466D01*
X0029948Y0213610D01*
X0029986Y0213753D01*
X0030027Y0213895D01*
X0030072Y0214036D01*
X0030120Y0214176D01*
X0030173Y0214315D01*
X0030229Y0214452D01*
X0030289Y0214587D01*
X0030352Y0214721D01*
X0030419Y0214853D01*
X0030490Y0214983D01*
X0030564Y0215111D01*
X0030641Y0215237D01*
X0030722Y0215361D01*
X0030806Y0215483D01*
X0030893Y0215602D01*
X0030984Y0215719D01*
X0031078Y0215834D01*
X0031174Y0215946D01*
X0031274Y0216056D01*
X0031376Y0216162D01*
X0031482Y0216266D01*
X0031590Y0216367D01*
X0031701Y0216465D01*
X0031814Y0216561D01*
X0031930Y0216653D01*
X0032048Y0216742D01*
X0032169Y0216827D01*
X0032292Y0216910D01*
X0032417Y0216989D01*
X0032544Y0217065D01*
X0032673Y0217137D01*
X0032804Y0217206D01*
X0032937Y0217271D01*
X0033072Y0217332D01*
X0033208Y0217390D01*
X0033345Y0217445D01*
X0033484Y0217495D01*
X0033625Y0217542D01*
X0033766Y0217585D01*
X0033909Y0217625D01*
X0034053Y0217660D01*
X0034197Y0217692D01*
X0034343Y0217719D01*
X0034489Y0217743D01*
X0034636Y0217763D01*
X0034783Y0217779D01*
X0034930Y0217791D01*
X0035078Y0217799D01*
X0035226Y0217803D01*
X0035374Y0217803D01*
X0035522Y0217799D01*
X0035670Y0217791D01*
X0035817Y0217779D01*
X0035964Y0217763D01*
X0036111Y0217743D01*
X0036257Y0217719D01*
X0036403Y0217692D01*
X0036547Y0217660D01*
X0036691Y0217625D01*
X0036834Y0217585D01*
X0036975Y0217542D01*
X0037116Y0217495D01*
X0037255Y0217445D01*
X0037392Y0217390D01*
X0037528Y0217332D01*
X0037663Y0217271D01*
X0037796Y0217206D01*
X0037927Y0217137D01*
X0038056Y0217065D01*
X0038183Y0216989D01*
X0038308Y0216910D01*
X0038431Y0216827D01*
X0038552Y0216742D01*
X0038670Y0216653D01*
X0038786Y0216561D01*
X0038899Y0216465D01*
X0039010Y0216367D01*
X0039118Y0216266D01*
X0039224Y0216162D01*
X0039326Y0216056D01*
X0039426Y0215946D01*
X0039522Y0215834D01*
X0039616Y0215719D01*
X0039707Y0215602D01*
X0039794Y0215483D01*
X0039878Y0215361D01*
X0039959Y0215237D01*
X0040036Y0215111D01*
X0040110Y0214983D01*
X0040181Y0214853D01*
X0040248Y0214721D01*
X0040311Y0214587D01*
X0040371Y0214452D01*
X0040427Y0214315D01*
X0040480Y0214176D01*
X0040528Y0214036D01*
X0040573Y0213895D01*
X0040614Y0213753D01*
X0040652Y0213610D01*
X0040685Y0213466D01*
X0040715Y0213321D01*
X0040741Y0213175D01*
X0040762Y0213029D01*
X0040780Y0212882D01*
X0040794Y0212735D01*
X0040804Y0212587D01*
X0040810Y0212439D01*
X0040812Y0212291D01*
X0040810Y0212143D01*
X0040804Y0211995D01*
X0040794Y0211847D01*
X0040780Y0211700D01*
X0040762Y0211553D01*
X0040741Y0211407D01*
X0040715Y0211261D01*
X0040685Y0211116D01*
X0040652Y0210972D01*
X0040614Y0210829D01*
X0040573Y0210687D01*
X0040528Y0210546D01*
X0040480Y0210406D01*
X0040427Y0210267D01*
X0040371Y0210130D01*
X0040311Y0209995D01*
X0040248Y0209861D01*
X0040181Y0209729D01*
X0040110Y0209599D01*
X0040036Y0209471D01*
X0039959Y0209345D01*
X0039878Y0209221D01*
X0039794Y0209099D01*
X0039707Y0208980D01*
X0039616Y0208863D01*
X0039522Y0208748D01*
X0039426Y0208636D01*
X0039326Y0208526D01*
X0039224Y0208420D01*
X0039118Y0208316D01*
X0039010Y0208215D01*
X0038899Y0208117D01*
X0038786Y0208021D01*
X0038670Y0207929D01*
X0038552Y0207840D01*
X0038431Y0207755D01*
X0038308Y0207672D01*
X0038183Y0207593D01*
X0038056Y0207517D01*
X0037927Y0207445D01*
X0037796Y0207376D01*
X0037663Y0207311D01*
X0037528Y0207250D01*
X0037392Y0207192D01*
X0037255Y0207137D01*
X0037116Y0207087D01*
X0036975Y0207040D01*
X0036834Y0206997D01*
X0036691Y0206957D01*
X0036547Y0206922D01*
X0036403Y0206890D01*
X0036257Y0206863D01*
X0036111Y0206839D01*
X0035964Y0206819D01*
X0035817Y0206803D01*
X0035670Y0206791D01*
X0035522Y0206783D01*
X0035374Y0206779D01*
X0035226Y0206779D01*
X0035078Y0206783D01*
X0034930Y0206791D01*
X0034783Y0206803D01*
X0034636Y0206819D01*
X0034489Y0206839D01*
X0034343Y0206863D01*
X0034197Y0206890D01*
X0034053Y0206922D01*
X0033909Y0206957D01*
X0033766Y0206997D01*
X0033625Y0207040D01*
X0033484Y0207087D01*
X0033345Y0207137D01*
X0033208Y0207192D01*
X0033072Y0207250D01*
X0032937Y0207311D01*
X0032804Y0207376D01*
X0032673Y0207445D01*
X0032544Y0207517D01*
X0032417Y0207593D01*
X0032292Y0207672D01*
X0032169Y0207755D01*
X0032048Y0207840D01*
X0031930Y0207929D01*
X0031814Y0208021D01*
X0031701Y0208117D01*
X0031590Y0208215D01*
X0031482Y0208316D01*
X0031376Y0208420D01*
X0031274Y0208526D01*
X0031174Y0208636D01*
X0031078Y0208748D01*
X0030984Y0208863D01*
X0030893Y0208980D01*
X0030806Y0209099D01*
X0030722Y0209221D01*
X0030641Y0209345D01*
X0030564Y0209471D01*
X0030490Y0209599D01*
X0030419Y0209729D01*
X0030352Y0209861D01*
X0030289Y0209995D01*
X0030229Y0210130D01*
X0030173Y0210267D01*
X0030120Y0210406D01*
X0030072Y0210546D01*
X0030027Y0210687D01*
X0029986Y0210829D01*
X0029948Y0210972D01*
X0029915Y0211116D01*
X0029885Y0211261D01*
X0029859Y0211407D01*
X0029838Y0211553D01*
X0029820Y0211700D01*
X0029806Y0211847D01*
X0029796Y0211995D01*
X0029790Y0212143D01*
X0029788Y0212291D01*
X0010751Y0301291D02*
X0010753Y0301449D01*
X0010759Y0301607D01*
X0010769Y0301765D01*
X0010783Y0301923D01*
X0010801Y0302080D01*
X0010822Y0302237D01*
X0010848Y0302393D01*
X0010878Y0302549D01*
X0010911Y0302704D01*
X0010949Y0302857D01*
X0010990Y0303010D01*
X0011035Y0303162D01*
X0011084Y0303313D01*
X0011137Y0303462D01*
X0011193Y0303610D01*
X0011253Y0303756D01*
X0011317Y0303901D01*
X0011385Y0304044D01*
X0011456Y0304186D01*
X0011530Y0304326D01*
X0011608Y0304463D01*
X0011690Y0304599D01*
X0011774Y0304733D01*
X0011863Y0304864D01*
X0011954Y0304993D01*
X0012049Y0305120D01*
X0012146Y0305245D01*
X0012247Y0305367D01*
X0012351Y0305486D01*
X0012458Y0305603D01*
X0012568Y0305717D01*
X0012681Y0305828D01*
X0012796Y0305937D01*
X0012914Y0306042D01*
X0013035Y0306144D01*
X0013158Y0306244D01*
X0013284Y0306340D01*
X0013412Y0306433D01*
X0013542Y0306523D01*
X0013675Y0306609D01*
X0013810Y0306693D01*
X0013946Y0306772D01*
X0014085Y0306849D01*
X0014226Y0306921D01*
X0014368Y0306991D01*
X0014512Y0307056D01*
X0014658Y0307118D01*
X0014805Y0307176D01*
X0014954Y0307231D01*
X0015104Y0307282D01*
X0015255Y0307329D01*
X0015407Y0307372D01*
X0015560Y0307411D01*
X0015715Y0307447D01*
X0015870Y0307478D01*
X0016026Y0307506D01*
X0016182Y0307530D01*
X0016339Y0307550D01*
X0016497Y0307566D01*
X0016654Y0307578D01*
X0016813Y0307586D01*
X0016971Y0307590D01*
X0017129Y0307590D01*
X0017287Y0307586D01*
X0017446Y0307578D01*
X0017603Y0307566D01*
X0017761Y0307550D01*
X0017918Y0307530D01*
X0018074Y0307506D01*
X0018230Y0307478D01*
X0018385Y0307447D01*
X0018540Y0307411D01*
X0018693Y0307372D01*
X0018845Y0307329D01*
X0018996Y0307282D01*
X0019146Y0307231D01*
X0019295Y0307176D01*
X0019442Y0307118D01*
X0019588Y0307056D01*
X0019732Y0306991D01*
X0019874Y0306921D01*
X0020015Y0306849D01*
X0020154Y0306772D01*
X0020290Y0306693D01*
X0020425Y0306609D01*
X0020558Y0306523D01*
X0020688Y0306433D01*
X0020816Y0306340D01*
X0020942Y0306244D01*
X0021065Y0306144D01*
X0021186Y0306042D01*
X0021304Y0305937D01*
X0021419Y0305828D01*
X0021532Y0305717D01*
X0021642Y0305603D01*
X0021749Y0305486D01*
X0021853Y0305367D01*
X0021954Y0305245D01*
X0022051Y0305120D01*
X0022146Y0304993D01*
X0022237Y0304864D01*
X0022326Y0304733D01*
X0022410Y0304599D01*
X0022492Y0304463D01*
X0022570Y0304326D01*
X0022644Y0304186D01*
X0022715Y0304044D01*
X0022783Y0303901D01*
X0022847Y0303756D01*
X0022907Y0303610D01*
X0022963Y0303462D01*
X0023016Y0303313D01*
X0023065Y0303162D01*
X0023110Y0303010D01*
X0023151Y0302857D01*
X0023189Y0302704D01*
X0023222Y0302549D01*
X0023252Y0302393D01*
X0023278Y0302237D01*
X0023299Y0302080D01*
X0023317Y0301923D01*
X0023331Y0301765D01*
X0023341Y0301607D01*
X0023347Y0301449D01*
X0023349Y0301291D01*
X0023347Y0301133D01*
X0023341Y0300975D01*
X0023331Y0300817D01*
X0023317Y0300659D01*
X0023299Y0300502D01*
X0023278Y0300345D01*
X0023252Y0300189D01*
X0023222Y0300033D01*
X0023189Y0299878D01*
X0023151Y0299725D01*
X0023110Y0299572D01*
X0023065Y0299420D01*
X0023016Y0299269D01*
X0022963Y0299120D01*
X0022907Y0298972D01*
X0022847Y0298826D01*
X0022783Y0298681D01*
X0022715Y0298538D01*
X0022644Y0298396D01*
X0022570Y0298256D01*
X0022492Y0298119D01*
X0022410Y0297983D01*
X0022326Y0297849D01*
X0022237Y0297718D01*
X0022146Y0297589D01*
X0022051Y0297462D01*
X0021954Y0297337D01*
X0021853Y0297215D01*
X0021749Y0297096D01*
X0021642Y0296979D01*
X0021532Y0296865D01*
X0021419Y0296754D01*
X0021304Y0296645D01*
X0021186Y0296540D01*
X0021065Y0296438D01*
X0020942Y0296338D01*
X0020816Y0296242D01*
X0020688Y0296149D01*
X0020558Y0296059D01*
X0020425Y0295973D01*
X0020290Y0295889D01*
X0020154Y0295810D01*
X0020015Y0295733D01*
X0019874Y0295661D01*
X0019732Y0295591D01*
X0019588Y0295526D01*
X0019442Y0295464D01*
X0019295Y0295406D01*
X0019146Y0295351D01*
X0018996Y0295300D01*
X0018845Y0295253D01*
X0018693Y0295210D01*
X0018540Y0295171D01*
X0018385Y0295135D01*
X0018230Y0295104D01*
X0018074Y0295076D01*
X0017918Y0295052D01*
X0017761Y0295032D01*
X0017603Y0295016D01*
X0017446Y0295004D01*
X0017287Y0294996D01*
X0017129Y0294992D01*
X0016971Y0294992D01*
X0016813Y0294996D01*
X0016654Y0295004D01*
X0016497Y0295016D01*
X0016339Y0295032D01*
X0016182Y0295052D01*
X0016026Y0295076D01*
X0015870Y0295104D01*
X0015715Y0295135D01*
X0015560Y0295171D01*
X0015407Y0295210D01*
X0015255Y0295253D01*
X0015104Y0295300D01*
X0014954Y0295351D01*
X0014805Y0295406D01*
X0014658Y0295464D01*
X0014512Y0295526D01*
X0014368Y0295591D01*
X0014226Y0295661D01*
X0014085Y0295733D01*
X0013946Y0295810D01*
X0013810Y0295889D01*
X0013675Y0295973D01*
X0013542Y0296059D01*
X0013412Y0296149D01*
X0013284Y0296242D01*
X0013158Y0296338D01*
X0013035Y0296438D01*
X0012914Y0296540D01*
X0012796Y0296645D01*
X0012681Y0296754D01*
X0012568Y0296865D01*
X0012458Y0296979D01*
X0012351Y0297096D01*
X0012247Y0297215D01*
X0012146Y0297337D01*
X0012049Y0297462D01*
X0011954Y0297589D01*
X0011863Y0297718D01*
X0011774Y0297849D01*
X0011690Y0297983D01*
X0011608Y0298119D01*
X0011530Y0298256D01*
X0011456Y0298396D01*
X0011385Y0298538D01*
X0011317Y0298681D01*
X0011253Y0298826D01*
X0011193Y0298972D01*
X0011137Y0299120D01*
X0011084Y0299269D01*
X0011035Y0299420D01*
X0010990Y0299572D01*
X0010949Y0299725D01*
X0010911Y0299878D01*
X0010878Y0300033D01*
X0010848Y0300189D01*
X0010822Y0300345D01*
X0010801Y0300502D01*
X0010783Y0300659D01*
X0010769Y0300817D01*
X0010759Y0300975D01*
X0010753Y0301133D01*
X0010751Y0301291D01*
X0278800Y0212291D02*
X0278802Y0212463D01*
X0278808Y0212634D01*
X0278819Y0212806D01*
X0278834Y0212977D01*
X0278853Y0213148D01*
X0278876Y0213318D01*
X0278903Y0213488D01*
X0278935Y0213657D01*
X0278970Y0213825D01*
X0279010Y0213992D01*
X0279054Y0214158D01*
X0279101Y0214323D01*
X0279153Y0214487D01*
X0279209Y0214649D01*
X0279269Y0214810D01*
X0279333Y0214970D01*
X0279401Y0215128D01*
X0279472Y0215284D01*
X0279547Y0215438D01*
X0279627Y0215591D01*
X0279709Y0215741D01*
X0279796Y0215890D01*
X0279886Y0216036D01*
X0279980Y0216180D01*
X0280077Y0216322D01*
X0280178Y0216461D01*
X0280282Y0216598D01*
X0280389Y0216732D01*
X0280500Y0216863D01*
X0280613Y0216992D01*
X0280730Y0217118D01*
X0280850Y0217241D01*
X0280973Y0217361D01*
X0281099Y0217478D01*
X0281228Y0217591D01*
X0281359Y0217702D01*
X0281493Y0217809D01*
X0281630Y0217913D01*
X0281769Y0218014D01*
X0281911Y0218111D01*
X0282055Y0218205D01*
X0282201Y0218295D01*
X0282350Y0218382D01*
X0282500Y0218464D01*
X0282653Y0218544D01*
X0282807Y0218619D01*
X0282963Y0218690D01*
X0283121Y0218758D01*
X0283281Y0218822D01*
X0283442Y0218882D01*
X0283604Y0218938D01*
X0283768Y0218990D01*
X0283933Y0219037D01*
X0284099Y0219081D01*
X0284266Y0219121D01*
X0284434Y0219156D01*
X0284603Y0219188D01*
X0284773Y0219215D01*
X0284943Y0219238D01*
X0285114Y0219257D01*
X0285285Y0219272D01*
X0285457Y0219283D01*
X0285628Y0219289D01*
X0285800Y0219291D01*
X0285972Y0219289D01*
X0286143Y0219283D01*
X0286315Y0219272D01*
X0286486Y0219257D01*
X0286657Y0219238D01*
X0286827Y0219215D01*
X0286997Y0219188D01*
X0287166Y0219156D01*
X0287334Y0219121D01*
X0287501Y0219081D01*
X0287667Y0219037D01*
X0287832Y0218990D01*
X0287996Y0218938D01*
X0288158Y0218882D01*
X0288319Y0218822D01*
X0288479Y0218758D01*
X0288637Y0218690D01*
X0288793Y0218619D01*
X0288947Y0218544D01*
X0289100Y0218464D01*
X0289250Y0218382D01*
X0289399Y0218295D01*
X0289545Y0218205D01*
X0289689Y0218111D01*
X0289831Y0218014D01*
X0289970Y0217913D01*
X0290107Y0217809D01*
X0290241Y0217702D01*
X0290372Y0217591D01*
X0290501Y0217478D01*
X0290627Y0217361D01*
X0290750Y0217241D01*
X0290870Y0217118D01*
X0290987Y0216992D01*
X0291100Y0216863D01*
X0291211Y0216732D01*
X0291318Y0216598D01*
X0291422Y0216461D01*
X0291523Y0216322D01*
X0291620Y0216180D01*
X0291714Y0216036D01*
X0291804Y0215890D01*
X0291891Y0215741D01*
X0291973Y0215591D01*
X0292053Y0215438D01*
X0292128Y0215284D01*
X0292199Y0215128D01*
X0292267Y0214970D01*
X0292331Y0214810D01*
X0292391Y0214649D01*
X0292447Y0214487D01*
X0292499Y0214323D01*
X0292546Y0214158D01*
X0292590Y0213992D01*
X0292630Y0213825D01*
X0292665Y0213657D01*
X0292697Y0213488D01*
X0292724Y0213318D01*
X0292747Y0213148D01*
X0292766Y0212977D01*
X0292781Y0212806D01*
X0292792Y0212634D01*
X0292798Y0212463D01*
X0292800Y0212291D01*
X0292798Y0212119D01*
X0292792Y0211948D01*
X0292781Y0211776D01*
X0292766Y0211605D01*
X0292747Y0211434D01*
X0292724Y0211264D01*
X0292697Y0211094D01*
X0292665Y0210925D01*
X0292630Y0210757D01*
X0292590Y0210590D01*
X0292546Y0210424D01*
X0292499Y0210259D01*
X0292447Y0210095D01*
X0292391Y0209933D01*
X0292331Y0209772D01*
X0292267Y0209612D01*
X0292199Y0209454D01*
X0292128Y0209298D01*
X0292053Y0209144D01*
X0291973Y0208991D01*
X0291891Y0208841D01*
X0291804Y0208692D01*
X0291714Y0208546D01*
X0291620Y0208402D01*
X0291523Y0208260D01*
X0291422Y0208121D01*
X0291318Y0207984D01*
X0291211Y0207850D01*
X0291100Y0207719D01*
X0290987Y0207590D01*
X0290870Y0207464D01*
X0290750Y0207341D01*
X0290627Y0207221D01*
X0290501Y0207104D01*
X0290372Y0206991D01*
X0290241Y0206880D01*
X0290107Y0206773D01*
X0289970Y0206669D01*
X0289831Y0206568D01*
X0289689Y0206471D01*
X0289545Y0206377D01*
X0289399Y0206287D01*
X0289250Y0206200D01*
X0289100Y0206118D01*
X0288947Y0206038D01*
X0288793Y0205963D01*
X0288637Y0205892D01*
X0288479Y0205824D01*
X0288319Y0205760D01*
X0288158Y0205700D01*
X0287996Y0205644D01*
X0287832Y0205592D01*
X0287667Y0205545D01*
X0287501Y0205501D01*
X0287334Y0205461D01*
X0287166Y0205426D01*
X0286997Y0205394D01*
X0286827Y0205367D01*
X0286657Y0205344D01*
X0286486Y0205325D01*
X0286315Y0205310D01*
X0286143Y0205299D01*
X0285972Y0205293D01*
X0285800Y0205291D01*
X0285628Y0205293D01*
X0285457Y0205299D01*
X0285285Y0205310D01*
X0285114Y0205325D01*
X0284943Y0205344D01*
X0284773Y0205367D01*
X0284603Y0205394D01*
X0284434Y0205426D01*
X0284266Y0205461D01*
X0284099Y0205501D01*
X0283933Y0205545D01*
X0283768Y0205592D01*
X0283604Y0205644D01*
X0283442Y0205700D01*
X0283281Y0205760D01*
X0283121Y0205824D01*
X0282963Y0205892D01*
X0282807Y0205963D01*
X0282653Y0206038D01*
X0282500Y0206118D01*
X0282350Y0206200D01*
X0282201Y0206287D01*
X0282055Y0206377D01*
X0281911Y0206471D01*
X0281769Y0206568D01*
X0281630Y0206669D01*
X0281493Y0206773D01*
X0281359Y0206880D01*
X0281228Y0206991D01*
X0281099Y0207104D01*
X0280973Y0207221D01*
X0280850Y0207341D01*
X0280730Y0207464D01*
X0280613Y0207590D01*
X0280500Y0207719D01*
X0280389Y0207850D01*
X0280282Y0207984D01*
X0280178Y0208121D01*
X0280077Y0208260D01*
X0279980Y0208402D01*
X0279886Y0208546D01*
X0279796Y0208692D01*
X0279709Y0208841D01*
X0279627Y0208991D01*
X0279547Y0209144D01*
X0279472Y0209298D01*
X0279401Y0209454D01*
X0279333Y0209612D01*
X0279269Y0209772D01*
X0279209Y0209933D01*
X0279153Y0210095D01*
X0279101Y0210259D01*
X0279054Y0210424D01*
X0279010Y0210590D01*
X0278970Y0210757D01*
X0278935Y0210925D01*
X0278903Y0211094D01*
X0278876Y0211264D01*
X0278853Y0211434D01*
X0278834Y0211605D01*
X0278819Y0211776D01*
X0278808Y0211948D01*
X0278802Y0212119D01*
X0278800Y0212291D01*
X0330751Y0301291D02*
X0330753Y0301449D01*
X0330759Y0301607D01*
X0330769Y0301765D01*
X0330783Y0301923D01*
X0330801Y0302080D01*
X0330822Y0302237D01*
X0330848Y0302393D01*
X0330878Y0302549D01*
X0330911Y0302704D01*
X0330949Y0302857D01*
X0330990Y0303010D01*
X0331035Y0303162D01*
X0331084Y0303313D01*
X0331137Y0303462D01*
X0331193Y0303610D01*
X0331253Y0303756D01*
X0331317Y0303901D01*
X0331385Y0304044D01*
X0331456Y0304186D01*
X0331530Y0304326D01*
X0331608Y0304463D01*
X0331690Y0304599D01*
X0331774Y0304733D01*
X0331863Y0304864D01*
X0331954Y0304993D01*
X0332049Y0305120D01*
X0332146Y0305245D01*
X0332247Y0305367D01*
X0332351Y0305486D01*
X0332458Y0305603D01*
X0332568Y0305717D01*
X0332681Y0305828D01*
X0332796Y0305937D01*
X0332914Y0306042D01*
X0333035Y0306144D01*
X0333158Y0306244D01*
X0333284Y0306340D01*
X0333412Y0306433D01*
X0333542Y0306523D01*
X0333675Y0306609D01*
X0333810Y0306693D01*
X0333946Y0306772D01*
X0334085Y0306849D01*
X0334226Y0306921D01*
X0334368Y0306991D01*
X0334512Y0307056D01*
X0334658Y0307118D01*
X0334805Y0307176D01*
X0334954Y0307231D01*
X0335104Y0307282D01*
X0335255Y0307329D01*
X0335407Y0307372D01*
X0335560Y0307411D01*
X0335715Y0307447D01*
X0335870Y0307478D01*
X0336026Y0307506D01*
X0336182Y0307530D01*
X0336339Y0307550D01*
X0336497Y0307566D01*
X0336654Y0307578D01*
X0336813Y0307586D01*
X0336971Y0307590D01*
X0337129Y0307590D01*
X0337287Y0307586D01*
X0337446Y0307578D01*
X0337603Y0307566D01*
X0337761Y0307550D01*
X0337918Y0307530D01*
X0338074Y0307506D01*
X0338230Y0307478D01*
X0338385Y0307447D01*
X0338540Y0307411D01*
X0338693Y0307372D01*
X0338845Y0307329D01*
X0338996Y0307282D01*
X0339146Y0307231D01*
X0339295Y0307176D01*
X0339442Y0307118D01*
X0339588Y0307056D01*
X0339732Y0306991D01*
X0339874Y0306921D01*
X0340015Y0306849D01*
X0340154Y0306772D01*
X0340290Y0306693D01*
X0340425Y0306609D01*
X0340558Y0306523D01*
X0340688Y0306433D01*
X0340816Y0306340D01*
X0340942Y0306244D01*
X0341065Y0306144D01*
X0341186Y0306042D01*
X0341304Y0305937D01*
X0341419Y0305828D01*
X0341532Y0305717D01*
X0341642Y0305603D01*
X0341749Y0305486D01*
X0341853Y0305367D01*
X0341954Y0305245D01*
X0342051Y0305120D01*
X0342146Y0304993D01*
X0342237Y0304864D01*
X0342326Y0304733D01*
X0342410Y0304599D01*
X0342492Y0304463D01*
X0342570Y0304326D01*
X0342644Y0304186D01*
X0342715Y0304044D01*
X0342783Y0303901D01*
X0342847Y0303756D01*
X0342907Y0303610D01*
X0342963Y0303462D01*
X0343016Y0303313D01*
X0343065Y0303162D01*
X0343110Y0303010D01*
X0343151Y0302857D01*
X0343189Y0302704D01*
X0343222Y0302549D01*
X0343252Y0302393D01*
X0343278Y0302237D01*
X0343299Y0302080D01*
X0343317Y0301923D01*
X0343331Y0301765D01*
X0343341Y0301607D01*
X0343347Y0301449D01*
X0343349Y0301291D01*
X0343347Y0301133D01*
X0343341Y0300975D01*
X0343331Y0300817D01*
X0343317Y0300659D01*
X0343299Y0300502D01*
X0343278Y0300345D01*
X0343252Y0300189D01*
X0343222Y0300033D01*
X0343189Y0299878D01*
X0343151Y0299725D01*
X0343110Y0299572D01*
X0343065Y0299420D01*
X0343016Y0299269D01*
X0342963Y0299120D01*
X0342907Y0298972D01*
X0342847Y0298826D01*
X0342783Y0298681D01*
X0342715Y0298538D01*
X0342644Y0298396D01*
X0342570Y0298256D01*
X0342492Y0298119D01*
X0342410Y0297983D01*
X0342326Y0297849D01*
X0342237Y0297718D01*
X0342146Y0297589D01*
X0342051Y0297462D01*
X0341954Y0297337D01*
X0341853Y0297215D01*
X0341749Y0297096D01*
X0341642Y0296979D01*
X0341532Y0296865D01*
X0341419Y0296754D01*
X0341304Y0296645D01*
X0341186Y0296540D01*
X0341065Y0296438D01*
X0340942Y0296338D01*
X0340816Y0296242D01*
X0340688Y0296149D01*
X0340558Y0296059D01*
X0340425Y0295973D01*
X0340290Y0295889D01*
X0340154Y0295810D01*
X0340015Y0295733D01*
X0339874Y0295661D01*
X0339732Y0295591D01*
X0339588Y0295526D01*
X0339442Y0295464D01*
X0339295Y0295406D01*
X0339146Y0295351D01*
X0338996Y0295300D01*
X0338845Y0295253D01*
X0338693Y0295210D01*
X0338540Y0295171D01*
X0338385Y0295135D01*
X0338230Y0295104D01*
X0338074Y0295076D01*
X0337918Y0295052D01*
X0337761Y0295032D01*
X0337603Y0295016D01*
X0337446Y0295004D01*
X0337287Y0294996D01*
X0337129Y0294992D01*
X0336971Y0294992D01*
X0336813Y0294996D01*
X0336654Y0295004D01*
X0336497Y0295016D01*
X0336339Y0295032D01*
X0336182Y0295052D01*
X0336026Y0295076D01*
X0335870Y0295104D01*
X0335715Y0295135D01*
X0335560Y0295171D01*
X0335407Y0295210D01*
X0335255Y0295253D01*
X0335104Y0295300D01*
X0334954Y0295351D01*
X0334805Y0295406D01*
X0334658Y0295464D01*
X0334512Y0295526D01*
X0334368Y0295591D01*
X0334226Y0295661D01*
X0334085Y0295733D01*
X0333946Y0295810D01*
X0333810Y0295889D01*
X0333675Y0295973D01*
X0333542Y0296059D01*
X0333412Y0296149D01*
X0333284Y0296242D01*
X0333158Y0296338D01*
X0333035Y0296438D01*
X0332914Y0296540D01*
X0332796Y0296645D01*
X0332681Y0296754D01*
X0332568Y0296865D01*
X0332458Y0296979D01*
X0332351Y0297096D01*
X0332247Y0297215D01*
X0332146Y0297337D01*
X0332049Y0297462D01*
X0331954Y0297589D01*
X0331863Y0297718D01*
X0331774Y0297849D01*
X0331690Y0297983D01*
X0331608Y0298119D01*
X0331530Y0298256D01*
X0331456Y0298396D01*
X0331385Y0298538D01*
X0331317Y0298681D01*
X0331253Y0298826D01*
X0331193Y0298972D01*
X0331137Y0299120D01*
X0331084Y0299269D01*
X0331035Y0299420D01*
X0330990Y0299572D01*
X0330949Y0299725D01*
X0330911Y0299878D01*
X0330878Y0300033D01*
X0330848Y0300189D01*
X0330822Y0300345D01*
X0330801Y0300502D01*
X0330783Y0300659D01*
X0330769Y0300817D01*
X0330759Y0300975D01*
X0330753Y0301133D01*
X0330751Y0301291D01*
X0330751Y0031291D02*
X0330753Y0031449D01*
X0330759Y0031607D01*
X0330769Y0031765D01*
X0330783Y0031923D01*
X0330801Y0032080D01*
X0330822Y0032237D01*
X0330848Y0032393D01*
X0330878Y0032549D01*
X0330911Y0032704D01*
X0330949Y0032857D01*
X0330990Y0033010D01*
X0331035Y0033162D01*
X0331084Y0033313D01*
X0331137Y0033462D01*
X0331193Y0033610D01*
X0331253Y0033756D01*
X0331317Y0033901D01*
X0331385Y0034044D01*
X0331456Y0034186D01*
X0331530Y0034326D01*
X0331608Y0034463D01*
X0331690Y0034599D01*
X0331774Y0034733D01*
X0331863Y0034864D01*
X0331954Y0034993D01*
X0332049Y0035120D01*
X0332146Y0035245D01*
X0332247Y0035367D01*
X0332351Y0035486D01*
X0332458Y0035603D01*
X0332568Y0035717D01*
X0332681Y0035828D01*
X0332796Y0035937D01*
X0332914Y0036042D01*
X0333035Y0036144D01*
X0333158Y0036244D01*
X0333284Y0036340D01*
X0333412Y0036433D01*
X0333542Y0036523D01*
X0333675Y0036609D01*
X0333810Y0036693D01*
X0333946Y0036772D01*
X0334085Y0036849D01*
X0334226Y0036921D01*
X0334368Y0036991D01*
X0334512Y0037056D01*
X0334658Y0037118D01*
X0334805Y0037176D01*
X0334954Y0037231D01*
X0335104Y0037282D01*
X0335255Y0037329D01*
X0335407Y0037372D01*
X0335560Y0037411D01*
X0335715Y0037447D01*
X0335870Y0037478D01*
X0336026Y0037506D01*
X0336182Y0037530D01*
X0336339Y0037550D01*
X0336497Y0037566D01*
X0336654Y0037578D01*
X0336813Y0037586D01*
X0336971Y0037590D01*
X0337129Y0037590D01*
X0337287Y0037586D01*
X0337446Y0037578D01*
X0337603Y0037566D01*
X0337761Y0037550D01*
X0337918Y0037530D01*
X0338074Y0037506D01*
X0338230Y0037478D01*
X0338385Y0037447D01*
X0338540Y0037411D01*
X0338693Y0037372D01*
X0338845Y0037329D01*
X0338996Y0037282D01*
X0339146Y0037231D01*
X0339295Y0037176D01*
X0339442Y0037118D01*
X0339588Y0037056D01*
X0339732Y0036991D01*
X0339874Y0036921D01*
X0340015Y0036849D01*
X0340154Y0036772D01*
X0340290Y0036693D01*
X0340425Y0036609D01*
X0340558Y0036523D01*
X0340688Y0036433D01*
X0340816Y0036340D01*
X0340942Y0036244D01*
X0341065Y0036144D01*
X0341186Y0036042D01*
X0341304Y0035937D01*
X0341419Y0035828D01*
X0341532Y0035717D01*
X0341642Y0035603D01*
X0341749Y0035486D01*
X0341853Y0035367D01*
X0341954Y0035245D01*
X0342051Y0035120D01*
X0342146Y0034993D01*
X0342237Y0034864D01*
X0342326Y0034733D01*
X0342410Y0034599D01*
X0342492Y0034463D01*
X0342570Y0034326D01*
X0342644Y0034186D01*
X0342715Y0034044D01*
X0342783Y0033901D01*
X0342847Y0033756D01*
X0342907Y0033610D01*
X0342963Y0033462D01*
X0343016Y0033313D01*
X0343065Y0033162D01*
X0343110Y0033010D01*
X0343151Y0032857D01*
X0343189Y0032704D01*
X0343222Y0032549D01*
X0343252Y0032393D01*
X0343278Y0032237D01*
X0343299Y0032080D01*
X0343317Y0031923D01*
X0343331Y0031765D01*
X0343341Y0031607D01*
X0343347Y0031449D01*
X0343349Y0031291D01*
X0343347Y0031133D01*
X0343341Y0030975D01*
X0343331Y0030817D01*
X0343317Y0030659D01*
X0343299Y0030502D01*
X0343278Y0030345D01*
X0343252Y0030189D01*
X0343222Y0030033D01*
X0343189Y0029878D01*
X0343151Y0029725D01*
X0343110Y0029572D01*
X0343065Y0029420D01*
X0343016Y0029269D01*
X0342963Y0029120D01*
X0342907Y0028972D01*
X0342847Y0028826D01*
X0342783Y0028681D01*
X0342715Y0028538D01*
X0342644Y0028396D01*
X0342570Y0028256D01*
X0342492Y0028119D01*
X0342410Y0027983D01*
X0342326Y0027849D01*
X0342237Y0027718D01*
X0342146Y0027589D01*
X0342051Y0027462D01*
X0341954Y0027337D01*
X0341853Y0027215D01*
X0341749Y0027096D01*
X0341642Y0026979D01*
X0341532Y0026865D01*
X0341419Y0026754D01*
X0341304Y0026645D01*
X0341186Y0026540D01*
X0341065Y0026438D01*
X0340942Y0026338D01*
X0340816Y0026242D01*
X0340688Y0026149D01*
X0340558Y0026059D01*
X0340425Y0025973D01*
X0340290Y0025889D01*
X0340154Y0025810D01*
X0340015Y0025733D01*
X0339874Y0025661D01*
X0339732Y0025591D01*
X0339588Y0025526D01*
X0339442Y0025464D01*
X0339295Y0025406D01*
X0339146Y0025351D01*
X0338996Y0025300D01*
X0338845Y0025253D01*
X0338693Y0025210D01*
X0338540Y0025171D01*
X0338385Y0025135D01*
X0338230Y0025104D01*
X0338074Y0025076D01*
X0337918Y0025052D01*
X0337761Y0025032D01*
X0337603Y0025016D01*
X0337446Y0025004D01*
X0337287Y0024996D01*
X0337129Y0024992D01*
X0336971Y0024992D01*
X0336813Y0024996D01*
X0336654Y0025004D01*
X0336497Y0025016D01*
X0336339Y0025032D01*
X0336182Y0025052D01*
X0336026Y0025076D01*
X0335870Y0025104D01*
X0335715Y0025135D01*
X0335560Y0025171D01*
X0335407Y0025210D01*
X0335255Y0025253D01*
X0335104Y0025300D01*
X0334954Y0025351D01*
X0334805Y0025406D01*
X0334658Y0025464D01*
X0334512Y0025526D01*
X0334368Y0025591D01*
X0334226Y0025661D01*
X0334085Y0025733D01*
X0333946Y0025810D01*
X0333810Y0025889D01*
X0333675Y0025973D01*
X0333542Y0026059D01*
X0333412Y0026149D01*
X0333284Y0026242D01*
X0333158Y0026338D01*
X0333035Y0026438D01*
X0332914Y0026540D01*
X0332796Y0026645D01*
X0332681Y0026754D01*
X0332568Y0026865D01*
X0332458Y0026979D01*
X0332351Y0027096D01*
X0332247Y0027215D01*
X0332146Y0027337D01*
X0332049Y0027462D01*
X0331954Y0027589D01*
X0331863Y0027718D01*
X0331774Y0027849D01*
X0331690Y0027983D01*
X0331608Y0028119D01*
X0331530Y0028256D01*
X0331456Y0028396D01*
X0331385Y0028538D01*
X0331317Y0028681D01*
X0331253Y0028826D01*
X0331193Y0028972D01*
X0331137Y0029120D01*
X0331084Y0029269D01*
X0331035Y0029420D01*
X0330990Y0029572D01*
X0330949Y0029725D01*
X0330911Y0029878D01*
X0330878Y0030033D01*
X0330848Y0030189D01*
X0330822Y0030345D01*
X0330801Y0030502D01*
X0330783Y0030659D01*
X0330769Y0030817D01*
X0330759Y0030975D01*
X0330753Y0031133D01*
X0330751Y0031291D01*
D11*
X0327050Y0031291D02*
X0327053Y0031536D01*
X0327062Y0031782D01*
X0327077Y0032027D01*
X0327098Y0032271D01*
X0327125Y0032515D01*
X0327158Y0032758D01*
X0327197Y0033001D01*
X0327242Y0033242D01*
X0327293Y0033482D01*
X0327350Y0033721D01*
X0327412Y0033958D01*
X0327481Y0034194D01*
X0327555Y0034428D01*
X0327635Y0034660D01*
X0327720Y0034890D01*
X0327811Y0035118D01*
X0327908Y0035343D01*
X0328010Y0035567D01*
X0328118Y0035787D01*
X0328231Y0036005D01*
X0328349Y0036220D01*
X0328473Y0036432D01*
X0328601Y0036641D01*
X0328735Y0036847D01*
X0328874Y0037049D01*
X0329018Y0037248D01*
X0329167Y0037443D01*
X0329320Y0037635D01*
X0329478Y0037823D01*
X0329640Y0038007D01*
X0329808Y0038186D01*
X0329979Y0038362D01*
X0330155Y0038533D01*
X0330334Y0038701D01*
X0330518Y0038863D01*
X0330706Y0039021D01*
X0330898Y0039174D01*
X0331093Y0039323D01*
X0331292Y0039467D01*
X0331494Y0039606D01*
X0331700Y0039740D01*
X0331909Y0039868D01*
X0332121Y0039992D01*
X0332336Y0040110D01*
X0332554Y0040223D01*
X0332774Y0040331D01*
X0332998Y0040433D01*
X0333223Y0040530D01*
X0333451Y0040621D01*
X0333681Y0040706D01*
X0333913Y0040786D01*
X0334147Y0040860D01*
X0334383Y0040929D01*
X0334620Y0040991D01*
X0334859Y0041048D01*
X0335099Y0041099D01*
X0335340Y0041144D01*
X0335583Y0041183D01*
X0335826Y0041216D01*
X0336070Y0041243D01*
X0336314Y0041264D01*
X0336559Y0041279D01*
X0336805Y0041288D01*
X0337050Y0041291D01*
X0337295Y0041288D01*
X0337541Y0041279D01*
X0337786Y0041264D01*
X0338030Y0041243D01*
X0338274Y0041216D01*
X0338517Y0041183D01*
X0338760Y0041144D01*
X0339001Y0041099D01*
X0339241Y0041048D01*
X0339480Y0040991D01*
X0339717Y0040929D01*
X0339953Y0040860D01*
X0340187Y0040786D01*
X0340419Y0040706D01*
X0340649Y0040621D01*
X0340877Y0040530D01*
X0341102Y0040433D01*
X0341326Y0040331D01*
X0341546Y0040223D01*
X0341764Y0040110D01*
X0341979Y0039992D01*
X0342191Y0039868D01*
X0342400Y0039740D01*
X0342606Y0039606D01*
X0342808Y0039467D01*
X0343007Y0039323D01*
X0343202Y0039174D01*
X0343394Y0039021D01*
X0343582Y0038863D01*
X0343766Y0038701D01*
X0343945Y0038533D01*
X0344121Y0038362D01*
X0344292Y0038186D01*
X0344460Y0038007D01*
X0344622Y0037823D01*
X0344780Y0037635D01*
X0344933Y0037443D01*
X0345082Y0037248D01*
X0345226Y0037049D01*
X0345365Y0036847D01*
X0345499Y0036641D01*
X0345627Y0036432D01*
X0345751Y0036220D01*
X0345869Y0036005D01*
X0345982Y0035787D01*
X0346090Y0035567D01*
X0346192Y0035343D01*
X0346289Y0035118D01*
X0346380Y0034890D01*
X0346465Y0034660D01*
X0346545Y0034428D01*
X0346619Y0034194D01*
X0346688Y0033958D01*
X0346750Y0033721D01*
X0346807Y0033482D01*
X0346858Y0033242D01*
X0346903Y0033001D01*
X0346942Y0032758D01*
X0346975Y0032515D01*
X0347002Y0032271D01*
X0347023Y0032027D01*
X0347038Y0031782D01*
X0347047Y0031536D01*
X0347050Y0031291D01*
X0347047Y0031046D01*
X0347038Y0030800D01*
X0347023Y0030555D01*
X0347002Y0030311D01*
X0346975Y0030067D01*
X0346942Y0029824D01*
X0346903Y0029581D01*
X0346858Y0029340D01*
X0346807Y0029100D01*
X0346750Y0028861D01*
X0346688Y0028624D01*
X0346619Y0028388D01*
X0346545Y0028154D01*
X0346465Y0027922D01*
X0346380Y0027692D01*
X0346289Y0027464D01*
X0346192Y0027239D01*
X0346090Y0027015D01*
X0345982Y0026795D01*
X0345869Y0026577D01*
X0345751Y0026362D01*
X0345627Y0026150D01*
X0345499Y0025941D01*
X0345365Y0025735D01*
X0345226Y0025533D01*
X0345082Y0025334D01*
X0344933Y0025139D01*
X0344780Y0024947D01*
X0344622Y0024759D01*
X0344460Y0024575D01*
X0344292Y0024396D01*
X0344121Y0024220D01*
X0343945Y0024049D01*
X0343766Y0023881D01*
X0343582Y0023719D01*
X0343394Y0023561D01*
X0343202Y0023408D01*
X0343007Y0023259D01*
X0342808Y0023115D01*
X0342606Y0022976D01*
X0342400Y0022842D01*
X0342191Y0022714D01*
X0341979Y0022590D01*
X0341764Y0022472D01*
X0341546Y0022359D01*
X0341326Y0022251D01*
X0341102Y0022149D01*
X0340877Y0022052D01*
X0340649Y0021961D01*
X0340419Y0021876D01*
X0340187Y0021796D01*
X0339953Y0021722D01*
X0339717Y0021653D01*
X0339480Y0021591D01*
X0339241Y0021534D01*
X0339001Y0021483D01*
X0338760Y0021438D01*
X0338517Y0021399D01*
X0338274Y0021366D01*
X0338030Y0021339D01*
X0337786Y0021318D01*
X0337541Y0021303D01*
X0337295Y0021294D01*
X0337050Y0021291D01*
X0336805Y0021294D01*
X0336559Y0021303D01*
X0336314Y0021318D01*
X0336070Y0021339D01*
X0335826Y0021366D01*
X0335583Y0021399D01*
X0335340Y0021438D01*
X0335099Y0021483D01*
X0334859Y0021534D01*
X0334620Y0021591D01*
X0334383Y0021653D01*
X0334147Y0021722D01*
X0333913Y0021796D01*
X0333681Y0021876D01*
X0333451Y0021961D01*
X0333223Y0022052D01*
X0332998Y0022149D01*
X0332774Y0022251D01*
X0332554Y0022359D01*
X0332336Y0022472D01*
X0332121Y0022590D01*
X0331909Y0022714D01*
X0331700Y0022842D01*
X0331494Y0022976D01*
X0331292Y0023115D01*
X0331093Y0023259D01*
X0330898Y0023408D01*
X0330706Y0023561D01*
X0330518Y0023719D01*
X0330334Y0023881D01*
X0330155Y0024049D01*
X0329979Y0024220D01*
X0329808Y0024396D01*
X0329640Y0024575D01*
X0329478Y0024759D01*
X0329320Y0024947D01*
X0329167Y0025139D01*
X0329018Y0025334D01*
X0328874Y0025533D01*
X0328735Y0025735D01*
X0328601Y0025941D01*
X0328473Y0026150D01*
X0328349Y0026362D01*
X0328231Y0026577D01*
X0328118Y0026795D01*
X0328010Y0027015D01*
X0327908Y0027239D01*
X0327811Y0027464D01*
X0327720Y0027692D01*
X0327635Y0027922D01*
X0327555Y0028154D01*
X0327481Y0028388D01*
X0327412Y0028624D01*
X0327350Y0028861D01*
X0327293Y0029100D01*
X0327242Y0029340D01*
X0327197Y0029581D01*
X0327158Y0029824D01*
X0327125Y0030067D01*
X0327098Y0030311D01*
X0327077Y0030555D01*
X0327062Y0030800D01*
X0327053Y0031046D01*
X0327050Y0031291D01*
X0229550Y0243791D02*
X0184550Y0243791D01*
X0139550Y0243791D01*
X0139550Y0278791D01*
X0184550Y0278791D01*
X0229550Y0278791D01*
X0229550Y0243791D01*
X0184550Y0243791D02*
X0184550Y0278791D01*
X0200550Y0307791D02*
X0197050Y0311291D01*
X0197050Y0313791D01*
X0212050Y0313791D01*
X0212050Y0311291D01*
X0208550Y0307791D01*
X0200550Y0307791D01*
X0257550Y0302791D02*
X0259550Y0300791D01*
X0261550Y0302791D01*
X0259550Y0300791D02*
X0259550Y0307291D01*
X0287550Y0302791D02*
X0289550Y0300791D01*
X0290050Y0300791D01*
X0292050Y0302791D01*
X0289550Y0300791D02*
X0289550Y0307291D01*
X0327050Y0301291D02*
X0327053Y0301536D01*
X0327062Y0301782D01*
X0327077Y0302027D01*
X0327098Y0302271D01*
X0327125Y0302515D01*
X0327158Y0302758D01*
X0327197Y0303001D01*
X0327242Y0303242D01*
X0327293Y0303482D01*
X0327350Y0303721D01*
X0327412Y0303958D01*
X0327481Y0304194D01*
X0327555Y0304428D01*
X0327635Y0304660D01*
X0327720Y0304890D01*
X0327811Y0305118D01*
X0327908Y0305343D01*
X0328010Y0305567D01*
X0328118Y0305787D01*
X0328231Y0306005D01*
X0328349Y0306220D01*
X0328473Y0306432D01*
X0328601Y0306641D01*
X0328735Y0306847D01*
X0328874Y0307049D01*
X0329018Y0307248D01*
X0329167Y0307443D01*
X0329320Y0307635D01*
X0329478Y0307823D01*
X0329640Y0308007D01*
X0329808Y0308186D01*
X0329979Y0308362D01*
X0330155Y0308533D01*
X0330334Y0308701D01*
X0330518Y0308863D01*
X0330706Y0309021D01*
X0330898Y0309174D01*
X0331093Y0309323D01*
X0331292Y0309467D01*
X0331494Y0309606D01*
X0331700Y0309740D01*
X0331909Y0309868D01*
X0332121Y0309992D01*
X0332336Y0310110D01*
X0332554Y0310223D01*
X0332774Y0310331D01*
X0332998Y0310433D01*
X0333223Y0310530D01*
X0333451Y0310621D01*
X0333681Y0310706D01*
X0333913Y0310786D01*
X0334147Y0310860D01*
X0334383Y0310929D01*
X0334620Y0310991D01*
X0334859Y0311048D01*
X0335099Y0311099D01*
X0335340Y0311144D01*
X0335583Y0311183D01*
X0335826Y0311216D01*
X0336070Y0311243D01*
X0336314Y0311264D01*
X0336559Y0311279D01*
X0336805Y0311288D01*
X0337050Y0311291D01*
X0337295Y0311288D01*
X0337541Y0311279D01*
X0337786Y0311264D01*
X0338030Y0311243D01*
X0338274Y0311216D01*
X0338517Y0311183D01*
X0338760Y0311144D01*
X0339001Y0311099D01*
X0339241Y0311048D01*
X0339480Y0310991D01*
X0339717Y0310929D01*
X0339953Y0310860D01*
X0340187Y0310786D01*
X0340419Y0310706D01*
X0340649Y0310621D01*
X0340877Y0310530D01*
X0341102Y0310433D01*
X0341326Y0310331D01*
X0341546Y0310223D01*
X0341764Y0310110D01*
X0341979Y0309992D01*
X0342191Y0309868D01*
X0342400Y0309740D01*
X0342606Y0309606D01*
X0342808Y0309467D01*
X0343007Y0309323D01*
X0343202Y0309174D01*
X0343394Y0309021D01*
X0343582Y0308863D01*
X0343766Y0308701D01*
X0343945Y0308533D01*
X0344121Y0308362D01*
X0344292Y0308186D01*
X0344460Y0308007D01*
X0344622Y0307823D01*
X0344780Y0307635D01*
X0344933Y0307443D01*
X0345082Y0307248D01*
X0345226Y0307049D01*
X0345365Y0306847D01*
X0345499Y0306641D01*
X0345627Y0306432D01*
X0345751Y0306220D01*
X0345869Y0306005D01*
X0345982Y0305787D01*
X0346090Y0305567D01*
X0346192Y0305343D01*
X0346289Y0305118D01*
X0346380Y0304890D01*
X0346465Y0304660D01*
X0346545Y0304428D01*
X0346619Y0304194D01*
X0346688Y0303958D01*
X0346750Y0303721D01*
X0346807Y0303482D01*
X0346858Y0303242D01*
X0346903Y0303001D01*
X0346942Y0302758D01*
X0346975Y0302515D01*
X0347002Y0302271D01*
X0347023Y0302027D01*
X0347038Y0301782D01*
X0347047Y0301536D01*
X0347050Y0301291D01*
X0347047Y0301046D01*
X0347038Y0300800D01*
X0347023Y0300555D01*
X0347002Y0300311D01*
X0346975Y0300067D01*
X0346942Y0299824D01*
X0346903Y0299581D01*
X0346858Y0299340D01*
X0346807Y0299100D01*
X0346750Y0298861D01*
X0346688Y0298624D01*
X0346619Y0298388D01*
X0346545Y0298154D01*
X0346465Y0297922D01*
X0346380Y0297692D01*
X0346289Y0297464D01*
X0346192Y0297239D01*
X0346090Y0297015D01*
X0345982Y0296795D01*
X0345869Y0296577D01*
X0345751Y0296362D01*
X0345627Y0296150D01*
X0345499Y0295941D01*
X0345365Y0295735D01*
X0345226Y0295533D01*
X0345082Y0295334D01*
X0344933Y0295139D01*
X0344780Y0294947D01*
X0344622Y0294759D01*
X0344460Y0294575D01*
X0344292Y0294396D01*
X0344121Y0294220D01*
X0343945Y0294049D01*
X0343766Y0293881D01*
X0343582Y0293719D01*
X0343394Y0293561D01*
X0343202Y0293408D01*
X0343007Y0293259D01*
X0342808Y0293115D01*
X0342606Y0292976D01*
X0342400Y0292842D01*
X0342191Y0292714D01*
X0341979Y0292590D01*
X0341764Y0292472D01*
X0341546Y0292359D01*
X0341326Y0292251D01*
X0341102Y0292149D01*
X0340877Y0292052D01*
X0340649Y0291961D01*
X0340419Y0291876D01*
X0340187Y0291796D01*
X0339953Y0291722D01*
X0339717Y0291653D01*
X0339480Y0291591D01*
X0339241Y0291534D01*
X0339001Y0291483D01*
X0338760Y0291438D01*
X0338517Y0291399D01*
X0338274Y0291366D01*
X0338030Y0291339D01*
X0337786Y0291318D01*
X0337541Y0291303D01*
X0337295Y0291294D01*
X0337050Y0291291D01*
X0336805Y0291294D01*
X0336559Y0291303D01*
X0336314Y0291318D01*
X0336070Y0291339D01*
X0335826Y0291366D01*
X0335583Y0291399D01*
X0335340Y0291438D01*
X0335099Y0291483D01*
X0334859Y0291534D01*
X0334620Y0291591D01*
X0334383Y0291653D01*
X0334147Y0291722D01*
X0333913Y0291796D01*
X0333681Y0291876D01*
X0333451Y0291961D01*
X0333223Y0292052D01*
X0332998Y0292149D01*
X0332774Y0292251D01*
X0332554Y0292359D01*
X0332336Y0292472D01*
X0332121Y0292590D01*
X0331909Y0292714D01*
X0331700Y0292842D01*
X0331494Y0292976D01*
X0331292Y0293115D01*
X0331093Y0293259D01*
X0330898Y0293408D01*
X0330706Y0293561D01*
X0330518Y0293719D01*
X0330334Y0293881D01*
X0330155Y0294049D01*
X0329979Y0294220D01*
X0329808Y0294396D01*
X0329640Y0294575D01*
X0329478Y0294759D01*
X0329320Y0294947D01*
X0329167Y0295139D01*
X0329018Y0295334D01*
X0328874Y0295533D01*
X0328735Y0295735D01*
X0328601Y0295941D01*
X0328473Y0296150D01*
X0328349Y0296362D01*
X0328231Y0296577D01*
X0328118Y0296795D01*
X0328010Y0297015D01*
X0327908Y0297239D01*
X0327811Y0297464D01*
X0327720Y0297692D01*
X0327635Y0297922D01*
X0327555Y0298154D01*
X0327481Y0298388D01*
X0327412Y0298624D01*
X0327350Y0298861D01*
X0327293Y0299100D01*
X0327242Y0299340D01*
X0327197Y0299581D01*
X0327158Y0299824D01*
X0327125Y0300067D01*
X0327098Y0300311D01*
X0327077Y0300555D01*
X0327062Y0300800D01*
X0327053Y0301046D01*
X0327050Y0301291D01*
X0124050Y0257291D02*
X0124050Y0250791D01*
X0030050Y0250791D01*
X0030050Y0257291D01*
X0124050Y0257291D01*
X0007050Y0301291D02*
X0007053Y0301536D01*
X0007062Y0301782D01*
X0007077Y0302027D01*
X0007098Y0302271D01*
X0007125Y0302515D01*
X0007158Y0302758D01*
X0007197Y0303001D01*
X0007242Y0303242D01*
X0007293Y0303482D01*
X0007350Y0303721D01*
X0007412Y0303958D01*
X0007481Y0304194D01*
X0007555Y0304428D01*
X0007635Y0304660D01*
X0007720Y0304890D01*
X0007811Y0305118D01*
X0007908Y0305343D01*
X0008010Y0305567D01*
X0008118Y0305787D01*
X0008231Y0306005D01*
X0008349Y0306220D01*
X0008473Y0306432D01*
X0008601Y0306641D01*
X0008735Y0306847D01*
X0008874Y0307049D01*
X0009018Y0307248D01*
X0009167Y0307443D01*
X0009320Y0307635D01*
X0009478Y0307823D01*
X0009640Y0308007D01*
X0009808Y0308186D01*
X0009979Y0308362D01*
X0010155Y0308533D01*
X0010334Y0308701D01*
X0010518Y0308863D01*
X0010706Y0309021D01*
X0010898Y0309174D01*
X0011093Y0309323D01*
X0011292Y0309467D01*
X0011494Y0309606D01*
X0011700Y0309740D01*
X0011909Y0309868D01*
X0012121Y0309992D01*
X0012336Y0310110D01*
X0012554Y0310223D01*
X0012774Y0310331D01*
X0012998Y0310433D01*
X0013223Y0310530D01*
X0013451Y0310621D01*
X0013681Y0310706D01*
X0013913Y0310786D01*
X0014147Y0310860D01*
X0014383Y0310929D01*
X0014620Y0310991D01*
X0014859Y0311048D01*
X0015099Y0311099D01*
X0015340Y0311144D01*
X0015583Y0311183D01*
X0015826Y0311216D01*
X0016070Y0311243D01*
X0016314Y0311264D01*
X0016559Y0311279D01*
X0016805Y0311288D01*
X0017050Y0311291D01*
X0017295Y0311288D01*
X0017541Y0311279D01*
X0017786Y0311264D01*
X0018030Y0311243D01*
X0018274Y0311216D01*
X0018517Y0311183D01*
X0018760Y0311144D01*
X0019001Y0311099D01*
X0019241Y0311048D01*
X0019480Y0310991D01*
X0019717Y0310929D01*
X0019953Y0310860D01*
X0020187Y0310786D01*
X0020419Y0310706D01*
X0020649Y0310621D01*
X0020877Y0310530D01*
X0021102Y0310433D01*
X0021326Y0310331D01*
X0021546Y0310223D01*
X0021764Y0310110D01*
X0021979Y0309992D01*
X0022191Y0309868D01*
X0022400Y0309740D01*
X0022606Y0309606D01*
X0022808Y0309467D01*
X0023007Y0309323D01*
X0023202Y0309174D01*
X0023394Y0309021D01*
X0023582Y0308863D01*
X0023766Y0308701D01*
X0023945Y0308533D01*
X0024121Y0308362D01*
X0024292Y0308186D01*
X0024460Y0308007D01*
X0024622Y0307823D01*
X0024780Y0307635D01*
X0024933Y0307443D01*
X0025082Y0307248D01*
X0025226Y0307049D01*
X0025365Y0306847D01*
X0025499Y0306641D01*
X0025627Y0306432D01*
X0025751Y0306220D01*
X0025869Y0306005D01*
X0025982Y0305787D01*
X0026090Y0305567D01*
X0026192Y0305343D01*
X0026289Y0305118D01*
X0026380Y0304890D01*
X0026465Y0304660D01*
X0026545Y0304428D01*
X0026619Y0304194D01*
X0026688Y0303958D01*
X0026750Y0303721D01*
X0026807Y0303482D01*
X0026858Y0303242D01*
X0026903Y0303001D01*
X0026942Y0302758D01*
X0026975Y0302515D01*
X0027002Y0302271D01*
X0027023Y0302027D01*
X0027038Y0301782D01*
X0027047Y0301536D01*
X0027050Y0301291D01*
X0027047Y0301046D01*
X0027038Y0300800D01*
X0027023Y0300555D01*
X0027002Y0300311D01*
X0026975Y0300067D01*
X0026942Y0299824D01*
X0026903Y0299581D01*
X0026858Y0299340D01*
X0026807Y0299100D01*
X0026750Y0298861D01*
X0026688Y0298624D01*
X0026619Y0298388D01*
X0026545Y0298154D01*
X0026465Y0297922D01*
X0026380Y0297692D01*
X0026289Y0297464D01*
X0026192Y0297239D01*
X0026090Y0297015D01*
X0025982Y0296795D01*
X0025869Y0296577D01*
X0025751Y0296362D01*
X0025627Y0296150D01*
X0025499Y0295941D01*
X0025365Y0295735D01*
X0025226Y0295533D01*
X0025082Y0295334D01*
X0024933Y0295139D01*
X0024780Y0294947D01*
X0024622Y0294759D01*
X0024460Y0294575D01*
X0024292Y0294396D01*
X0024121Y0294220D01*
X0023945Y0294049D01*
X0023766Y0293881D01*
X0023582Y0293719D01*
X0023394Y0293561D01*
X0023202Y0293408D01*
X0023007Y0293259D01*
X0022808Y0293115D01*
X0022606Y0292976D01*
X0022400Y0292842D01*
X0022191Y0292714D01*
X0021979Y0292590D01*
X0021764Y0292472D01*
X0021546Y0292359D01*
X0021326Y0292251D01*
X0021102Y0292149D01*
X0020877Y0292052D01*
X0020649Y0291961D01*
X0020419Y0291876D01*
X0020187Y0291796D01*
X0019953Y0291722D01*
X0019717Y0291653D01*
X0019480Y0291591D01*
X0019241Y0291534D01*
X0019001Y0291483D01*
X0018760Y0291438D01*
X0018517Y0291399D01*
X0018274Y0291366D01*
X0018030Y0291339D01*
X0017786Y0291318D01*
X0017541Y0291303D01*
X0017295Y0291294D01*
X0017050Y0291291D01*
X0016805Y0291294D01*
X0016559Y0291303D01*
X0016314Y0291318D01*
X0016070Y0291339D01*
X0015826Y0291366D01*
X0015583Y0291399D01*
X0015340Y0291438D01*
X0015099Y0291483D01*
X0014859Y0291534D01*
X0014620Y0291591D01*
X0014383Y0291653D01*
X0014147Y0291722D01*
X0013913Y0291796D01*
X0013681Y0291876D01*
X0013451Y0291961D01*
X0013223Y0292052D01*
X0012998Y0292149D01*
X0012774Y0292251D01*
X0012554Y0292359D01*
X0012336Y0292472D01*
X0012121Y0292590D01*
X0011909Y0292714D01*
X0011700Y0292842D01*
X0011494Y0292976D01*
X0011292Y0293115D01*
X0011093Y0293259D01*
X0010898Y0293408D01*
X0010706Y0293561D01*
X0010518Y0293719D01*
X0010334Y0293881D01*
X0010155Y0294049D01*
X0009979Y0294220D01*
X0009808Y0294396D01*
X0009640Y0294575D01*
X0009478Y0294759D01*
X0009320Y0294947D01*
X0009167Y0295139D01*
X0009018Y0295334D01*
X0008874Y0295533D01*
X0008735Y0295735D01*
X0008601Y0295941D01*
X0008473Y0296150D01*
X0008349Y0296362D01*
X0008231Y0296577D01*
X0008118Y0296795D01*
X0008010Y0297015D01*
X0007908Y0297239D01*
X0007811Y0297464D01*
X0007720Y0297692D01*
X0007635Y0297922D01*
X0007555Y0298154D01*
X0007481Y0298388D01*
X0007412Y0298624D01*
X0007350Y0298861D01*
X0007293Y0299100D01*
X0007242Y0299340D01*
X0007197Y0299581D01*
X0007158Y0299824D01*
X0007125Y0300067D01*
X0007098Y0300311D01*
X0007077Y0300555D01*
X0007062Y0300800D01*
X0007053Y0301046D01*
X0007050Y0301291D01*
X0007050Y0031291D02*
X0007053Y0031536D01*
X0007062Y0031782D01*
X0007077Y0032027D01*
X0007098Y0032271D01*
X0007125Y0032515D01*
X0007158Y0032758D01*
X0007197Y0033001D01*
X0007242Y0033242D01*
X0007293Y0033482D01*
X0007350Y0033721D01*
X0007412Y0033958D01*
X0007481Y0034194D01*
X0007555Y0034428D01*
X0007635Y0034660D01*
X0007720Y0034890D01*
X0007811Y0035118D01*
X0007908Y0035343D01*
X0008010Y0035567D01*
X0008118Y0035787D01*
X0008231Y0036005D01*
X0008349Y0036220D01*
X0008473Y0036432D01*
X0008601Y0036641D01*
X0008735Y0036847D01*
X0008874Y0037049D01*
X0009018Y0037248D01*
X0009167Y0037443D01*
X0009320Y0037635D01*
X0009478Y0037823D01*
X0009640Y0038007D01*
X0009808Y0038186D01*
X0009979Y0038362D01*
X0010155Y0038533D01*
X0010334Y0038701D01*
X0010518Y0038863D01*
X0010706Y0039021D01*
X0010898Y0039174D01*
X0011093Y0039323D01*
X0011292Y0039467D01*
X0011494Y0039606D01*
X0011700Y0039740D01*
X0011909Y0039868D01*
X0012121Y0039992D01*
X0012336Y0040110D01*
X0012554Y0040223D01*
X0012774Y0040331D01*
X0012998Y0040433D01*
X0013223Y0040530D01*
X0013451Y0040621D01*
X0013681Y0040706D01*
X0013913Y0040786D01*
X0014147Y0040860D01*
X0014383Y0040929D01*
X0014620Y0040991D01*
X0014859Y0041048D01*
X0015099Y0041099D01*
X0015340Y0041144D01*
X0015583Y0041183D01*
X0015826Y0041216D01*
X0016070Y0041243D01*
X0016314Y0041264D01*
X0016559Y0041279D01*
X0016805Y0041288D01*
X0017050Y0041291D01*
X0017295Y0041288D01*
X0017541Y0041279D01*
X0017786Y0041264D01*
X0018030Y0041243D01*
X0018274Y0041216D01*
X0018517Y0041183D01*
X0018760Y0041144D01*
X0019001Y0041099D01*
X0019241Y0041048D01*
X0019480Y0040991D01*
X0019717Y0040929D01*
X0019953Y0040860D01*
X0020187Y0040786D01*
X0020419Y0040706D01*
X0020649Y0040621D01*
X0020877Y0040530D01*
X0021102Y0040433D01*
X0021326Y0040331D01*
X0021546Y0040223D01*
X0021764Y0040110D01*
X0021979Y0039992D01*
X0022191Y0039868D01*
X0022400Y0039740D01*
X0022606Y0039606D01*
X0022808Y0039467D01*
X0023007Y0039323D01*
X0023202Y0039174D01*
X0023394Y0039021D01*
X0023582Y0038863D01*
X0023766Y0038701D01*
X0023945Y0038533D01*
X0024121Y0038362D01*
X0024292Y0038186D01*
X0024460Y0038007D01*
X0024622Y0037823D01*
X0024780Y0037635D01*
X0024933Y0037443D01*
X0025082Y0037248D01*
X0025226Y0037049D01*
X0025365Y0036847D01*
X0025499Y0036641D01*
X0025627Y0036432D01*
X0025751Y0036220D01*
X0025869Y0036005D01*
X0025982Y0035787D01*
X0026090Y0035567D01*
X0026192Y0035343D01*
X0026289Y0035118D01*
X0026380Y0034890D01*
X0026465Y0034660D01*
X0026545Y0034428D01*
X0026619Y0034194D01*
X0026688Y0033958D01*
X0026750Y0033721D01*
X0026807Y0033482D01*
X0026858Y0033242D01*
X0026903Y0033001D01*
X0026942Y0032758D01*
X0026975Y0032515D01*
X0027002Y0032271D01*
X0027023Y0032027D01*
X0027038Y0031782D01*
X0027047Y0031536D01*
X0027050Y0031291D01*
X0027047Y0031046D01*
X0027038Y0030800D01*
X0027023Y0030555D01*
X0027002Y0030311D01*
X0026975Y0030067D01*
X0026942Y0029824D01*
X0026903Y0029581D01*
X0026858Y0029340D01*
X0026807Y0029100D01*
X0026750Y0028861D01*
X0026688Y0028624D01*
X0026619Y0028388D01*
X0026545Y0028154D01*
X0026465Y0027922D01*
X0026380Y0027692D01*
X0026289Y0027464D01*
X0026192Y0027239D01*
X0026090Y0027015D01*
X0025982Y0026795D01*
X0025869Y0026577D01*
X0025751Y0026362D01*
X0025627Y0026150D01*
X0025499Y0025941D01*
X0025365Y0025735D01*
X0025226Y0025533D01*
X0025082Y0025334D01*
X0024933Y0025139D01*
X0024780Y0024947D01*
X0024622Y0024759D01*
X0024460Y0024575D01*
X0024292Y0024396D01*
X0024121Y0024220D01*
X0023945Y0024049D01*
X0023766Y0023881D01*
X0023582Y0023719D01*
X0023394Y0023561D01*
X0023202Y0023408D01*
X0023007Y0023259D01*
X0022808Y0023115D01*
X0022606Y0022976D01*
X0022400Y0022842D01*
X0022191Y0022714D01*
X0021979Y0022590D01*
X0021764Y0022472D01*
X0021546Y0022359D01*
X0021326Y0022251D01*
X0021102Y0022149D01*
X0020877Y0022052D01*
X0020649Y0021961D01*
X0020419Y0021876D01*
X0020187Y0021796D01*
X0019953Y0021722D01*
X0019717Y0021653D01*
X0019480Y0021591D01*
X0019241Y0021534D01*
X0019001Y0021483D01*
X0018760Y0021438D01*
X0018517Y0021399D01*
X0018274Y0021366D01*
X0018030Y0021339D01*
X0017786Y0021318D01*
X0017541Y0021303D01*
X0017295Y0021294D01*
X0017050Y0021291D01*
X0016805Y0021294D01*
X0016559Y0021303D01*
X0016314Y0021318D01*
X0016070Y0021339D01*
X0015826Y0021366D01*
X0015583Y0021399D01*
X0015340Y0021438D01*
X0015099Y0021483D01*
X0014859Y0021534D01*
X0014620Y0021591D01*
X0014383Y0021653D01*
X0014147Y0021722D01*
X0013913Y0021796D01*
X0013681Y0021876D01*
X0013451Y0021961D01*
X0013223Y0022052D01*
X0012998Y0022149D01*
X0012774Y0022251D01*
X0012554Y0022359D01*
X0012336Y0022472D01*
X0012121Y0022590D01*
X0011909Y0022714D01*
X0011700Y0022842D01*
X0011494Y0022976D01*
X0011292Y0023115D01*
X0011093Y0023259D01*
X0010898Y0023408D01*
X0010706Y0023561D01*
X0010518Y0023719D01*
X0010334Y0023881D01*
X0010155Y0024049D01*
X0009979Y0024220D01*
X0009808Y0024396D01*
X0009640Y0024575D01*
X0009478Y0024759D01*
X0009320Y0024947D01*
X0009167Y0025139D01*
X0009018Y0025334D01*
X0008874Y0025533D01*
X0008735Y0025735D01*
X0008601Y0025941D01*
X0008473Y0026150D01*
X0008349Y0026362D01*
X0008231Y0026577D01*
X0008118Y0026795D01*
X0008010Y0027015D01*
X0007908Y0027239D01*
X0007811Y0027464D01*
X0007720Y0027692D01*
X0007635Y0027922D01*
X0007555Y0028154D01*
X0007481Y0028388D01*
X0007412Y0028624D01*
X0007350Y0028861D01*
X0007293Y0029100D01*
X0007242Y0029340D01*
X0007197Y0029581D01*
X0007158Y0029824D01*
X0007125Y0030067D01*
X0007098Y0030311D01*
X0007077Y0030555D01*
X0007062Y0030800D01*
X0007053Y0031046D01*
X0007050Y0031291D01*
D12*
X0035350Y0039997D02*
X0037051Y0039997D01*
X0037619Y0040564D01*
X0037619Y0042833D01*
X0037051Y0043400D01*
X0035350Y0043400D01*
X0035350Y0039997D01*
X0039033Y0039997D02*
X0041302Y0039997D01*
X0040167Y0039997D02*
X0040167Y0043400D01*
X0039033Y0042265D01*
X0052417Y0055591D02*
X0053551Y0055591D01*
X0054119Y0056158D01*
X0055533Y0055591D02*
X0057802Y0055591D01*
X0056667Y0055591D02*
X0056667Y0058994D01*
X0055533Y0057860D01*
X0054119Y0058427D02*
X0053551Y0058994D01*
X0052417Y0058994D01*
X0051850Y0058427D01*
X0051850Y0056158D01*
X0052417Y0055591D01*
X0061696Y0049860D02*
X0061696Y0046457D01*
X0063965Y0046457D01*
X0065379Y0046457D02*
X0067648Y0046457D01*
X0066514Y0046457D02*
X0066514Y0049860D01*
X0065379Y0048726D01*
X0072847Y0037042D02*
X0076250Y0037042D01*
X0076250Y0035908D02*
X0076250Y0038177D01*
X0073981Y0035908D02*
X0072847Y0037042D01*
X0073414Y0034494D02*
X0072847Y0033927D01*
X0072847Y0032792D01*
X0073414Y0032225D01*
X0073414Y0030811D02*
X0074549Y0030811D01*
X0075116Y0030243D01*
X0075116Y0028542D01*
X0076250Y0028542D02*
X0072847Y0028542D01*
X0072847Y0030243D01*
X0073414Y0030811D01*
X0075116Y0029676D02*
X0076250Y0030811D01*
X0076250Y0032225D02*
X0073981Y0034494D01*
X0073414Y0034494D01*
X0076250Y0034494D02*
X0076250Y0032225D01*
X0083347Y0032842D02*
X0083914Y0032274D01*
X0083347Y0032842D02*
X0083347Y0033976D01*
X0083914Y0034543D01*
X0084481Y0034543D01*
X0086750Y0032274D01*
X0086750Y0034543D01*
X0086183Y0035958D02*
X0083914Y0038226D01*
X0086183Y0038226D01*
X0086750Y0037659D01*
X0086750Y0036525D01*
X0086183Y0035958D01*
X0083914Y0035958D01*
X0083347Y0036525D01*
X0083347Y0037659D01*
X0083914Y0038226D01*
X0083914Y0030860D02*
X0085049Y0030860D01*
X0085616Y0030293D01*
X0085616Y0028591D01*
X0086750Y0028591D02*
X0083347Y0028591D01*
X0083347Y0030293D01*
X0083914Y0030860D01*
X0085616Y0029726D02*
X0086750Y0030860D01*
X0086051Y0021994D02*
X0084917Y0021994D01*
X0084350Y0021427D01*
X0084350Y0019158D01*
X0084917Y0018591D01*
X0086051Y0018591D01*
X0086619Y0019158D01*
X0088033Y0018591D02*
X0088033Y0021994D01*
X0086619Y0021427D02*
X0086051Y0021994D01*
X0088033Y0020293D02*
X0090302Y0020293D01*
X0090302Y0021994D02*
X0090302Y0018591D01*
X0091716Y0019158D02*
X0091716Y0021427D01*
X0092283Y0021994D01*
X0093418Y0021994D01*
X0093985Y0021427D01*
X0093985Y0020293D02*
X0092851Y0020293D01*
X0093985Y0020293D02*
X0093985Y0019158D01*
X0093418Y0018591D01*
X0092283Y0018591D01*
X0091716Y0019158D01*
X0119181Y0020465D02*
X0120882Y0020465D01*
X0121449Y0021033D01*
X0121449Y0023301D01*
X0120882Y0023868D01*
X0119181Y0023868D01*
X0119181Y0020465D01*
X0122864Y0021033D02*
X0123431Y0020465D01*
X0124565Y0020465D01*
X0125132Y0021033D01*
X0125132Y0022167D01*
X0124565Y0022734D01*
X0123998Y0022734D01*
X0122864Y0022167D01*
X0122864Y0023868D01*
X0125132Y0023868D01*
X0139850Y0047091D02*
X0139850Y0050494D01*
X0141551Y0050494D01*
X0142119Y0049927D01*
X0142119Y0048793D01*
X0141551Y0048226D01*
X0139850Y0048226D01*
X0143533Y0047091D02*
X0144667Y0048226D01*
X0145802Y0047091D01*
X0145802Y0050494D01*
X0147216Y0050494D02*
X0148918Y0050494D01*
X0149485Y0049927D01*
X0149485Y0048793D01*
X0148918Y0048226D01*
X0147216Y0048226D01*
X0148351Y0048226D02*
X0149485Y0047091D01*
X0147216Y0047091D02*
X0147216Y0050494D01*
X0143533Y0050494D02*
X0143533Y0047091D01*
X0154583Y0047091D02*
X0156284Y0047091D01*
X0156851Y0047658D01*
X0156851Y0048226D01*
X0156284Y0048793D01*
X0154583Y0048793D01*
X0156284Y0048793D02*
X0156851Y0049360D01*
X0156851Y0049927D01*
X0156284Y0050494D01*
X0154583Y0050494D01*
X0154583Y0047091D01*
X0158266Y0050494D02*
X0160534Y0050494D01*
X0159400Y0050494D02*
X0159400Y0047091D01*
X0161949Y0047091D02*
X0161949Y0050494D01*
X0164217Y0047091D01*
X0164217Y0050494D01*
X0164091Y0055847D02*
X0161822Y0055847D01*
X0161822Y0059250D01*
X0165506Y0058683D02*
X0166073Y0059250D01*
X0167207Y0059250D01*
X0167774Y0058683D01*
X0167774Y0058116D01*
X0165506Y0055847D01*
X0167774Y0055847D01*
X0179801Y0055158D02*
X0180368Y0054591D01*
X0181502Y0054591D01*
X0182069Y0055158D01*
X0183484Y0054591D02*
X0185752Y0056860D01*
X0185752Y0057427D01*
X0185185Y0057994D01*
X0184051Y0057994D01*
X0183484Y0057427D01*
X0182069Y0057427D02*
X0181502Y0057994D01*
X0180368Y0057994D01*
X0179801Y0057427D01*
X0179801Y0055158D01*
X0183484Y0054591D02*
X0185752Y0054591D01*
X0187167Y0055158D02*
X0187734Y0054591D01*
X0188868Y0054591D01*
X0189435Y0055158D01*
X0189435Y0057427D01*
X0187167Y0055158D01*
X0187167Y0057427D01*
X0187734Y0057994D01*
X0188868Y0057994D01*
X0189435Y0057427D01*
X0188301Y0040494D02*
X0188301Y0037091D01*
X0187167Y0037091D02*
X0189435Y0037091D01*
X0187167Y0039360D02*
X0188301Y0040494D01*
X0185752Y0039927D02*
X0185185Y0040494D01*
X0184051Y0040494D01*
X0183484Y0039927D01*
X0182069Y0039927D02*
X0181502Y0040494D01*
X0180368Y0040494D01*
X0179801Y0039927D01*
X0179801Y0037658D01*
X0180368Y0037091D01*
X0181502Y0037091D01*
X0182069Y0037658D01*
X0183484Y0037091D02*
X0185752Y0039360D01*
X0185752Y0039927D01*
X0185752Y0037091D02*
X0183484Y0037091D01*
X0212301Y0069591D02*
X0212301Y0072994D01*
X0214002Y0072994D01*
X0214569Y0072427D01*
X0214569Y0071293D01*
X0214002Y0070726D01*
X0212301Y0070726D01*
X0213435Y0070726D02*
X0214569Y0069591D01*
X0215984Y0069591D02*
X0218252Y0071860D01*
X0218252Y0072427D01*
X0217685Y0072994D01*
X0216551Y0072994D01*
X0215984Y0072427D01*
X0215984Y0069591D02*
X0218252Y0069591D01*
X0219667Y0069591D02*
X0219667Y0070158D01*
X0221935Y0072427D01*
X0221935Y0072994D01*
X0219667Y0072994D01*
X0228850Y0083591D02*
X0228850Y0086994D01*
X0230551Y0086994D01*
X0231119Y0086427D01*
X0231119Y0085293D01*
X0230551Y0084726D01*
X0228850Y0084726D01*
X0229984Y0084726D02*
X0231119Y0083591D01*
X0232533Y0083591D02*
X0234802Y0085860D01*
X0234802Y0086427D01*
X0234235Y0086994D01*
X0233100Y0086994D01*
X0232533Y0086427D01*
X0232533Y0083591D02*
X0234802Y0083591D01*
X0236216Y0084158D02*
X0236783Y0083591D01*
X0237918Y0083591D01*
X0238485Y0084158D01*
X0238485Y0086427D01*
X0237918Y0086994D01*
X0236783Y0086994D01*
X0236216Y0086427D01*
X0236216Y0085860D01*
X0236783Y0085293D01*
X0238485Y0085293D01*
X0242417Y0072494D02*
X0241850Y0071927D01*
X0241850Y0069658D01*
X0242417Y0069091D01*
X0243551Y0069091D01*
X0244119Y0069658D01*
X0244119Y0071927D01*
X0243551Y0072494D01*
X0242417Y0072494D01*
X0242984Y0070226D02*
X0244119Y0069091D01*
X0245533Y0070793D02*
X0247802Y0070793D01*
X0247235Y0072494D02*
X0245533Y0070793D01*
X0247235Y0069091D02*
X0247235Y0072494D01*
X0226418Y0094591D02*
X0225283Y0094591D01*
X0224716Y0095158D01*
X0224716Y0095726D01*
X0225283Y0096293D01*
X0226418Y0096293D01*
X0226985Y0095726D01*
X0226985Y0095158D01*
X0226418Y0094591D01*
X0226418Y0096293D02*
X0226985Y0096860D01*
X0226985Y0097427D01*
X0226418Y0097994D01*
X0225283Y0097994D01*
X0224716Y0097427D01*
X0224716Y0096860D01*
X0225283Y0096293D01*
X0223302Y0096860D02*
X0223302Y0097427D01*
X0222735Y0097994D01*
X0221600Y0097994D01*
X0221033Y0097427D01*
X0219619Y0097427D02*
X0219619Y0096293D01*
X0219051Y0095726D01*
X0217350Y0095726D01*
X0218484Y0095726D02*
X0219619Y0094591D01*
X0221033Y0094591D02*
X0223302Y0096860D01*
X0223302Y0094591D02*
X0221033Y0094591D01*
X0219619Y0097427D02*
X0219051Y0097994D01*
X0217350Y0097994D01*
X0217350Y0094591D01*
X0209935Y0095591D02*
X0207667Y0095591D01*
X0209935Y0097860D01*
X0209935Y0098427D01*
X0209368Y0098994D01*
X0208234Y0098994D01*
X0207667Y0098427D01*
X0206252Y0098427D02*
X0206252Y0096158D01*
X0205685Y0095591D01*
X0204551Y0095591D01*
X0203984Y0096158D01*
X0203984Y0098427D01*
X0204551Y0098994D01*
X0205685Y0098994D01*
X0206252Y0098427D01*
X0205118Y0096726D02*
X0206252Y0095591D01*
X0183750Y0088226D02*
X0183750Y0085958D01*
X0183750Y0087092D02*
X0180347Y0087092D01*
X0181481Y0085958D01*
X0183750Y0084543D02*
X0183750Y0082274D01*
X0183750Y0083409D02*
X0180347Y0083409D01*
X0181481Y0082274D01*
X0180914Y0080860D02*
X0180347Y0080293D01*
X0180347Y0079158D01*
X0180914Y0078591D01*
X0183183Y0078591D01*
X0183750Y0079158D01*
X0183750Y0080293D01*
X0183183Y0080860D01*
X0176418Y0099091D02*
X0175283Y0099091D01*
X0174716Y0099658D01*
X0176985Y0101927D01*
X0176985Y0099658D01*
X0176418Y0099091D01*
X0174716Y0099658D02*
X0174716Y0101927D01*
X0175283Y0102494D01*
X0176418Y0102494D01*
X0176985Y0101927D01*
X0173302Y0099091D02*
X0171033Y0099091D01*
X0172167Y0099091D02*
X0172167Y0102494D01*
X0171033Y0101360D01*
X0169619Y0101927D02*
X0169051Y0102494D01*
X0167917Y0102494D01*
X0167350Y0101927D01*
X0167350Y0099658D01*
X0167917Y0099091D01*
X0169051Y0099091D01*
X0169619Y0099658D01*
X0161146Y0100552D02*
X0160579Y0099985D01*
X0159445Y0099985D01*
X0158878Y0100552D01*
X0158878Y0101686D02*
X0160012Y0102254D01*
X0160579Y0102254D01*
X0161146Y0101686D01*
X0161146Y0100552D01*
X0158878Y0101686D02*
X0158878Y0103388D01*
X0161146Y0103388D01*
X0157463Y0102821D02*
X0157463Y0100552D01*
X0156896Y0099985D01*
X0155762Y0099985D01*
X0155194Y0100552D01*
X0155194Y0102821D01*
X0155762Y0103388D01*
X0156896Y0103388D01*
X0157463Y0102821D01*
X0156329Y0101119D02*
X0157463Y0099985D01*
X0157116Y0109042D02*
X0157116Y0110743D01*
X0156549Y0111311D01*
X0155414Y0111311D01*
X0154847Y0110743D01*
X0154847Y0109042D01*
X0158250Y0109042D01*
X0157116Y0110176D02*
X0158250Y0111311D01*
X0158250Y0112725D02*
X0158250Y0114994D01*
X0158250Y0113859D02*
X0154847Y0113859D01*
X0155981Y0112725D01*
X0154847Y0116408D02*
X0154847Y0118677D01*
X0155414Y0118677D01*
X0157683Y0116408D01*
X0158250Y0116408D01*
X0158250Y0124042D02*
X0154847Y0124042D01*
X0154847Y0125743D01*
X0155414Y0126311D01*
X0156549Y0126311D01*
X0157116Y0125743D01*
X0157116Y0124042D01*
X0157116Y0125176D02*
X0158250Y0126311D01*
X0158250Y0127725D02*
X0158250Y0129994D01*
X0158250Y0128859D02*
X0154847Y0128859D01*
X0155981Y0127725D01*
X0155981Y0131408D02*
X0155414Y0131408D01*
X0154847Y0131975D01*
X0154847Y0133110D01*
X0155414Y0133677D01*
X0155981Y0133677D01*
X0156549Y0133110D01*
X0156549Y0131975D01*
X0155981Y0131408D01*
X0156549Y0131975D02*
X0157116Y0131408D01*
X0157683Y0131408D01*
X0158250Y0131975D01*
X0158250Y0133110D01*
X0157683Y0133677D01*
X0157116Y0133677D01*
X0156549Y0133110D01*
X0162653Y0134620D02*
X0162653Y0131217D01*
X0164354Y0131217D01*
X0164922Y0131784D01*
X0164922Y0134053D01*
X0164354Y0134620D01*
X0162653Y0134620D01*
X0166336Y0134053D02*
X0166903Y0134620D01*
X0168038Y0134620D01*
X0168605Y0134053D01*
X0168605Y0133486D01*
X0168038Y0132919D01*
X0168605Y0132352D01*
X0168605Y0131784D01*
X0168038Y0131217D01*
X0166903Y0131217D01*
X0166336Y0131784D01*
X0167470Y0132919D02*
X0168038Y0132919D01*
X0148646Y0135052D02*
X0148079Y0134485D01*
X0146945Y0134485D01*
X0146378Y0135052D01*
X0146378Y0136186D01*
X0148079Y0136186D01*
X0148646Y0135619D01*
X0148646Y0135052D01*
X0146378Y0136186D02*
X0147512Y0137321D01*
X0148646Y0137888D01*
X0144963Y0137321D02*
X0144963Y0135052D01*
X0144396Y0134485D01*
X0143262Y0134485D01*
X0142694Y0135052D01*
X0142694Y0137321D01*
X0143262Y0137888D01*
X0144396Y0137888D01*
X0144963Y0137321D01*
X0143829Y0135619D02*
X0144963Y0134485D01*
X0132918Y0119494D02*
X0131783Y0119494D01*
X0131216Y0118927D01*
X0131216Y0118360D01*
X0131783Y0117793D01*
X0132918Y0117793D01*
X0133485Y0117226D01*
X0133485Y0116658D01*
X0132918Y0116091D01*
X0131783Y0116091D01*
X0131216Y0116658D01*
X0131216Y0117226D01*
X0131783Y0117793D01*
X0132918Y0117793D02*
X0133485Y0118360D01*
X0133485Y0118927D01*
X0132918Y0119494D01*
X0129802Y0118927D02*
X0129802Y0118360D01*
X0129235Y0117793D01*
X0129802Y0117226D01*
X0129802Y0116658D01*
X0129235Y0116091D01*
X0128100Y0116091D01*
X0127533Y0116658D01*
X0126119Y0116091D02*
X0124984Y0117226D01*
X0125551Y0117226D02*
X0123850Y0117226D01*
X0123850Y0116091D02*
X0123850Y0119494D01*
X0125551Y0119494D01*
X0126119Y0118927D01*
X0126119Y0117793D01*
X0125551Y0117226D01*
X0127533Y0118927D02*
X0128100Y0119494D01*
X0129235Y0119494D01*
X0129802Y0118927D01*
X0129235Y0117793D02*
X0128667Y0117793D01*
X0126868Y0107494D02*
X0125734Y0107494D01*
X0125167Y0106927D01*
X0125167Y0106360D01*
X0125734Y0105793D01*
X0127435Y0105793D01*
X0127435Y0106927D02*
X0127435Y0104658D01*
X0126868Y0104091D01*
X0125734Y0104091D01*
X0125167Y0104658D01*
X0123752Y0104091D02*
X0122618Y0105226D01*
X0123185Y0105226D02*
X0121484Y0105226D01*
X0121484Y0104091D02*
X0121484Y0107494D01*
X0123185Y0107494D01*
X0123752Y0106927D01*
X0123752Y0105793D01*
X0123185Y0105226D01*
X0126868Y0107494D02*
X0127435Y0106927D01*
X0131850Y0090994D02*
X0133551Y0090994D01*
X0134119Y0090427D01*
X0134119Y0089293D01*
X0133551Y0088726D01*
X0131850Y0088726D01*
X0132984Y0088726D02*
X0134119Y0087591D01*
X0135533Y0087591D02*
X0137802Y0089860D01*
X0137802Y0090427D01*
X0137235Y0090994D01*
X0136100Y0090994D01*
X0135533Y0090427D01*
X0135533Y0087591D02*
X0137802Y0087591D01*
X0139216Y0088158D02*
X0139783Y0087591D01*
X0140918Y0087591D01*
X0141485Y0088158D01*
X0141485Y0088726D01*
X0140918Y0089293D01*
X0140351Y0089293D01*
X0140918Y0089293D02*
X0141485Y0089860D01*
X0141485Y0090427D01*
X0140918Y0090994D01*
X0139783Y0090994D01*
X0139216Y0090427D01*
X0143551Y0084994D02*
X0142984Y0084427D01*
X0142984Y0082158D01*
X0143551Y0081591D01*
X0144685Y0081591D01*
X0145252Y0082158D01*
X0146667Y0082158D02*
X0147234Y0081591D01*
X0148368Y0081591D01*
X0148935Y0082158D01*
X0148935Y0084427D01*
X0148368Y0084994D01*
X0147234Y0084994D01*
X0146667Y0084427D01*
X0146667Y0083860D01*
X0147234Y0083293D01*
X0148935Y0083293D01*
X0145252Y0084427D02*
X0144685Y0084994D01*
X0143551Y0084994D01*
X0131935Y0082427D02*
X0131368Y0082994D01*
X0130234Y0082994D01*
X0129667Y0082427D01*
X0128252Y0082427D02*
X0127685Y0082994D01*
X0126551Y0082994D01*
X0125984Y0082427D01*
X0124569Y0082427D02*
X0124569Y0081293D01*
X0124002Y0080726D01*
X0122301Y0080726D01*
X0123435Y0080726D02*
X0124569Y0079591D01*
X0125984Y0079591D02*
X0128252Y0081860D01*
X0128252Y0082427D01*
X0128252Y0079591D02*
X0125984Y0079591D01*
X0124569Y0082427D02*
X0124002Y0082994D01*
X0122301Y0082994D01*
X0122301Y0079591D01*
X0118250Y0079408D02*
X0118250Y0081677D01*
X0118250Y0080542D02*
X0114847Y0080542D01*
X0115981Y0079408D01*
X0118250Y0077994D02*
X0118250Y0075725D01*
X0118250Y0076859D02*
X0114847Y0076859D01*
X0115981Y0075725D01*
X0115414Y0074311D02*
X0116549Y0074311D01*
X0117116Y0073743D01*
X0117116Y0072042D01*
X0118250Y0072042D02*
X0114847Y0072042D01*
X0114847Y0073743D01*
X0115414Y0074311D01*
X0117116Y0073176D02*
X0118250Y0074311D01*
X0118750Y0066677D02*
X0118750Y0064408D01*
X0116481Y0066677D01*
X0115914Y0066677D01*
X0115347Y0066110D01*
X0115347Y0064975D01*
X0115914Y0064408D01*
X0115347Y0061859D02*
X0118750Y0061859D01*
X0118750Y0060725D02*
X0118750Y0062994D01*
X0116481Y0060725D02*
X0115347Y0061859D01*
X0115914Y0059311D02*
X0117049Y0059311D01*
X0117616Y0058743D01*
X0117616Y0057042D01*
X0118750Y0057042D02*
X0115347Y0057042D01*
X0115347Y0058743D01*
X0115914Y0059311D01*
X0117616Y0058176D02*
X0118750Y0059311D01*
X0107431Y0049274D02*
X0105730Y0047572D01*
X0107998Y0047572D01*
X0107431Y0045871D02*
X0107431Y0049274D01*
X0104315Y0048707D02*
X0104315Y0046438D01*
X0103748Y0045871D01*
X0102047Y0045871D01*
X0102047Y0049274D01*
X0103748Y0049274D01*
X0104315Y0048707D01*
X0101250Y0052725D02*
X0097847Y0052725D01*
X0097847Y0054427D01*
X0098414Y0054994D01*
X0099549Y0054994D01*
X0100116Y0054427D01*
X0100116Y0052725D01*
X0100116Y0053859D02*
X0101250Y0054994D01*
X0099549Y0056408D02*
X0099549Y0058677D01*
X0101250Y0058110D02*
X0097847Y0058110D01*
X0099549Y0056408D01*
X0084250Y0054659D02*
X0084250Y0053525D01*
X0083683Y0052958D01*
X0082549Y0053525D02*
X0082549Y0055226D01*
X0083683Y0055226D02*
X0081414Y0055226D01*
X0080847Y0054659D01*
X0080847Y0053525D01*
X0081414Y0052958D01*
X0081981Y0052958D01*
X0082549Y0053525D01*
X0084250Y0054659D02*
X0083683Y0055226D01*
X0084250Y0051543D02*
X0084250Y0049274D01*
X0084250Y0050409D02*
X0080847Y0050409D01*
X0081981Y0049274D01*
X0081414Y0047860D02*
X0082549Y0047860D01*
X0083116Y0047293D01*
X0083116Y0045591D01*
X0084250Y0045591D02*
X0080847Y0045591D01*
X0080847Y0047293D01*
X0081414Y0047860D01*
X0083116Y0046726D02*
X0084250Y0047860D01*
X0077802Y0068591D02*
X0075533Y0068591D01*
X0077802Y0070860D01*
X0077802Y0071427D01*
X0077235Y0071994D01*
X0076100Y0071994D01*
X0075533Y0071427D01*
X0074119Y0071427D02*
X0073551Y0071994D01*
X0072417Y0071994D01*
X0071850Y0071427D01*
X0071850Y0069158D01*
X0072417Y0068591D01*
X0073551Y0068591D01*
X0074119Y0069158D01*
X0090347Y0074792D02*
X0090914Y0074225D01*
X0093183Y0074225D01*
X0093750Y0074792D01*
X0093750Y0075927D01*
X0093183Y0076494D01*
X0093183Y0077908D02*
X0092616Y0077908D01*
X0092049Y0078475D01*
X0092049Y0079610D01*
X0092616Y0080177D01*
X0093183Y0080177D01*
X0093750Y0079610D01*
X0093750Y0078475D01*
X0093183Y0077908D01*
X0092049Y0078475D02*
X0091481Y0077908D01*
X0090914Y0077908D01*
X0090347Y0078475D01*
X0090347Y0079610D01*
X0090914Y0080177D01*
X0091481Y0080177D01*
X0092049Y0079610D01*
X0090914Y0076494D02*
X0090347Y0075927D01*
X0090347Y0074792D01*
X0101850Y0082591D02*
X0101850Y0085994D01*
X0103551Y0085994D01*
X0104119Y0085427D01*
X0104119Y0084293D01*
X0103551Y0083726D01*
X0101850Y0083726D01*
X0102984Y0083726D02*
X0104119Y0082591D01*
X0105533Y0083158D02*
X0106100Y0082591D01*
X0107235Y0082591D01*
X0107802Y0083158D01*
X0107802Y0084293D01*
X0107235Y0084860D01*
X0106667Y0084860D01*
X0105533Y0084293D01*
X0105533Y0085994D01*
X0107802Y0085994D01*
X0094077Y0100855D02*
X0091809Y0100855D01*
X0094077Y0103124D01*
X0094077Y0103691D01*
X0093510Y0104258D01*
X0092376Y0104258D01*
X0091809Y0103691D01*
X0090394Y0104258D02*
X0090394Y0101422D01*
X0089827Y0100855D01*
X0088693Y0100855D01*
X0088125Y0101422D01*
X0088125Y0104258D01*
X0078568Y0106331D02*
X0078570Y0106416D01*
X0078576Y0106500D01*
X0078586Y0106585D01*
X0078600Y0106668D01*
X0078617Y0106751D01*
X0078639Y0106833D01*
X0078665Y0106914D01*
X0078694Y0106994D01*
X0078727Y0107072D01*
X0078763Y0107148D01*
X0078803Y0107223D01*
X0078847Y0107296D01*
X0078894Y0107367D01*
X0078944Y0107435D01*
X0078997Y0107501D01*
X0079054Y0107564D01*
X0079113Y0107625D01*
X0079175Y0107683D01*
X0079240Y0107738D01*
X0079307Y0107790D01*
X0079376Y0107838D01*
X0079448Y0107883D01*
X0079522Y0107925D01*
X0079598Y0107963D01*
X0079675Y0107998D01*
X0079754Y0108029D01*
X0079834Y0108057D01*
X0079916Y0108080D01*
X0079998Y0108100D01*
X0080081Y0108116D01*
X0080165Y0108128D01*
X0080250Y0108136D01*
X0080335Y0108140D01*
X0080419Y0108140D01*
X0080504Y0108136D01*
X0080589Y0108128D01*
X0080673Y0108116D01*
X0080756Y0108100D01*
X0080838Y0108080D01*
X0080920Y0108057D01*
X0081000Y0108029D01*
X0081079Y0107998D01*
X0081156Y0107963D01*
X0081232Y0107925D01*
X0081306Y0107883D01*
X0081378Y0107838D01*
X0081447Y0107790D01*
X0081514Y0107738D01*
X0081579Y0107683D01*
X0081641Y0107625D01*
X0081700Y0107564D01*
X0081757Y0107501D01*
X0081810Y0107435D01*
X0081860Y0107367D01*
X0081907Y0107296D01*
X0081951Y0107223D01*
X0081991Y0107148D01*
X0082027Y0107072D01*
X0082060Y0106994D01*
X0082089Y0106914D01*
X0082115Y0106833D01*
X0082137Y0106751D01*
X0082154Y0106668D01*
X0082168Y0106585D01*
X0082178Y0106500D01*
X0082184Y0106416D01*
X0082186Y0106331D01*
X0082184Y0106246D01*
X0082178Y0106162D01*
X0082168Y0106077D01*
X0082154Y0105994D01*
X0082137Y0105911D01*
X0082115Y0105829D01*
X0082089Y0105748D01*
X0082060Y0105668D01*
X0082027Y0105590D01*
X0081991Y0105514D01*
X0081951Y0105439D01*
X0081907Y0105366D01*
X0081860Y0105295D01*
X0081810Y0105227D01*
X0081757Y0105161D01*
X0081700Y0105098D01*
X0081641Y0105037D01*
X0081579Y0104979D01*
X0081514Y0104924D01*
X0081447Y0104872D01*
X0081378Y0104824D01*
X0081306Y0104779D01*
X0081232Y0104737D01*
X0081156Y0104699D01*
X0081079Y0104664D01*
X0081000Y0104633D01*
X0080920Y0104605D01*
X0080838Y0104582D01*
X0080756Y0104562D01*
X0080673Y0104546D01*
X0080589Y0104534D01*
X0080504Y0104526D01*
X0080419Y0104522D01*
X0080335Y0104522D01*
X0080250Y0104526D01*
X0080165Y0104534D01*
X0080081Y0104546D01*
X0079998Y0104562D01*
X0079916Y0104582D01*
X0079834Y0104605D01*
X0079754Y0104633D01*
X0079675Y0104664D01*
X0079598Y0104699D01*
X0079522Y0104737D01*
X0079448Y0104779D01*
X0079376Y0104824D01*
X0079307Y0104872D01*
X0079240Y0104924D01*
X0079175Y0104979D01*
X0079113Y0105037D01*
X0079054Y0105098D01*
X0078997Y0105161D01*
X0078944Y0105227D01*
X0078894Y0105295D01*
X0078847Y0105366D01*
X0078803Y0105439D01*
X0078763Y0105514D01*
X0078727Y0105590D01*
X0078694Y0105668D01*
X0078665Y0105748D01*
X0078639Y0105829D01*
X0078617Y0105911D01*
X0078600Y0105994D01*
X0078586Y0106077D01*
X0078576Y0106162D01*
X0078570Y0106246D01*
X0078568Y0106331D01*
X0077522Y0107020D02*
X0077522Y0085563D01*
X0036578Y0085563D01*
X0036578Y0107020D01*
X0077522Y0107020D01*
X0064368Y0122091D02*
X0063234Y0122091D01*
X0062667Y0122658D01*
X0061252Y0122658D02*
X0060685Y0122091D01*
X0059551Y0122091D01*
X0058984Y0122658D01*
X0058984Y0124927D01*
X0059551Y0125494D01*
X0060685Y0125494D01*
X0061252Y0124927D01*
X0062667Y0124927D02*
X0063234Y0125494D01*
X0064368Y0125494D01*
X0064935Y0124927D01*
X0064935Y0124360D01*
X0064368Y0123793D01*
X0064935Y0123226D01*
X0064935Y0122658D01*
X0064368Y0122091D01*
X0064368Y0123793D02*
X0063801Y0123793D01*
X0059418Y0132591D02*
X0058283Y0132591D01*
X0057716Y0133158D01*
X0059985Y0135427D01*
X0059985Y0133158D01*
X0059418Y0132591D01*
X0057716Y0133158D02*
X0057716Y0135427D01*
X0058283Y0135994D01*
X0059418Y0135994D01*
X0059985Y0135427D01*
X0056302Y0132591D02*
X0054033Y0132591D01*
X0055167Y0132591D02*
X0055167Y0135994D01*
X0054033Y0134860D01*
X0052619Y0135427D02*
X0052619Y0134293D01*
X0052051Y0133726D01*
X0050350Y0133726D01*
X0051484Y0133726D02*
X0052619Y0132591D01*
X0050350Y0132591D02*
X0050350Y0135994D01*
X0052051Y0135994D01*
X0052619Y0135427D01*
X0036935Y0135494D02*
X0034667Y0135494D01*
X0034667Y0133793D01*
X0035801Y0134360D01*
X0036368Y0134360D01*
X0036935Y0133793D01*
X0036935Y0132658D01*
X0036368Y0132091D01*
X0035234Y0132091D01*
X0034667Y0132658D01*
X0033252Y0132091D02*
X0030984Y0132091D01*
X0033252Y0134360D01*
X0033252Y0134927D01*
X0032685Y0135494D01*
X0031551Y0135494D01*
X0030984Y0134927D01*
X0029569Y0134927D02*
X0029002Y0135494D01*
X0027301Y0135494D01*
X0027301Y0132091D01*
X0027301Y0133226D02*
X0029002Y0133226D01*
X0029569Y0133793D01*
X0029569Y0134927D01*
X0028435Y0133226D02*
X0029569Y0132091D01*
X0029051Y0117994D02*
X0029619Y0117427D01*
X0029619Y0116293D01*
X0029051Y0115726D01*
X0027350Y0115726D01*
X0028484Y0115726D02*
X0029619Y0114591D01*
X0031033Y0114591D02*
X0033302Y0116860D01*
X0033302Y0117427D01*
X0032735Y0117994D01*
X0031600Y0117994D01*
X0031033Y0117427D01*
X0029051Y0117994D02*
X0027350Y0117994D01*
X0027350Y0114591D01*
X0031033Y0114591D02*
X0033302Y0114591D01*
X0034716Y0116293D02*
X0036985Y0116293D01*
X0036418Y0117994D02*
X0034716Y0116293D01*
X0036418Y0114591D02*
X0036418Y0117994D01*
X0034360Y0098518D02*
X0033226Y0097384D01*
X0034360Y0098518D02*
X0034360Y0095115D01*
X0033226Y0095115D02*
X0035495Y0095115D01*
X0031812Y0095682D02*
X0031812Y0098518D01*
X0029543Y0098518D02*
X0029543Y0095682D01*
X0030110Y0095115D01*
X0031244Y0095115D01*
X0031812Y0095682D01*
X0019132Y0092801D02*
X0018565Y0093368D01*
X0017431Y0093368D01*
X0016864Y0092801D01*
X0015449Y0092801D02*
X0014882Y0093368D01*
X0013181Y0093368D01*
X0013181Y0089965D01*
X0014882Y0089965D01*
X0015449Y0090533D01*
X0015449Y0092801D01*
X0016864Y0089965D02*
X0019132Y0092234D01*
X0019132Y0092801D01*
X0019132Y0089965D02*
X0016864Y0089965D01*
X0016185Y0072994D02*
X0014484Y0072994D01*
X0014484Y0069591D01*
X0014484Y0070726D02*
X0016185Y0070726D01*
X0016752Y0071293D01*
X0016752Y0072427D01*
X0016185Y0072994D01*
X0018167Y0071860D02*
X0019301Y0072994D01*
X0019301Y0069591D01*
X0018167Y0069591D02*
X0020435Y0069591D01*
X0016752Y0069591D02*
X0015618Y0070726D01*
X0023484Y0063494D02*
X0025185Y0063494D01*
X0025752Y0062927D01*
X0025752Y0061793D01*
X0025185Y0061226D01*
X0023484Y0061226D01*
X0024618Y0061226D02*
X0025752Y0060091D01*
X0027167Y0060091D02*
X0029435Y0062360D01*
X0029435Y0062927D01*
X0028868Y0063494D01*
X0027734Y0063494D01*
X0027167Y0062927D01*
X0027167Y0060091D02*
X0029435Y0060091D01*
X0023484Y0060091D02*
X0023484Y0063494D01*
X0037484Y0065158D02*
X0038051Y0064591D01*
X0039185Y0064591D01*
X0039752Y0065158D01*
X0041167Y0065158D02*
X0041734Y0064591D01*
X0042868Y0064591D01*
X0043435Y0065158D01*
X0043435Y0066293D01*
X0042868Y0066860D01*
X0042301Y0066860D01*
X0041167Y0066293D01*
X0041167Y0067994D01*
X0043435Y0067994D01*
X0039752Y0067427D02*
X0039185Y0067994D01*
X0038051Y0067994D01*
X0037484Y0067427D01*
X0037484Y0065158D01*
X0038051Y0072091D02*
X0037484Y0072658D01*
X0037484Y0074927D01*
X0038051Y0075494D01*
X0039185Y0075494D01*
X0039752Y0074927D01*
X0041167Y0073793D02*
X0043435Y0073793D01*
X0042868Y0072091D02*
X0042868Y0075494D01*
X0041167Y0073793D01*
X0039752Y0072658D02*
X0039185Y0072091D01*
X0038051Y0072091D01*
X0080350Y0090158D02*
X0080917Y0089591D01*
X0082051Y0089591D01*
X0082619Y0090158D01*
X0084033Y0090158D02*
X0084600Y0089591D01*
X0085735Y0089591D01*
X0086302Y0090158D01*
X0086302Y0090726D01*
X0085735Y0091293D01*
X0084033Y0091293D01*
X0084033Y0090158D01*
X0084033Y0091293D02*
X0085167Y0092427D01*
X0086302Y0092994D01*
X0082619Y0092427D02*
X0082051Y0092994D01*
X0080917Y0092994D01*
X0080350Y0092427D01*
X0080350Y0090158D01*
X0095914Y0128225D02*
X0098183Y0128225D01*
X0098750Y0128792D01*
X0098750Y0129927D01*
X0098183Y0130494D01*
X0098183Y0131908D02*
X0098750Y0131908D01*
X0098183Y0131908D02*
X0095914Y0134177D01*
X0095347Y0134177D01*
X0095347Y0131908D01*
X0095914Y0130494D02*
X0095347Y0129927D01*
X0095347Y0128792D01*
X0095914Y0128225D01*
X0102847Y0128225D02*
X0102847Y0129927D01*
X0103414Y0130494D01*
X0104549Y0130494D01*
X0105116Y0129927D01*
X0105116Y0128225D01*
X0106250Y0128225D02*
X0102847Y0128225D01*
X0105116Y0129359D02*
X0106250Y0130494D01*
X0105683Y0131908D02*
X0106250Y0132475D01*
X0106250Y0133610D01*
X0105683Y0134177D01*
X0105116Y0134177D01*
X0104549Y0133610D01*
X0104549Y0131908D01*
X0105683Y0131908D01*
X0104549Y0131908D02*
X0103414Y0133042D01*
X0102847Y0134177D01*
X0110847Y0134177D02*
X0111414Y0134177D01*
X0113683Y0131908D01*
X0114250Y0131908D01*
X0114250Y0130494D02*
X0113116Y0129359D01*
X0113116Y0129927D02*
X0113116Y0128225D01*
X0114250Y0128225D02*
X0110847Y0128225D01*
X0110847Y0129927D01*
X0111414Y0130494D01*
X0112549Y0130494D01*
X0113116Y0129927D01*
X0110847Y0131908D02*
X0110847Y0134177D01*
X0117847Y0133610D02*
X0118414Y0134177D01*
X0118981Y0134177D01*
X0119549Y0133610D01*
X0119549Y0132475D01*
X0118981Y0131908D01*
X0118414Y0131908D01*
X0117847Y0132475D01*
X0117847Y0133610D01*
X0119549Y0133610D02*
X0120116Y0134177D01*
X0120683Y0134177D01*
X0121250Y0133610D01*
X0121250Y0132475D01*
X0120683Y0131908D01*
X0120116Y0131908D01*
X0119549Y0132475D01*
X0119549Y0130494D02*
X0120116Y0129927D01*
X0120116Y0128225D01*
X0121250Y0128225D02*
X0117847Y0128225D01*
X0117847Y0129927D01*
X0118414Y0130494D01*
X0119549Y0130494D01*
X0120116Y0129359D02*
X0121250Y0130494D01*
X0111868Y0169591D02*
X0110734Y0169591D01*
X0110167Y0170158D01*
X0108752Y0169591D02*
X0106484Y0169591D01*
X0107618Y0169591D02*
X0107618Y0172994D01*
X0106484Y0171860D01*
X0105069Y0172427D02*
X0105069Y0171293D01*
X0104502Y0170726D01*
X0102801Y0170726D01*
X0103935Y0170726D02*
X0105069Y0169591D01*
X0102801Y0169591D02*
X0102801Y0172994D01*
X0104502Y0172994D01*
X0105069Y0172427D01*
X0110167Y0172427D02*
X0110734Y0172994D01*
X0111868Y0172994D01*
X0112435Y0172427D01*
X0112435Y0171860D01*
X0111868Y0171293D01*
X0112435Y0170726D01*
X0112435Y0170158D01*
X0111868Y0169591D01*
X0111868Y0171293D02*
X0111301Y0171293D01*
X0189185Y0137317D02*
X0189185Y0135048D01*
X0189752Y0134481D01*
X0190886Y0134481D01*
X0191453Y0135048D01*
X0192868Y0134481D02*
X0195136Y0134481D01*
X0194002Y0134481D02*
X0194002Y0137884D01*
X0192868Y0136750D01*
X0191453Y0137317D02*
X0190886Y0137884D01*
X0189752Y0137884D01*
X0189185Y0137317D01*
X0196551Y0137317D02*
X0197118Y0137884D01*
X0198252Y0137884D01*
X0198820Y0137317D01*
X0198820Y0136750D01*
X0196551Y0134481D01*
X0198820Y0134481D01*
X0201850Y0123994D02*
X0203551Y0123994D01*
X0204119Y0123427D01*
X0204119Y0122293D01*
X0203551Y0121726D01*
X0201850Y0121726D01*
X0202984Y0121726D02*
X0204119Y0120591D01*
X0205533Y0121158D02*
X0206100Y0120591D01*
X0207235Y0120591D01*
X0207802Y0121158D01*
X0207802Y0121726D01*
X0207235Y0122293D01*
X0206100Y0122293D01*
X0205533Y0122860D01*
X0205533Y0123427D01*
X0206100Y0123994D01*
X0207235Y0123994D01*
X0207802Y0123427D01*
X0209216Y0123994D02*
X0211485Y0123994D01*
X0210351Y0123994D02*
X0210351Y0120591D01*
X0201850Y0120591D02*
X0201850Y0123994D01*
X0241850Y0105427D02*
X0242417Y0105994D01*
X0243551Y0105994D01*
X0244119Y0105427D01*
X0244119Y0103158D01*
X0243551Y0102591D01*
X0242417Y0102591D01*
X0241850Y0103158D01*
X0241850Y0105427D01*
X0242984Y0103726D02*
X0244119Y0102591D01*
X0245533Y0103158D02*
X0246100Y0102591D01*
X0247235Y0102591D01*
X0247802Y0103158D01*
X0247802Y0103726D01*
X0247235Y0104293D01*
X0246667Y0104293D01*
X0247235Y0104293D02*
X0247802Y0104860D01*
X0247802Y0105427D01*
X0247235Y0105994D01*
X0246100Y0105994D01*
X0245533Y0105427D01*
X0265347Y0125658D02*
X0265914Y0125091D01*
X0268183Y0125091D01*
X0268750Y0125658D01*
X0268750Y0126793D01*
X0268183Y0127360D01*
X0268750Y0128774D02*
X0268750Y0131043D01*
X0268750Y0129909D02*
X0265347Y0129909D01*
X0266481Y0128774D01*
X0265914Y0127360D02*
X0265347Y0126793D01*
X0265347Y0125658D01*
X0265347Y0132458D02*
X0267049Y0132458D01*
X0266481Y0133592D01*
X0266481Y0134159D01*
X0267049Y0134726D01*
X0268183Y0134726D01*
X0268750Y0134159D01*
X0268750Y0133025D01*
X0268183Y0132458D01*
X0265347Y0132458D02*
X0265347Y0134726D01*
X0275347Y0135592D02*
X0278750Y0135592D01*
X0278750Y0134458D02*
X0278750Y0136726D01*
X0276481Y0134458D02*
X0275347Y0135592D01*
X0275914Y0133043D02*
X0276481Y0133043D01*
X0277049Y0132476D01*
X0277616Y0133043D01*
X0278183Y0133043D01*
X0278750Y0132476D01*
X0278750Y0131342D01*
X0278183Y0130774D01*
X0278750Y0129360D02*
X0277616Y0128226D01*
X0277616Y0128793D02*
X0277616Y0127091D01*
X0278750Y0127091D02*
X0275347Y0127091D01*
X0275347Y0128793D01*
X0275914Y0129360D01*
X0277049Y0129360D01*
X0277616Y0128793D01*
X0275914Y0130774D02*
X0275347Y0131342D01*
X0275347Y0132476D01*
X0275914Y0133043D01*
X0277049Y0132476D02*
X0277049Y0131909D01*
X0251250Y0133043D02*
X0251250Y0130774D01*
X0248981Y0133043D01*
X0248414Y0133043D01*
X0247847Y0132476D01*
X0247847Y0131342D01*
X0248414Y0130774D01*
X0248414Y0129360D02*
X0249549Y0129360D01*
X0250116Y0128793D01*
X0250116Y0127091D01*
X0251250Y0127091D02*
X0247847Y0127091D01*
X0247847Y0128793D01*
X0248414Y0129360D01*
X0250116Y0128226D02*
X0251250Y0129360D01*
X0250683Y0134458D02*
X0249549Y0134458D01*
X0249549Y0136159D01*
X0250116Y0136726D01*
X0250683Y0136726D01*
X0251250Y0136159D01*
X0251250Y0135025D01*
X0250683Y0134458D01*
X0249549Y0134458D02*
X0248414Y0135592D01*
X0247847Y0136726D01*
X0304847Y0136726D02*
X0304847Y0134458D01*
X0305414Y0133043D02*
X0305981Y0133043D01*
X0306549Y0132476D01*
X0307116Y0133043D01*
X0307683Y0133043D01*
X0308250Y0132476D01*
X0308250Y0131342D01*
X0307683Y0130774D01*
X0308250Y0129360D02*
X0307116Y0128226D01*
X0307116Y0128793D02*
X0307116Y0127091D01*
X0308250Y0127091D02*
X0304847Y0127091D01*
X0304847Y0128793D01*
X0305414Y0129360D01*
X0306549Y0129360D01*
X0307116Y0128793D01*
X0305414Y0130774D02*
X0304847Y0131342D01*
X0304847Y0132476D01*
X0305414Y0133043D01*
X0306549Y0132476D02*
X0306549Y0131909D01*
X0307683Y0134458D02*
X0308250Y0134458D01*
X0307683Y0134458D02*
X0305414Y0136726D01*
X0304847Y0136726D01*
X0326350Y0129927D02*
X0326350Y0127658D01*
X0326917Y0127091D01*
X0328051Y0127091D01*
X0328619Y0127658D01*
X0330033Y0127091D02*
X0332302Y0127091D01*
X0331167Y0127091D02*
X0331167Y0130494D01*
X0330033Y0129360D01*
X0328619Y0129927D02*
X0328051Y0130494D01*
X0326917Y0130494D01*
X0326350Y0129927D01*
X0333716Y0129927D02*
X0334283Y0130494D01*
X0335418Y0130494D01*
X0335985Y0129927D01*
X0335985Y0129360D01*
X0335418Y0128793D01*
X0335985Y0128226D01*
X0335985Y0127658D01*
X0335418Y0127091D01*
X0334283Y0127091D01*
X0333716Y0127658D01*
X0334851Y0128793D02*
X0335418Y0128793D01*
X0338417Y0143591D02*
X0339551Y0143591D01*
X0340119Y0144158D01*
X0341533Y0143591D02*
X0343802Y0143591D01*
X0342667Y0143591D02*
X0342667Y0146994D01*
X0341533Y0145860D01*
X0340119Y0146427D02*
X0339551Y0146994D01*
X0338417Y0146994D01*
X0337850Y0146427D01*
X0337850Y0144158D01*
X0338417Y0143591D01*
X0345216Y0145293D02*
X0347485Y0145293D01*
X0346918Y0146994D02*
X0345216Y0145293D01*
X0346918Y0143591D02*
X0346918Y0146994D01*
X0289368Y0227091D02*
X0289935Y0227658D01*
X0289935Y0229927D01*
X0289368Y0230494D01*
X0288234Y0230494D01*
X0287667Y0229927D01*
X0287667Y0229360D01*
X0288234Y0228793D01*
X0289935Y0228793D01*
X0289368Y0227091D02*
X0288234Y0227091D01*
X0287667Y0227658D01*
X0286252Y0227658D02*
X0285685Y0227091D01*
X0284551Y0227091D01*
X0283984Y0227658D01*
X0282569Y0227091D02*
X0281435Y0228226D01*
X0282002Y0228226D02*
X0280301Y0228226D01*
X0280301Y0227091D02*
X0280301Y0230494D01*
X0282002Y0230494D01*
X0282569Y0229927D01*
X0282569Y0228793D01*
X0282002Y0228226D01*
X0283984Y0229927D02*
X0284551Y0230494D01*
X0285685Y0230494D01*
X0286252Y0229927D01*
X0286252Y0229360D01*
X0285685Y0228793D01*
X0286252Y0228226D01*
X0286252Y0227658D01*
X0285685Y0228793D02*
X0285118Y0228793D01*
X0298914Y0244091D02*
X0301183Y0244091D01*
X0301750Y0244658D01*
X0301750Y0245793D01*
X0301183Y0246360D01*
X0301750Y0247774D02*
X0298347Y0247774D01*
X0298347Y0249476D01*
X0298914Y0250043D01*
X0300049Y0250043D01*
X0300616Y0249476D01*
X0300616Y0247774D01*
X0300616Y0248909D02*
X0301750Y0250043D01*
X0304347Y0249476D02*
X0304914Y0250043D01*
X0306049Y0250043D01*
X0306616Y0249476D01*
X0306616Y0247774D01*
X0307750Y0247774D02*
X0304347Y0247774D01*
X0304347Y0249476D01*
X0306616Y0248909D02*
X0307750Y0250043D01*
X0307183Y0246360D02*
X0307750Y0245793D01*
X0307750Y0244658D01*
X0307183Y0244091D01*
X0304914Y0244091D01*
X0304347Y0244658D01*
X0304347Y0245793D01*
X0304914Y0246360D01*
X0298914Y0246360D02*
X0298347Y0245793D01*
X0298347Y0244658D01*
X0298914Y0244091D01*
X0293640Y0252725D02*
X0290804Y0252725D01*
X0290804Y0254994D02*
X0293640Y0254994D01*
X0294207Y0254427D01*
X0294207Y0253292D01*
X0293640Y0252725D01*
X0292505Y0256408D02*
X0292505Y0258677D01*
X0294207Y0258110D02*
X0290804Y0258110D01*
X0292505Y0256408D01*
X0298347Y0256275D02*
X0301750Y0256275D01*
X0301750Y0255141D02*
X0301750Y0257409D01*
X0301750Y0258824D02*
X0299481Y0261093D01*
X0298914Y0261093D01*
X0298347Y0260525D01*
X0298347Y0259391D01*
X0298914Y0258824D01*
X0298347Y0256275D02*
X0299481Y0255141D01*
X0301750Y0258824D02*
X0301750Y0261093D01*
X0301750Y0262507D02*
X0299481Y0264776D01*
X0298914Y0264776D01*
X0298347Y0264209D01*
X0298347Y0263074D01*
X0298914Y0262507D01*
X0301750Y0262507D02*
X0301750Y0264776D01*
X0301183Y0266190D02*
X0298914Y0268459D01*
X0301183Y0268459D01*
X0301750Y0267892D01*
X0301750Y0266757D01*
X0301183Y0266190D01*
X0298914Y0266190D01*
X0298347Y0266757D01*
X0298347Y0267892D01*
X0298914Y0268459D01*
X0304347Y0268459D02*
X0304347Y0266190D01*
X0306049Y0266190D01*
X0305481Y0267325D01*
X0305481Y0267892D01*
X0306049Y0268459D01*
X0307183Y0268459D01*
X0307750Y0267892D01*
X0307750Y0266757D01*
X0307183Y0266190D01*
X0307750Y0264776D02*
X0307750Y0262507D01*
X0305481Y0264776D01*
X0304914Y0264776D01*
X0304347Y0264209D01*
X0304347Y0263074D01*
X0304914Y0262507D01*
X0304914Y0261093D02*
X0304347Y0260525D01*
X0304347Y0259391D01*
X0304914Y0258824D01*
X0304914Y0261093D02*
X0305481Y0261093D01*
X0307750Y0258824D01*
X0307750Y0261093D01*
X0307750Y0257409D02*
X0307750Y0255141D01*
X0307750Y0256275D02*
X0304347Y0256275D01*
X0305481Y0255141D01*
X0293935Y0273591D02*
X0291667Y0273591D01*
X0293935Y0275860D01*
X0293935Y0276427D01*
X0293368Y0276994D01*
X0292234Y0276994D01*
X0291667Y0276427D01*
X0290252Y0276427D02*
X0289685Y0276994D01*
X0288551Y0276994D01*
X0287984Y0276427D01*
X0286569Y0276427D02*
X0286002Y0276994D01*
X0284868Y0276994D01*
X0284301Y0276427D01*
X0284301Y0274158D01*
X0284868Y0273591D01*
X0286002Y0273591D01*
X0286569Y0274158D01*
X0287984Y0273591D02*
X0290252Y0275860D01*
X0290252Y0276427D01*
X0290252Y0273591D02*
X0287984Y0273591D01*
X0273485Y0279158D02*
X0272918Y0278591D01*
X0271783Y0278591D01*
X0271216Y0279158D01*
X0269802Y0278591D02*
X0267533Y0278591D01*
X0269802Y0280860D01*
X0269802Y0281427D01*
X0269235Y0281994D01*
X0268100Y0281994D01*
X0267533Y0281427D01*
X0266119Y0281427D02*
X0265551Y0281994D01*
X0264417Y0281994D01*
X0263850Y0281427D01*
X0263850Y0279158D01*
X0264417Y0278591D01*
X0265551Y0278591D01*
X0266119Y0279158D01*
X0271216Y0281427D02*
X0271783Y0281994D01*
X0272918Y0281994D01*
X0273485Y0281427D01*
X0273485Y0280860D01*
X0272918Y0280293D01*
X0273485Y0279726D01*
X0273485Y0279158D01*
X0272918Y0280293D02*
X0272351Y0280293D01*
X0272216Y0301457D02*
X0272216Y0304860D01*
X0273918Y0304860D01*
X0274485Y0304293D01*
X0274485Y0303158D01*
X0273918Y0302591D01*
X0272216Y0302591D01*
X0270802Y0303726D02*
X0268533Y0303726D01*
X0268533Y0304293D02*
X0269100Y0304860D01*
X0270235Y0304860D01*
X0270802Y0304293D01*
X0270802Y0303726D01*
X0270235Y0302591D02*
X0269100Y0302591D01*
X0268533Y0303158D01*
X0268533Y0304293D01*
X0267119Y0302591D02*
X0264850Y0302591D01*
X0264850Y0305994D01*
X0275899Y0304860D02*
X0277034Y0304860D01*
X0276467Y0305427D02*
X0276467Y0303158D01*
X0277034Y0302591D01*
X0278355Y0303158D02*
X0278922Y0302591D01*
X0280056Y0302591D01*
X0280623Y0303158D01*
X0280623Y0304293D01*
X0280056Y0304860D01*
X0278922Y0304860D01*
X0278355Y0304293D01*
X0278355Y0303158D01*
X0282038Y0302591D02*
X0282038Y0304860D01*
X0283739Y0304860D01*
X0284307Y0304293D01*
X0284307Y0302591D01*
X0247258Y0280660D02*
X0247258Y0277257D01*
X0247825Y0278958D02*
X0245557Y0278958D01*
X0247258Y0280660D01*
X0244142Y0280092D02*
X0244142Y0279525D01*
X0241873Y0277257D01*
X0244142Y0277257D01*
X0244142Y0280092D02*
X0243575Y0280660D01*
X0242441Y0280660D01*
X0241873Y0280092D01*
X0240459Y0280092D02*
X0239892Y0280660D01*
X0238757Y0280660D01*
X0238190Y0280092D01*
X0238190Y0277824D01*
X0238757Y0277257D01*
X0239892Y0277257D01*
X0240459Y0277824D01*
X0223750Y0264159D02*
X0223183Y0264726D01*
X0220914Y0264726D01*
X0220347Y0264159D01*
X0220347Y0262458D01*
X0223750Y0262458D01*
X0223750Y0264159D01*
X0223750Y0261043D02*
X0220347Y0261043D01*
X0220347Y0258774D02*
X0223750Y0261043D01*
X0223750Y0258774D02*
X0220347Y0258774D01*
X0220914Y0257360D02*
X0220347Y0256793D01*
X0220347Y0255658D01*
X0220914Y0255091D01*
X0223183Y0255091D01*
X0223750Y0255658D01*
X0223750Y0256793D01*
X0223183Y0257360D01*
X0222049Y0257360D01*
X0222049Y0256226D01*
X0213750Y0256158D02*
X0213183Y0255591D01*
X0213750Y0256158D02*
X0213750Y0257293D01*
X0213183Y0257860D01*
X0212616Y0257860D01*
X0212049Y0257293D01*
X0212049Y0256726D01*
X0212049Y0257293D02*
X0211481Y0257860D01*
X0210914Y0257860D01*
X0210347Y0257293D01*
X0210347Y0256158D01*
X0210914Y0255591D01*
X0210347Y0259274D02*
X0212616Y0259274D01*
X0213750Y0260409D01*
X0212616Y0261543D01*
X0210347Y0261543D01*
X0210914Y0262958D02*
X0210347Y0263525D01*
X0210347Y0264659D01*
X0210914Y0265226D01*
X0211481Y0265226D01*
X0212049Y0264659D01*
X0212616Y0265226D01*
X0213183Y0265226D01*
X0213750Y0264659D01*
X0213750Y0263525D01*
X0213183Y0262958D01*
X0212049Y0264092D02*
X0212049Y0264659D01*
X0203750Y0265226D02*
X0201481Y0265226D01*
X0200347Y0264092D01*
X0201481Y0262958D01*
X0203750Y0262958D01*
X0203183Y0261543D02*
X0200914Y0261543D01*
X0200347Y0260976D01*
X0200347Y0259274D01*
X0203750Y0259274D01*
X0203750Y0260976D01*
X0203183Y0261543D01*
X0202049Y0262958D02*
X0202049Y0265226D01*
X0202616Y0257860D02*
X0203183Y0257860D01*
X0203750Y0257293D01*
X0203750Y0256158D01*
X0203183Y0255591D01*
X0202049Y0256158D02*
X0202049Y0257293D01*
X0202616Y0257860D01*
X0200914Y0257860D02*
X0200347Y0257293D01*
X0200347Y0256158D01*
X0200914Y0255591D01*
X0201481Y0255591D01*
X0202049Y0256158D01*
X0203850Y0249994D02*
X0204984Y0249994D01*
X0204417Y0249994D02*
X0204417Y0246591D01*
X0203850Y0246591D02*
X0204984Y0246591D01*
X0206305Y0246591D02*
X0208574Y0248860D01*
X0208574Y0249427D01*
X0208007Y0249994D01*
X0206873Y0249994D01*
X0206305Y0249427D01*
X0206305Y0246591D02*
X0208574Y0246591D01*
X0209989Y0247158D02*
X0210556Y0246591D01*
X0211690Y0246591D01*
X0212257Y0247158D01*
X0209989Y0247158D02*
X0209989Y0249427D01*
X0210556Y0249994D01*
X0211690Y0249994D01*
X0212257Y0249427D01*
X0193750Y0256158D02*
X0193183Y0255591D01*
X0193750Y0256158D02*
X0193750Y0257293D01*
X0193183Y0257860D01*
X0192616Y0257860D01*
X0192049Y0257293D01*
X0192049Y0256158D01*
X0191481Y0255591D01*
X0190914Y0255591D01*
X0190347Y0256158D01*
X0190347Y0257293D01*
X0190914Y0257860D01*
X0190914Y0259274D02*
X0193183Y0259274D01*
X0193750Y0259842D01*
X0193750Y0260976D01*
X0193183Y0261543D01*
X0193750Y0262958D02*
X0193750Y0265226D01*
X0193750Y0262958D02*
X0190347Y0262958D01*
X0190914Y0261543D02*
X0190347Y0260976D01*
X0190347Y0259842D01*
X0190914Y0259274D01*
X0178750Y0258774D02*
X0175347Y0258774D01*
X0178750Y0261043D01*
X0175347Y0261043D01*
X0175347Y0262458D02*
X0175347Y0264159D01*
X0175914Y0264726D01*
X0178183Y0264726D01*
X0178750Y0264159D01*
X0178750Y0262458D01*
X0175347Y0262458D01*
X0175914Y0257360D02*
X0175347Y0256793D01*
X0175347Y0255658D01*
X0175914Y0255091D01*
X0178183Y0255091D01*
X0178750Y0255658D01*
X0178750Y0256793D01*
X0178183Y0257360D01*
X0177049Y0257360D01*
X0177049Y0256226D01*
X0168750Y0258091D02*
X0166481Y0258091D01*
X0165347Y0259226D01*
X0166481Y0260360D01*
X0168750Y0260360D01*
X0168750Y0261774D02*
X0168750Y0264043D01*
X0168750Y0262909D02*
X0165347Y0262909D01*
X0166481Y0261774D01*
X0167049Y0260360D02*
X0167049Y0258091D01*
X0158750Y0258091D02*
X0156481Y0258091D01*
X0155347Y0259226D01*
X0156481Y0260360D01*
X0158750Y0260360D01*
X0158183Y0261774D02*
X0155914Y0264043D01*
X0158183Y0264043D01*
X0158750Y0263476D01*
X0158750Y0262342D01*
X0158183Y0261774D01*
X0155914Y0261774D01*
X0155347Y0262342D01*
X0155347Y0263476D01*
X0155914Y0264043D01*
X0157049Y0260360D02*
X0157049Y0258091D01*
X0148750Y0257293D02*
X0148750Y0256158D01*
X0148183Y0255591D01*
X0147049Y0256726D02*
X0147049Y0257293D01*
X0147616Y0257860D01*
X0148183Y0257860D01*
X0148750Y0257293D01*
X0147049Y0257293D02*
X0146481Y0257860D01*
X0145914Y0257860D01*
X0145347Y0257293D01*
X0145347Y0256158D01*
X0145914Y0255591D01*
X0145347Y0259274D02*
X0147616Y0259274D01*
X0148750Y0260409D01*
X0147616Y0261543D01*
X0145347Y0261543D01*
X0145914Y0262958D02*
X0145347Y0263525D01*
X0145347Y0264659D01*
X0145914Y0265226D01*
X0146481Y0265226D01*
X0147049Y0264659D01*
X0147616Y0265226D01*
X0148183Y0265226D01*
X0148750Y0264659D01*
X0148750Y0263525D01*
X0148183Y0262958D01*
X0147049Y0264092D02*
X0147049Y0264659D01*
X0137250Y0265042D02*
X0133847Y0265042D01*
X0133847Y0266743D01*
X0134414Y0267311D01*
X0135549Y0267311D01*
X0136116Y0266743D01*
X0136116Y0265042D01*
X0136116Y0266176D02*
X0137250Y0267311D01*
X0136683Y0268725D02*
X0137250Y0269292D01*
X0137250Y0270427D01*
X0136683Y0270994D01*
X0136116Y0270994D01*
X0135549Y0270427D01*
X0135549Y0269859D01*
X0135549Y0270427D02*
X0134981Y0270994D01*
X0134414Y0270994D01*
X0133847Y0270427D01*
X0133847Y0269292D01*
X0134414Y0268725D01*
X0134414Y0272408D02*
X0133847Y0272975D01*
X0133847Y0274110D01*
X0134414Y0274677D01*
X0136683Y0272408D01*
X0137250Y0272975D01*
X0137250Y0274110D01*
X0136683Y0274677D01*
X0134414Y0274677D01*
X0134414Y0272408D02*
X0136683Y0272408D01*
X0128918Y0263494D02*
X0127783Y0263494D01*
X0127216Y0262927D01*
X0127216Y0262360D01*
X0127783Y0261793D01*
X0128918Y0261793D01*
X0129485Y0261226D01*
X0129485Y0260658D01*
X0128918Y0260091D01*
X0127783Y0260091D01*
X0127216Y0260658D01*
X0127216Y0261226D01*
X0127783Y0261793D01*
X0128918Y0261793D02*
X0129485Y0262360D01*
X0129485Y0262927D01*
X0128918Y0263494D01*
X0125802Y0260091D02*
X0123533Y0260091D01*
X0124667Y0260091D02*
X0124667Y0263494D01*
X0123533Y0262360D01*
X0122119Y0262927D02*
X0121551Y0263494D01*
X0120417Y0263494D01*
X0119850Y0262927D01*
X0119850Y0260658D01*
X0120417Y0260091D01*
X0121551Y0260091D01*
X0122119Y0260658D01*
X0116485Y0260658D02*
X0115918Y0260091D01*
X0114783Y0260091D01*
X0114216Y0260658D01*
X0114783Y0261793D02*
X0116485Y0261793D01*
X0116485Y0262927D02*
X0115918Y0263494D01*
X0114783Y0263494D01*
X0114216Y0262927D01*
X0114216Y0262360D01*
X0114783Y0261793D01*
X0116485Y0260658D02*
X0116485Y0262927D01*
X0112802Y0260091D02*
X0110533Y0260091D01*
X0111667Y0260091D02*
X0111667Y0263494D01*
X0110533Y0262360D01*
X0109119Y0262927D02*
X0108551Y0263494D01*
X0107417Y0263494D01*
X0106850Y0262927D01*
X0106850Y0260658D01*
X0107417Y0260091D01*
X0108551Y0260091D01*
X0109119Y0260658D01*
X0095195Y0269314D02*
X0095195Y0269881D01*
X0094628Y0270448D01*
X0092927Y0270448D01*
X0092927Y0269314D01*
X0093494Y0268747D01*
X0094628Y0268747D01*
X0095195Y0269314D01*
X0092927Y0270448D02*
X0094061Y0271583D01*
X0095195Y0272150D01*
X0091512Y0272150D02*
X0091512Y0269314D01*
X0090945Y0268747D01*
X0089811Y0268747D01*
X0089244Y0269314D01*
X0089244Y0272150D01*
X0076985Y0280158D02*
X0076985Y0280726D01*
X0076418Y0281293D01*
X0074716Y0281293D01*
X0074716Y0280158D01*
X0075283Y0279591D01*
X0076418Y0279591D01*
X0076985Y0280158D01*
X0075851Y0282427D02*
X0074716Y0281293D01*
X0075851Y0282427D02*
X0076985Y0282994D01*
X0072167Y0282994D02*
X0072167Y0279591D01*
X0071033Y0279591D02*
X0073302Y0279591D01*
X0071033Y0281860D02*
X0072167Y0282994D01*
X0069619Y0282427D02*
X0069619Y0281293D01*
X0069051Y0280726D01*
X0067350Y0280726D01*
X0068484Y0280726D02*
X0069619Y0279591D01*
X0067350Y0279591D02*
X0067350Y0282994D01*
X0069051Y0282994D01*
X0069619Y0282427D01*
X0069185Y0270994D02*
X0068051Y0270994D01*
X0067484Y0270427D01*
X0066069Y0270427D02*
X0065502Y0270994D01*
X0064368Y0270994D01*
X0063801Y0270427D01*
X0063801Y0268158D01*
X0064368Y0267591D01*
X0065502Y0267591D01*
X0066069Y0268158D01*
X0067484Y0267591D02*
X0069752Y0269860D01*
X0069752Y0270427D01*
X0069185Y0270994D01*
X0071167Y0270427D02*
X0071167Y0269860D01*
X0071734Y0269293D01*
X0072868Y0269293D01*
X0073435Y0268726D01*
X0073435Y0268158D01*
X0072868Y0267591D01*
X0071734Y0267591D01*
X0071167Y0268158D01*
X0071167Y0268726D01*
X0071734Y0269293D01*
X0072868Y0269293D02*
X0073435Y0269860D01*
X0073435Y0270427D01*
X0072868Y0270994D01*
X0071734Y0270994D01*
X0071167Y0270427D01*
X0069752Y0267591D02*
X0067484Y0267591D01*
X0065484Y0255494D02*
X0066619Y0254360D01*
X0066619Y0252091D01*
X0068033Y0252091D02*
X0068033Y0254360D01*
X0068033Y0253226D02*
X0069167Y0254360D01*
X0069735Y0254360D01*
X0071102Y0253793D02*
X0071670Y0254360D01*
X0073371Y0254360D01*
X0073371Y0255494D02*
X0073371Y0252091D01*
X0071670Y0252091D01*
X0071102Y0252658D01*
X0071102Y0253793D01*
X0074786Y0254360D02*
X0074786Y0252658D01*
X0075353Y0252091D01*
X0077054Y0252091D01*
X0077054Y0254360D01*
X0078469Y0254927D02*
X0078469Y0252658D01*
X0079036Y0252091D01*
X0080170Y0252091D01*
X0080737Y0252658D01*
X0082152Y0252091D02*
X0082152Y0254360D01*
X0083286Y0255494D01*
X0084420Y0254360D01*
X0084420Y0252091D01*
X0085835Y0252091D02*
X0085835Y0255494D01*
X0086969Y0254360D01*
X0088104Y0255494D01*
X0088104Y0252091D01*
X0084420Y0253793D02*
X0082152Y0253793D01*
X0080737Y0254927D02*
X0080170Y0255494D01*
X0079036Y0255494D01*
X0078469Y0254927D01*
X0078600Y0245494D02*
X0078033Y0244927D01*
X0078600Y0245494D02*
X0079735Y0245494D01*
X0080302Y0244927D01*
X0080302Y0244360D01*
X0078033Y0242091D01*
X0080302Y0242091D01*
X0081716Y0242091D02*
X0081716Y0242658D01*
X0083985Y0244927D01*
X0083985Y0245494D01*
X0081716Y0245494D01*
X0076619Y0244927D02*
X0076051Y0245494D01*
X0074917Y0245494D01*
X0074350Y0244927D01*
X0074350Y0242658D01*
X0074917Y0242091D01*
X0076051Y0242091D01*
X0076619Y0242658D01*
X0066619Y0253793D02*
X0064350Y0253793D01*
X0064350Y0254360D02*
X0064350Y0252091D01*
X0064350Y0254360D02*
X0065484Y0255494D01*
X0042484Y0245494D02*
X0042484Y0242091D01*
X0041350Y0242091D02*
X0043619Y0242091D01*
X0041350Y0244360D02*
X0042484Y0245494D01*
X0019250Y0246348D02*
X0019250Y0248050D01*
X0018683Y0248617D01*
X0018116Y0248050D01*
X0018116Y0246915D01*
X0017549Y0246348D01*
X0016981Y0246915D01*
X0016981Y0248617D01*
X0016981Y0250031D02*
X0016981Y0250599D01*
X0019250Y0250599D01*
X0019250Y0251166D02*
X0019250Y0250031D01*
X0018683Y0252487D02*
X0019250Y0253054D01*
X0019250Y0254755D01*
X0019817Y0254755D02*
X0016981Y0254755D01*
X0016981Y0253054D01*
X0017549Y0252487D01*
X0018683Y0252487D01*
X0020384Y0253621D02*
X0020384Y0254188D01*
X0019817Y0254755D01*
X0019250Y0256170D02*
X0016981Y0256170D01*
X0016981Y0257871D01*
X0017549Y0258439D01*
X0019250Y0258439D01*
X0019250Y0259853D02*
X0019250Y0261555D01*
X0018683Y0262122D01*
X0018116Y0261555D01*
X0018116Y0260420D01*
X0017549Y0259853D01*
X0016981Y0260420D01*
X0016981Y0262122D01*
X0018683Y0264103D02*
X0019250Y0264103D01*
X0019250Y0264671D01*
X0018683Y0264671D01*
X0018683Y0264103D01*
X0019250Y0264671D02*
X0020384Y0263536D01*
X0019250Y0269675D02*
X0015847Y0269675D01*
X0019250Y0269675D02*
X0019250Y0271943D01*
X0019250Y0273358D02*
X0015847Y0273358D01*
X0019250Y0273358D02*
X0019250Y0275627D01*
X0018683Y0277041D02*
X0019250Y0277608D01*
X0019250Y0278743D01*
X0018683Y0279310D01*
X0016414Y0279310D02*
X0015847Y0278743D01*
X0015847Y0277608D01*
X0016414Y0277041D01*
X0018683Y0277041D01*
X0037850Y0294591D02*
X0037850Y0297994D01*
X0039551Y0297994D01*
X0040119Y0297427D01*
X0040119Y0296293D01*
X0039551Y0295726D01*
X0037850Y0295726D01*
X0038984Y0295726D02*
X0040119Y0294591D01*
X0041533Y0294591D02*
X0043802Y0294591D01*
X0042667Y0294591D02*
X0042667Y0297994D01*
X0041533Y0296860D01*
X0045216Y0296293D02*
X0047485Y0296293D01*
X0046918Y0297994D02*
X0045216Y0296293D01*
X0046918Y0294591D02*
X0046918Y0297994D01*
X0054090Y0300003D02*
X0054090Y0302272D01*
X0054657Y0302839D01*
X0055791Y0302839D01*
X0056359Y0302272D01*
X0056359Y0300003D01*
X0055791Y0299436D01*
X0054657Y0299436D01*
X0054090Y0300003D01*
X0055224Y0300570D02*
X0056359Y0299436D01*
X0057773Y0299436D02*
X0060042Y0299436D01*
X0058907Y0299436D02*
X0058907Y0302839D01*
X0057773Y0301704D01*
X0067350Y0300726D02*
X0069051Y0300726D01*
X0069619Y0301293D01*
X0069619Y0302427D01*
X0069051Y0302994D01*
X0067350Y0302994D01*
X0067350Y0299591D01*
X0068484Y0300726D02*
X0069619Y0299591D01*
X0071033Y0299591D02*
X0073302Y0299591D01*
X0072167Y0299591D02*
X0072167Y0302994D01*
X0071033Y0301860D01*
X0074716Y0301293D02*
X0074716Y0302994D01*
X0076985Y0302994D01*
X0076418Y0301860D02*
X0076985Y0301293D01*
X0076985Y0300158D01*
X0076418Y0299591D01*
X0075283Y0299591D01*
X0074716Y0300158D01*
X0074716Y0301293D02*
X0075851Y0301860D01*
X0076418Y0301860D01*
X0108984Y0302658D02*
X0109551Y0302091D01*
X0110685Y0302091D01*
X0111252Y0302658D01*
X0111252Y0305494D01*
X0112667Y0305494D02*
X0112667Y0303793D01*
X0113801Y0304360D01*
X0114368Y0304360D01*
X0114935Y0303793D01*
X0114935Y0302658D01*
X0114368Y0302091D01*
X0113234Y0302091D01*
X0112667Y0302658D01*
X0112667Y0305494D02*
X0114935Y0305494D01*
X0108984Y0305494D02*
X0108984Y0302658D01*
X0132847Y0301409D02*
X0136250Y0301409D01*
X0136250Y0302543D02*
X0136250Y0300274D01*
X0135683Y0298860D02*
X0136250Y0298293D01*
X0136250Y0297158D01*
X0135683Y0296591D01*
X0133414Y0296591D01*
X0132847Y0297158D01*
X0132847Y0298293D01*
X0133414Y0298860D01*
X0133981Y0300274D02*
X0132847Y0301409D01*
X0134549Y0303958D02*
X0134549Y0305659D01*
X0135116Y0306226D01*
X0135683Y0306226D01*
X0136250Y0305659D01*
X0136250Y0304525D01*
X0135683Y0303958D01*
X0134549Y0303958D01*
X0133414Y0305092D01*
X0132847Y0306226D01*
X0140347Y0306226D02*
X0140347Y0303958D01*
X0140347Y0306226D02*
X0140914Y0306226D01*
X0143183Y0303958D01*
X0143750Y0303958D01*
X0143750Y0302543D02*
X0143750Y0300274D01*
X0143750Y0301409D02*
X0140347Y0301409D01*
X0141481Y0300274D01*
X0140914Y0298860D02*
X0140347Y0298293D01*
X0140347Y0297158D01*
X0140914Y0296591D01*
X0143183Y0296591D01*
X0143750Y0297158D01*
X0143750Y0298293D01*
X0143183Y0298860D01*
X0170347Y0301158D02*
X0170914Y0300591D01*
X0173183Y0300591D01*
X0173750Y0301158D01*
X0173750Y0302293D01*
X0173183Y0302860D01*
X0173750Y0304274D02*
X0171481Y0306543D01*
X0170914Y0306543D01*
X0170347Y0305976D01*
X0170347Y0304842D01*
X0170914Y0304274D01*
X0170914Y0302860D02*
X0170347Y0302293D01*
X0170347Y0301158D01*
X0173750Y0304274D02*
X0173750Y0306543D01*
X0173183Y0307958D02*
X0173750Y0308525D01*
X0173750Y0309659D01*
X0173183Y0310226D01*
X0172616Y0310226D01*
X0172049Y0309659D01*
X0172049Y0307958D01*
X0173183Y0307958D01*
X0172049Y0307958D02*
X0170914Y0309092D01*
X0170347Y0310226D01*
X0183850Y0312994D02*
X0186119Y0312994D01*
X0184984Y0312994D02*
X0184984Y0309591D01*
X0187533Y0309591D02*
X0187533Y0312994D01*
X0188667Y0311860D01*
X0189802Y0312994D01*
X0189802Y0309591D01*
X0191216Y0309591D02*
X0191216Y0312994D01*
X0192918Y0312994D01*
X0193485Y0312427D01*
X0193485Y0311293D01*
X0192918Y0310726D01*
X0191216Y0310726D01*
X0191368Y0292994D02*
X0190801Y0292427D01*
X0190801Y0290158D01*
X0191368Y0289591D01*
X0192502Y0289591D01*
X0193069Y0290158D01*
X0194484Y0289591D02*
X0196752Y0291860D01*
X0196752Y0292427D01*
X0196185Y0292994D01*
X0195051Y0292994D01*
X0194484Y0292427D01*
X0193069Y0292427D02*
X0192502Y0292994D01*
X0191368Y0292994D01*
X0194484Y0289591D02*
X0196752Y0289591D01*
X0198167Y0290158D02*
X0198734Y0289591D01*
X0199868Y0289591D01*
X0200435Y0290158D01*
X0200435Y0291293D01*
X0199868Y0291860D01*
X0199301Y0291860D01*
X0198167Y0291293D01*
X0198167Y0292994D01*
X0200435Y0292994D01*
X0220850Y0291860D02*
X0221984Y0292994D01*
X0221984Y0289591D01*
X0220850Y0289591D02*
X0223119Y0289591D01*
X0172307Y0248860D02*
X0170605Y0248860D01*
X0170038Y0248293D01*
X0170038Y0247158D01*
X0170605Y0246591D01*
X0172307Y0246591D01*
X0172307Y0246024D02*
X0172307Y0248860D01*
X0172307Y0246024D02*
X0171739Y0245457D01*
X0171172Y0245457D01*
X0168623Y0247158D02*
X0168623Y0248293D01*
X0168056Y0248860D01*
X0166922Y0248860D01*
X0166355Y0248293D01*
X0166355Y0247158D01*
X0166922Y0246591D01*
X0168056Y0246591D01*
X0168623Y0247158D01*
X0165034Y0246591D02*
X0163899Y0246591D01*
X0164467Y0246591D02*
X0164467Y0249994D01*
X0163899Y0249994D01*
X0162485Y0248293D02*
X0162485Y0246591D01*
X0160783Y0246591D01*
X0160216Y0247158D01*
X0160783Y0247726D01*
X0162485Y0247726D01*
X0162485Y0248293D02*
X0161918Y0248860D01*
X0160783Y0248860D01*
X0158802Y0248293D02*
X0158802Y0246591D01*
X0158802Y0248293D02*
X0158235Y0248860D01*
X0156533Y0248860D01*
X0156533Y0246591D01*
X0155119Y0246591D02*
X0155119Y0248860D01*
X0153984Y0249994D01*
X0152850Y0248860D01*
X0152850Y0246591D01*
X0152850Y0248293D02*
X0155119Y0248293D01*
X0204850Y0226994D02*
X0204850Y0223591D01*
X0207119Y0223591D01*
X0208533Y0224158D02*
X0208533Y0226427D01*
X0209100Y0226994D01*
X0210235Y0226994D01*
X0210802Y0226427D01*
X0212216Y0226994D02*
X0212216Y0223591D01*
X0213918Y0223591D01*
X0214485Y0224158D01*
X0214485Y0226427D01*
X0213918Y0226994D01*
X0212216Y0226994D01*
X0210802Y0224158D02*
X0210235Y0223591D01*
X0209100Y0223591D01*
X0208533Y0224158D01*
X0258350Y0240591D02*
X0260619Y0240591D01*
X0259484Y0240591D02*
X0259484Y0243994D01*
X0258350Y0242860D01*
X0131850Y0090994D02*
X0131850Y0087591D01*
X0131935Y0082427D02*
X0131935Y0081860D01*
X0129667Y0079591D01*
X0131935Y0079591D01*
X0153503Y0076939D02*
X0153503Y0074103D01*
X0154071Y0073536D01*
X0155205Y0073536D01*
X0155772Y0074103D01*
X0155772Y0076939D01*
X0157187Y0076372D02*
X0157754Y0076939D01*
X0158888Y0076939D01*
X0159455Y0076372D01*
X0159455Y0075805D01*
X0158888Y0075238D01*
X0159455Y0074671D01*
X0159455Y0074103D01*
X0158888Y0073536D01*
X0157754Y0073536D01*
X0157187Y0074103D01*
X0158321Y0075238D02*
X0158888Y0075238D01*
X0265847Y0040610D02*
X0265847Y0039475D01*
X0266414Y0038908D01*
X0266414Y0037494D02*
X0266981Y0037494D01*
X0267549Y0036927D01*
X0268116Y0037494D01*
X0268683Y0037494D01*
X0269250Y0036927D01*
X0269250Y0035792D01*
X0268683Y0035225D01*
X0269250Y0033811D02*
X0268116Y0032676D01*
X0268116Y0033243D02*
X0268116Y0031542D01*
X0269250Y0031542D02*
X0265847Y0031542D01*
X0265847Y0033243D01*
X0266414Y0033811D01*
X0267549Y0033811D01*
X0268116Y0033243D01*
X0266414Y0035225D02*
X0265847Y0035792D01*
X0265847Y0036927D01*
X0266414Y0037494D01*
X0267549Y0036927D02*
X0267549Y0036359D01*
X0269250Y0038908D02*
X0266981Y0041177D01*
X0266414Y0041177D01*
X0265847Y0040610D01*
X0269250Y0041177D02*
X0269250Y0038908D01*
X0279847Y0040610D02*
X0281549Y0038908D01*
X0281549Y0041177D01*
X0283250Y0040610D02*
X0279847Y0040610D01*
X0280414Y0037494D02*
X0279847Y0036927D01*
X0279847Y0035792D01*
X0280414Y0035225D01*
X0280414Y0033811D02*
X0281549Y0033811D01*
X0282116Y0033243D01*
X0282116Y0031542D01*
X0283250Y0031542D02*
X0279847Y0031542D01*
X0279847Y0033243D01*
X0280414Y0033811D01*
X0282116Y0032676D02*
X0283250Y0033811D01*
X0282683Y0035225D02*
X0283250Y0035792D01*
X0283250Y0036927D01*
X0282683Y0037494D01*
X0282116Y0037494D01*
X0281549Y0036927D01*
X0281549Y0036359D01*
X0281549Y0036927D02*
X0280981Y0037494D01*
X0280414Y0037494D01*
X0289847Y0037792D02*
X0289847Y0038927D01*
X0290414Y0039494D01*
X0290981Y0039494D01*
X0291549Y0038927D01*
X0292116Y0039494D01*
X0292683Y0039494D01*
X0293250Y0038927D01*
X0293250Y0037792D01*
X0292683Y0037225D01*
X0293250Y0035811D02*
X0292116Y0034676D01*
X0292116Y0035243D02*
X0292116Y0033542D01*
X0293250Y0033542D02*
X0289847Y0033542D01*
X0289847Y0035243D01*
X0290414Y0035811D01*
X0291549Y0035811D01*
X0292116Y0035243D01*
X0290414Y0037225D02*
X0289847Y0037792D01*
X0291549Y0038359D02*
X0291549Y0038927D01*
X0291549Y0040908D02*
X0290981Y0042042D01*
X0290981Y0042610D01*
X0291549Y0043177D01*
X0292683Y0043177D01*
X0293250Y0042610D01*
X0293250Y0041475D01*
X0292683Y0040908D01*
X0291549Y0040908D02*
X0289847Y0040908D01*
X0289847Y0043177D01*
X0305847Y0041177D02*
X0306414Y0040042D01*
X0307549Y0038908D01*
X0307549Y0040610D01*
X0308116Y0041177D01*
X0308683Y0041177D01*
X0309250Y0040610D01*
X0309250Y0039475D01*
X0308683Y0038908D01*
X0307549Y0038908D01*
X0308116Y0037494D02*
X0308683Y0037494D01*
X0309250Y0036927D01*
X0309250Y0035792D01*
X0308683Y0035225D01*
X0309250Y0033811D02*
X0308116Y0032676D01*
X0308116Y0033243D02*
X0308116Y0031542D01*
X0309250Y0031542D02*
X0305847Y0031542D01*
X0305847Y0033243D01*
X0306414Y0033811D01*
X0307549Y0033811D01*
X0308116Y0033243D01*
X0306414Y0035225D02*
X0305847Y0035792D01*
X0305847Y0036927D01*
X0306414Y0037494D01*
X0306981Y0037494D01*
X0307549Y0036927D01*
X0308116Y0037494D01*
X0307549Y0036927D02*
X0307549Y0036359D01*
X0300683Y0029043D02*
X0301250Y0028476D01*
X0301250Y0027342D01*
X0300683Y0026774D01*
X0301250Y0025360D02*
X0300116Y0024226D01*
X0300116Y0024793D02*
X0300116Y0023091D01*
X0301250Y0023091D02*
X0297847Y0023091D01*
X0297847Y0024793D01*
X0298414Y0025360D01*
X0299549Y0025360D01*
X0300116Y0024793D01*
X0298414Y0026774D02*
X0297847Y0027342D01*
X0297847Y0028476D01*
X0298414Y0029043D01*
X0298981Y0029043D01*
X0299549Y0028476D01*
X0300116Y0029043D01*
X0300683Y0029043D01*
X0299549Y0028476D02*
X0299549Y0027909D01*
X0019250Y0165226D02*
X0018116Y0164091D01*
X0016981Y0164091D01*
X0015847Y0165226D01*
X0017549Y0166547D02*
X0018683Y0166547D01*
X0019250Y0167114D01*
X0019250Y0168815D01*
X0019250Y0170230D02*
X0018116Y0171364D01*
X0016981Y0171364D01*
X0015847Y0170230D01*
X0016981Y0168815D02*
X0016981Y0167114D01*
X0017549Y0166547D01*
X0016414Y0176368D02*
X0015847Y0176936D01*
X0015847Y0178070D01*
X0016414Y0178637D01*
X0016981Y0178637D01*
X0019250Y0176368D01*
X0019250Y0178637D01*
X0018683Y0180052D02*
X0016414Y0182320D01*
X0018683Y0182320D01*
X0019250Y0181753D01*
X0019250Y0180619D01*
X0018683Y0180052D01*
X0016414Y0180052D01*
X0015847Y0180619D01*
X0015847Y0181753D01*
X0016414Y0182320D01*
X0016981Y0183735D02*
X0015847Y0184869D01*
X0019250Y0184869D01*
X0019250Y0183735D02*
X0019250Y0186003D01*
X0018683Y0187418D02*
X0019250Y0187985D01*
X0019250Y0189119D01*
X0018683Y0189687D01*
X0016414Y0189687D01*
X0015847Y0189119D01*
X0015847Y0187985D01*
X0016414Y0187418D01*
X0016981Y0187418D01*
X0017549Y0187985D01*
X0017549Y0189687D01*
X0017549Y0191101D02*
X0017549Y0193370D01*
X0016414Y0194784D02*
X0015847Y0195351D01*
X0015847Y0196486D01*
X0016414Y0197053D01*
X0016981Y0197053D01*
X0019250Y0194784D01*
X0019250Y0197053D01*
X0018683Y0198467D02*
X0019250Y0199034D01*
X0019250Y0200169D01*
X0018683Y0200736D01*
X0016414Y0200736D01*
X0018683Y0198467D01*
X0016414Y0198467D01*
X0015847Y0199034D01*
X0015847Y0200169D01*
X0016414Y0200736D01*
X0016414Y0202150D02*
X0015847Y0202718D01*
X0015847Y0203852D01*
X0016414Y0204419D01*
X0016981Y0204419D01*
X0019250Y0202150D01*
X0019250Y0204419D01*
X0018683Y0205834D02*
X0016414Y0208102D01*
X0018683Y0208102D01*
X0019250Y0207535D01*
X0019250Y0206401D01*
X0018683Y0205834D01*
X0016414Y0205834D01*
X0015847Y0206401D01*
X0015847Y0207535D01*
X0016414Y0208102D01*
X0017549Y0213200D02*
X0016981Y0213767D01*
X0016981Y0215469D01*
X0015847Y0215469D02*
X0019250Y0215469D01*
X0019250Y0213767D01*
X0018683Y0213200D01*
X0017549Y0213200D01*
X0018683Y0216883D02*
X0018116Y0217450D01*
X0018116Y0219152D01*
X0017549Y0219152D02*
X0019250Y0219152D01*
X0019250Y0217450D01*
X0018683Y0216883D01*
X0016981Y0217450D02*
X0016981Y0218585D01*
X0017549Y0219152D01*
X0016981Y0220566D02*
X0016981Y0222268D01*
X0017549Y0222835D01*
X0019250Y0222835D01*
X0020384Y0224249D02*
X0020384Y0224817D01*
X0019817Y0225384D01*
X0016981Y0225384D01*
X0015847Y0225384D02*
X0015280Y0225384D01*
X0016981Y0226705D02*
X0018683Y0226705D01*
X0019250Y0227272D01*
X0019250Y0228973D01*
X0016981Y0228973D01*
X0015847Y0230388D02*
X0015847Y0230955D01*
X0019250Y0230955D01*
X0019250Y0230388D02*
X0019250Y0231522D01*
X0019250Y0232843D02*
X0019250Y0233978D01*
X0019250Y0233411D02*
X0016981Y0233411D01*
X0016981Y0232843D01*
X0015847Y0233411D02*
X0015280Y0233411D01*
X0017549Y0235299D02*
X0018683Y0235299D01*
X0019250Y0235866D01*
X0019250Y0237000D01*
X0018683Y0237567D01*
X0017549Y0237567D01*
X0016981Y0237000D01*
X0016981Y0235866D01*
X0017549Y0235299D01*
X0017549Y0238982D02*
X0016981Y0239549D01*
X0016981Y0241251D01*
X0015847Y0241251D02*
X0019250Y0241251D01*
X0019250Y0239549D01*
X0018683Y0238982D01*
X0017549Y0238982D01*
X0017549Y0242665D02*
X0016981Y0243232D01*
X0016981Y0244367D01*
X0017549Y0244934D01*
X0018116Y0244934D01*
X0018116Y0242665D01*
X0018683Y0242665D02*
X0017549Y0242665D01*
X0018683Y0242665D02*
X0019250Y0243232D01*
X0019250Y0244367D01*
X0015847Y0250599D02*
X0015280Y0250599D01*
X0016981Y0220566D02*
X0019250Y0220566D01*
D13*
X0059437Y0185534D02*
X0059437Y0177060D01*
X0055200Y0181297D02*
X0063674Y0181297D01*
X0287045Y0177441D02*
X0287045Y0185915D01*
D14*
X0244827Y0185731D02*
X0244827Y0181794D01*
X0244827Y0179826D02*
X0244827Y0178841D01*
X0242318Y0179826D02*
X0241334Y0180810D01*
X0239365Y0180810D01*
X0238381Y0181794D01*
X0239365Y0182778D01*
X0242318Y0182778D01*
X0242318Y0179826D02*
X0241334Y0178841D01*
X0238381Y0178841D01*
X0235872Y0178841D02*
X0232920Y0178841D01*
X0231936Y0179826D01*
X0231936Y0181794D01*
X0232920Y0182778D01*
X0235872Y0182778D01*
X0235872Y0184746D02*
X0235872Y0178841D01*
X0229517Y0182778D02*
X0228533Y0182778D01*
X0226564Y0180810D01*
X0226564Y0182778D02*
X0226564Y0178841D01*
X0224056Y0178841D02*
X0221103Y0178841D01*
X0220119Y0179826D01*
X0221103Y0180810D01*
X0224056Y0180810D01*
X0224056Y0181794D02*
X0224056Y0178841D01*
X0224056Y0181794D02*
X0223071Y0182778D01*
X0221103Y0182778D01*
X0217610Y0182778D02*
X0217610Y0179826D01*
X0216626Y0178841D01*
X0215642Y0179826D01*
X0214658Y0178841D01*
X0213673Y0179826D01*
X0213673Y0182778D01*
X0211255Y0182778D02*
X0208302Y0180810D01*
X0211255Y0178841D01*
X0208302Y0178841D02*
X0208302Y0184746D01*
X0205793Y0182778D02*
X0202841Y0182778D01*
X0201857Y0181794D01*
X0201857Y0179826D01*
X0202841Y0178841D01*
X0205793Y0178841D01*
X0199348Y0178841D02*
X0196395Y0178841D01*
X0195411Y0179826D01*
X0196395Y0180810D01*
X0199348Y0180810D01*
X0199348Y0181794D02*
X0199348Y0178841D01*
X0199348Y0181794D02*
X0198364Y0182778D01*
X0196395Y0182778D01*
X0192902Y0181794D02*
X0192902Y0179826D01*
X0191918Y0178841D01*
X0188966Y0178841D01*
X0188966Y0184746D01*
X0188966Y0182778D02*
X0191918Y0182778D01*
X0192902Y0181794D01*
X0180192Y0182778D02*
X0178223Y0182778D01*
X0179207Y0183762D02*
X0179207Y0179826D01*
X0180192Y0178841D01*
X0175804Y0182778D02*
X0174820Y0182778D01*
X0172852Y0180810D01*
X0172852Y0182778D02*
X0172852Y0178841D01*
X0170343Y0180810D02*
X0166406Y0180810D01*
X0166406Y0181794D02*
X0167391Y0182778D01*
X0169359Y0182778D01*
X0170343Y0181794D01*
X0170343Y0180810D01*
X0169359Y0178841D02*
X0167391Y0178841D01*
X0166406Y0179826D01*
X0166406Y0181794D01*
X0163898Y0182778D02*
X0160945Y0182778D01*
X0159961Y0181794D01*
X0160945Y0180810D01*
X0162913Y0180810D01*
X0163898Y0179826D01*
X0162913Y0178841D01*
X0159961Y0178841D01*
X0157452Y0178841D02*
X0157452Y0181794D01*
X0156468Y0182778D01*
X0153515Y0182778D01*
X0153515Y0178841D01*
X0151187Y0178841D02*
X0149218Y0178841D01*
X0150203Y0178841D02*
X0150203Y0182778D01*
X0149218Y0182778D01*
X0150203Y0184746D02*
X0150203Y0185731D01*
X0140264Y0184746D02*
X0136327Y0184746D01*
X0138296Y0184746D02*
X0138296Y0178841D01*
X0133819Y0179826D02*
X0133819Y0183762D01*
X0132835Y0184746D01*
X0130866Y0184746D01*
X0129882Y0183762D01*
X0129882Y0179826D01*
X0130866Y0178841D01*
X0132835Y0178841D01*
X0133819Y0179826D01*
X0127373Y0178841D02*
X0127373Y0184746D01*
X0123436Y0184746D02*
X0127373Y0178841D01*
X0123436Y0178841D02*
X0123436Y0184746D01*
X0114482Y0181794D02*
X0114482Y0179826D01*
X0113498Y0178841D01*
X0111530Y0178841D01*
X0110545Y0179826D01*
X0110545Y0181794D01*
X0111530Y0182778D01*
X0113498Y0182778D01*
X0114482Y0181794D01*
X0108037Y0179826D02*
X0108037Y0183762D01*
X0107053Y0184746D01*
X0104100Y0184746D01*
X0104100Y0178841D01*
X0107053Y0178841D01*
X0108037Y0179826D01*
X0015000Y0146728D02*
X0009095Y0146728D01*
X0011063Y0144760D01*
X0009095Y0142792D01*
X0015000Y0142792D01*
X0015000Y0140283D02*
X0011063Y0140283D01*
X0009095Y0138314D01*
X0011063Y0136346D01*
X0015000Y0136346D01*
X0014016Y0133837D02*
X0015000Y0132853D01*
X0015000Y0130885D01*
X0014016Y0129901D01*
X0010079Y0129901D01*
X0009095Y0130885D01*
X0009095Y0132853D01*
X0010079Y0133837D01*
X0012047Y0136346D02*
X0012047Y0140283D01*
X0012047Y0127392D02*
X0011063Y0126408D01*
X0011063Y0124439D01*
X0012047Y0123455D01*
X0014016Y0123455D01*
X0015000Y0124439D01*
X0015000Y0126408D01*
X0013032Y0127392D02*
X0013032Y0123455D01*
X0011063Y0121036D02*
X0011063Y0120052D01*
X0013032Y0118084D01*
X0015000Y0118084D02*
X0011063Y0118084D01*
X0011063Y0114771D02*
X0015000Y0114771D01*
X0015000Y0113787D02*
X0015000Y0115755D01*
X0011063Y0114771D02*
X0011063Y0113787D01*
X0009095Y0114771D02*
X0008111Y0114771D01*
X0009095Y0111278D02*
X0009095Y0107341D01*
X0015000Y0107341D01*
X0012047Y0107341D02*
X0012047Y0109310D01*
X0012047Y0127392D02*
X0013032Y0127392D01*
D15*
X0009150Y0164191D02*
X0004946Y0164191D01*
X0004946Y0166293D01*
X0005647Y0166994D01*
X0007048Y0166994D01*
X0007749Y0166293D01*
X0007749Y0164191D01*
X0007749Y0165593D02*
X0009150Y0166994D01*
X0008449Y0168795D02*
X0007048Y0168795D01*
X0006348Y0169496D01*
X0006348Y0170897D01*
X0007048Y0171598D01*
X0007749Y0171598D01*
X0007749Y0168795D01*
X0008449Y0168795D02*
X0009150Y0169496D01*
X0009150Y0170897D01*
X0006348Y0173399D02*
X0009150Y0174800D01*
X0006348Y0176202D01*
X0005647Y0182607D02*
X0004946Y0183308D01*
X0004946Y0184709D01*
X0005647Y0185409D01*
X0006348Y0185409D01*
X0007048Y0184709D01*
X0007749Y0185409D01*
X0008449Y0185409D01*
X0009150Y0184709D01*
X0009150Y0183308D01*
X0008449Y0182607D01*
X0007048Y0184008D02*
X0007048Y0184709D01*
X0039550Y0230041D02*
X0044550Y0230041D01*
X0047050Y0232541D01*
X0049550Y0230041D01*
X0054550Y0230041D01*
X0057050Y0232541D01*
X0059550Y0230041D01*
X0064550Y0230041D01*
X0067050Y0232541D01*
X0069550Y0230041D01*
X0074550Y0230041D01*
X0077050Y0232541D01*
X0079550Y0230041D01*
X0084550Y0230041D01*
X0087050Y0232541D01*
X0089550Y0230041D01*
X0094550Y0230041D01*
X0097050Y0232541D01*
X0099550Y0230041D01*
X0104550Y0230041D01*
X0107050Y0232541D01*
X0109550Y0230041D01*
X0114550Y0230041D01*
X0117050Y0232541D01*
X0117050Y0237541D01*
X0114550Y0240041D01*
X0109550Y0240041D01*
X0107050Y0237541D01*
X0104550Y0240041D01*
X0099550Y0240041D01*
X0097050Y0237541D01*
X0094550Y0240041D01*
X0089550Y0240041D01*
X0087050Y0237541D01*
X0084550Y0240041D01*
X0079550Y0240041D01*
X0077050Y0237541D01*
X0074550Y0240041D01*
X0069550Y0240041D01*
X0067050Y0237541D01*
X0064550Y0240041D01*
X0059550Y0240041D01*
X0057050Y0237541D01*
X0054550Y0240041D01*
X0049550Y0240041D01*
X0047050Y0237541D01*
X0044550Y0240041D01*
X0039550Y0240041D01*
X0037050Y0237541D01*
X0037050Y0232541D01*
X0039550Y0230041D01*
X0103592Y0281849D02*
X0120508Y0281849D01*
X0120508Y0300734D01*
X0103592Y0300734D01*
X0103592Y0281849D01*
X0142050Y0273791D02*
X0142050Y0268791D01*
X0144550Y0266291D01*
X0149550Y0266291D01*
X0152050Y0268791D01*
X0154550Y0266291D01*
X0159550Y0266291D01*
X0162050Y0268791D01*
X0164550Y0266291D01*
X0169550Y0266291D01*
X0172050Y0268791D01*
X0174550Y0266291D01*
X0179550Y0266291D01*
X0182050Y0268791D01*
X0182050Y0273791D01*
X0179550Y0276291D01*
X0174550Y0276291D01*
X0172050Y0273791D01*
X0169550Y0276291D01*
X0164550Y0276291D01*
X0162050Y0273791D01*
X0159550Y0276291D01*
X0154550Y0276291D01*
X0152050Y0273791D01*
X0149550Y0276291D01*
X0144550Y0276291D01*
X0142050Y0273791D01*
X0157050Y0238791D02*
X0162050Y0238791D01*
X0164550Y0236291D01*
X0167050Y0238791D01*
X0172050Y0238791D01*
X0174550Y0236291D01*
X0177050Y0238791D01*
X0182050Y0238791D01*
X0184550Y0236291D01*
X0187050Y0238791D01*
X0192050Y0238791D01*
X0194550Y0236291D01*
X0197050Y0238791D01*
X0202050Y0238791D01*
X0204550Y0236291D01*
X0207050Y0238791D01*
X0212050Y0238791D01*
X0214550Y0236291D01*
X0217050Y0238791D01*
X0222050Y0238791D01*
X0224550Y0236291D01*
X0227050Y0238791D01*
X0232050Y0238791D01*
X0234550Y0236291D01*
X0237050Y0238791D01*
X0242050Y0238791D01*
X0244550Y0236291D01*
X0247050Y0238791D01*
X0252050Y0238791D01*
X0254550Y0236291D01*
X0257050Y0238791D01*
X0262050Y0238791D01*
X0264550Y0236291D01*
X0264550Y0231291D01*
X0262050Y0228791D01*
X0257050Y0228791D01*
X0254550Y0231291D01*
X0252050Y0228791D01*
X0247050Y0228791D01*
X0244550Y0231291D01*
X0242050Y0228791D01*
X0237050Y0228791D01*
X0234550Y0231291D01*
X0232050Y0228791D01*
X0227050Y0228791D01*
X0224550Y0231291D01*
X0222050Y0228791D01*
X0217050Y0228791D01*
X0214550Y0231291D01*
X0212050Y0228791D01*
X0207050Y0228791D01*
X0204550Y0231291D01*
X0202050Y0228791D01*
X0197050Y0228791D01*
X0194550Y0231291D01*
X0192050Y0228791D01*
X0187050Y0228791D01*
X0184550Y0231291D01*
X0182050Y0228791D01*
X0177050Y0228791D01*
X0174550Y0231291D01*
X0172050Y0228791D01*
X0167050Y0228791D01*
X0164550Y0231291D01*
X0162050Y0228791D01*
X0157050Y0228791D01*
X0154550Y0231291D01*
X0154550Y0236291D01*
X0157050Y0238791D01*
X0187050Y0268791D02*
X0187050Y0273791D01*
X0189550Y0276291D01*
X0194550Y0276291D01*
X0197050Y0273791D01*
X0199550Y0276291D01*
X0204550Y0276291D01*
X0207050Y0273791D01*
X0209550Y0276291D01*
X0214550Y0276291D01*
X0217050Y0273791D01*
X0219550Y0276291D01*
X0224550Y0276291D01*
X0227050Y0273791D01*
X0227050Y0268791D01*
X0224550Y0266291D01*
X0219550Y0266291D01*
X0217050Y0268791D01*
X0214550Y0266291D01*
X0209550Y0266291D01*
X0207050Y0268791D01*
X0204550Y0266291D01*
X0199550Y0266291D01*
X0197050Y0268791D01*
X0194550Y0266291D01*
X0189550Y0266291D01*
X0187050Y0268791D01*
X0192050Y0296291D02*
X0197050Y0296291D01*
X0199550Y0298791D01*
X0202050Y0296291D01*
X0207050Y0296291D01*
X0209550Y0298791D01*
X0212050Y0296291D01*
X0217050Y0296291D01*
X0219550Y0298791D01*
X0219550Y0303791D01*
X0217050Y0306291D01*
X0212050Y0306291D01*
X0209550Y0303791D01*
X0207050Y0306291D01*
X0202050Y0306291D01*
X0199550Y0303791D01*
X0197050Y0306291D01*
X0192050Y0306291D01*
X0189550Y0303791D01*
X0189550Y0298791D01*
X0192050Y0296291D01*
X0213450Y0309293D02*
X0216252Y0309293D01*
X0214851Y0310694D02*
X0214851Y0307892D01*
X0227050Y0296291D02*
X0224550Y0293791D01*
X0224550Y0288791D01*
X0227050Y0286291D01*
X0232050Y0286291D01*
X0234550Y0288791D01*
X0237050Y0286291D01*
X0242050Y0286291D01*
X0244550Y0288791D01*
X0247050Y0286291D01*
X0252050Y0286291D01*
X0254550Y0288791D01*
X0257050Y0286291D01*
X0262050Y0286291D01*
X0264550Y0288791D01*
X0267050Y0286291D01*
X0272050Y0286291D01*
X0274550Y0288791D01*
X0277050Y0286291D01*
X0282050Y0286291D01*
X0284550Y0288791D01*
X0287050Y0286291D01*
X0292050Y0286291D01*
X0294550Y0288791D01*
X0297050Y0286291D01*
X0302050Y0286291D01*
X0304550Y0288791D01*
X0307050Y0286291D01*
X0312050Y0286291D01*
X0314550Y0288791D01*
X0317050Y0286291D01*
X0322050Y0286291D01*
X0324550Y0288791D01*
X0324550Y0293791D01*
X0322050Y0296291D01*
X0317050Y0296291D01*
X0314550Y0293791D01*
X0312050Y0296291D01*
X0307050Y0296291D01*
X0304550Y0293791D01*
X0302050Y0296291D01*
X0297050Y0296291D01*
X0294550Y0293791D01*
X0292050Y0296291D01*
X0287050Y0296291D01*
X0284550Y0293791D01*
X0282050Y0296291D01*
X0277050Y0296291D01*
X0274550Y0293791D01*
X0272050Y0296291D01*
X0267050Y0296291D01*
X0264550Y0293791D01*
X0262050Y0296291D01*
X0257050Y0296291D01*
X0254550Y0293791D01*
X0252050Y0296291D01*
X0247050Y0296291D01*
X0244550Y0293791D01*
X0242050Y0296291D01*
X0237050Y0296291D01*
X0234550Y0293791D01*
X0232050Y0296291D01*
X0227050Y0296291D01*
X0238920Y0275965D02*
X0235377Y0272421D01*
X0235377Y0268484D01*
X0238920Y0275965D02*
X0263723Y0275965D01*
X0263723Y0268484D01*
X0263723Y0255098D02*
X0263723Y0247618D01*
X0238920Y0247618D01*
X0235377Y0251161D01*
X0235377Y0255295D01*
X0198723Y0132965D02*
X0191243Y0132965D01*
X0198723Y0132965D02*
X0198723Y0108161D01*
X0195180Y0104618D01*
X0191046Y0104618D01*
X0177857Y0104618D02*
X0173920Y0104618D01*
X0170377Y0108161D01*
X0170377Y0132965D01*
X0177857Y0132965D01*
X0171735Y0045720D02*
X0132365Y0045720D01*
X0132365Y0020917D01*
X0171735Y0020917D01*
X0171735Y0045720D01*
X0112424Y0044209D02*
X0096676Y0044209D01*
X0096676Y0031217D02*
X0096676Y0016650D01*
X0098644Y0016650D01*
X0110456Y0016650D01*
X0112424Y0016650D01*
X0112424Y0031217D01*
X0106912Y0028067D02*
X0106912Y0025311D01*
X0102581Y0022555D01*
X0102581Y0028461D01*
X0106912Y0025311D01*
X0106912Y0022555D01*
X0110456Y0016650D02*
X0110454Y0016498D01*
X0110448Y0016346D01*
X0110438Y0016194D01*
X0110425Y0016043D01*
X0110407Y0015892D01*
X0110386Y0015741D01*
X0110360Y0015591D01*
X0110331Y0015442D01*
X0110298Y0015293D01*
X0110261Y0015146D01*
X0110221Y0014999D01*
X0110176Y0014854D01*
X0110128Y0014710D01*
X0110076Y0014567D01*
X0110021Y0014425D01*
X0109962Y0014285D01*
X0109899Y0014146D01*
X0109833Y0014009D01*
X0109763Y0013874D01*
X0109690Y0013741D01*
X0109613Y0013610D01*
X0109533Y0013480D01*
X0109450Y0013353D01*
X0109364Y0013228D01*
X0109274Y0013105D01*
X0109181Y0012985D01*
X0109085Y0012867D01*
X0108986Y0012751D01*
X0108884Y0012638D01*
X0108780Y0012528D01*
X0108672Y0012420D01*
X0108562Y0012316D01*
X0108449Y0012214D01*
X0108333Y0012115D01*
X0108215Y0012019D01*
X0108095Y0011926D01*
X0107972Y0011836D01*
X0107847Y0011750D01*
X0107720Y0011667D01*
X0107590Y0011587D01*
X0107459Y0011510D01*
X0107326Y0011437D01*
X0107191Y0011367D01*
X0107054Y0011301D01*
X0106915Y0011238D01*
X0106775Y0011179D01*
X0106633Y0011124D01*
X0106490Y0011072D01*
X0106346Y0011024D01*
X0106201Y0010979D01*
X0106054Y0010939D01*
X0105907Y0010902D01*
X0105758Y0010869D01*
X0105609Y0010840D01*
X0105459Y0010814D01*
X0105308Y0010793D01*
X0105157Y0010775D01*
X0105006Y0010762D01*
X0104854Y0010752D01*
X0104702Y0010746D01*
X0104550Y0010744D01*
X0104398Y0010746D01*
X0104246Y0010752D01*
X0104094Y0010762D01*
X0103943Y0010775D01*
X0103792Y0010793D01*
X0103641Y0010814D01*
X0103491Y0010840D01*
X0103342Y0010869D01*
X0103193Y0010902D01*
X0103046Y0010939D01*
X0102899Y0010979D01*
X0102754Y0011024D01*
X0102610Y0011072D01*
X0102467Y0011124D01*
X0102325Y0011179D01*
X0102185Y0011238D01*
X0102046Y0011301D01*
X0101909Y0011367D01*
X0101774Y0011437D01*
X0101641Y0011510D01*
X0101510Y0011587D01*
X0101380Y0011667D01*
X0101253Y0011750D01*
X0101128Y0011836D01*
X0101005Y0011926D01*
X0100885Y0012019D01*
X0100767Y0012115D01*
X0100651Y0012214D01*
X0100538Y0012316D01*
X0100428Y0012420D01*
X0100320Y0012528D01*
X0100216Y0012638D01*
X0100114Y0012751D01*
X0100015Y0012867D01*
X0099919Y0012985D01*
X0099826Y0013105D01*
X0099736Y0013228D01*
X0099650Y0013353D01*
X0099567Y0013480D01*
X0099487Y0013610D01*
X0099410Y0013741D01*
X0099337Y0013874D01*
X0099267Y0014009D01*
X0099201Y0014146D01*
X0099138Y0014285D01*
X0099079Y0014425D01*
X0099024Y0014567D01*
X0098972Y0014710D01*
X0098924Y0014854D01*
X0098879Y0014999D01*
X0098839Y0015146D01*
X0098802Y0015293D01*
X0098769Y0015442D01*
X0098740Y0015591D01*
X0098714Y0015741D01*
X0098693Y0015892D01*
X0098675Y0016043D01*
X0098662Y0016194D01*
X0098652Y0016346D01*
X0098646Y0016498D01*
X0098644Y0016650D01*
D16*
X0118507Y0025268D02*
X0125593Y0025268D01*
X0125593Y0047315D01*
X0118507Y0047315D01*
X0118507Y0025268D01*
X0156282Y0060386D02*
X0156282Y0072197D01*
X0172818Y0072197D01*
X0172818Y0060386D01*
X0156282Y0060386D01*
X0159432Y0078673D02*
X0160219Y0078673D01*
X0159432Y0078673D02*
X0159432Y0081035D01*
X0159432Y0086547D02*
X0159432Y0088909D01*
X0160219Y0088909D01*
X0168881Y0088909D02*
X0169668Y0088909D01*
X0169668Y0086547D01*
X0169668Y0081035D02*
X0169668Y0078673D01*
X0168881Y0078673D01*
X0153743Y0095248D02*
X0153349Y0095248D01*
X0153743Y0095248D02*
X0153743Y0102728D01*
X0149806Y0102728D01*
X0144294Y0102728D02*
X0140357Y0102728D01*
X0140357Y0095248D01*
X0140751Y0095248D01*
X0145869Y0095248D02*
X0148231Y0095248D01*
X0161007Y0107768D02*
X0161007Y0129815D01*
X0168093Y0129815D01*
X0168093Y0107768D01*
X0161007Y0107768D01*
X0146243Y0125248D02*
X0145849Y0125248D01*
X0146243Y0125248D02*
X0146243Y0132728D01*
X0142306Y0132728D01*
X0136794Y0132728D02*
X0132857Y0132728D01*
X0132857Y0125248D01*
X0133251Y0125248D01*
X0138369Y0125248D02*
X0140731Y0125248D01*
X0112424Y0104165D02*
X0112424Y0088417D01*
X0096676Y0088417D01*
X0096676Y0104165D01*
X0112424Y0104165D01*
X0096977Y0086449D02*
X0096979Y0086508D01*
X0096985Y0086566D01*
X0096995Y0086624D01*
X0097008Y0086681D01*
X0097026Y0086738D01*
X0097047Y0086793D01*
X0097072Y0086846D01*
X0097100Y0086897D01*
X0097131Y0086947D01*
X0097166Y0086994D01*
X0097204Y0087039D01*
X0097245Y0087082D01*
X0097289Y0087121D01*
X0097335Y0087157D01*
X0097383Y0087191D01*
X0097434Y0087221D01*
X0097487Y0087247D01*
X0097541Y0087270D01*
X0097596Y0087289D01*
X0097653Y0087305D01*
X0097711Y0087317D01*
X0097769Y0087325D01*
X0097828Y0087329D01*
X0097886Y0087329D01*
X0097945Y0087325D01*
X0098003Y0087317D01*
X0098061Y0087305D01*
X0098118Y0087289D01*
X0098173Y0087270D01*
X0098227Y0087247D01*
X0098280Y0087221D01*
X0098331Y0087191D01*
X0098379Y0087157D01*
X0098425Y0087121D01*
X0098469Y0087082D01*
X0098510Y0087039D01*
X0098548Y0086994D01*
X0098583Y0086947D01*
X0098614Y0086897D01*
X0098642Y0086846D01*
X0098667Y0086793D01*
X0098688Y0086738D01*
X0098706Y0086681D01*
X0098719Y0086624D01*
X0098729Y0086566D01*
X0098735Y0086508D01*
X0098737Y0086449D01*
X0098735Y0086390D01*
X0098729Y0086332D01*
X0098719Y0086274D01*
X0098706Y0086217D01*
X0098688Y0086160D01*
X0098667Y0086105D01*
X0098642Y0086052D01*
X0098614Y0086001D01*
X0098583Y0085951D01*
X0098548Y0085904D01*
X0098510Y0085859D01*
X0098469Y0085816D01*
X0098425Y0085777D01*
X0098379Y0085741D01*
X0098331Y0085707D01*
X0098280Y0085677D01*
X0098227Y0085651D01*
X0098173Y0085628D01*
X0098118Y0085609D01*
X0098061Y0085593D01*
X0098003Y0085581D01*
X0097945Y0085573D01*
X0097886Y0085569D01*
X0097828Y0085569D01*
X0097769Y0085573D01*
X0097711Y0085581D01*
X0097653Y0085593D01*
X0097596Y0085609D01*
X0097541Y0085628D01*
X0097487Y0085651D01*
X0097434Y0085677D01*
X0097383Y0085707D01*
X0097335Y0085741D01*
X0097289Y0085777D01*
X0097245Y0085816D01*
X0097204Y0085859D01*
X0097166Y0085904D01*
X0097131Y0085951D01*
X0097100Y0086001D01*
X0097072Y0086052D01*
X0097047Y0086105D01*
X0097026Y0086160D01*
X0097008Y0086217D01*
X0096995Y0086274D01*
X0096985Y0086332D01*
X0096979Y0086390D01*
X0096977Y0086449D01*
X0068487Y0066272D02*
X0068487Y0051311D01*
X0060613Y0051311D01*
X0060613Y0066272D01*
X0068487Y0066272D01*
X0042381Y0057591D02*
X0033719Y0057591D01*
X0033719Y0057197D01*
X0032932Y0057197D02*
X0031948Y0058575D01*
X0030963Y0057197D01*
X0032932Y0057197D01*
X0042381Y0057197D02*
X0042381Y0057591D01*
X0042381Y0045386D02*
X0042381Y0044992D01*
X0033719Y0044992D01*
X0033719Y0045386D01*
X0028093Y0080268D02*
X0021007Y0080268D01*
X0021007Y0102315D01*
X0028093Y0102315D01*
X0028093Y0080268D01*
X0025050Y0140291D02*
X0329050Y0140291D01*
X0329050Y0222291D01*
X0025050Y0222291D01*
X0025050Y0140291D01*
X0098507Y0263598D02*
X0098507Y0263992D01*
X0098507Y0263598D02*
X0105987Y0263598D01*
X0105987Y0267535D01*
X0105987Y0273047D02*
X0105987Y0276984D01*
X0098507Y0276984D01*
X0098507Y0276591D01*
X0098507Y0271472D02*
X0098507Y0269110D01*
X0060593Y0284598D02*
X0060593Y0284992D01*
X0060593Y0284598D02*
X0053113Y0284598D01*
X0053113Y0288535D01*
X0053113Y0294047D02*
X0053113Y0297984D01*
X0060593Y0297984D01*
X0060593Y0297591D01*
X0060593Y0292472D02*
X0060593Y0290110D01*
X0231046Y0252343D02*
X0234196Y0252343D01*
X0232621Y0253917D02*
X0232621Y0250768D01*
X0270889Y0251567D02*
X0288211Y0251567D01*
X0288211Y0260622D01*
X0270889Y0260622D01*
X0270889Y0251567D01*
X0289206Y0266528D02*
X0289208Y0266612D01*
X0289214Y0266695D01*
X0289224Y0266779D01*
X0289238Y0266861D01*
X0289256Y0266943D01*
X0289277Y0267024D01*
X0289303Y0267104D01*
X0289332Y0267182D01*
X0289365Y0267260D01*
X0289402Y0267335D01*
X0289442Y0267408D01*
X0289486Y0267480D01*
X0289533Y0267549D01*
X0289583Y0267617D01*
X0289636Y0267681D01*
X0289693Y0267743D01*
X0289752Y0267802D01*
X0289814Y0267859D01*
X0289878Y0267912D01*
X0289946Y0267962D01*
X0290015Y0268009D01*
X0290086Y0268053D01*
X0290160Y0268093D01*
X0290235Y0268130D01*
X0290313Y0268163D01*
X0290391Y0268192D01*
X0290471Y0268218D01*
X0290552Y0268239D01*
X0290634Y0268257D01*
X0290716Y0268271D01*
X0290800Y0268281D01*
X0290883Y0268287D01*
X0290967Y0268289D01*
X0291051Y0268287D01*
X0291134Y0268281D01*
X0291218Y0268271D01*
X0291300Y0268257D01*
X0291382Y0268239D01*
X0291463Y0268218D01*
X0291543Y0268192D01*
X0291621Y0268163D01*
X0291699Y0268130D01*
X0291774Y0268093D01*
X0291847Y0268053D01*
X0291919Y0268009D01*
X0291988Y0267962D01*
X0292056Y0267912D01*
X0292120Y0267859D01*
X0292182Y0267802D01*
X0292241Y0267743D01*
X0292298Y0267681D01*
X0292351Y0267617D01*
X0292401Y0267549D01*
X0292448Y0267480D01*
X0292492Y0267409D01*
X0292532Y0267335D01*
X0292569Y0267260D01*
X0292602Y0267182D01*
X0292631Y0267104D01*
X0292657Y0267024D01*
X0292678Y0266943D01*
X0292696Y0266861D01*
X0292710Y0266779D01*
X0292720Y0266695D01*
X0292726Y0266612D01*
X0292728Y0266528D01*
X0292726Y0266444D01*
X0292720Y0266361D01*
X0292710Y0266277D01*
X0292696Y0266195D01*
X0292678Y0266113D01*
X0292657Y0266032D01*
X0292631Y0265952D01*
X0292602Y0265874D01*
X0292569Y0265796D01*
X0292532Y0265721D01*
X0292492Y0265648D01*
X0292448Y0265576D01*
X0292401Y0265507D01*
X0292351Y0265439D01*
X0292298Y0265375D01*
X0292241Y0265313D01*
X0292182Y0265254D01*
X0292120Y0265197D01*
X0292056Y0265144D01*
X0291988Y0265094D01*
X0291919Y0265047D01*
X0291848Y0265003D01*
X0291774Y0264963D01*
X0291699Y0264926D01*
X0291621Y0264893D01*
X0291543Y0264864D01*
X0291463Y0264838D01*
X0291382Y0264817D01*
X0291300Y0264799D01*
X0291218Y0264785D01*
X0291134Y0264775D01*
X0291051Y0264769D01*
X0290967Y0264767D01*
X0290883Y0264769D01*
X0290800Y0264775D01*
X0290716Y0264785D01*
X0290634Y0264799D01*
X0290552Y0264817D01*
X0290471Y0264838D01*
X0290391Y0264864D01*
X0290313Y0264893D01*
X0290235Y0264926D01*
X0290160Y0264963D01*
X0290087Y0265003D01*
X0290015Y0265047D01*
X0289946Y0265094D01*
X0289878Y0265144D01*
X0289814Y0265197D01*
X0289752Y0265254D01*
X0289693Y0265313D01*
X0289636Y0265375D01*
X0289583Y0265439D01*
X0289533Y0265507D01*
X0289486Y0265576D01*
X0289442Y0265647D01*
X0289402Y0265721D01*
X0289365Y0265796D01*
X0289332Y0265874D01*
X0289303Y0265952D01*
X0289277Y0266032D01*
X0289256Y0266113D01*
X0289238Y0266195D01*
X0289224Y0266277D01*
X0289214Y0266361D01*
X0289208Y0266444D01*
X0289206Y0266528D01*
X0290298Y0135489D02*
X0290798Y0135489D01*
X0291299Y0134988D01*
X0291799Y0135489D01*
X0292300Y0135489D01*
X0292800Y0134988D01*
X0292800Y0133987D01*
X0292300Y0133487D01*
X0292300Y0132266D02*
X0292800Y0131765D01*
X0292800Y0130765D01*
X0292300Y0130264D01*
X0292800Y0129043D02*
X0291799Y0128042D01*
X0291799Y0128543D02*
X0291799Y0127041D01*
X0292800Y0127041D02*
X0289797Y0127041D01*
X0289797Y0128543D01*
X0290298Y0129043D01*
X0291299Y0129043D01*
X0291799Y0128543D01*
X0290298Y0130264D02*
X0289797Y0130765D01*
X0289797Y0131765D01*
X0290298Y0132266D01*
X0290798Y0132266D01*
X0291299Y0131765D01*
X0291799Y0132266D01*
X0292300Y0132266D01*
X0291299Y0131765D02*
X0291299Y0131265D01*
X0290298Y0133487D02*
X0289797Y0133987D01*
X0289797Y0134988D01*
X0290298Y0135489D01*
X0291299Y0134988D02*
X0291299Y0134488D01*
X0253330Y0119224D02*
X0252739Y0119224D01*
X0252739Y0048358D01*
X0253526Y0048358D01*
X0195574Y0101862D02*
X0192424Y0101862D01*
X0193999Y0103437D02*
X0193999Y0100287D01*
X0213526Y0111980D02*
X0235574Y0111980D01*
X0235574Y0135602D01*
X0213526Y0135602D01*
X0213526Y0111980D01*
X0216676Y0123791D02*
X0216678Y0123984D01*
X0216685Y0124177D01*
X0216697Y0124370D01*
X0216714Y0124563D01*
X0216735Y0124755D01*
X0216761Y0124946D01*
X0216792Y0125137D01*
X0216827Y0125327D01*
X0216867Y0125516D01*
X0216912Y0125704D01*
X0216961Y0125891D01*
X0217015Y0126077D01*
X0217073Y0126261D01*
X0217136Y0126444D01*
X0217204Y0126625D01*
X0217275Y0126804D01*
X0217352Y0126982D01*
X0217432Y0127158D01*
X0217517Y0127331D01*
X0217606Y0127503D01*
X0217699Y0127672D01*
X0217796Y0127839D01*
X0217898Y0128004D01*
X0218003Y0128166D01*
X0218112Y0128325D01*
X0218226Y0128482D01*
X0218343Y0128635D01*
X0218463Y0128786D01*
X0218588Y0128934D01*
X0218716Y0129079D01*
X0218847Y0129220D01*
X0218982Y0129359D01*
X0219121Y0129494D01*
X0219262Y0129625D01*
X0219407Y0129753D01*
X0219555Y0129878D01*
X0219706Y0129998D01*
X0219859Y0130115D01*
X0220016Y0130229D01*
X0220175Y0130338D01*
X0220337Y0130443D01*
X0220502Y0130545D01*
X0220669Y0130642D01*
X0220838Y0130735D01*
X0221010Y0130824D01*
X0221183Y0130909D01*
X0221359Y0130989D01*
X0221537Y0131066D01*
X0221716Y0131137D01*
X0221897Y0131205D01*
X0222080Y0131268D01*
X0222264Y0131326D01*
X0222450Y0131380D01*
X0222637Y0131429D01*
X0222825Y0131474D01*
X0223014Y0131514D01*
X0223204Y0131549D01*
X0223395Y0131580D01*
X0223586Y0131606D01*
X0223778Y0131627D01*
X0223971Y0131644D01*
X0224164Y0131656D01*
X0224357Y0131663D01*
X0224550Y0131665D01*
X0224743Y0131663D01*
X0224936Y0131656D01*
X0225129Y0131644D01*
X0225322Y0131627D01*
X0225514Y0131606D01*
X0225705Y0131580D01*
X0225896Y0131549D01*
X0226086Y0131514D01*
X0226275Y0131474D01*
X0226463Y0131429D01*
X0226650Y0131380D01*
X0226836Y0131326D01*
X0227020Y0131268D01*
X0227203Y0131205D01*
X0227384Y0131137D01*
X0227563Y0131066D01*
X0227741Y0130989D01*
X0227917Y0130909D01*
X0228090Y0130824D01*
X0228262Y0130735D01*
X0228431Y0130642D01*
X0228598Y0130545D01*
X0228763Y0130443D01*
X0228925Y0130338D01*
X0229084Y0130229D01*
X0229241Y0130115D01*
X0229394Y0129998D01*
X0229545Y0129878D01*
X0229693Y0129753D01*
X0229838Y0129625D01*
X0229979Y0129494D01*
X0230118Y0129359D01*
X0230253Y0129220D01*
X0230384Y0129079D01*
X0230512Y0128934D01*
X0230637Y0128786D01*
X0230757Y0128635D01*
X0230874Y0128482D01*
X0230988Y0128325D01*
X0231097Y0128166D01*
X0231202Y0128004D01*
X0231304Y0127839D01*
X0231401Y0127672D01*
X0231494Y0127503D01*
X0231583Y0127331D01*
X0231668Y0127158D01*
X0231748Y0126982D01*
X0231825Y0126804D01*
X0231896Y0126625D01*
X0231964Y0126444D01*
X0232027Y0126261D01*
X0232085Y0126077D01*
X0232139Y0125891D01*
X0232188Y0125704D01*
X0232233Y0125516D01*
X0232273Y0125327D01*
X0232308Y0125137D01*
X0232339Y0124946D01*
X0232365Y0124755D01*
X0232386Y0124563D01*
X0232403Y0124370D01*
X0232415Y0124177D01*
X0232422Y0123984D01*
X0232424Y0123791D01*
X0232422Y0123598D01*
X0232415Y0123405D01*
X0232403Y0123212D01*
X0232386Y0123019D01*
X0232365Y0122827D01*
X0232339Y0122636D01*
X0232308Y0122445D01*
X0232273Y0122255D01*
X0232233Y0122066D01*
X0232188Y0121878D01*
X0232139Y0121691D01*
X0232085Y0121505D01*
X0232027Y0121321D01*
X0231964Y0121138D01*
X0231896Y0120957D01*
X0231825Y0120778D01*
X0231748Y0120600D01*
X0231668Y0120424D01*
X0231583Y0120251D01*
X0231494Y0120079D01*
X0231401Y0119910D01*
X0231304Y0119743D01*
X0231202Y0119578D01*
X0231097Y0119416D01*
X0230988Y0119257D01*
X0230874Y0119100D01*
X0230757Y0118947D01*
X0230637Y0118796D01*
X0230512Y0118648D01*
X0230384Y0118503D01*
X0230253Y0118362D01*
X0230118Y0118223D01*
X0229979Y0118088D01*
X0229838Y0117957D01*
X0229693Y0117829D01*
X0229545Y0117704D01*
X0229394Y0117584D01*
X0229241Y0117467D01*
X0229084Y0117353D01*
X0228925Y0117244D01*
X0228763Y0117139D01*
X0228598Y0117037D01*
X0228431Y0116940D01*
X0228262Y0116847D01*
X0228090Y0116758D01*
X0227917Y0116673D01*
X0227741Y0116593D01*
X0227563Y0116516D01*
X0227384Y0116445D01*
X0227203Y0116377D01*
X0227020Y0116314D01*
X0226836Y0116256D01*
X0226650Y0116202D01*
X0226463Y0116153D01*
X0226275Y0116108D01*
X0226086Y0116068D01*
X0225896Y0116033D01*
X0225705Y0116002D01*
X0225514Y0115976D01*
X0225322Y0115955D01*
X0225129Y0115938D01*
X0224936Y0115926D01*
X0224743Y0115919D01*
X0224550Y0115917D01*
X0224357Y0115919D01*
X0224164Y0115926D01*
X0223971Y0115938D01*
X0223778Y0115955D01*
X0223586Y0115976D01*
X0223395Y0116002D01*
X0223204Y0116033D01*
X0223014Y0116068D01*
X0222825Y0116108D01*
X0222637Y0116153D01*
X0222450Y0116202D01*
X0222264Y0116256D01*
X0222080Y0116314D01*
X0221897Y0116377D01*
X0221716Y0116445D01*
X0221537Y0116516D01*
X0221359Y0116593D01*
X0221183Y0116673D01*
X0221010Y0116758D01*
X0220838Y0116847D01*
X0220669Y0116940D01*
X0220502Y0117037D01*
X0220337Y0117139D01*
X0220175Y0117244D01*
X0220016Y0117353D01*
X0219859Y0117467D01*
X0219706Y0117584D01*
X0219555Y0117704D01*
X0219407Y0117829D01*
X0219262Y0117957D01*
X0219121Y0118088D01*
X0218982Y0118223D01*
X0218847Y0118362D01*
X0218716Y0118503D01*
X0218588Y0118648D01*
X0218463Y0118796D01*
X0218343Y0118947D01*
X0218226Y0119100D01*
X0218112Y0119257D01*
X0218003Y0119416D01*
X0217898Y0119578D01*
X0217796Y0119743D01*
X0217699Y0119910D01*
X0217606Y0120079D01*
X0217517Y0120251D01*
X0217432Y0120424D01*
X0217352Y0120600D01*
X0217275Y0120778D01*
X0217204Y0120957D01*
X0217136Y0121138D01*
X0217073Y0121321D01*
X0217015Y0121505D01*
X0216961Y0121691D01*
X0216912Y0121878D01*
X0216867Y0122066D01*
X0216827Y0122255D01*
X0216792Y0122445D01*
X0216761Y0122636D01*
X0216735Y0122827D01*
X0216714Y0123019D01*
X0216697Y0123212D01*
X0216685Y0123405D01*
X0216678Y0123598D01*
X0216676Y0123791D01*
X0349786Y0119224D02*
X0376361Y0119224D01*
X0376361Y0048358D01*
X0349786Y0048358D01*
D17*
X0347149Y0123555D02*
X0347151Y0123598D01*
X0347157Y0123640D01*
X0347167Y0123682D01*
X0347180Y0123723D01*
X0347197Y0123763D01*
X0347218Y0123800D01*
X0347242Y0123836D01*
X0347269Y0123869D01*
X0347299Y0123900D01*
X0347332Y0123928D01*
X0347367Y0123953D01*
X0347404Y0123974D01*
X0347443Y0123992D01*
X0347483Y0124006D01*
X0347525Y0124017D01*
X0347567Y0124024D01*
X0347610Y0124027D01*
X0347653Y0124026D01*
X0347696Y0124021D01*
X0347738Y0124012D01*
X0347779Y0124000D01*
X0347819Y0123984D01*
X0347857Y0123964D01*
X0347893Y0123941D01*
X0347927Y0123914D01*
X0347959Y0123885D01*
X0347987Y0123853D01*
X0348013Y0123818D01*
X0348035Y0123782D01*
X0348054Y0123743D01*
X0348069Y0123703D01*
X0348081Y0123662D01*
X0348089Y0123619D01*
X0348093Y0123576D01*
X0348093Y0123534D01*
X0348089Y0123491D01*
X0348081Y0123448D01*
X0348069Y0123407D01*
X0348054Y0123367D01*
X0348035Y0123328D01*
X0348013Y0123292D01*
X0347987Y0123257D01*
X0347959Y0123225D01*
X0347927Y0123196D01*
X0347893Y0123169D01*
X0347857Y0123146D01*
X0347819Y0123126D01*
X0347779Y0123110D01*
X0347738Y0123098D01*
X0347696Y0123089D01*
X0347653Y0123084D01*
X0347610Y0123083D01*
X0347567Y0123086D01*
X0347525Y0123093D01*
X0347483Y0123104D01*
X0347443Y0123118D01*
X0347404Y0123136D01*
X0347367Y0123157D01*
X0347332Y0123182D01*
X0347299Y0123210D01*
X0347269Y0123241D01*
X0347242Y0123274D01*
X0347218Y0123310D01*
X0347197Y0123347D01*
X0347180Y0123387D01*
X0347167Y0123428D01*
X0347157Y0123470D01*
X0347151Y0123512D01*
X0347149Y0123555D01*
D18*
X0240574Y0066173D02*
X0240574Y0064205D01*
X0240574Y0066173D02*
X0230830Y0066173D01*
X0220987Y0066173D02*
X0207207Y0066173D01*
X0197365Y0066173D02*
X0193526Y0066173D01*
X0193526Y0028772D01*
X0232404Y0021291D02*
X0234373Y0021291D01*
X0240574Y0027197D02*
X0240574Y0042945D01*
X0240574Y0049638D02*
X0240574Y0057906D01*
X0179432Y0107374D02*
X0179154Y0107502D01*
X0178880Y0107638D01*
X0178609Y0107780D01*
X0178341Y0107928D01*
X0178078Y0108083D01*
X0177818Y0108245D01*
X0177562Y0108412D01*
X0177310Y0108586D01*
X0177063Y0108766D01*
X0176820Y0108953D01*
X0176582Y0109145D01*
X0176348Y0109342D01*
X0176119Y0109546D01*
X0175896Y0109755D01*
X0175678Y0109969D01*
X0175464Y0110188D01*
X0175257Y0110413D01*
X0175055Y0110643D01*
X0174858Y0110878D01*
X0174668Y0111117D01*
X0174483Y0111361D01*
X0174304Y0111609D01*
X0174132Y0111862D01*
X0173966Y0112119D01*
X0173806Y0112380D01*
X0173652Y0112644D01*
X0173505Y0112913D01*
X0173364Y0113184D01*
X0173231Y0113460D01*
X0173104Y0113738D01*
X0172984Y0114019D01*
X0172870Y0114304D01*
X0172764Y0114590D01*
X0172665Y0114880D01*
X0172573Y0115172D01*
X0172488Y0115466D01*
X0172410Y0115762D01*
X0172340Y0116059D01*
X0172277Y0116359D01*
X0172221Y0116660D01*
X0172172Y0116962D01*
X0172131Y0117265D01*
X0172098Y0117569D01*
X0172072Y0117874D01*
X0172053Y0118179D01*
X0172042Y0118485D01*
X0172038Y0118791D01*
X0172042Y0119097D01*
X0172053Y0119403D01*
X0172072Y0119708D01*
X0172098Y0120013D01*
X0172131Y0120317D01*
X0172172Y0120620D01*
X0172221Y0120922D01*
X0172277Y0121223D01*
X0172340Y0121523D01*
X0172410Y0121820D01*
X0172488Y0122116D01*
X0172573Y0122410D01*
X0172665Y0122702D01*
X0172764Y0122992D01*
X0172870Y0123278D01*
X0172984Y0123563D01*
X0173104Y0123844D01*
X0173231Y0124122D01*
X0173364Y0124398D01*
X0173505Y0124669D01*
X0173652Y0124938D01*
X0173806Y0125202D01*
X0173966Y0125463D01*
X0174132Y0125720D01*
X0174304Y0125973D01*
X0174483Y0126221D01*
X0174668Y0126465D01*
X0174858Y0126704D01*
X0175055Y0126939D01*
X0175257Y0127169D01*
X0175464Y0127394D01*
X0175678Y0127613D01*
X0175896Y0127827D01*
X0176119Y0128036D01*
X0176348Y0128240D01*
X0176582Y0128437D01*
X0176820Y0128629D01*
X0177063Y0128816D01*
X0177310Y0128996D01*
X0177562Y0129170D01*
X0177818Y0129337D01*
X0178078Y0129499D01*
X0178341Y0129654D01*
X0178609Y0129802D01*
X0178880Y0129944D01*
X0179154Y0130080D01*
X0179432Y0130208D01*
X0189668Y0130208D02*
X0189946Y0130080D01*
X0190220Y0129944D01*
X0190491Y0129802D01*
X0190759Y0129654D01*
X0191022Y0129499D01*
X0191282Y0129337D01*
X0191538Y0129170D01*
X0191790Y0128996D01*
X0192037Y0128816D01*
X0192280Y0128629D01*
X0192518Y0128437D01*
X0192752Y0128240D01*
X0192981Y0128036D01*
X0193204Y0127827D01*
X0193422Y0127613D01*
X0193636Y0127394D01*
X0193843Y0127169D01*
X0194045Y0126939D01*
X0194242Y0126704D01*
X0194432Y0126465D01*
X0194617Y0126221D01*
X0194796Y0125973D01*
X0194968Y0125720D01*
X0195134Y0125463D01*
X0195294Y0125202D01*
X0195448Y0124938D01*
X0195595Y0124669D01*
X0195736Y0124398D01*
X0195869Y0124122D01*
X0195996Y0123844D01*
X0196116Y0123563D01*
X0196230Y0123278D01*
X0196336Y0122992D01*
X0196435Y0122702D01*
X0196527Y0122410D01*
X0196612Y0122116D01*
X0196690Y0121820D01*
X0196760Y0121523D01*
X0196823Y0121223D01*
X0196879Y0120922D01*
X0196928Y0120620D01*
X0196969Y0120317D01*
X0197002Y0120013D01*
X0197028Y0119708D01*
X0197047Y0119403D01*
X0197058Y0119097D01*
X0197062Y0118791D01*
X0197058Y0118485D01*
X0197047Y0118179D01*
X0197028Y0117874D01*
X0197002Y0117569D01*
X0196969Y0117265D01*
X0196928Y0116962D01*
X0196879Y0116660D01*
X0196823Y0116359D01*
X0196760Y0116059D01*
X0196690Y0115762D01*
X0196612Y0115466D01*
X0196527Y0115172D01*
X0196435Y0114880D01*
X0196336Y0114590D01*
X0196230Y0114304D01*
X0196116Y0114019D01*
X0195996Y0113738D01*
X0195869Y0113460D01*
X0195736Y0113184D01*
X0195595Y0112913D01*
X0195448Y0112644D01*
X0195294Y0112380D01*
X0195134Y0112119D01*
X0194968Y0111862D01*
X0194796Y0111609D01*
X0194617Y0111361D01*
X0194432Y0111117D01*
X0194242Y0110878D01*
X0194045Y0110643D01*
X0193843Y0110413D01*
X0193636Y0110188D01*
X0193422Y0109969D01*
X0193204Y0109755D01*
X0192981Y0109546D01*
X0192752Y0109342D01*
X0192518Y0109145D01*
X0192280Y0108953D01*
X0192037Y0108766D01*
X0191790Y0108586D01*
X0191538Y0108412D01*
X0191282Y0108245D01*
X0191022Y0108083D01*
X0190759Y0107928D01*
X0190491Y0107780D01*
X0190220Y0107638D01*
X0189946Y0107502D01*
X0189668Y0107374D01*
X0068979Y0034102D02*
X0068979Y0027016D01*
X0068979Y0017567D02*
X0068979Y0016583D01*
X0060318Y0033709D02*
X0059137Y0033709D01*
X0044963Y0033709D02*
X0043782Y0033709D01*
X0035121Y0034102D02*
X0035121Y0027016D01*
X0035121Y0017567D02*
X0035121Y0016583D01*
X0309550Y0243791D02*
X0322050Y0231291D01*
X0329550Y0231291D01*
X0344550Y0231291D02*
X0352050Y0231291D01*
X0352050Y0281291D01*
X0344550Y0281291D01*
X0329550Y0281291D02*
X0322050Y0281291D01*
X0309550Y0268791D01*
X0309550Y0243791D01*
X0260967Y0266909D02*
X0260839Y0267187D01*
X0260703Y0267461D01*
X0260561Y0267732D01*
X0260413Y0268000D01*
X0260258Y0268263D01*
X0260096Y0268523D01*
X0259929Y0268779D01*
X0259755Y0269031D01*
X0259575Y0269278D01*
X0259388Y0269521D01*
X0259196Y0269759D01*
X0258999Y0269993D01*
X0258795Y0270222D01*
X0258586Y0270445D01*
X0258372Y0270663D01*
X0258153Y0270877D01*
X0257928Y0271084D01*
X0257698Y0271286D01*
X0257463Y0271483D01*
X0257224Y0271673D01*
X0256980Y0271858D01*
X0256732Y0272037D01*
X0256479Y0272209D01*
X0256222Y0272375D01*
X0255961Y0272535D01*
X0255697Y0272689D01*
X0255428Y0272836D01*
X0255157Y0272977D01*
X0254881Y0273110D01*
X0254603Y0273237D01*
X0254322Y0273357D01*
X0254037Y0273471D01*
X0253751Y0273577D01*
X0253461Y0273676D01*
X0253169Y0273768D01*
X0252875Y0273853D01*
X0252579Y0273931D01*
X0252282Y0274001D01*
X0251982Y0274064D01*
X0251681Y0274120D01*
X0251379Y0274169D01*
X0251076Y0274210D01*
X0250772Y0274243D01*
X0250467Y0274269D01*
X0250162Y0274288D01*
X0249856Y0274299D01*
X0249550Y0274303D01*
X0249244Y0274299D01*
X0248938Y0274288D01*
X0248633Y0274269D01*
X0248328Y0274243D01*
X0248024Y0274210D01*
X0247721Y0274169D01*
X0247419Y0274120D01*
X0247118Y0274064D01*
X0246818Y0274001D01*
X0246521Y0273931D01*
X0246225Y0273853D01*
X0245931Y0273768D01*
X0245639Y0273676D01*
X0245349Y0273577D01*
X0245063Y0273471D01*
X0244778Y0273357D01*
X0244497Y0273237D01*
X0244219Y0273110D01*
X0243943Y0272977D01*
X0243672Y0272836D01*
X0243403Y0272689D01*
X0243139Y0272535D01*
X0242878Y0272375D01*
X0242621Y0272209D01*
X0242368Y0272037D01*
X0242120Y0271858D01*
X0241876Y0271673D01*
X0241637Y0271483D01*
X0241402Y0271286D01*
X0241172Y0271084D01*
X0240947Y0270877D01*
X0240728Y0270663D01*
X0240514Y0270445D01*
X0240305Y0270222D01*
X0240101Y0269993D01*
X0239904Y0269759D01*
X0239712Y0269521D01*
X0239525Y0269278D01*
X0239345Y0269031D01*
X0239171Y0268779D01*
X0239004Y0268523D01*
X0238842Y0268263D01*
X0238687Y0268000D01*
X0238539Y0267732D01*
X0238397Y0267461D01*
X0238261Y0267187D01*
X0238133Y0266909D01*
X0238133Y0256673D02*
X0238261Y0256395D01*
X0238397Y0256121D01*
X0238539Y0255850D01*
X0238687Y0255582D01*
X0238842Y0255319D01*
X0239004Y0255059D01*
X0239171Y0254803D01*
X0239345Y0254551D01*
X0239525Y0254304D01*
X0239712Y0254061D01*
X0239904Y0253823D01*
X0240101Y0253589D01*
X0240305Y0253360D01*
X0240514Y0253137D01*
X0240728Y0252919D01*
X0240947Y0252705D01*
X0241172Y0252498D01*
X0241402Y0252296D01*
X0241637Y0252099D01*
X0241876Y0251909D01*
X0242120Y0251724D01*
X0242368Y0251545D01*
X0242621Y0251373D01*
X0242878Y0251207D01*
X0243139Y0251047D01*
X0243403Y0250893D01*
X0243672Y0250746D01*
X0243943Y0250605D01*
X0244219Y0250472D01*
X0244497Y0250345D01*
X0244778Y0250225D01*
X0245063Y0250111D01*
X0245349Y0250005D01*
X0245639Y0249906D01*
X0245931Y0249814D01*
X0246225Y0249729D01*
X0246521Y0249651D01*
X0246818Y0249581D01*
X0247118Y0249518D01*
X0247419Y0249462D01*
X0247721Y0249413D01*
X0248024Y0249372D01*
X0248328Y0249339D01*
X0248633Y0249313D01*
X0248938Y0249294D01*
X0249244Y0249283D01*
X0249550Y0249279D01*
X0249856Y0249283D01*
X0250162Y0249294D01*
X0250467Y0249313D01*
X0250772Y0249339D01*
X0251076Y0249372D01*
X0251379Y0249413D01*
X0251681Y0249462D01*
X0251982Y0249518D01*
X0252282Y0249581D01*
X0252579Y0249651D01*
X0252875Y0249729D01*
X0253169Y0249814D01*
X0253461Y0249906D01*
X0253751Y0250005D01*
X0254037Y0250111D01*
X0254322Y0250225D01*
X0254603Y0250345D01*
X0254881Y0250472D01*
X0255157Y0250605D01*
X0255428Y0250746D01*
X0255697Y0250893D01*
X0255961Y0251047D01*
X0256222Y0251207D01*
X0256479Y0251373D01*
X0256732Y0251545D01*
X0256980Y0251724D01*
X0257224Y0251909D01*
X0257463Y0252099D01*
X0257698Y0252296D01*
X0257928Y0252498D01*
X0258153Y0252705D01*
X0258372Y0252919D01*
X0258586Y0253137D01*
X0258795Y0253360D01*
X0258999Y0253589D01*
X0259196Y0253823D01*
X0259388Y0254061D01*
X0259575Y0254304D01*
X0259755Y0254551D01*
X0259929Y0254803D01*
X0260096Y0255059D01*
X0260258Y0255319D01*
X0260413Y0255582D01*
X0260561Y0255850D01*
X0260703Y0256121D01*
X0260839Y0256395D01*
X0260967Y0256673D01*
X0120318Y0284205D02*
X0118152Y0282039D01*
D19*
X0119430Y0270291D02*
X0119670Y0270291D01*
X0112170Y0270291D02*
X0111930Y0270291D01*
X0134430Y0288791D02*
X0134670Y0288791D01*
X0141930Y0288791D02*
X0142170Y0288791D01*
X0176930Y0303791D02*
X0177170Y0303791D01*
X0207050Y0291411D02*
X0207050Y0291171D01*
X0257050Y0280411D02*
X0257050Y0280171D01*
X0277050Y0275411D02*
X0277050Y0275171D01*
X0342050Y0136411D02*
X0342050Y0136171D01*
X0342050Y0128911D02*
X0342050Y0128671D01*
X0262170Y0131291D02*
X0261930Y0131291D01*
X0177170Y0083791D02*
X0176930Y0083791D01*
X0172050Y0096171D02*
X0172050Y0096411D01*
X0152170Y0083291D02*
X0151930Y0083291D01*
X0184550Y0051411D02*
X0184550Y0051171D01*
X0184550Y0043911D02*
X0184550Y0043671D01*
X0097170Y0076291D02*
X0096930Y0076291D01*
X0089670Y0091291D02*
X0089430Y0091291D01*
X0096930Y0116291D02*
X0097170Y0116291D01*
X0062050Y0118671D02*
X0062050Y0118911D01*
X0050550Y0073911D02*
X0050550Y0073671D01*
X0050550Y0066411D02*
X0050550Y0066171D01*
X0054430Y0048791D02*
X0054670Y0048791D01*
X0074430Y0061291D02*
X0074670Y0061291D01*
X0067050Y0243671D02*
X0067050Y0243911D01*
X0067050Y0263671D02*
X0067050Y0263911D01*
D20*
X0164550Y0107177D03*
X0122050Y0047906D03*
X0024550Y0102906D03*
D21*
X0024550Y0071291D03*
X0032050Y0071291D03*
X0079550Y0033791D03*
X0089550Y0033791D03*
X0087550Y0050291D03*
X0104550Y0061291D03*
X0112050Y0061291D03*
X0112050Y0076291D03*
X0104550Y0076291D03*
X0151050Y0113791D03*
X0151050Y0128791D03*
X0119550Y0116291D03*
X0112050Y0116291D03*
X0104550Y0116291D03*
X0254550Y0131291D03*
X0272050Y0131291D03*
X0287050Y0131291D03*
X0302050Y0131291D03*
X0312050Y0036291D03*
X0294550Y0026291D03*
X0287050Y0036291D03*
X0277050Y0036291D03*
X0272050Y0036291D03*
X0130550Y0270291D03*
D22*
X0072050Y0286291D03*
X0072050Y0296291D03*
X0042050Y0291291D03*
X0119550Y0171291D03*
X0139550Y0117791D03*
X0124550Y0101291D03*
X0124550Y0093791D03*
X0124550Y0086291D03*
X0054550Y0128791D03*
X0032050Y0128791D03*
X0032050Y0121291D03*
X0217050Y0076291D03*
X0222050Y0083791D03*
X0222050Y0091291D03*
X0272050Y0228791D03*
D23*
X0119432Y0280169D03*
D24*
X0158644Y0079854D03*
M02*
