%
M48
M72
T01C0.01570
T02C0.03622
T03C0.04000
T04C0.05118
T05C0.07874
T06C0.11024
T07C0.12598
T08C0.14000
%
T01
X55000Y22500
X26500Y35000
X102500Y21000
X45500Y45000
X30000Y46500
X56500Y72500
X66500Y72500
X200500Y43000
X51500Y102500
X345000Y38500
X314500Y73000
X275000Y96500
X343500Y125500
X192500Y14500
X205500Y12000
X224000Y43500
X236500Y12500
X182500Y9500
X207000Y111000
X39000Y112500
X73500Y275000
X127500Y282500
X113500Y275000
X140000Y263500
X56000Y245000
X310000Y240000
X270000Y222500
X266500Y259000
X122500Y251000
X238000Y111000
X265000Y121000
X66000Y205500
X244500Y10500
X313000Y3500
X345500Y3500
X345500Y26000
X91000Y205500
X78500Y205500
X66000Y195500
X102500Y199000
X77000Y184000
X88000Y173500
X99000Y162000
X110000Y151000
X113000Y188500
X123500Y178000
X120500Y37000
X147500Y150500
X167000Y150500
X185500Y150500
X203500Y150500
X218000Y143500
X236000Y143500
X250000Y139000
X271000Y131500
X251000Y154000
X240000Y165500
X229500Y176500
X213000Y176500
X195500Y176500
X178000Y176500
X160500Y176500
X143000Y176500
X3000Y3000
X25000Y3000
X3000Y29000
X3000Y54500
X3000Y78500
X3000Y103500
X3000Y131000
X3000Y155500
X3000Y179500
X3000Y201500
X3000Y225500
X3000Y250000
X3000Y275500
X3000Y297000
X31000Y294000
X41500Y297000
X58500Y297000
X74500Y297000
X91500Y297000
X109000Y297000
X127000Y297000
X144500Y297000
X162000Y297000
X175000Y295500
X202500Y295000
X223000Y295000
X242000Y295000
X260500Y295000
X278500Y295000
X300000Y295000
X321500Y295000
X346000Y295000
X346500Y275500
X346500Y202500
X334000Y202500
X347000Y185000
X347000Y168000
X347000Y151500
X347000Y136000
X53500Y205500
X38500Y205500
X58500Y186500
X39000Y186500
X24000Y196000
X24500Y211000
X24500Y241500
X27500Y254500
X40500Y258000
X64000Y159500
X47500Y159500
X71500Y119500
X19500Y159500
X14500Y138500
X18000Y119000
X41500Y284500
X61500Y284500
X53000Y258000
X35000Y236500
X70500Y232000
X85000Y251500
X113500Y263000
X55000Y227500
X95000Y240000
X127500Y240000
X195000Y232500
X224500Y232500
X267500Y197500
X292000Y216000
X293500Y172500
X197000Y63500
X210500Y89000
X222500Y107500
X31500Y95000
X345000Y82000
X345000Y96500
X312500Y43500
X292500Y86000
X275000Y63500
X290000Y43500
X330000Y41000
X275000Y78500
X262500Y78500
X242500Y92000
X257500Y41000
X241500Y72000
X272500Y47000
X131000Y186000
X149000Y186500
X131000Y199000
X178500Y200500
X191500Y190000
X167500Y186500
X149000Y199000
X150000Y260000
X165000Y280000
X195000Y268000
X183000Y268000
X72500Y35000
X87500Y66500
X95000Y51500
X100500Y82000
X104500Y82000
X100500Y78000
X104500Y78000
X130500Y77500
X102500Y109000
X114000Y109000
X95000Y109000
X102500Y37000
X108500Y37000
X160500Y77000
X173500Y75500
X161500Y58500
X146000Y74500
X149000Y125000
X20000Y174500
X60000Y172000
X80000Y141500
X85000Y228500
X118500Y228500
X146000Y218500
X123500Y218000
X131500Y121000
X119000Y49000
X81500Y84000
X15500Y81000
X82500Y106500
X90000Y91500
X157000Y102500
X104000Y125000
X132500Y47500
X82500Y9500
X63000Y56500
X345000Y53000
X345000Y68000
X149000Y57500
X177000Y50000
X174000Y31500
X182500Y125500
X192500Y78000
X155500Y40000
X233000Y263000
X253000Y238000
X262500Y269500
X303000Y11000
X300500Y26000
X294000Y19000
X175000Y120500
X175000Y102500
X43000Y20500
X46000Y28500
X96000Y45000
X85500Y45000
X39000Y78500
X48500Y78500
X250000Y10000
X15000Y39000
X250000Y4000
X11500Y35500
X217500Y134000
X217500Y117500
X227500Y130500
X227500Y117500
X39000Y73000
X48500Y73000
X138500Y47500
X150000Y47500
X141000Y95500
X142500Y60000
X87500Y139000
X87500Y125000
X340000Y95000
X342500Y132500
X242500Y267500
X172500Y275000
X127500Y272500
X280000Y242500
X127500Y267500
X165000Y267500
X338000Y137500
X335000Y90000
X277500Y237500
X197500Y125000
X197500Y146000
X210000Y262500
X203346Y269154
X333000Y125000
X282500Y125000
X60000Y192000
X214500Y22500
X231000Y22500
X210000Y27000
X127500Y37000
X127500Y27500
X187500Y232500
X47500Y256500
X47500Y270500
X187500Y200500
X162500Y125000
X162500Y141500
X202500Y172500
X202500Y190500
X155000Y125000
X155000Y141500
X237500Y226000
X331500Y140000
X317500Y140000
X265500Y140000
X245500Y134500
X245500Y108500
X204000Y18500
X256500Y18500
X260500Y47500
X250500Y57500
X270500Y57500
X260500Y67500
X231000Y28000
X220000Y27000
X225500Y37500
X243500Y37500
X197500Y15000
X258000Y10000
X312500Y220000
X275000Y220000
X222500Y224000
X218000Y228500
X157500Y228500
X330000Y173500
X342000Y185500
X305000Y197500
X312500Y205000
X320000Y25000
X322500Y52500
X320000Y90000
X299000Y202500
X299000Y213500
X322500Y113500
X310000Y190000
X321000Y201000
X326000Y119000
X326000Y95000
X110000Y202500
X100000Y207000
X197500Y200500
X315000Y95000
X319000Y110000
X292500Y95500
X292500Y115000
X167500Y200000
X67500Y85500
X60000Y85500
X114000Y37000
X114000Y27500
X70000Y110000
X78500Y101500
X132500Y57500
X119000Y57500
X126500Y150500
X126500Y125000
X114500Y76500
X114500Y90000
X117500Y125000
X117500Y137500
X137500Y125000
X137500Y237500
X137500Y153000
X137500Y195000
T02
X141142Y12500
X158858Y12500
T03
X227500Y275000
X237500Y275000
X247500Y275000
X257500Y275000
X267500Y275000
X277500Y275000
X287500Y275000
X297500Y275000
X307500Y275000
X317500Y275000
X40000Y218750
X50000Y218750
X60000Y218750
X70000Y218750
X80000Y218750
X90000Y218750
X100000Y218750
X110000Y218750
X192500Y285000
X202500Y285000
X212500Y285000
X220000Y255000
X210000Y255000
X200000Y255000
X190000Y255000
X175000Y255000
X165000Y255000
X155000Y255000
X145000Y255000
X257500Y217500
X247500Y217500
X237500Y217500
X227500Y217500
X217500Y217500
X207500Y217500
X197500Y217500
X187500Y217500
X177500Y217500
X167500Y217500
X157500Y217500
T04
X317250Y165000
X32750Y165000
X136220Y22539
X163780Y22539
T05
X335000Y266000
X335000Y214000
T06
X33250Y196000
T07
X15000Y15000
X335000Y15000
X15000Y285000
X335000Y285000
T08
X66250Y134000
X283750Y196000
M30
